<svg version="1.1" xmlns="http://www.w3.org/2000/svg" style="display: block;" viewBox="0 0 1515 2048" width="776" height="1049" preserveAspectRatio="none">
<defs>
	<linearGradient id="Gradient1" gradientUnits="userSpaceOnUse" x1="496.459" y1="1495.54" x2="467.28" y2="1460.2">
		<stop class="stop0" offset="0" stop-opacity="1" stop-color="rgb(27,16,10)"/>
		<stop class="stop1" offset="1" stop-opacity="1" stop-color="rgb(66,41,22)"/>
	</linearGradient>
</defs>
<path transform="translate(0,0)" fill="rgb(0,0,0)" d="M 667.356 0 L 682.801 0 L 684.161 0.23725 C 696.309 2.30094 708.297 2.35 721.226 4.18938 C 763.082 10.1439 807.011 26.5609 842.239 49.9788 C 847.966 53.7862 855.388 63.4735 860.224 67.3829 C 872.864 77.5986 881.664 80.7147 891.419 94.8478 C 907.138 117.623 907.278 131.26 910.516 156.74 C 912.544 172.702 916.791 186.89 916.887 204.777 C 917.046 221.744 913.375 230.408 920.377 246.341 C 931.371 271.357 958.514 301.415 956.784 329.136 C 955.694 346.594 927.421 351.662 914.186 353.947 C 911.715 459.273 879.684 499.418 773.132 470.098 C 761.418 496.185 765.641 502.408 783.905 521.883 C 834.253 575.568 875.177 642.438 884.964 716.451 C 886.31 726.631 892.246 738.843 892.643 749.525 C 892.765 783.876 892.277 818.435 878.595 850.435 C 877.957 851.927 877.143 869.3 876.923 872.397 C 875.818 887.154 874.798 901.917 873.865 916.686 C 871.992 947.265 868.29 952.372 886.269 980.703 C 898.43 974.694 909.087 968.063 920.855 961.566 L 1009.13 911.849 L 1174.81 818.958 C 1204.8 802.25 1236.12 785.992 1265.73 768.942 L 1372.91 708.268 C 1389.12 699.101 1405.33 686.063 1423.19 679.294 C 1446.14 670.591 1479.43 656.816 1503.49 664.962 C 1507.52 666.345 1511.38 668.183 1515 670.441 L 1515 710.878 C 1488.88 728.629 1473.08 721.782 1445.36 729.653 C 1432.53 734.71 1419.31 745.359 1408.91 753.904 C 1352.24 800.466 1331.78 866.165 1300.19 929.404 C 1257.2 1015.45 1189.83 1100.13 1109.67 1154.98 C 1093.53 1165.98 1077.22 1176.7 1060.72 1187.14 C 1054.18 1191.31 1041.44 1198.83 1035.52 1203.2 C 1039.17 1214.98 1044.27 1225.68 1037.86 1237.5 C 1030.05 1251.87 1015.14 1258.55 1001.23 1265.74 C 973.379 1280.14 944.74 1289.13 913.616 1291.9 C 917.261 1324.02 947.604 1526.69 938.86 1539.78 C 927.12 1545.84 887.806 1530.33 875.195 1525.28 C 866.441 1562.47 836.612 1843.79 849.769 1866.69 C 861.683 1887.43 926.787 1917.89 950.266 1926.78 C 966.517 1932.77 983.146 1937.68 1000.04 1941.49 C 1019.86 1946.11 1041.08 1947.31 1053.6 1966.18 C 1070.75 1992.05 1049.78 2019.72 1021.36 2021.02 C 997.356 2022.12 972.385 2021.56 948.104 2021.14 C 916.214 2020.7 884.321 2020.47 852.428 2020.47 C 844.119 2032.51 834.565 2044.04 819.064 2045.64 C 799.998 2047.61 774.961 2046.9 755.71 2046.99 C 702.189 2047.36 648.665 2047.1 595.15 2046.21 C 564.315 2045.82 532.934 2047.18 502.129 2044.91 C 480.526 2043.32 455.97 2024.75 453.129 2002.03 C 448.013 1961.1 480.545 1926.9 481.096 1886.64 C 483.939 1822.59 469.134 1764.23 464.964 1700.59 C 463.121 1672.46 466.319 1657.13 468.754 1630.72 C 453.303 1633.43 437.904 1635.96 422.328 1637.94 C 414.598 1638.92 402.02 1639.8 402.146 1628.42 C 402.285 1615.89 404.804 1602.47 406.666 1589.95 L 418.596 1510.92 C 420.178 1500.4 423.434 1483.93 423.956 1474.05 C 410.22 1473.82 396.396 1474.56 382.627 1474.7 C 341.561 1475.14 300.902 1471.13 259.895 1469.58 C 211.721 1467.66 163.417 1474.91 117.523 1489.5 C 105.933 1493.55 91.2331 1496.2 82.2658 1505.08 C 67.3227 1519.88 60.1062 1544.61 36.4428 1548.44 C 19.6494 1551.16 8.84786 1551.18 0 1534.99 L 0 1514.23 C 9.94969 1490.69 27.3929 1477.23 47.5807 1462.26 C 70.585 1444.98 102.982 1437.33 126.645 1423.11 C 206.121 1375.34 289.599 1333.51 369.325 1286.36 C 388.964 1239.15 412.307 1207.32 443.009 1167.33 C 443.575 1121.13 445.448 1102.76 462.043 1058.93 C 459.66 1055.65 457.321 1052.34 455.025 1049 C 434.464 1018.92 412.431 967.193 396.731 933.106 C 367.672 869.951 338.999 806.618 310.713 743.112 C 280.122 674.876 247.025 607.348 216.136 539.208 C 205.508 515.764 211.209 511.42 230.692 499.409 C 219.494 480.008 208.594 459.631 196.959 440.635 C 181.726 436.279 138.886 428.838 133.312 417.01 C 125.221 399.839 73.244 321.088 75.8217 306.773 C 88.1781 296.02 113.559 315.08 124.803 312.091 C 127.57 307.719 123.846 304.31 125.757 299.464 C 128.057 293.634 134.642 294.926 138.568 293.323 C 138.772 284.14 128.199 274.527 134.922 266.058 C 145.686 261.438 168.467 274.57 183.874 277.502 C 183.144 271.791 181.233 263.158 186.643 259.465 C 194.915 253.816 202.153 263.376 206.1 268.773 C 222.758 238.631 227.925 206.351 252.367 255.26 L 279.117 264.505 C 279.053 262.947 278.554 254.358 278.935 253.309 C 285.733 234.562 296.613 247.561 301.684 255.658 C 308.492 246.811 317.931 224.705 325.385 220.474 C 328.769 219.794 331.923 219.496 335.075 221.235 C 341.057 224.533 377.623 326.507 381.369 339.195 C 378.895 347.316 359.645 381.055 354.349 390.613 C 361.622 407.885 367.663 427.613 374.609 445.554 C 387.237 443.674 393.74 441.996 405.588 447.172 C 416.748 412.735 432.621 330.458 436.402 291.905 C 437.014 285.657 417.799 269.939 415.478 253.592 C 411.643 243.346 421.389 233.098 421.36 224.834 C 421.279 202.137 415.735 177.388 424.513 155.501 C 426.935 148.274 436.84 140.657 439.775 134.434 C 458.963 93.7453 469.239 74.2045 507.447 48.211 C 544.799 22.8003 580.019 8.29477 625.893 3.89181 C 637.996 2.73017 655.966 2.21972 667.356 0 z M 937.147 1085.52 C 938.998 1088.34 941.061 1091.68 943.11 1094.3 C 961.57 1097.92 974.153 1101.04 990.294 1112.04 C 994.752 1115.07 1002.82 1121.45 1006.6 1123.58 C 1016.35 1119.17 1025.99 1111.08 1035.26 1105.33 C 1047.78 1097.55 1060.75 1090.06 1072.53 1081.08 C 1090.37 1067.49 1114.23 1051.5 1130.09 1035.98 C 1171.66 995.313 1208.08 947.21 1237.34 897.054 C 1250.3 874.832 1260.87 850.343 1273.5 828.017 C 1281.57 813.895 1290.17 800.082 1299.29 786.607 C 1301.81 782.799 1312.03 769.417 1311.97 765.944 L 1310.32 764.853 L 894.626 999.259 C 897.764 1007.35 901.99 1015.47 906.166 1023.11 C 917.213 1043.32 926.038 1065.43 937.147 1085.52 z M 177.265 1417.4 C 185.228 1416.58 193.331 1415.92 201.27 1414.98 C 239.744 1410.41 278.492 1411.74 317.25 1411.81 C 360.327 1411.91 390.3 1411.09 433.179 1406.62 C 434.736 1383.14 439.635 1354.78 439.104 1331.66 L 437.931 1332.34 C 422.963 1341.09 367.811 1382.59 351.033 1378.85 C 335.83 1369.45 359.539 1320.77 355.93 1317.21 C 344.982 1320.65 329.813 1331.06 319.299 1337.02 L 246.013 1378.11 C 233.096 1385.36 220.132 1392.53 207.122 1399.62 C 198.13 1404.51 184.737 1410.96 177.265 1417.4 z M 672.602 1917.22 C 676.575 1918.9 676.016 1919.46 679.285 1918.59 C 694.049 1903.24 689.555 1842.89 686.018 1822.94 C 683.52 1808.85 671.526 1737.38 664.651 1730.7 C 654.41 1770.44 649.509 1813.37 644.203 1854.03 C 639.468 1890.32 643.029 1896.36 672.602 1917.22 z M 332.642 397.028 C 328.206 395.023 311.847 388.036 307.478 387.179 C 309.397 398.482 330.396 450.538 336.77 459.905 C 341.392 458.521 346.618 457.17 350.925 455.088 C 352.181 453.632 353.449 452.884 352.674 450.628 C 348.305 437.905 338.074 407.946 332.642 397.028 z M 276.763 379.702 C 271.989 387.085 269.271 392.912 265.018 400.071 C 269.971 411.216 294.21 467.396 300.089 471.647 L 304.1 471.627 C 307.596 470.069 311.719 468.344 315.089 466.659 C 312.164 458.191 278.58 381.34 276.763 379.702 z M 244.327 406.947 C 237.818 404.862 235.648 404.011 228.915 403.731 C 225.302 413.849 221.861 424.028 218.593 434.262 C 225.56 447.631 233.047 460.983 240.541 474.069 C 248.382 487.762 247.216 493.585 263.249 487.399 C 267.701 485.562 272.741 483.345 277.221 481.76 C 271.439 464.463 253.811 421.918 244.327 406.947 z"/>
<path transform="translate(0,0)" fill="rgb(120,71,45)" d="M 563.532 510.403 C 567.898 509.969 575.538 510.524 579.907 510.922 C 642.205 516.591 696.816 567.138 734.799 613.035 C 774.666 660.732 805.946 710.609 834.056 765.751 C 859.217 815.108 857.231 819.078 853.877 872.884 C 851.09 915.059 847.642 957.189 843.534 999.256 C 804.525 994.354 762.344 989.158 723.662 983.621 C 736.138 968.838 748.532 953.986 760.841 939.064 C 768.959 929.111 778.725 915.871 788.043 907.438 C 798.227 912.363 806.168 917.733 815.782 907.654 C 831.848 890.811 832.537 857.304 817.905 839.423 C 797.283 814.372 751.199 816.424 727.292 835.259 C 714.097 845.654 718.861 857.445 727.732 867.917 C 706.681 892.706 683.413 921.279 661.699 944.971 C 651.482 937.353 643.201 932.26 632.288 925.759 C 627.432 912.159 622.446 901.83 616.093 888.893 C 627.655 854.321 641.894 819.958 650.43 784.622 C 656.429 759.787 657.071 734.79 662.567 709.33 C 662.841 702.029 682.841 667.351 678.659 662.501 C 662.345 643.58 653.466 667.764 648.672 680.891 C 645.995 688.223 642.287 697.126 639.702 703.761 C 635.858 714.109 634.069 738.879 632.571 750.986 C 630.696 765.222 628.058 779.346 624.67 793.299 C 617.282 822.946 596.223 865.682 592.148 891.572 C 603.304 915.158 613.181 939.328 621.736 963.978 C 633.01 996.299 642.466 1028.41 652.961 1060.84 C 661.432 1087.01 669.725 1128.35 696.708 1140.48 C 722.59 1152.12 762.111 1159.4 767.912 1192.72 C 769.944 1204.4 762.981 1212.68 756.236 1221.01 C 757.024 1232.6 759.613 1242.1 761.98 1253.45 C 764.028 1263.26 760.63 1274.79 749.037 1275.85 C 740.066 1276.67 733.315 1272.26 724.595 1272.02 C 713.902 1271.73 703.543 1276.18 692.961 1277.34 C 675.981 1277.61 640.852 1282.49 627.697 1270.95 C 610.418 1255.79 603.38 1219.61 600.776 1197.29 C 599.584 1187.07 600.126 1167.53 596.138 1158.98 C 587.735 1140.94 575.165 1123.82 565.355 1106.05 C 527.727 1037.91 477.874 968.273 464.213 890.17 C 462.322 879.363 466.069 842.15 466.665 829.906 C 468.538 791.381 471.559 754.424 477.342 716.389 C 479.26 703.768 484.924 681.226 485.657 671.622 C 487.942 641.703 482.901 611.893 489.784 581.397 C 492.919 567.508 496.859 549.242 506.807 538.485 C 525.341 518.441 537.982 512.68 563.532 510.403 z"/>
<path transform="translate(0,0)" fill="rgb(235,169,88)" d="M 681.97 1080.76 C 702.189 1082.62 726.818 1085.35 746.958 1085.96 C 755.435 1087.15 767.674 1087.29 774.806 1088.67 C 800.823 1090.07 834.15 1092.75 859.663 1091.78 C 861.117 1099.84 862.343 1107.05 863.381 1115.19 C 866.562 1126.22 867.586 1140.24 870.447 1151.37 C 871.887 1156.95 873.66 1169.21 873.219 1174.92 C 875.919 1188.64 892.367 1290.06 890.226 1296.01 C 851.286 1404.23 762.351 1492 659.457 1541.32 C 645.916 1547.85 627.183 1557.7 613.005 1562.54 C 605.611 1565.01 598.539 1568.8 591.542 1572.28 C 585.702 1573.87 577.931 1576.94 572.206 1579.11 C 542.531 1590.38 512.334 1598.65 481.473 1606.02 C 463.298 1610.36 444.457 1616 425.718 1617.47 C 426.633 1600.78 431.152 1584.37 433.565 1567.9 C 445.932 1483.5 458.108 1399.95 462.355 1314.65 C 468.756 1310.08 474.704 1304.95 480.737 1299.9 C 483.301 1296.72 494.873 1286.54 498.503 1283.12 C 502.549 1278.03 512.205 1273.25 513.15 1268.04 C 534.853 1248.07 557.123 1220.86 576.243 1198.04 C 582.901 1237.1 592.247 1289.07 639.184 1296.38 C 669.312 1301.08 692.672 1299.88 721.97 1291.82 C 743.355 1298.61 767.317 1300.51 781.237 1278.31 C 791.163 1262.49 783.27 1244.68 779.037 1228.04 C 801.873 1204.62 789.662 1174.77 770.253 1153.99 C 762.968 1149.46 757.326 1145.47 749.599 1140.96 C 740.743 1136.19 725.419 1129.07 715.674 1128.09 C 691.177 1115.12 692.113 1105.36 681.97 1080.76 z"/>
<path transform="translate(0,0)" fill="rgb(56,36,19)" d="M 681.97 1080.76 C 702.189 1082.62 726.818 1085.35 746.958 1085.96 C 755.435 1087.15 767.674 1087.29 774.806 1088.67 L 771.115 1090.08 C 794.821 1101.87 781.599 1109.33 797.883 1122.27 C 789.993 1137.86 785.812 1145.86 770.253 1153.99 C 762.968 1149.46 757.326 1145.47 749.599 1140.96 C 740.743 1136.19 725.419 1129.07 715.674 1128.09 C 691.177 1115.12 692.113 1105.36 681.97 1080.76 z"/>
<path transform="translate(0,0)" fill="rgb(235,169,88)" d="M 681.97 1080.76 C 702.189 1082.62 726.818 1085.35 746.958 1085.96 C 747.737 1086.95 748.538 1087.6 748.677 1088.55 C 737.648 1091.29 720.95 1093.62 726.351 1109.33 C 724.928 1116.88 722.021 1120.28 719.953 1126.46 L 715.674 1128.09 C 691.177 1115.12 692.113 1105.36 681.97 1080.76 z"/>
<path transform="translate(0,0)" fill="rgb(193,132,57)" d="M 747.988 1115.86 C 759.94 1108.59 766.138 1102.83 773.878 1118.67 C 774.353 1119.64 774.806 1120.63 775.236 1121.63 C 769.064 1126.08 758.172 1135.65 753.472 1138.68 L 749.599 1140.96 C 740.743 1136.19 725.419 1129.07 715.674 1128.09 L 719.953 1126.46 C 722.021 1120.28 724.928 1116.88 726.351 1109.33 C 731.035 1112.23 742.189 1114.44 747.988 1115.86 z"/>
<path transform="translate(0,0)" fill="rgb(89,62,32)" d="M 719.953 1126.46 C 735.002 1124.45 747.008 1122.28 753.472 1138.68 L 749.599 1140.96 C 740.743 1136.19 725.419 1129.07 715.674 1128.09 L 719.953 1126.46 z"/>
<path transform="translate(0,0)" fill="rgb(89,62,32)" d="M 746.958 1085.96 C 755.435 1087.15 767.674 1087.29 774.806 1088.67 L 771.115 1090.08 C 763.05 1090.64 756.516 1090.44 748.677 1088.55 C 748.538 1087.6 747.737 1086.95 746.958 1085.96 z"/>
<path transform="translate(0,0)" fill="rgb(56,36,19)" d="M 873.219 1174.92 C 862.959 1186.25 841.584 1182.85 829.601 1175.39 C 806.832 1161.21 828.577 1081.49 857.505 1110.87 C 859.272 1113.15 860.303 1116.03 863.381 1115.19 C 866.562 1126.22 867.586 1140.24 870.447 1151.37 C 871.887 1156.95 873.66 1169.21 873.219 1174.92 z"/>
<path transform="translate(0,0)" fill="rgb(193,132,57)" d="M 857.505 1110.87 C 859.272 1113.15 860.303 1116.03 863.381 1115.19 C 866.562 1126.22 867.586 1140.24 870.447 1151.37 C 868.509 1156.1 860.133 1152.87 855.752 1155.84 C 852.197 1158.26 850.832 1162.24 846.737 1162.85 C 835.414 1156.87 842.33 1141.39 844.203 1132.34 C 846.716 1120.2 853.923 1120.49 857.505 1110.87 z"/>
<path transform="translate(0,0)" fill="rgb(56,36,19)" d="M 498.503 1283.12 C 502.549 1278.03 512.205 1273.25 513.15 1268.04 C 524.986 1279.85 536.545 1290.27 536.433 1308.16 C 536.385 1315.84 534.028 1322.54 528.459 1328.03 C 522.101 1334.41 513.4 1337.9 504.393 1337.69 C 495.488 1337.46 480.794 1333.91 480.037 1323.15 C 481.106 1319.56 481.472 1319.18 484.023 1316.41 C 483.289 1311.1 483.329 1303.46 480.737 1299.9 C 483.301 1296.72 494.873 1286.54 498.503 1283.12 z"/>
<path transform="translate(0,0)" fill="rgb(193,132,57)" d="M 498.503 1283.12 C 505.049 1289.73 514.8 1298.75 515.145 1308.58 C 510.289 1320.36 494.012 1311.95 484.023 1316.41 C 483.289 1311.1 483.329 1303.46 480.737 1299.9 C 483.301 1296.72 494.873 1286.54 498.503 1283.12 z"/>
<path transform="translate(0,0)" fill="rgb(193,132,57)" d="M 553.283 1549.76 C 567.726 1544.13 568.27 1527.19 580.711 1520.6 C 590.124 1515.61 600.038 1529.19 608.223 1531.76 C 607.688 1535.56 607.454 1536.83 607.632 1540.6 L 609.358 1542.28 C 620.305 1547.04 616.717 1553.33 613.005 1562.54 C 605.611 1565.01 598.539 1568.8 591.542 1572.28 L 590.009 1566.37 C 587.375 1566.98 584.727 1567.51 582.066 1567.98 C 566.78 1570.57 555.685 1566.76 553.283 1549.76 z"/>
<path transform="translate(0,0)" fill="rgb(56,36,19)" d="M 590.06 1555.36 C 596.415 1545.86 597.942 1543.74 609.358 1542.28 C 620.305 1547.04 616.717 1553.33 613.005 1562.54 C 605.611 1565.01 598.539 1568.8 591.542 1572.28 L 590.009 1566.37 C 589.919 1562.83 590.033 1558.93 590.06 1555.36 z"/>
<path transform="translate(0,0)" fill="rgb(56,36,19)" d="M 553.283 1549.76 C 544.953 1545.02 542.746 1538.24 545.922 1528.96 C 556.228 1498.81 599.846 1486.26 616.829 1517.94 C 620.493 1524.78 613.665 1529.31 608.223 1531.76 C 600.038 1529.19 590.124 1515.61 580.711 1520.6 C 568.27 1527.19 567.726 1544.13 553.283 1549.76 z"/>
<path transform="translate(0,0)" fill="rgb(193,132,57)" d="M 585.62 1359.82 C 557.544 1348.88 565.124 1311.4 598.501 1306.08 C 618.118 1302.96 667.922 1315.18 649.227 1341.63 L 651.776 1346.43 C 680.044 1359.57 638.778 1387.84 618.087 1374.07 C 617.428 1373.63 616.78 1373.17 616.142 1372.7 C 599.628 1374.53 597.623 1366.26 585.62 1359.82 z"/>
<path transform="translate(0,0)" fill="rgb(56,36,19)" d="M 585.62 1359.82 C 557.544 1348.88 565.124 1311.4 598.501 1306.08 C 618.118 1302.96 667.922 1315.18 649.227 1341.63 C 635.334 1342.5 632.395 1333.51 622.395 1326.98 C 617.156 1323.56 589.374 1322.3 591.157 1334.16 C 592.114 1341.82 599.286 1347.7 596.08 1355.36 C 592.572 1358.5 590.29 1359.05 585.62 1359.82 z"/>
<path transform="translate(0,0)" fill="rgb(56,36,19)" d="M 651.776 1346.43 C 680.044 1359.57 638.778 1387.84 618.087 1374.07 C 617.428 1373.63 616.78 1373.17 616.142 1372.7 C 613.97 1366.87 616.757 1363.65 619.556 1358.48 L 637.027 1357.36 C 642.652 1350.18 643.247 1349.31 651.776 1346.43 z"/>
<path transform="translate(0,0)" fill="rgb(193,132,57)" d="M 685.525 1417.26 C 659.437 1386.35 710.487 1357.18 726.689 1379.77 C 724.987 1386.45 724.318 1387.71 719.137 1392.81 C 724.685 1395.7 727.979 1397.04 734.296 1396.11 C 736.235 1395.16 739.721 1394.67 741.975 1394.22 C 750.88 1398.61 752.912 1401.56 756.885 1410.48 C 774.912 1450.94 707.45 1470.25 692.156 1440.16 C 691.791 1435.21 687.264 1422.6 685.525 1417.26 z"/>
<path transform="translate(0,0)" fill="rgb(56,36,19)" d="M 741.975 1394.22 C 750.88 1398.61 752.912 1401.56 756.885 1410.48 C 774.912 1450.94 707.45 1470.25 692.156 1440.16 C 695.83 1408.38 718.232 1449.04 736.086 1430.14 C 741.123 1418.5 725.128 1410.3 734.296 1396.11 C 736.235 1395.16 739.721 1394.67 741.975 1394.22 z"/>
<path transform="translate(0,0)" fill="rgb(56,36,19)" d="M 685.525 1417.26 C 659.437 1386.35 710.487 1357.18 726.689 1379.77 C 724.987 1386.45 724.318 1387.71 719.137 1392.81 C 710.573 1391.7 709.037 1392.36 701.486 1396.63 C 701.442 1408.64 702.221 1420.05 685.525 1417.26 z"/>
<path transform="translate(0,0)" fill="rgb(193,132,57)" d="M 506.802 1451.94 C 506.743 1447.4 506.521 1440.67 510.871 1437.65 C 530.973 1423.7 561.746 1477.18 529.57 1474.85 C 526.526 1476.51 523.999 1479.54 523.044 1482.88 C 549.759 1492.74 514.834 1518.29 486.111 1508.75 C 470.284 1503.81 458.352 1493.98 460.879 1475.21 C 462.459 1463.48 473.433 1446.86 487.479 1449.12 C 491.076 1449.7 493.396 1453.16 495.316 1456.1 C 498.487 1453.63 502.781 1452.97 506.802 1451.94 z"/>
<path transform="translate(0,0)" fill="url(#Gradient1)" d="M 486.111 1508.75 C 470.284 1503.81 458.352 1493.98 460.879 1475.21 C 462.459 1463.48 473.433 1446.86 487.479 1449.12 C 491.076 1449.7 493.396 1453.16 495.316 1456.1 L 495.011 1457.24 C 491.229 1470.97 472.647 1480.43 491.902 1489.84 C 490.459 1494.95 487.971 1502.79 487.394 1507.84 L 486.111 1508.75 z"/>
<path transform="translate(0,0)" fill="rgb(56,36,19)" d="M 506.802 1451.94 C 506.743 1447.4 506.521 1440.67 510.871 1437.65 C 530.973 1423.7 561.746 1477.18 529.57 1474.85 L 528.974 1474.42 C 521.293 1469.1 521.987 1466.76 520.106 1457.7 C 515.43 1456 510.978 1454.64 506.802 1451.94 z"/>
<path transform="translate(0,0)" fill="rgb(56,36,19)" d="M 523.044 1482.88 C 549.759 1492.74 514.834 1518.29 486.111 1508.75 L 487.394 1507.84 C 487.971 1502.79 490.459 1494.95 491.902 1489.84 C 511.621 1495.44 507.426 1486.13 523.044 1482.88 z"/>
<path transform="translate(0,0)" fill="rgb(56,36,19)" d="M 640.313 1437.41 C 657.036 1444.99 643.766 1461.59 633.765 1468.36 C 624.019 1475.05 611.972 1477.5 600.388 1475.14 C 584.248 1471.83 572.533 1454.03 576.78 1439.03 C 583.185 1416.41 610.234 1395.77 634.352 1402.8 C 642.253 1405.11 648.184 1411.35 645.949 1419.55 C 643.644 1423.09 640.872 1424.17 637.146 1426.28 C 637.182 1430.53 636.544 1434.61 640.313 1437.41 z"/>
<path transform="translate(0,0)" fill="rgb(193,132,57)" d="M 640.313 1437.41 L 639.508 1437.5 C 624.76 1439.03 622.621 1458.45 606.856 1456.18 C 585.009 1453.03 608.965 1417.39 623.011 1421.21 C 628.165 1422.61 631.149 1425.68 637.146 1426.28 C 637.182 1430.53 636.544 1434.61 640.313 1437.41 z"/>
<path transform="translate(0,0)" fill="rgb(56,36,19)" d="M 787.108 1373.83 C 781.083 1379.78 771.889 1385.4 765.183 1377.34 C 749.242 1357.86 759.356 1318.32 788.817 1319.89 C 810.472 1321.04 834.788 1343.4 834.228 1366.07 C 833.879 1380.2 815.411 1394.89 805.01 1382.48 C 804.213 1381.52 803.474 1380.52 802.795 1379.48 C 803.1 1372.7 792.742 1376.82 787.108 1373.83 z"/>
<path transform="translate(0,0)" fill="rgb(193,132,57)" d="M 787.108 1373.83 C 784.436 1369.01 781.752 1365.33 780.508 1360.18 C 772.181 1325.66 817.539 1344.37 812.456 1364.48 C 811.504 1368.25 804.507 1373.61 802.795 1379.48 C 803.1 1372.7 792.742 1376.82 787.108 1373.83 z"/>
<path transform="translate(0,0)" fill="rgb(56,36,19)" d="M 522.854 1406.11 C 510.441 1423.05 482.305 1402.36 483.537 1385.78 C 485.018 1365.86 509.596 1358.19 526.505 1359.78 C 540.526 1360.77 547.178 1365.14 556.596 1374.17 C 577.182 1393.89 552.293 1427.88 536.454 1403.35 L 535.835 1402.38 C 530.986 1402.8 527.84 1404.91 522.854 1406.11 z"/>
<path transform="translate(0,0)" fill="rgb(193,132,57)" d="M 522.854 1406.11 C 520.673 1395.68 512.973 1396.38 506.311 1388.42 L 506.604 1385.78 C 512.928 1375.41 538.342 1376.2 542.754 1388.27 C 544.73 1393.67 538.47 1397.12 535.835 1402.38 C 530.986 1402.8 527.84 1404.91 522.854 1406.11 z"/>
<path transform="translate(0,0)" fill="rgb(193,132,57)" d="M 818.491 1273.59 C 816.295 1272.11 812.1 1269.45 812.071 1266.71 C 811.939 1254.35 831.422 1242.55 841.159 1240.73 C 848.756 1239.23 856.632 1240.92 862.953 1245.39 C 872.167 1251.77 884.297 1268.73 870.154 1276.61 C 867.737 1281.72 867.064 1289.64 866.358 1295.33 C 864.446 1309.31 848.246 1311.17 836.372 1309.85 C 829.952 1309.13 826.803 1305.16 824.436 1299.42 C 822.851 1297.08 821.393 1294.66 820.068 1292.16 C 816.22 1284.98 816.213 1281.01 818.491 1273.59 z"/>
<path transform="translate(0,0)" fill="rgb(56,36,19)" d="M 818.491 1273.59 C 816.295 1272.11 812.1 1269.45 812.071 1266.71 C 811.939 1254.35 831.422 1242.55 841.159 1240.73 C 848.756 1239.23 856.632 1240.92 862.953 1245.39 C 872.167 1251.77 884.297 1268.73 870.154 1276.61 C 845.237 1278.59 856.067 1265.17 847.003 1260.23 C 834.969 1260.03 831.163 1275.23 818.491 1273.59 z"/>
<path transform="translate(0,0)" fill="rgb(56,36,19)" d="M 824.436 1299.42 C 830.129 1290.53 844.59 1286.07 854.918 1287.26 C 860.585 1287.91 863.134 1291.18 866.358 1295.33 C 864.446 1309.31 848.246 1311.17 836.372 1309.85 C 829.952 1309.13 826.803 1305.16 824.436 1299.42 z"/>
<path transform="translate(0,0)" fill="rgb(56,36,19)" d="M 452.171 1563.93 C 431.598 1554.68 445.237 1540.89 460.024 1536.88 C 470.124 1534.79 482.746 1536.24 491.604 1541.61 C 499.663 1546.5 500.887 1552.21 503.37 1559.83 C 509.444 1578.46 476.956 1619.91 465.84 1586.6 C 450.193 1589.93 451.21 1574.25 452.171 1563.93 z"/>
<path transform="translate(0,0)" fill="rgb(193,132,57)" d="M 452.171 1563.93 L 453.411 1563.93 C 464.125 1563.81 471.307 1551.79 478.946 1558.96 C 489.847 1569.18 470.443 1578.43 465.84 1586.6 C 450.193 1589.93 451.21 1574.25 452.171 1563.93 z"/>
<path transform="translate(0,0)" fill="rgb(56,36,19)" d="M 697.368 1315.33 C 703.787 1315.03 730.061 1313.4 732.457 1315.98 C 747.354 1332.01 717.254 1336.12 713.229 1336.88 C 712.066 1337.04 711.515 1337.34 710.397 1337.76 C 704.616 1359.64 681.039 1343.41 688.124 1324.77 C 690.299 1319.05 692.375 1318.01 697.368 1315.33 z"/>
<path transform="translate(0,0)" fill="rgb(56,36,19)" d="M 674.187 1477.25 C 682.647 1476.49 693.877 1476.32 698.95 1484.68 C 701.125 1495.72 688.99 1496.78 682.177 1496.71 C 681.332 1496.71 679.528 1502.75 679.096 1503.96 C 674.865 1505.99 666.558 1509.04 662.087 1506.88 C 652.349 1502.19 659.22 1487.2 665.034 1481.82 C 667.452 1479.59 671.105 1478.38 674.187 1477.25 z"/>
<path transform="translate(0,0)" fill="rgb(56,36,19)" d="M 562.219 1245.79 C 566.6 1245.66 568.83 1245.92 572.376 1248.45 C 575.321 1252.43 574.612 1255.87 575.724 1260.36 C 578.749 1272.58 583.797 1272.27 572.377 1281.36 C 566.132 1280.99 561.114 1279.02 557.177 1273.93 C 553.842 1269.66 552.455 1264.18 553.357 1258.84 C 554.511 1251.79 556.961 1249.57 562.219 1245.79 z"/>
<path transform="translate(0,0)" fill="rgb(56,36,19)" d="M 822.491 1199.21 C 848.967 1198.46 831.805 1223.98 819.97 1225.8 C 814.242 1225.81 804.967 1224.41 805.782 1216.83 C 806.633 1208.91 816.61 1203.22 822.491 1199.21 z"/>
<path transform="translate(0,0)" fill="rgb(193,132,57)" d="M 726.689 1379.77 C 727.905 1388.47 733.039 1394.05 741.975 1394.22 C 739.721 1394.67 736.235 1395.16 734.296 1396.11 C 727.979 1397.04 724.685 1395.7 719.137 1392.81 C 724.318 1387.71 724.987 1386.45 726.689 1379.77 z"/>
<path transform="translate(0,0)" fill="rgb(120,71,45)" d="M 679.043 1554.12 C 680.499 1556.01 675.803 1568.61 674.836 1572.81 C 658.371 1642.08 643.997 1711.83 631.731 1781.96 C 628.029 1803.71 613.438 1887.6 625.533 1901.82 C 668.111 1948.5 741.695 1976.77 802.66 1989.53 C 829.749 1995.2 847.897 2015.05 810.202 2026.96 C 809.301 2027.25 782.665 2026.63 779.379 2026.66 L 671.5 2027 L 568.133 2026.03 C 546.997 2025.99 522.459 2026.89 501.615 2024.74 C 494.586 2024.01 484.448 2016.4 480.409 2010.12 C 464.092 1982.01 495.357 1942.6 499.836 1915.33 C 512.792 1836.43 488.83 1757.99 487.28 1679.23 C 486.913 1660.62 491.003 1641.59 494.534 1623.62 C 564.198 1605.45 614.81 1588.53 679.043 1554.12 z"/>
<path transform="translate(0,0)" fill="rgb(120,71,45)" d="M 790.29 1479.62 C 793.345 1480.79 810.089 1492.85 814.894 1495.5 C 827.326 1502.35 839.726 1508.51 852.388 1514.89 C 840.887 1603.8 830.239 1694.73 825.934 1784.25 C 825.105 1801.49 820.285 1867.32 831.441 1879.03 C 864.238 1913.48 913.708 1933.67 958.105 1950.24 C 976.529 1957.12 1014.34 1963.05 1032.17 1973.26 C 1056.44 2004.27 1001.09 2001.02 993.448 2000.93 L 942.25 2000.32 L 852.96 2000.15 C 848.421 1993.65 842.303 1984.36 835.553 1980.28 C 819.226 1970.42 798.676 1969.53 781.421 1964.27 C 755.929 1956.49 721.489 1943.99 698.927 1930.37 C 702.476 1920.94 711.336 1897.81 712.077 1888.32 C 716.299 1834.15 700.159 1775.98 687.905 1723.55 C 684.055 1707.08 678.258 1685.56 677.857 1669.3 C 677.604 1659.06 683.267 1636.19 685.753 1625.4 C 692.382 1596.61 699.421 1566.56 707.841 1538.29 C 716.186 1532.37 729.254 1525.1 738.354 1519.19 C 756.63 1507.31 773.99 1494.08 790.29 1479.62 z"/>
<path transform="translate(0,0)" fill="rgb(120,71,45)" d="M 881.066 161.355 L 885.507 160.954 C 898.783 169.619 890.724 229.225 894.428 241.611 C 903.665 272.501 928.461 293.436 935.631 326.659 C 900.202 345.596 890.77 317.272 890.634 373.944 C 881.411 374.278 842.646 374.334 837.977 379.841 C 819.728 401.364 877.998 391.228 888.386 391.131 C 883.746 420.666 877.027 456.489 841.08 458.003 C 794.367 459.971 744.316 444.814 703.763 422.202 C 689.896 414.47 686.279 391.402 669.418 393.682 C 662.579 398.247 664.98 407.517 668.521 413.617 C 684.865 441.765 721.838 453.821 750.992 463.088 C 748.361 472.026 740.664 496.335 744.796 504.932 C 754.887 525.928 775.509 543.425 789.921 562.047 C 799.491 574.412 806.654 584.008 814.753 597.526 C 822.502 609.965 829.154 620.708 834.965 634.154 C 815.83 606.871 803.592 593.258 782.342 569.233 C 739.532 520.832 711.465 496.562 654.418 466.775 C 653.889 462.785 653.22 459.012 652.385 455.079 C 644.81 419.405 637.121 385.797 635.882 349.177 L 636.494 349.168 C 646.504 348.942 666.232 347.716 665.42 333.728 C 658.379 321.691 648.813 331.197 642.734 331.729 C 606.533 334.894 584.08 280.342 600.654 254.484 C 605.448 247.011 613.017 241.75 621.692 239.861 C 654.33 232.952 647.208 268.076 676.535 267.219 C 698.986 266.563 705.516 243.348 714.152 226.647 C 720.164 215.159 726.295 203.733 732.543 192.371 C 784.057 179.65 827.877 168.999 881.066 161.355 z"/>
<path transform="translate(0,0)" fill="rgb(0,0,0)" d="M 816.456 200.394 C 826.243 199.144 873.573 201.301 873.313 214.651 C 872.961 232.708 840.851 220.275 831.072 219.407 C 825.086 218.875 819.887 218.929 813.837 219.096 C 800.639 220.939 790.137 224.737 777.714 229.337 C 770.906 231.858 765.184 231.682 761.711 224.288 C 762.366 209.7 804.626 201.397 816.456 200.394 z"/>
<path transform="translate(0,0)" fill="rgb(0,0,0)" d="M 823.233 234.029 C 847.222 231.899 851.919 250.867 848.043 269.902 C 843.736 275.506 841.231 277.915 834.857 280.782 C 822.756 283.424 818.674 280.071 810.72 271.949 C 805.476 254.979 807.266 243.895 823.233 234.029 z"/>
<path transform="translate(0,0)" fill="rgb(116,81,49)" d="M 429.33 596.473 C 411.621 666.91 431.662 741.741 442.592 811.303 C 443.98 820.137 442.129 840.306 441.16 849.63 C 438.203 878.094 438.376 903.284 449.204 930.323 C 452.347 938.222 454.324 946.759 458.293 954.877 C 452.519 955.704 438.459 957.364 433.714 958.68 C 431.842 953.265 421.522 933.395 418.568 927.119 L 383.777 852.594 C 351.221 781.968 319.95 709.062 286.419 639.004 C 303.764 632.088 324.39 625.996 342.229 619.342 C 360.926 612.369 382.182 603.738 401.065 598.346 C 405.632 601.64 408.705 603.307 413.675 605.998 C 418.897 603.715 424.506 599.686 429.33 596.473 z"/>
<path transform="translate(0,0)" fill="rgb(199,121,75)" d="M 372.806 1349.57 L 371.084 1349.38 C 369.859 1345.22 376.441 1327.38 378.093 1322.39 C 406.301 1237.23 473.442 1159.28 530.696 1091.43 C 536.972 1101.97 544.512 1113.32 549.675 1124.28 C 551.375 1127.55 553.506 1131.97 555.47 1134.96 C 562.478 1145.31 569.227 1155.83 575.709 1166.51 C 568.497 1174.54 561.771 1183.68 554.533 1191.98 C 511.28 1241.61 466.984 1292.24 410.503 1327.29 C 401.163 1333.09 383.068 1345.59 372.806 1349.57 z"/>
<path transform="translate(0,0)" fill="rgb(235,169,88)" d="M 372.806 1349.57 L 371.084 1349.38 C 369.859 1345.22 376.441 1327.38 378.093 1322.39 C 406.301 1237.23 473.442 1159.28 530.696 1091.43 C 536.972 1101.97 544.512 1113.32 549.675 1124.28 L 548.725 1125.14 C 546.221 1127.37 540.629 1130.51 538.959 1132.65 C 518.795 1158.52 435.356 1253.69 427.145 1277.03 C 426.115 1282.43 379.557 1336.74 372.806 1349.57 z"/>
<path transform="translate(0,0)" fill="rgb(120,71,45)" d="M 549.675 1124.28 C 551.375 1127.55 553.506 1131.97 555.47 1134.96 C 552.022 1139.12 550.353 1146.54 548.529 1148.31 C 528.738 1167.56 450.226 1273.37 430.391 1280.06 C 427.684 1279.01 428.841 1279.86 427.145 1277.03 C 435.356 1253.69 518.795 1158.52 538.959 1132.65 C 540.629 1130.51 546.221 1127.37 548.725 1125.14 L 549.675 1124.28 z"/>
<path transform="translate(0,0)" fill="rgb(167,139,103)" d="M 802.576 51.0623 C 813.317 53.3884 829.637 68.1463 838.554 75.5779 C 834.983 77.206 830.209 78.7525 826.449 80.0397 C 790.362 92.393 755.492 106.684 720.46 121.777 C 631.142 160.811 545.613 207.997 464.96 262.736 C 459.906 266.412 454.733 269.921 449.449 273.256 C 444.808 266.658 441.115 259.671 438.31 252.01 C 434.891 243.877 440.544 238.991 446.563 234.086 C 460.6 222.65 476.518 212.541 491.775 202.834 C 554.971 161.818 621.02 125.377 689.417 93.7884 C 723.935 77.9091 765.74 60.5051 802.576 51.0623 z"/>
<path transform="translate(0,0)" fill="rgb(116,81,49)" d="M 1408.57 709.854 L 1410.22 710.071 C 1413.92 712.615 1417.04 717.527 1419.78 721.285 C 1324.15 781.695 1311.21 869.926 1257.08 962.499 C 1211.51 1039.32 1149.07 1104.77 1074.48 1153.91 L 1069.14 1147.32 C 1062.82 1138.74 1056.1 1129.14 1048.97 1121.36 C 1064.03 1113.66 1077.38 1103.16 1091.15 1093.65 C 1157.06 1047.97 1214.49 981.009 1253.94 911.045 C 1298.97 831.186 1325.52 760.134 1408.57 709.854 z"/>
<path transform="translate(0,0)" fill="rgb(167,139,103)" d="M 652.663 21.4176 C 659.858 20.6413 671.609 20.9015 679.022 20.9586 C 716.55 21.2475 740.623 26.3914 775.026 39.6102 C 746.517 48.9148 718.441 59.4947 690.881 71.3178 C 669.528 80.6257 650.889 92.7873 627.566 96.3537 C 608.329 99.2953 588.847 103.012 569.771 106.896 C 536.92 113.972 498.857 123.939 466.353 129.783 C 470.743 117.925 482.687 100.446 491.464 90.7748 C 533.228 44.7561 592.604 25.6064 652.663 21.4176 z"/>
<path transform="translate(0,0)" fill="rgb(167,139,103)" d="M 459.868 292.782 C 482.352 271.602 509.517 258.948 538.918 250.465 C 536.514 262.131 533.076 273.305 530.922 285.698 C 526.063 313.659 522.329 339.406 514.857 367.195 C 509.051 388.788 497.947 415.561 491.325 437.413 C 491.657 438.601 491.936 439.602 492.164 440.415 C 494.906 443.502 496.395 443.883 500.159 445.453 C 501.912 444.935 506.889 444.155 508.928 443.775 L 511.452 440.76 C 517.052 451.765 507.454 455.221 509.901 461.725 L 495.619 466.273 L 494.607 467.134 C 470.368 475.338 433.532 500.301 412.908 514.91 C 431.991 439.159 447.65 369.962 459.868 292.782 z"/>
<path transform="translate(0,0)" fill="rgb(116,81,49)" d="M 511.452 440.76 C 517.052 451.765 507.454 455.221 509.901 461.725 L 495.619 466.273 L 494.607 467.134 C 491.48 459.091 492.223 455.333 497.279 448.606 C 498.296 447.253 498.289 449.559 500.159 445.453 C 501.912 444.935 506.889 444.155 508.928 443.775 L 511.452 440.76 z"/>
<path transform="translate(0,0)" fill="rgb(89,62,32)" d="M 511.452 440.76 C 517.052 451.765 507.454 455.221 509.901 461.725 L 495.619 466.273 C 496.439 465.154 497.666 464.01 498.833 463.215 C 503.465 460.057 510.29 449.303 508.928 443.775 L 511.452 440.76 z"/>
<path transform="translate(0,0)" fill="rgb(116,81,49)" d="M 561.327 472.418 C 566.503 471.533 578.947 472.369 584.778 472.791 C 668.34 478.83 727.583 537.31 779.411 598.334 C 809.957 634.3 855.693 698.277 870.445 744.375 C 873.083 752.62 870.419 777.953 869.589 788.113 C 861.999 775.293 851.18 751.071 843.642 736.746 C 823.728 698.901 805.207 669.585 779.88 635.42 C 698.903 527.496 572.271 422.394 452.15 545.642 C 441.216 556.86 429.21 573.791 415.813 581.461 L 414.66 582.114 C 408.483 569.561 406.14 558.105 404.538 544.309 C 465.009 507.765 484.294 479.192 561.327 472.418 z"/>
<path transform="translate(0,0)" fill="rgb(167,139,103)" d="M 562.434 241.171 L 590.791 232.494 C 585.258 238.11 580.99 242.346 577.259 249.449 C 560.514 281.326 580.051 327.827 611.209 343.321 C 614.781 376.638 619.833 408.722 626.446 441.58 C 627.72 447.91 628.873 454.352 629.732 460.753 C 588.31 450.782 551.241 450.223 509.901 461.725 C 507.454 455.221 517.052 451.765 511.452 440.76 C 524.105 417.432 536.557 369.327 542.678 342.725 C 546.334 326.836 549.054 303.492 552.502 286.43 C 554.951 274.316 561.222 252.039 562.434 241.171 z"/>
<path transform="translate(0,0)" fill="rgb(151,93,49)" d="M 385.164 462.972 C 385.721 462.93 387.72 463.209 388.362 463.283 C 394.163 467.252 395.884 470.454 398.96 476.474 C 396.044 497.217 387.525 521.46 383.018 543.362 C 372.151 545.756 348.914 554.695 337.809 558.772 C 312.74 568.058 287.596 577.139 262.378 586.014 L 257.578 576.309 C 252.543 565.349 234.514 529.686 235.44 519.586 C 244.292 512.958 294.199 496.657 307.719 491.784 C 333.601 482.362 359.417 472.758 385.164 462.972 z"/>
<path transform="translate(0,0)" fill="rgb(235,215,180)" d="M 896.483 1339.75 C 899.82 1345.07 916.579 1500.25 918.125 1517.4 C 895.888 1512.13 875.147 1502.6 854.559 1492.99 C 838.355 1485.43 819.964 1475.4 806.033 1464.16 C 836.698 1432.03 863.428 1399.13 885.083 1360.16 C 888.87 1353.35 892.486 1346.43 896.483 1339.75 z"/>
<path transform="translate(0,0)" fill="rgb(167,139,103)" d="M 853.324 90.9982 C 870.163 88.2427 882.61 127.194 886.355 139.95 C 847.009 147.465 809.197 153.535 769.693 162.188 C 716.707 173.883 664.313 188.112 612.69 204.826 C 605.338 207.905 590.262 212.863 582.596 214.985 C 593.431 204.986 634.522 184.902 648.738 177.731 C 715.239 144.186 782.537 114.474 853.324 90.9982 z"/>
<path transform="translate(0,0)" fill="rgb(120,71,45)" d="M 884.156 1033.5 C 894.487 1041.25 911.035 1094.05 924.549 1107.22 C 941.571 1123.81 966.699 1106.24 995.858 1148.25 C 997.575 1167.13 990.7 1189.2 973.875 1201.01 C 969.918 1203.78 964.548 1202.94 960.077 1201.6 C 946.836 1190.56 969.306 1164.02 956.671 1154.13 C 941.065 1150.35 936.515 1166.08 933.191 1176.97 C 922.813 1181.4 909.386 1184.74 898.318 1187.86 C 895.78 1165.96 892.688 1144.12 889.045 1122.37 C 887.756 1114.54 883.331 1093.06 883.234 1086.18 C 883.004 1069.85 883.995 1050.36 884.156 1033.5 z"/>
<path transform="translate(0,0)" fill="rgb(116,81,49)" d="M 419.366 1427.4 C 421.599 1426.97 427.438 1426.85 429.983 1426.72 C 427.382 1435.52 427.072 1444.88 426.613 1454 C 380.721 1454.81 335.78 1454.35 289.922 1451.03 C 225.366 1446.36 155.046 1451.91 94.5127 1475.98 L 86.1418 1479.36 C 84.45 1475.76 82.9064 1471.19 81.4979 1467.4 C 184.407 1413.63 307.244 1437.21 419.366 1427.4 z"/>
<path transform="translate(0,0)" fill="rgb(235,215,180)" d="M 754.198 1007.31 C 767.903 1008.05 850.186 1016.96 858.345 1025.61 C 863.334 1030.91 860.153 1064.54 859.984 1072.92 C 839.238 1073.09 802.971 1070.25 781.753 1068.79 C 771.093 1068.02 694.313 1064.16 691.528 1060.4 C 694.632 1055.56 701.414 1049.09 705.615 1044.78 C 711.832 1050.23 719.813 1059.6 728.608 1056.82 C 741.887 1052.69 752.391 1040.54 759.825 1029.27 C 765.498 1020.67 755.224 1013.13 754.198 1007.31 z"/>
<path transform="translate(0,0)" fill="rgb(89,62,32)" d="M 788.813 1019.7 C 794.269 1021.3 803.643 1028.9 808.414 1032.61 C 813.349 1036.45 829.766 1045.4 831.841 1049.81 C 830.531 1053.68 830.84 1052.54 827.332 1055.61 C 812.101 1056.41 787.227 1042.08 784.452 1026.53 C 784.856 1023.04 786.144 1022.36 788.813 1019.7 z"/>
<path transform="translate(0,0)" fill="rgb(120,71,45)" d="M 932.76 1198.12 C 936.559 1204.37 935.732 1209.49 942.809 1214.7 C 968.552 1233.65 988.628 1218.43 1005.26 1198.92 C 1015.09 1208.64 1016.51 1213.47 1019.56 1227.04 C 1010.9 1236.41 1002.26 1240.66 991.29 1246.94 C 962.324 1262.58 944.438 1270.04 911.369 1271.1 L 903.767 1209.15 C 911.48 1205.58 924.114 1201.57 932.76 1198.12 z"/>
<path transform="translate(0,0)" fill="rgb(167,139,103)" d="M 577.415 125.258 C 577.9 125.199 579.874 125.367 580.444 125.404 C 579.088 127.374 563.623 136.017 560.517 137.81 C 521.169 160.523 483.299 184.166 445.349 209.153 L 443.555 209.658 L 442.368 208.077 C 441.595 187.402 439.128 173.778 449.16 155.655 C 458.198 151.821 479.369 146.957 489.698 144.466 C 518.828 137.574 548.071 131.17 577.415 125.258 z"/>
<path transform="translate(0,0)" fill="rgb(116,81,49)" d="M 746.572 878.009 C 753.301 882.528 765.09 889.918 769.768 896.136 C 748.77 918.265 725.977 953.073 704.626 973.586 C 696.304 966.881 689.933 962.475 680.798 957.137 C 685.692 948.532 697.986 934.748 704.68 926.841 C 718.528 910.464 732.492 894.187 746.572 878.009 z"/>
<path transform="translate(0,0)" fill="rgb(193,132,57)" d="M 383.861 560.162 C 386.678 563.633 389.8 578.27 391.043 583.319 L 279.737 623.468 C 275.481 616.463 272.488 609.43 269.691 601.761 C 304.848 590.573 349.27 573.378 383.861 560.162 z"/>
<path transform="translate(0,0)" fill="rgb(199,121,75)" d="M 740.784 849.585 C 752.568 841.258 766.404 836.411 780.979 839.101 C 789.712 840.73 797.425 845.8 802.383 853.171 C 808.564 862.346 812.162 881.754 802.178 889.816 C 799.104 892.298 795.497 890.436 792.199 889.146 C 781.621 889.698 778.039 889.253 769.768 896.136 C 765.09 889.918 753.301 882.528 746.572 878.009 C 750.215 871.198 750.305 869.793 750.292 862.409 C 746.267 857.578 744.046 854.898 740.784 849.585 z"/>
<path transform="translate(0,0)" fill="rgb(56,36,19)" d="M 750.292 862.409 C 763.761 871.621 778.246 879.713 792.199 889.146 C 781.621 889.698 778.039 889.253 769.768 896.136 C 765.09 889.918 753.301 882.528 746.572 878.009 C 750.215 871.198 750.305 869.793 750.292 862.409 z"/>
<path transform="translate(0,0)" fill="rgb(235,169,88)" d="M 232.682 263.773 C 238.199 270.607 250.668 303.555 255.012 313.499 C 259.517 323.812 264.599 334.862 269.647 345.35 C 265.322 356.337 260.204 368.571 253.753 378.407 C 253.532 378.236 218.121 297.865 217.236 293.65 C 215.737 286.502 228.596 270.113 232.682 263.773 z"/>
<path transform="translate(0,0)" fill="rgb(235,169,88)" d="M 327.773 252.759 C 331.305 255.974 356.833 328.842 359.547 338.034 C 354.685 347.057 348.168 359.98 342.631 368.203 C 338.25 358.328 331.526 337.869 327.59 327.19 C 322.953 314.608 312.266 289.049 310.298 277.241 C 316.722 270.819 320.765 260.874 327.773 252.759 z"/>
<path transform="translate(0,0)" fill="rgb(235,169,88)" d="M 160.755 289.466 C 172.352 291.507 181.94 296.782 194.41 298.711 C 198.818 306.176 208.369 327.288 212.342 336 C 218.32 349.108 229.934 371.817 234.299 384.798 C 228.204 383.591 206.228 375.938 200.555 373.643 C 188.346 345.286 174.263 317.233 160.755 289.466 z"/>
<path transform="translate(0,0)" fill="rgb(235,169,88)" d="M 106.172 326.631 L 139.795 335.001 C 151.193 353.908 175.602 397.911 184.601 417.316 C 176.643 416.606 159.637 410.844 151.781 408.276 C 149.673 405.329 147.667 401.746 145.852 398.579 C 132.383 375.063 118.131 350.933 106.172 326.631 z"/>
<path transform="translate(0,0)" fill="rgb(199,121,75)" d="M 643.663 956.669 C 645.682 957.332 647.638 958.171 649.511 959.176 C 652.725 960.895 666.223 969.765 668.668 971.809 C 679.253 980.654 734.079 1012.17 737.15 1022.3 C 736.618 1026.23 735.191 1027.58 732.864 1030.8 C 730.889 1032.66 728.518 1034.53 726.412 1036.28 C 717.815 1028.84 707.185 1023.13 697.757 1016.81 C 682.905 1006.85 667.661 996.986 653.358 986.274 C 650.461 976.022 646.147 967.824 643.663 956.669 z"/>
<path transform="translate(0,0)" fill="rgb(235,169,88)" d="M 263.017 278 L 290.514 287.552 C 294.507 300.012 322.429 365.414 320.738 372.578 L 318.743 372.447 C 311.943 370.304 294.136 363.918 289.552 359.324 C 288.424 355.531 289.288 351.414 289.71 347.531 C 290.958 336.027 267.323 293.962 263.017 278 z"/>
<path transform="translate(0,0)" fill="rgb(120,71,45)" d="M 475.276 551.054 C 475.179 550.317 466.059 583.717 465.196 589.267 C 459.819 623.826 468.267 657.873 457.377 691.349 C 455.716 696.455 453.984 711.802 451.576 715.324 L 450.53 714.642 C 447.358 694.421 445.951 673.962 446.323 653.497 C 447.118 622.532 451.724 573.384 475.276 551.054 z"/>
<path transform="translate(0,0)" fill="rgb(235,169,88)" d="M 486.6 1056.75 C 495.559 1057.71 502.63 1058.54 511.515 1060.22 C 524.181 1072.94 515.109 1077.75 505.998 1088.98 C 498.719 1097.96 490.907 1106.73 483.471 1115.6 C 477.535 1123.18 474.072 1127.73 466.686 1134.02 C 468.333 1100.55 477.743 1086.37 486.6 1056.75 z"/>
<path transform="translate(0,0)" fill="rgb(151,93,49)" d="M 458.293 954.877 C 478.114 991.873 471.095 999.744 470.659 1036.63 C 462.823 1022.07 438.417 972.747 433.714 958.68 C 438.459 957.364 452.519 955.704 458.293 954.877 z"/>
<path transform="translate(0,0)" fill="rgb(167,139,103)" d="M 695.802 201.228 C 698.845 200.685 698.77 200.544 701.638 201.443 C 700.716 207.036 681.187 244.075 677.115 249.373 C 671.572 243.418 667.464 238.092 661.41 231.956 C 651.472 225.234 646.095 223.096 635.099 219.012 C 650.726 213.596 680.185 205 695.802 201.228 z"/>
<path transform="translate(0,0)" fill="rgb(235,169,88)" d="M 1029.26 1132.75 C 1034.13 1135.21 1051.56 1160.86 1055.64 1166.91 C 1048.45 1170.67 1041.42 1174.73 1034.58 1179.08 L 1024.18 1185.6 L 1016.23 1177.43 C 1020.63 1163.17 1021.01 1155.58 1016.31 1141.92 C 1020.64 1139.32 1025.16 1135.8 1029.26 1132.75 z"/>
<path transform="translate(0,0)" fill="rgb(116,81,49)" d="M 1484.43 682.313 C 1491.88 681.366 1499.73 681.653 1504.2 688.491 C 1505.41 702.151 1459.14 706.49 1448.21 708.027 L 1438.77 709.071 C 1435.49 706.114 1432.37 702.623 1429.33 699.389 C 1443.68 692.225 1468.6 684.491 1484.43 682.313 z"/>
<path transform="translate(0,0)" fill="rgb(151,93,49)" d="M 59.1728 1478.54 C 61.5682 1478.74 60.3909 1478.42 62.6262 1480.08 C 64.8059 1484.48 64.7025 1488.15 65.0367 1493.04 C 56.6601 1502.3 51.8687 1511.52 44.4812 1521.34 C 39.6035 1527.82 35.4796 1528.94 27.8081 1529.57 C 25.6062 1529.32 24.7776 1529.03 22.6706 1528.45 C 13.6971 1514.81 48.5835 1486.4 59.1728 1478.54 z"/>
<path transform="translate(0,0)" fill="rgb(199,121,75)" d="M 663.749 1017.69 C 669.982 1019.85 683.94 1030.44 689.668 1034.68 L 683.289 1040.84 C 680.073 1043.79 676.667 1046.73 673.395 1049.64 C 669.825 1040.4 666.518 1027.46 663.749 1017.69 z"/>
<path transform="translate(0,0)" fill="rgb(235,215,180)" d="M 196.486 393.109 C 199.696 393.553 204.964 394.973 208.276 395.755 L 206.844 408.68 L 205.516 408.746 C 201.297 406.293 198.453 397.778 196.486 393.109 z"/>
<path transform="translate(0,0)" fill="rgb(167,139,103)" d="M 867.138 995.807 C 869.863 998.593 871.799 1005.38 872.935 1009.13 C 869.26 1007.83 868.644 1007.9 866.556 1004.87 C 865.657 1001.15 866.329 999.542 867.138 995.807 z"/>
</svg>