<?xml version="1.0" encoding="UTF-8"?>
<svg version="1.1" xmlns="http://www.w3.org/2000/svg" width="712" height="498">
<path d="M0 0 C1.0307666 0.33949173 2.0615332 0.67898346 3.12353516 1.02876282 C6.39814486 2.10979155 9.66780299 3.20499482 12.9375 4.30078125 C15.09994797 5.01721981 17.26270635 5.73272215 19.42578125 6.44726562 C23.63347592 7.8385621 27.83745409 9.24034042 32.0390625 10.64990234 C35.79551111 11.90768003 39.5589066 13.13606463 43.3359375 14.33056641 C44.5736792 14.72705132 44.5736792 14.72705132 45.83642578 15.13154602 C47.34504476 15.61361284 48.85627056 16.08763844 50.37060547 16.55143738 C55.29793624 18.13927925 58.95442763 20.2184846 62.27685547 24.23071289 C64.95110973 26.45716127 68.19039156 26.95500725 71.5078125 27.734375 C72.63955399 28.0134243 72.63955399 28.0134243 73.79415894 28.29811096 C76.21462876 28.89231398 78.63838086 29.47166735 81.0625 30.05078125 C82.639557 30.43589163 84.21638267 30.82195064 85.79296875 31.20898438 C93.23980704 33.03038153 100.69949942 34.79586492 108.1640625 36.54296875 C117.81108617 38.80141419 127.43149751 41.16727862 137.05307007 43.53140259 C140.25274906 44.31679731 143.45306899 45.0995313 146.65356445 45.8815918 C155.93362902 48.15048536 165.2124399 50.42245884 174.47573853 52.75901794 C177.89503737 53.62077232 181.31634058 54.47438895 184.73791504 55.32705688 C186.31654459 55.72300592 187.8941292 56.12314705 189.47058105 56.52767944 C191.63805888 57.0836484 193.80864832 57.62535102 195.98046875 58.1640625 C197.18727295 58.46997314 198.39407715 58.77588379 199.63745117 59.09106445 C204.14108716 59.80374311 207.52257092 59.14781001 211.75 57.55078125 C219.27013521 55.33897678 226.1682136 56.88055617 233.5 59.11328125 C234.31791016 59.35175781 235.13582031 59.59023437 235.97851562 59.8359375 C237.96801089 60.41766126 239.95324189 61.01393684 241.9375 61.61328125 C242.09605469 60.99324219 242.25460937 60.37320313 242.41796875 59.734375 C243.92288438 54.02234717 245.57565421 48.36375037 247.375 42.73828125 C247.76558594 41.50335938 248.15617187 40.2684375 248.55859375 38.99609375 C250.01976594 35.41146168 251.15708818 33.30489555 253.9375 30.61328125 C256.75853773 30.10752835 258.98469503 29.93119439 261.80639648 29.96972656 C262.60672113 29.96082649 263.40704578 29.95192642 264.2316227 29.94275665 C266.92435834 29.91877564 269.61579086 29.93032062 272.30859375 29.94140625 C274.24557268 29.93109867 276.18254068 29.9185273 278.11949158 29.90386963 C282.31817114 29.87681794 286.51650501 29.86543152 290.715271 29.8659668 C297.45636081 29.8666497 304.19702318 29.83335939 310.93798828 29.79492188 C319.33481871 29.74938324 327.73160898 29.71237339 336.12852097 29.6857605 C358.77408409 29.61334278 381.4183386 29.41548194 404.06304169 29.21203518 C412.7781478 29.13408756 421.49329429 29.06457258 430.20849609 28.99829102 C450.90960663 28.83756721 471.60805263 28.66168952 492.30576324 28.24152756 C494.92579606 28.18860436 497.54586283 28.13795451 500.16595459 28.08804321 C507.16895486 27.95345024 514.17117058 27.81399553 521.17285824 27.62182903 C523.22984513 27.56814294 525.28679252 27.52325453 527.34407043 27.4823761 C529.7782767 27.43341582 532.21225284 27.36952376 534.64555359 27.28703308 C536.2181469 27.26132988 536.2181469 27.26132988 537.82250977 27.23510742 C538.72203873 27.21147629 539.62156769 27.18784515 540.5483551 27.16349792 C543.77150546 27.77029213 544.9664031 29.04339399 546.9375 31.61328125 C546.77475759 36.65792175 545.24139199 41.18295297 543.63671875 45.94140625 C543.28805252 46.98301659 543.28805252 46.98301659 542.93234253 48.04566956 C542.1691451 50.32024694 541.39721938 52.59175262 540.625 54.86328125 C540.08737717 56.45908301 539.55019339 58.05503276 539.01342773 59.65112305 C534.73756935 72.34251984 530.40092703 85.01381743 526.03588867 97.67480469 C523.71755657 104.40024296 521.41295157 111.12990502 519.15234375 117.875 C518.75007568 119.07471436 518.34780762 120.27442871 517.93334961 121.51049805 C517.1744263 123.87508651 516.49491569 126.19655007 515.9375 128.61328125 C515.27083333 131.27994792 514.60416667 133.94661458 513.9375 136.61328125 C514.9275 136.36578125 514.9275 136.36578125 515.9375 136.11328125 C522.80029602 134.96948191 528.33642989 135.72726122 534.9375 137.61328125 C535.47375 136.72640625 536.01 135.83953125 536.5625 134.92578125 C539.32750592 130.80269822 542.550155 127.40906292 547.375 125.80078125 C548.220625 125.73890625 549.06625 125.67703125 549.9375 125.61328125 C551.030625 125.51015625 552.12375 125.40703125 553.25 125.30078125 C559.29019142 125.81266188 563.23704146 128.17158814 567.8125 132.05078125 C571.36330157 136.65367217 571.38188992 143.0240097 571.9375 148.61328125 C572.54223145 148.7740918 573.14696289 148.93490234 573.77001953 149.10058594 C576.53738266 149.84342398 579.29983046 150.6031817 582.0625 151.36328125 C583.01382813 151.6159375 583.96515625 151.86859375 584.9453125 152.12890625 C593.0661338 154.38468994 598.56179463 156.82332466 602.8359375 164.37890625 C609.69247288 178.28648866 608.14137198 194.0692561 603.5 208.45703125 C600.76974647 216.12707337 596.90380259 222.99947356 590.9375 228.61328125 C596.29664819 230.69485009 601.6229737 232.45958136 607.171875 233.953125 C608.31079193 234.26546837 608.31079193 234.26546837 609.47271729 234.5841217 C611.87669346 235.24321826 614.28192258 235.89755508 616.6875 236.55078125 C646.25165929 244.58452019 646.25165929 244.58452019 648.9375 248.61328125 C648.63655182 252.81255815 646.90328428 255.63975147 644.625 259.11328125 C643.73361328 260.49 643.73361328 260.49 642.82421875 261.89453125 C637.63157252 269.37710222 631.18742389 275.72554168 621.9375 277.61328125 C613.26328395 278.4633781 605.46571089 276.20891272 597.1875 273.86328125 C595.9190625 273.51523437 594.650625 273.1671875 593.34375 272.80859375 C584.85809372 270.47070886 576.39727034 268.04297176 567.9375 265.61328125 C568.3927002 266.29302002 568.84790039 266.97275879 569.31689453 267.6730957 C587.9375 295.71059972 587.9375 295.71059972 587.9375 308.61328125 C599.95418854 310.95707829 611.97672029 313.26310464 624.01953125 315.46875 C624.87613342 315.62573868 625.7327356 315.78272736 626.61529541 315.94447327 C630.90194865 316.72941201 635.18916051 317.51115468 639.47705078 318.28930664 C641.06674142 318.57953702 642.65642283 318.86981788 644.24609375 319.16015625 C645.34604424 319.35831184 645.34604424 319.35831184 646.46821594 319.56047058 C649.3782666 320.09350512 652.12607513 320.67613963 654.9375 321.61328125 C654.9375 339.10328125 654.9375 356.59328125 654.9375 374.61328125 C641.43534772 373.48810189 641.43534772 373.48810189 636.84936523 372.78125 C635.81887558 372.62438721 634.78838593 372.46752441 633.72666931 372.3059082 C632.66057938 372.13921631 631.59448944 371.97252441 630.49609375 371.80078125 C629.3659938 371.62699951 628.23589386 371.45321777 627.07154846 371.27416992 C624.70746714 370.90969873 622.34369423 370.5432217 619.98022461 370.17480469 C616.35413695 369.61003177 612.72697287 369.05260735 609.09960938 368.49609375 C606.79420433 368.13975288 604.48886338 367.78299707 602.18359375 367.42578125 C600.55713173 367.17574341 600.55713173 367.17574341 598.89781189 366.9206543 C597.89569168 366.7637915 596.89357147 366.60692871 595.86108398 366.4453125 C594.98016586 366.30843018 594.09924774 366.17154785 593.19163513 366.03051758 C590.9375 365.61328125 590.9375 365.61328125 587.9375 364.61328125 C587.83308594 365.74765625 587.72867188 366.88203125 587.62109375 368.05078125 C585.2602285 386.67583955 574.10253367 404.66766481 560.9375 417.61328125 C560.0609375 418.47695313 559.184375 419.340625 558.28125 420.23046875 C543.61583154 434.11318229 525.45699518 441.97780253 505.1953125 441.87890625 C504.30568817 441.8808197 503.41606384 441.88273315 502.4994812 441.88470459 C500.63230097 441.88605514 498.76511098 441.88243845 496.89794922 441.87402344 C494.0762774 441.86333345 491.25524583 441.87394442 488.43359375 441.88671875 C461.77161684 441.90951116 441.0487201 434.58791133 421.9375 415.61328125 C408.46492611 400.89899548 395.9375 379.09415983 395.9375 358.61328125 C372.1775 358.94328125 348.4175 359.27328125 323.9375 359.61328125 C322.6175 364.56328125 321.2975 369.51328125 319.9375 374.61328125 C318.89514977 377.46091405 317.8816675 380.13068685 316.625 382.86328125 C316.32650146 383.52602051 316.02800293 384.18875977 315.72045898 384.87158203 C312.97623599 390.80888651 309.73811539 396.28578107 305.9375 401.61328125 C305.08285156 402.85464844 305.08285156 402.85464844 304.2109375 404.12109375 C296.81325685 414.16305174 286.84316828 421.47271971 275.8125 427.11328125 C275.20470703 427.4273291 274.59691406 427.74137695 273.97070312 428.06494141 C262.05976035 433.79763172 250.07525195 434.1169441 237.11230469 434.05932617 C234.20695536 434.05083809 231.30359271 434.07962212 228.3984375 434.11132812 C207.51939553 434.19133213 189.95413197 429.78506556 173.9375 415.61328125 C173.06480469 414.84628906 172.19210938 414.07929688 171.29296875 413.2890625 C151.67634127 394.93448378 141.63820564 367.72987146 140.71875 341.2265625 C140.10874302 313.65194491 146.47708662 285.92594735 164.9375 264.61328125 C165.57945312 263.81664062 166.22140625 263.02 166.8828125 262.19921875 C178.67641522 248.14263691 194.68328181 239.08630575 212.9375 236.61328125 C216.81868549 236.40252015 220.67722387 236.42084655 224.5625 236.48828125 C225.56667969 236.49730469 226.57085937 236.50632812 227.60546875 236.515625 C230.04974126 236.53890379 232.49348408 236.57159638 234.9375 236.61328125 C231.24135522 230.8450553 227.75337953 226.43864985 220.9375 224.61328125 C217.1627156 224.27749613 213.467727 224.41113007 209.6875 224.61328125 C199.74149061 225.13675543 199.74149061 225.13675543 196.26171875 222.87109375 C194.772852 220.33255398 194.53925607 219.35866298 195 216.48828125 C195.185625 215.32039063 195.185625 215.32039063 195.375 214.12890625 C196.16142914 210.61182037 197.18197689 207.19691552 198.31640625 203.77734375 C199.07543335 201.50792115 199.07543335 201.50792115 198.9375 198.61328125 C199.2437434 197.27346639 199.57201555 195.93816238 199.9375 194.61328125 C200.5975 194.61328125 201.2575 194.61328125 201.9375 194.61328125 C202.2778125 192.69515625 202.2778125 192.69515625 202.625 190.73828125 C203.67463408 185.45968665 205.06039965 180.29584249 206.5 175.11328125 C206.72196045 174.31164551 206.9439209 173.51000977 207.17260742 172.68408203 C208.80532141 166.87763843 208.80532141 166.87763843 209.9375 164.61328125 C209.17566406 164.50371094 208.41382813 164.39414063 207.62890625 164.28125 C201.12176273 163.28202571 195.07425002 161.99917864 188.9375 159.61328125 C188.15246094 159.32582031 187.36742187 159.03835937 186.55859375 158.7421875 C180.25258191 156.23848263 177.36668611 153.37851971 173.6875 147.67578125 C171.70890527 142.23464573 171.8802785 137.01383177 172.6875 131.36328125 C172.92726562 129.56117188 172.92726562 129.56117188 173.171875 127.72265625 C173.97583686 124.45758665 174.35761593 123.6070249 176.9375 121.61328125 C179.19921875 121.1015625 179.19921875 121.1015625 181.625 120.92578125 C182.43324219 120.86003906 183.24148437 120.79429687 184.07421875 120.7265625 C184.68910156 120.68917969 185.30398437 120.65179688 185.9375 120.61328125 C178.99009186 118.60374502 172.0421947 116.59590594 165.09399414 114.58911133 C162.74265083 113.90979178 160.39140967 113.2301185 158.0402832 112.55004883 C143.54759115 108.35830681 129.04302162 104.21360694 114.51147461 100.15844727 C113.14005814 99.77379807 113.14005814 99.77379807 111.74093628 99.38137817 C109.77069087 98.84156229 107.79471743 98.32243399 105.81497192 97.818573 C104.31436722 97.43259445 104.31436722 97.43259445 102.78344727 97.03881836 C101.87756363 96.81238144 100.97167999 96.58594452 100.03834534 96.35264587 C97.9375 95.61328125 97.9375 95.61328125 96.9375 93.61328125 C94.73922601 93.17718641 92.53907342 92.74982127 90.33398438 92.34960938 C86.10086686 91.4319065 82.00076981 90.20327146 77.859375 88.94140625 C77.03932983 88.69434937 76.21928467 88.44729248 75.37438965 88.19274902 C71.93825698 87.15665499 68.50362258 86.11675537 65.07617188 85.05224609 C62.55006791 84.27033411 60.01815557 83.51051123 57.484375 82.75390625 C56.71550964 82.50924622 55.94664429 82.26458618 55.15447998 82.01251221 C50.33510651 80.59644543 47.70405934 80.59442729 42.9375 82.61328125 C37.30768561 82.90477418 32.04613015 82.35063739 26.5 81.42578125 C25.68926025 81.29413574 24.87852051 81.16249023 24.04321289 81.02685547 C16.23721537 79.72548909 8.47877403 78.18861797 0.72900391 76.58886719 C-4.88700971 75.43119145 -10.50242344 74.34865168 -16.15625 73.390625 C-17.32148193 73.18679199 -18.48671387 72.98295898 -19.68725586 72.77294922 C-21.91681673 72.38565386 -24.14938292 72.01513886 -26.38500977 71.66455078 C-34.0769342 70.30096301 -39.71721324 67.848921 -44.64208984 61.61328125 C-50.72765214 52.80492874 -50.88430527 42.99884541 -50.0625 32.61328125 C-47.80159453 20.34529984 -42.39490326 9.08483389 -33.0625 0.61328125 C-21.98266926 -6.5584666 -11.88390265 -4.01989499 0 0 Z " fill="#080807" transform="translate(57.0625,33.38671875)"/>
<path d="M0 0 C-0.29087501 1.57180007 -0.58842165 3.14236619 -0.88867188 4.71240234 C-1.13611145 6.02451187 -1.13611145 6.02451187 -1.3885498 7.36312866 C-2.18364155 10.79195191 -3.47690376 13.87916132 -4.83984375 17.11425781 C-7.37310116 23.41541576 -9.37507994 29.92681012 -11.5 36.375 C-12.0283367 37.97088688 -12.55698898 39.56666932 -13.0859375 41.16235352 C-13.90629237 43.63751914 -14.72633754 46.11278415 -15.54516602 48.5884552 C-17.36315781 54.08471648 -19.19262835 59.5770139 -21.03125 65.06640625 C-26.40115642 81.10665954 -31.68808952 97.17014433 -36.87670898 113.26998901 C-40.67394578 125.041951 -44.60733833 136.75796785 -48.70361328 148.42944336 C-50.99735385 154.98404034 -53.12402862 161.56117045 -55.08789062 168.22265625 C-55.88999451 170.6650368 -56.63709305 172.8218934 -58 175 C-60.58203125 175.6875 -60.58203125 175.6875 -63.8125 176 C-80.7428933 178.15137594 -95.12437538 184.60891703 -105.8125 198.3125 C-110.66205919 205.80882565 -113.08572178 213.97856217 -114.875 222.625 C-116.212744 228.93052283 -118.00592492 233.23322431 -122.0625 238.34765625 C-124.52838834 241.72333808 -126.38115475 245.26881662 -128.25 249 C-128.5790332 249.64074463 -128.90806641 250.28148926 -129.24707031 250.94165039 C-131.8901598 256.28654968 -133.22913156 261.0971052 -135 267 C-188.79 267 -242.58 267 -298 267 C-298 259.13397548 -298 259.13397548 -297.046875 255.2421875 C-296.84151123 254.37988525 -296.63614746 253.51758301 -296.42456055 252.62915039 C-296.20195557 251.72028076 -295.97935059 250.81141113 -295.75 249.875 C-295.2904615 247.91334608 -294.83349337 245.9510885 -294.37890625 243.98828125 C-294.1483252 242.99393066 -293.91774414 241.99958008 -293.68017578 240.97509766 C-287.20276136 215.52378796 -287.20276136 215.52378796 -293.21875 190.890625 C-298.02716317 183.78485887 -304.75006266 179.24815811 -313 177 C-315.64759822 176.71651979 -318.22281443 176.49835747 -320.875 176.375 C-321.90753906 176.31699219 -321.90753906 176.31699219 -322.9609375 176.2578125 C-324.64023246 176.16451834 -326.32007767 176.08121762 -328 176 C-327.37636177 168.42185055 -325.26390706 161.40035053 -323.125 154.125 C-322.77308594 152.90941406 -322.42117188 151.69382813 -322.05859375 150.44140625 C-321.36894093 148.06479599 -320.67285862 145.69004011 -319.96972656 143.31738281 C-319.34883894 141.1933594 -318.74969841 139.06278275 -318.17871094 136.92480469 C-317.80794434 135.56597168 -317.80794434 135.56597168 -317.4296875 134.1796875 C-317.22327637 133.39062012 -317.01686523 132.60155273 -316.80419922 131.78857422 C-316.53881348 131.19834473 -316.27342773 130.60811523 -316 130 C-311.69638112 128.56546037 -308.37620726 130.15448314 -304.1875 131.4375 C-302.27028924 132.00517045 -300.35227151 132.57012031 -298.43359375 133.1328125 C-296.87680908 133.58962402 -296.87680908 133.58962402 -295.28857422 134.05566406 C-289.46559918 135.72777003 -283.60722902 137.26553954 -277.75 138.8125 C-269.46469611 141.00560556 -261.18449038 143.21364921 -252.91796875 145.4765625 C-252.16566986 145.68244492 -251.41337097 145.88832733 -250.63827515 146.10044861 C-246.97459467 147.10380944 -243.31165265 148.10979808 -239.64941406 149.1184082 C-238.31706721 149.48392289 -236.98471092 149.84940316 -235.65234375 150.21484375 C-233.90425415 150.69618774 -233.90425415 150.69618774 -232.12084961 151.18725586 C-229.42274335 151.88990748 -226.73995519 152.48936761 -224 153 C-223.44672649 158.94769023 -225.02243057 163.64361628 -226.859375 169.27734375 C-228.30888181 174.00809714 -229.40095385 178.78475183 -230.49023438 183.60839844 C-231.82517098 189.44676742 -233.46682521 195.13691394 -235.265625 200.8515625 C-237.13828622 208.88009942 -235.22171212 215.60901336 -232 223 C-228.52978612 227.50189909 -223.61898468 231.2644584 -217.9387207 232.41894531 C-215.71408076 232.60896823 -213.54496058 232.65750344 -211.3125 232.625 C-210.52447998 232.61662109 -209.73645996 232.60824219 -208.92456055 232.59960938 C-199.67648859 232.24489398 -192.40925078 228.92058661 -186 222.1875 C-179.62365231 214.66540233 -177.70203112 204.64850865 -175.5 195.3125 C-173.52941127 187.09271551 -171.44107286 178.943388 -169.08496094 170.82543945 C-167.13470878 163.94908908 -165.36382723 157.0252664 -163.56817627 150.10723877 C-159.46712475 134.31221417 -155.27702799 118.54386677 -150.9916687 102.7979126 C-148.33366008 93.02578761 -145.73022936 83.24683276 -143.35595703 73.40087891 C-142.09330228 68.18660456 -142.09330228 68.18660456 -141 66 C-140.28240155 57.7066122 -140.05123949 50.71694241 -144.90625 43.63671875 C-146 42 -146 42 -146 40 C-146.57621094 39.71382812 -147.15242187 39.42765625 -147.74609375 39.1328125 C-149.16564986 38.41934409 -150.57619839 37.68736959 -151.97265625 36.9296875 C-159.59790039 33.08143345 -166.76216792 33.00255419 -175 35 C-183.2162858 37.76938707 -190.93370297 43.25467233 -195 51 C-202.46552568 50.40338596 -209.35621428 48.75031193 -216.5625 46.75 C-217.71419678 46.43571045 -218.86589355 46.1214209 -220.05249023 45.79760742 C-226.26302574 44.0877379 -232.43307353 42.2927641 -238.5625 40.3125 C-244.41722893 38.43018631 -250.26485114 36.94278311 -256.2578125 35.59790039 C-265.6114393 33.46474906 -274.79867669 30.70443842 -284 28 C-283.58844754 26.26960899 -283.17033185 24.54077938 -282.75 22.8125 C-282.51796875 21.84957031 -282.2859375 20.88664062 -282.046875 19.89453125 C-281.12766397 16.31205953 -280.02699067 12.78958731 -278.93457031 9.2565918 C-278.57276672 8.08517136 -278.21096313 6.91375092 -277.8381958 5.70683289 C-277.42328888 4.36695061 -277.42328888 4.36695061 -277 3 C-275.97541687 2.98969254 -274.95083374 2.97938507 -273.89520264 2.96876526 C-260.84676213 2.83710167 -247.79836631 2.70131957 -234.75 2.5625 C-233.70013287 2.55133148 -232.65026573 2.54016296 -231.56858444 2.52865601 C-195.81348651 2.14855678 -195.81348651 2.14855678 -160.0625 1.5 C-136.84864747 0.99621364 -113.63275619 0.72780616 -90.41508102 0.47134399 C-87.44493561 0.43827856 -84.47480164 0.40432511 -81.50466919 0.37011719 C-54.3355 0.05903974 -27.1708955 -0.06016467 0 0 Z " fill="#697549" transform="translate(592,71)"/>
<path d="M0 0 C20.92532152 16.70186213 32.78103237 39.32927187 36.625 65.625 C38.4719414 95.22574615 35.03921566 122.84084505 16 146.8125 C14.56388528 148.43658785 13.10704157 150.04271065 11.625 151.625 C10.99207031 152.3365625 10.35914063 153.048125 9.70703125 153.78125 C-1.29191807 165.57393794 -17.0444385 173.97994044 -33.2578125 174.828125 C-51.5974126 175.17057907 -67.54906402 170.03806661 -81.375 157.625 C-82.18453125 156.90828125 -82.9940625 156.1915625 -83.828125 155.453125 C-100.75554231 139.56419955 -111.78886252 114.99489385 -112.68984985 91.85269165 C-112.78695072 88.27650324 -112.81402155 84.70239848 -112.8125 81.125 C-112.81323517 80.37277161 -112.81397034 79.62054321 -112.81472778 78.84552002 C-112.78390388 66.82866836 -111.77577715 55.89164107 -107.375 44.625 C-107.1073584 43.91762695 -106.8397168 43.21025391 -106.56396484 42.48144531 C-98.22619614 20.86283707 -84.09301387 2.69563511 -62.7890625 -7.34765625 C-42.14419896 -16.13341533 -18.20095111 -13.32772011 0 0 Z " fill="#414141" transform="translate(601.375,290.375)"/>
<path d="M0 0 C6.81977175 1.24152494 13.37507507 2.91300281 20 4.9375 C31.65870156 8.42361985 43.41033446 11.50648327 55.1875 14.5625 C66.77493475 17.57140795 78.35092377 20.58195601 89.8449707 23.93383789 C96.49971313 25.87232323 103.18181705 27.6989076 109.875 29.5 C111.4990979 29.93892578 111.4990979 29.93892578 113.15600586 30.38671875 C118.6685649 31.86847882 124.18821801 33.30509344 129.73046875 34.671875 C130.79604004 34.93806641 131.86161133 35.20425781 132.95947266 35.47851562 C134.98897379 35.98309655 137.02115737 36.47703809 139.05615234 36.95898438 C139.95672363 37.18392578 140.85729492 37.40886719 141.78515625 37.640625 C142.57801025 37.83172852 143.37086426 38.02283203 144.18774414 38.21972656 C144.78578857 38.4772168 145.38383301 38.73470703 146 39 C147.24659777 42.7397933 146.51205927 43.4617813 145 47 C144.38301696 49.28283723 143.8040729 51.57608349 143.25 53.875 C142.90343946 55.29193511 142.55570916 56.70858444 142.20703125 58.125 C141.92206787 59.28322266 141.92206787 59.28322266 141.63134766 60.46484375 C140.43301008 65.27672983 139.18555242 70.07581209 137.9375 74.875 C137.56963379 76.29981689 137.56963379 76.29981689 137.19433594 77.75341797 C135.59897371 83.87965162 133.86246707 89.94965445 132 96 C124.38847136 94.73898417 116.99706303 93.05255231 109.5625 91 C108.46631348 90.7009375 107.37012695 90.401875 106.24072266 90.09375 C103.16757326 89.25311462 100.09582858 88.40757725 97.02484131 87.55908203 C94.90704093 86.97433293 92.78876949 86.39131453 90.67041016 85.80859375 C76.12583832 81.80578527 61.58544969 77.79849608 47.125 73.5 C34.88409386 69.86508819 22.52682621 66.66997868 10.16845703 63.46289062 C2.40171074 61.44438621 -5.3446058 59.41597008 -13 57 C-13 56.01 -13 55.02 -13 54 C-12.29875 53.484375 -11.5975 52.96875 -10.875 52.4375 C-4.76885091 47.26054751 -1.33668012 39.55165497 1 32 C1.391875 30.80375 1.78375 29.6075 2.1875 28.375 C4.43048182 18.71877317 3.39640025 9.19319242 0 0 Z " fill="#697548" transform="translate(293,104)"/>
<path d="M0 0 C2.95602093 2.09862532 5.48554552 4.39473001 8 7 C8.51949219 7.49886719 9.03898438 7.99773437 9.57421875 8.51171875 C21.38710783 20.82068717 24.49143578 37.60968957 24.34960938 53.99609375 C23.94258494 70.05705806 17.39562439 85.47705019 6 97 C-2.60785472 104.22691546 -11.33946409 106.68676436 -22.5 106.41015625 C-31.73919892 105.32743763 -38.6020863 100.46612173 -45 94 C-45.59425781 93.45085937 -46.18851563 92.90171875 -46.80078125 92.3359375 C-58.45806062 80.60111525 -61.38233454 63.49755745 -61.37353516 47.67919922 C-61.00234223 30.65191328 -54.94687613 16.98835834 -43 5 C-42.4225 4.39929688 -41.845 3.79859375 -41.25 3.1796875 C-29.78118492 -7.79288078 -13.20028734 -7.51867156 0 0 Z " fill="#697547" transform="translate(586,321)"/>
<path d="M0 0 C-0.63849417 6.55786719 -1.67316704 12.92351509 -3 19.375 C-3.17789063 20.26316406 -3.35578125 21.15132813 -3.5390625 22.06640625 C-5.53851334 31.92936899 -5.53851334 31.92936899 -9.5 34.5625 C-22.91018918 44.37424844 -30.81031585 59.04564481 -33.55859375 75.3046875 C-35.886586 94.79389698 -32.61479073 114.16880857 -21.09765625 130.37890625 C-14.2673504 138.91360872 -4.11574677 146.6635648 7 148 C19.3676455 149.15683759 30.30057186 145.69985372 40 138 C48.1998163 130.3319124 52.64024958 121.17275098 57 111 C62.94 111 68.88 111 75 111 C72.37745208 129.35783544 64.35277895 145.02737134 51 158 C50.31679688 158.70382812 49.63359375 159.40765625 48.9296875 160.1328125 C37.76832513 170.96468816 22.62584699 176.5377234 7.19726562 176.42211914 C-4.20317369 176.01091597 -14.75459722 172.75683596 -24 166 C-24.90363281 165.34 -25.80726563 164.68 -26.73828125 164 C-41.61074111 152.48052902 -50.33491361 137.72422251 -56 120 C-56.4640625 118.61748047 -56.4640625 118.61748047 -56.9375 117.20703125 C-62.56636676 99.75213194 -62.48966136 76.46710433 -57 59 C-56.59974609 57.53240234 -56.59974609 57.53240234 -56.19140625 56.03515625 C-52.56929266 43.78436316 -46.19862673 32.73457199 -38 23 C-37.48050781 22.26136719 -36.96101563 21.52273438 -36.42578125 20.76171875 C-35.95527344 20.18035156 -35.48476563 19.59898437 -35 19 C-34.34 19 -33.68 19 -33 19 C-32.67 18.01 -32.34 17.02 -32 16 C-23.43507766 9.02855158 -11.40248915 0 0 0 Z " fill="#2E2E2E" transform="translate(295,281)"/>
<path d="M0 0 C6.89764198 0.69976078 13.50829639 2.15409263 20.25 3.75 C21.50345215 4.04438965 22.7569043 4.3387793 24.04833984 4.64208984 C47.05934372 10.08116705 69.97016743 15.95177593 92.89767456 21.73031616 C95.59946824 22.41118731 98.30165191 23.0904911 101.00390625 23.76953125 C101.78218781 23.96620392 102.56046936 24.16287659 103.36233521 24.36550903 C108.65901428 25.69466412 113.97593674 26.90458321 119.3125 28.0625 C125.99128448 29.51903128 132.58385689 31.17886055 139.17578125 32.99609375 C141.98336955 33.73312153 144.77307279 34.41063086 147.60546875 35.03515625 C148.37882568 35.20724609 149.15218262 35.37933594 149.94897461 35.55664062 C151.4490413 35.88641656 152.95112628 36.20718055 154.45532227 36.51757812 C160.89363701 37.93966826 160.89363701 37.93966826 163 41 C166.08706873 50.26120619 164.01749604 60.36590763 160 69 C155.08809367 77.64821422 155.08809367 77.64821422 150.83984375 80.3984375 C143.67675846 81.91578982 135.55257354 78.01569108 128.75 75.875 C119.56729881 73.02799141 110.33808965 70.40209192 101.0625 67.875 C92.39936621 65.51070269 83.79404435 63.07620991 75.2421875 60.3359375 C69.52059161 58.51400856 63.75790053 56.82783171 58 55.125 C56.25481079 54.60873047 56.25481079 54.60873047 54.47436523 54.08203125 C47.94377994 52.1541299 41.40798679 50.24506291 34.86791992 48.34960938 C20.19539177 44.0956397 5.49452746 39.83150915 -9 35 C-8.00554514 32.50942332 -7.00819778 30.02020624 -6 27.53515625 C-5.67 26.71917969 -5.34 25.90320313 -5 25.0625 C-4.67 24.24910156 -4.34 23.43570313 -4 22.59765625 C-1.90383997 17.15255306 -0.70679425 12.4866984 -0.375 6.625 C-0.30023438 5.37976563 -0.22546875 4.13453125 -0.1484375 2.8515625 C-0.09945312 1.91054687 -0.05046875 0.96953125 0 0 Z " fill="#687549" transform="translate(124,71)"/>
<path d="M0 0 C47.19 0 94.38 0 143 0 C142.34 11.88 141.68 23.76 141 36 C123.76256144 36.11290595 106.52543884 36.20499476 89.28773308 36.25906086 C81.2838097 36.28483291 73.28013253 36.31996401 65.27636719 36.37719727 C58.29954777 36.42706323 51.32290668 36.45929829 44.34591401 36.47044247 C40.65219745 36.47695597 36.958991 36.49224264 33.26543808 36.52865028 C29.14010832 36.56898343 25.01566303 36.56994741 20.89013672 36.56762695 C19.05702187 36.59459152 19.05702187 36.59459152 17.18687439 36.62210083 C7.954681 36.56581225 7.954681 36.56581225 4.31936646 33.65202332 C-5.1453185 22.82985887 0 22.51420007 0 0 Z " fill="#313828" transform="translate(311,347)"/>
<path d="M0 0 C2.4375 1.4375 2.4375 1.4375 4 4 C4.7956179 10.49174481 3.41527055 16.60211777 1.8125 22.85546875 C1.59053955 23.76073807 1.3685791 24.66600739 1.13989258 25.59870911 C0.43636848 28.46416337 -0.28058094 31.32599862 -1 34.1875 C-1.71817955 37.05997719 -2.43319066 39.93310235 -3.13989258 42.8084259 C-3.57806429 44.58985038 -4.02288776 46.36965606 -4.4753418 48.14750671 C-5.55220169 52.51163312 -6.36554583 56.46517102 -6 61 C-4.94570314 62.26472065 -4.94570314 62.26472065 -2.5625 62.25 C-1.716875 62.1675 -0.87125 62.085 0 62 C2.19773087 58.70340369 2.67497731 56.42680992 3.4375 52.5625 C4.38273431 47.92703274 5.38573636 43.3322463 6.5625 38.75 C7.89509565 33.53183596 9.004797 28.29213831 10 23 C17.8610198 23.6417159 28.45236586 24.69986861 35.0078125 29.45703125 C36.3125 31 36.3125 31 38 34 C38.53681396 34.94383545 38.53681396 34.94383545 39.08447266 35.90673828 C43.20814523 45.33510325 40.42649828 60.56210443 37.2734375 69.9765625 C34.49697475 76.56853233 30.43308723 85.20786328 24.19677734 89.13574219 C16.6900161 92.0890579 6.67295327 88.0144909 -0.625 85.75 C-2.17574219 85.28291626 -2.17574219 85.28291626 -3.7578125 84.80639648 C-5.845277 84.17747676 -7.93156715 83.54464462 -10.01660156 82.90771484 C-14.33504959 81.59380406 -18.66725922 80.32828664 -23 79.0625 C-24.37512064 78.65796193 -25.75013459 78.25306087 -27.125 77.84765625 C-28.548125 77.42806641 -28.548125 77.42806641 -30 77 C-28.63635657 74.10468124 -27.05144248 71.59673253 -25.1875 69 C-17.92470619 58.20347521 -14.60265312 46.47245519 -14.75 33.5625 C-14.75386719 32.73645264 -14.75773438 31.91040527 -14.76171875 31.05932617 C-14.84534681 25.15715957 -15.49778474 19.72719567 -17 14 C-16.01 14 -15.02 14 -14 14 C-13.9175 12.783125 -13.835 11.56625 -13.75 10.3125 C-13.24747824 6.20493085 -11.96976785 3.96976785 -9 1 C-5.90826248 -0.54586876 -3.40570448 -0.29359521 0 0 Z " fill="#464E37" transform="translate(614,169)"/>
<path d="M0 0 C4.67641254 -0.23909478 8.05794661 0.51494453 12.4375 2.125 C18.98049202 4.43655098 25.59089357 6.28133182 32.3125 8 C33.30443359 8.25418701 34.29636719 8.50837402 35.31835938 8.77026367 C37.2912893 9.27559309 39.26427014 9.78072377 41.23730469 10.28564453 C51.03978358 12.82029045 60.76568669 15.63056873 70.47851562 18.48657227 C81.01783495 21.58552047 91.58493154 24.53858129 102.19921875 27.37011719 C112.86317438 30.21787807 123.4883637 33.19772276 134.11279297 36.18896484 C138.59349118 37.447622 143.07773124 38.69343743 147.5625 39.9375 C148.32498047 40.14906738 149.08746094 40.36063477 149.87304688 40.57861328 C151.5819669 41.05264091 153.29097212 41.52636137 155 42 C154.46516981 46.81866427 153.7806057 51.32832801 152.4375 56 C152.16808594 56.94875 151.89867187 57.8975 151.62109375 58.875 C151.31365234 59.926875 151.31365234 59.926875 151 61 C143.85790482 60.36572634 137.25516813 58.53096886 130.375 56.5625 C127.7609874 55.8272985 125.14658459 55.09374222 122.53125 54.36328125 C121.84392792 54.17099945 121.15660583 53.97871765 120.44845581 53.78060913 C113.06462803 51.72367125 105.64848082 49.79393591 98.23083496 47.86331177 C81.35426696 43.46971123 64.54646732 38.85459268 47.76513672 34.11035156 C38.74310106 31.56488373 29.71132007 29.12880423 20.60839844 26.88916016 C15.41077194 25.60839184 10.23363898 24.25836202 5.0625 22.875 C4.09376953 22.62363281 3.12503906 22.37226563 2.12695312 22.11328125 C1.20978516 21.86707031 0.29261719 21.62085938 -0.65234375 21.3671875 C-1.46695068 21.15175293 -2.28155762 20.93631836 -3.12084961 20.71435547 C-5 20 -5 20 -6 18 C-5.02700405 16.12111127 -4.05126944 14.24356601 -3.05859375 12.375 C-1.29455659 8.41730776 -0.66343829 4.25997218 0 0 Z " fill="#565E43" transform="translate(267,167)"/>
<path d="M0 0 C7.06253758 5.34176983 12.41313541 11.45348756 17 19 C17.44988281 19.721875 17.89976562 20.44375 18.36328125 21.1875 C27.71455205 37.86345041 29.74680207 58.07605143 24.76904297 76.37255859 C19.65344391 93.70464357 11.24522811 109.09896876 -5 118 C-6.03125 118.5775 -7.0625 119.155 -8.125 119.75 C-17.31225641 123.74445931 -31.48028173 123.60229559 -40.9375 120.5 C-56.91627296 113.51541366 -66.42944599 100.74377528 -73.1875 85.1875 C-80.48813064 65.79042695 -79.96803715 44.84778013 -71.4453125 25.9140625 C-64.40178432 11.71278676 -55.84653356 0.98763738 -40.9375 -5.4375 C-27.43019155 -9.92069497 -11.91995413 -7.39361754 0 0 Z M-53 15 C-53.5878125 15.59039062 -54.175625 16.18078125 -54.78125 16.7890625 C-66.32777431 29.21924938 -68.78266378 46.18414729 -68.24609375 62.47265625 C-67.4798513 78.11862758 -61.50099761 92.21910063 -50 103 C-49.12021484 103.88945312 -49.12021484 103.88945312 -48.22265625 104.796875 C-41.8554105 110.8495039 -34.77531194 113.21402149 -26.0625 113.5 C-14.58973462 113.10224432 -6.14448871 109.04686641 2 101 C15.76024692 85.02828483 18.12006439 67.2201098 17 47 C15.45021712 33.11333165 8.04152494 19.63317864 -2.11328125 10.21484375 C-19.27645781 -2.95365572 -38.49083941 0.03104207 -53 15 Z " fill="#030303" transform="translate(593,314)"/>
<path d="M0 0 C1.1761137 3.5283411 0.44088024 5.36686682 -0.515625 8.86328125 C-1.21409951 11.94445508 -1.19224396 14.86001535 -1 18 C1.11925604 20.11925604 5.6196093 19.41831017 8.5625 19.5625 C9.36880859 19.60568359 10.17511719 19.64886719 11.00585938 19.69335938 C13.00368805 19.79975262 15.0018207 19.90040888 17 20 C17.01401855 21.3003418 17.01401855 21.3003418 17.02832031 22.62695312 C17.07262577 25.87775741 17.13436953 29.12765627 17.20751953 32.37792969 C17.23555071 33.77819961 17.25685316 35.17862251 17.27099609 36.57910156 C17.35632994 44.55497212 17.48162852 51.17633695 22 58 C26.76613754 62.64392888 31.38388371 64.21181181 37.95703125 64.4140625 C39.06884766 64.45273437 40.18066406 64.49140625 41.32617188 64.53125 C42.47666016 64.5621875 43.62714844 64.593125 44.8125 64.625 C45.98232422 64.66367187 47.15214844 64.70234375 48.35742188 64.7421875 C51.23812564 64.8362513 54.11882654 64.92189877 57 65 C54.1039008 74.47690679 48.10332672 83.35875716 39.47265625 88.5078125 C31.23737871 92.740334 23.65715878 94.48606259 14.41015625 92.421875 C4.03914337 88.81741555 -3.89675318 80.54852786 -9 71 C-10.52078492 67.72175171 -11.84792326 64.42480994 -13 61 C-13.3609375 59.95714844 -13.721875 58.91429687 -14.09375 57.83984375 C-15.22516685 53.04595253 -15.29225917 48.59308479 -15.25 43.6875 C-15.25773437 42.80126953 -15.26546875 41.91503906 -15.2734375 41.00195312 C-15.23030442 26.21809014 -10.71445783 10.71445783 0 0 Z " fill="#343B2A" transform="translate(285,327)"/>
<path d="M0 0 C-2.78598907 2.87305123 -5.62550213 5.54745615 -8.6875 8.125 C-30.59460073 27.31430251 -41.77318076 53.99914753 -44.23828125 82.78222656 C-44.53761814 88.54446178 -44.3766551 94.24581363 -44 100 C-43.95456055 100.77424316 -43.90912109 101.54848633 -43.86230469 102.34619141 C-43.13889995 113.47962368 -40.82485467 123.53724347 -37 134 C-36.6184375 135.05832031 -36.236875 136.11664063 -35.84375 137.20703125 C-28.51589582 156.09606077 -15.73958232 171.71897713 1 183 C-2.57907488 184.78953744 -6.20628256 182.65827658 -9.83837891 181.45239258 C-17.16062916 178.83581841 -22.91369495 174.80583075 -29 170 C-30.25103516 169.02353516 -30.25103516 169.02353516 -31.52734375 168.02734375 C-40.37704601 160.66015571 -46.39035153 150.93901681 -52 141 C-52.53560547 140.10667969 -52.53560547 140.10667969 -53.08203125 139.1953125 C-66.10751454 115.84285242 -65.99940019 84.1000244 -59 59 C-55.49514045 48.29280302 -50.69824091 38.08430956 -44 29 C-43.35804688 28.1028125 -42.71609375 27.205625 -42.0546875 26.28125 C-32.74375368 14.04991259 -16.31776308 -0.44102062 0 0 Z " fill="#464646" transform="translate(524,280)"/>
<path d="M0 0 C4.89702349 0.65906732 9.40920286 2.01986289 14.0625 3.625 C15.65353973 4.16567692 17.24469042 4.70602739 18.8359375 5.24609375 C19.67092773 5.53081543 20.50591797 5.81553711 21.36621094 6.10888672 C24.10676914 7.03612415 26.85304458 7.94430053 29.6015625 8.84765625 C30.53218506 9.15429199 31.46280762 9.46092773 32.42163086 9.77685547 C34.22389902 10.37024061 36.02676858 10.96180321 37.83032227 11.55126953 C52.50663141 16.40695259 52.50663141 16.40695259 55 21 C58.44889432 28.62387165 57.63139173 36.77667655 55.05078125 44.54296875 C52.58024256 50.31980458 48.86752552 55.97170302 44 60 C37.93156937 62.02281021 31.73412014 60.95586054 25.5625 59.8125 C24.86165283 59.68302979 24.16080566 59.55355957 23.4387207 59.42016602 C20.95722032 58.9564553 18.47867873 58.47856121 16 58 C14.9574707 57.80180664 13.91494141 57.60361328 12.84082031 57.39941406 C9.45473739 56.75365021 6.07085473 56.09739922 2.6875 55.4375 C1.59574463 55.22778564 0.50398926 55.01807129 -0.62084961 54.80200195 C-1.64960205 54.59792725 -2.67835449 54.39385254 -3.73828125 54.18359375 C-4.65649658 54.00368896 -5.57471191 53.82378418 -6.52075195 53.63842773 C-8.91016166 53.02313415 -10.84839964 52.19226007 -13 51 C-12.54109375 50.443125 -12.0821875 49.88625 -11.609375 49.3125 C-7.68631945 44.4334057 -4.43865596 39.76922776 -2 34 C-1.7009375 33.37222656 -1.401875 32.74445313 -1.09375 32.09765625 C2.97899624 22.27404147 1.43442122 10.28387468 0 0 Z " fill="#474E37" transform="translate(58,45)"/>
<path d="M0 0 C-1.051875 0.8353125 -1.051875 0.8353125 -2.125 1.6875 C-22.51228721 18.08597015 -34.39738177 37.40814083 -40 63 C-40.22558594 63.99644531 -40.45117188 64.99289062 -40.68359375 66.01953125 C-43.78511629 82.33995674 -42.99301009 99.91296731 -39 116 C-38.83902832 116.66016113 -38.67805664 117.32032227 -38.51220703 118.00048828 C-33.44908945 137.95627257 -22.04175338 158.59679089 -4.80859375 170.515625 C-3.24370954 171.41345756 -1.62758762 172.22158853 0 173 C0 173.33 0 173.66 0 174 C-6.00796443 173.51829238 -10.53180762 172.25352689 -15.875 169.5 C-16.57044922 169.14542725 -17.26589844 168.79085449 -17.98242188 168.42553711 C-24.18237818 165.13342939 -29.16013977 161.09229899 -34 156 C-34.71671875 155.25621094 -35.4334375 154.51242187 -36.171875 153.74609375 C-53.89171125 134.59401509 -60.80304653 108.75877394 -60.18359375 83.03125 C-59.15818357 56.68903558 -50.17869053 31.87506298 -30.5625 13.625 C-23.25933793 7.51102538 -10.18657478 -3.39552493 0 0 Z " fill="#464646" transform="translate(268,282)"/>
<path d="M0 0 C-0.55728913 3.34373475 -1.35173889 6.03312999 -3 9 C-23.17848756 9.35023542 -43.35742959 9.66578031 -63.53675079 9.96354675 C-65.98086454 9.99971682 -68.42497243 10.03626387 -70.86907959 10.07287598 C-137.24726261 11.06326169 -203.61585376 11.11719539 -270 11 C-270.20555008 11.61665024 -270.41110016 12.23330048 -270.62287903 12.86863708 C-272.41525269 18.24575806 -274.20762634 23.62287903 -276 29 C-281.75 29.125 -281.75 29.125 -284 28 C-283.58844754 26.26960899 -283.17033185 24.54077938 -282.75 22.8125 C-282.51796875 21.84957031 -282.2859375 20.88664062 -282.046875 19.89453125 C-281.12766397 16.31205953 -280.02699067 12.78958731 -278.93457031 9.2565918 C-278.57276672 8.08517136 -278.21096313 6.91375092 -277.8381958 5.70683289 C-277.42328888 4.36695061 -277.42328888 4.36695061 -277 3 C-275.97541687 2.98969254 -274.95083374 2.97938507 -273.89520264 2.96876526 C-260.84676213 2.83710167 -247.79836631 2.70131957 -234.75 2.5625 C-233.70013287 2.55133148 -232.65026573 2.54016296 -231.56858444 2.52865601 C-195.81348651 2.14855678 -195.81348651 2.14855678 -160.0625 1.5 C-136.84864747 0.99621364 -113.63275619 0.72780616 -90.41508102 0.47134399 C-87.44493561 0.43827856 -84.47480164 0.40432511 -81.50466919 0.37011719 C-54.3355 0.05903974 -27.1708955 -0.06016467 0 0 Z " fill="#879666" transform="translate(592,71)"/>
<path d="M0 0 C7.41426252 0.62243192 14.25679356 2.64926336 21.375 4.75 C23.90612913 5.4847915 26.4373789 6.21916752 28.96875 6.953125 C30.18691406 7.30826172 31.40507813 7.66339844 32.66015625 8.02929688 C36.72511542 9.21074992 40.79605621 10.36786682 44.875 11.5 C45.55941162 11.69021729 46.24382324 11.88043457 46.94897461 12.07641602 C51.47001426 13.3239323 56.00069231 14.53269802 60.53515625 15.73046875 C74.66576168 19.46406864 88.75825993 23.30062937 102.8125 27.3125 C103.55966278 27.52514496 104.30682556 27.73778992 105.07662964 27.95687866 C112.77250686 30.14976535 120.43512249 32.38236601 128 35 C126.75749482 40.46447986 123.67911067 44.10528875 119.10546875 47.33984375 C110.74753804 51.97214854 102.78190143 49.74818614 94 47.4375 C92.95980713 47.1708252 91.91961426 46.90415039 90.84790039 46.62939453 C82.31707659 44.41354621 73.84875236 41.99162525 65.40405273 39.46875 C60.44380091 37.98746368 55.49166444 36.60078072 50.45751953 35.39550781 C44.54498984 33.96650682 40.34399769 32.198003 35.4921875 28.58203125 C32.21440285 26.50130588 28.81640972 25.16499372 25.1875 23.8125 C24.49962402 23.55597656 23.81174805 23.29945313 23.10302734 23.03515625 C18.83528703 21.50629335 14.64917699 20.47510108 10.1875 19.625 C5.42279104 18.50958099 5.42279104 18.50958099 3.66796875 16.39453125 C2.79817534 14.24789824 2.37024642 12.28636705 2 10 C1.80277344 9.09378906 1.60554687 8.18757813 1.40234375 7.25390625 C0.8857216 4.84186241 0.42323704 2.42987855 0 0 Z " fill="#555E43" transform="translate(565,251)"/>
<path d="M0 0 C6.72510795 0.46380055 12.74962359 1.95553738 19.203125 3.87890625 C23.24400218 5.07204591 27.3017578 6.17407675 31.375 7.25 C33.27378906 7.75273437 33.27378906 7.75273437 35.2109375 8.265625 C36.13132812 8.50796875 37.05171875 8.7503125 38 9 C36.53201218 16.924536 34.68098707 24.74809574 32.70581055 32.55957031 C32.35973988 33.93863665 32.01958258 35.31920015 31.68530273 36.70117188 C28.88404859 48.27293789 25.66763788 57.76356438 15.4375 64.75 C9.65430769 67.71573964 3.37015083 67.6054628 -3 67 C-6.84481888 65.24622296 -8.44384479 63.77861729 -10.875 60.375 C-14.07551172 50.77346483 -10.8328696 41.27263043 -8.25 31.875 C-7.87957494 30.49179841 -7.51043951 29.10825083 -7.14257812 27.72436523 C-6.42488354 25.02793363 -5.70197563 22.33299803 -4.97460938 19.63916016 C-3.76584195 15.12566136 -2.61776648 10.59925354 -1.5 6.0625 C-1.2009375 4.85722656 -0.901875 3.65195313 -0.59375 2.41015625 C-0.3978125 1.61480469 -0.201875 0.81945312 0 0 Z " fill="#303728" transform="translate(377,228)"/>
<path d="M0 0 C0.33 0.66 0.66 1.32 1 2 C2.97259777 2.51545119 2.97259777 2.51545119 5.4375 2.8125 C10.50243998 3.63298477 15.33935415 4.86290549 20.26171875 6.2734375 C26.52184482 8.03977394 32.79094646 9.75665197 39.0859375 11.39453125 C39.83837234 11.59056442 40.59080719 11.7865976 41.36604309 11.98857117 C42.90925093 12.39034057 44.45252038 12.79187341 45.99584961 13.19317627 C59.32495859 16.66291636 72.60378054 20.25265258 85.83178711 24.09204102 C95.72071996 26.95216441 105.65781988 29.60925025 115.6171875 32.21142578 C123.47771267 34.27752791 131.25088453 36.5487574 139 39 C136.125 50.625 136.125 50.625 135 54 C127.38847136 52.73898417 119.99706303 51.05255231 112.5625 49 C111.46631348 48.7009375 110.37012695 48.401875 109.24072266 48.09375 C106.16757326 47.25311462 103.09582858 46.40757725 100.02484131 45.55908203 C97.90704093 44.97433293 95.78876949 44.39131453 93.67041016 43.80859375 C79.12583832 39.80578527 64.58544969 35.79849608 50.125 31.5 C37.88409386 27.86508819 25.52682621 24.66997868 13.16845703 21.46289062 C5.40171074 19.44438621 -2.3446058 17.41597008 -10 15 C-10 14.01 -10 13.02 -10 12 C-9.278125 11.443125 -8.55625 10.88625 -7.8125 10.3125 C-4.23179211 7.3683624 -2.27525116 3.98895096 0 0 Z " fill="#464F37" transform="translate(290,146)"/>
<path d="M0 0 C6.81977175 1.24152494 13.37507507 2.91300281 20 4.9375 C31.65870156 8.42361985 43.41033446 11.50648327 55.1875 14.5625 C66.77493475 17.57140795 78.35092377 20.58195601 89.8449707 23.93383789 C96.49971313 25.87232323 103.18181705 27.6989076 109.875 29.5 C111.4990979 29.93892578 111.4990979 29.93892578 113.15600586 30.38671875 C118.6685649 31.86847882 124.18821801 33.30509344 129.73046875 34.671875 C130.79604004 34.93806641 131.86161133 35.20425781 132.95947266 35.47851562 C134.98897379 35.98309655 137.02115737 36.47703809 139.05615234 36.95898438 C139.95672363 37.18392578 140.85729492 37.40886719 141.78515625 37.640625 C142.57801025 37.83172852 143.37086426 38.02283203 144.18774414 38.21972656 C144.78578857 38.4772168 145.38383301 38.73470703 146 39 C147.24752897 42.74258691 146.5279335 43.46162767 145 47 C144.31320058 49.32748694 143.64238957 51.65986656 143 54 C137.69560627 53.20390828 132.5233323 52.00149949 127.3125 50.75 C126.39275391 50.52965088 125.47300781 50.30930176 124.52539062 50.08227539 C111.9043515 47.03622782 99.32200332 43.86959067 86.95703125 39.89453125 C80.87936764 38.05597779 74.69293141 36.70339212 68.5 35.3125 C57.19541484 32.70838289 46.11422088 29.30702951 35 26 C24.74332267 22.95403553 14.42933698 20.3737474 4 18 C3.87882812 17.28714844 3.75765625 16.57429688 3.6328125 15.83984375 C2.68936031 10.44765159 1.62637791 5.22764328 0 0 Z " fill="#8A9A66" transform="translate(293,104)"/>
<path d="M0 0 C37.95 0 75.9 0 115 0 C118.43093923 8.00552486 118.43093923 8.00552486 119.625 11.1875 C119.86476563 11.82042969 120.10453125 12.45335937 120.3515625 13.10546875 C121.01769548 15.05170064 121.51225201 17.00261754 122 19 C106.97931342 19.16363563 91.95869599 19.28701639 76.93730736 19.3626852 C69.96229606 19.39875625 62.98783906 19.44791851 56.01318359 19.52807617 C49.28283693 19.60538909 42.55318516 19.64598424 35.82237625 19.6641407 C33.25386106 19.6770803 30.68537758 19.70234858 28.11710739 19.7401104 C24.52057411 19.79089048 20.92642362 19.79792481 17.32958984 19.79467773 C16.26647583 19.81984467 15.20336182 19.8450116 14.10803223 19.87094116 C9.31270959 19.82406096 5.8563062 19.62186766 2.29190063 16.20033264 C0 12 0 12 0 0 Z " fill="#4B533C" transform="translate(311,363)"/>
<path d="M0 0 C7.47861503 1.35053529 14.70933189 3.2439065 22 5.375 C23.83291687 5.90466135 25.66583977 6.43430204 27.49891663 6.96340942 C28.82828206 7.34738481 30.15749149 7.73190063 31.48655701 8.11691284 C39.60616731 10.46899937 47.7358879 12.78562254 55.86486816 15.10507202 C59.49024989 16.13978802 63.11525599 17.17581653 66.74026489 18.21183777 C74.20511705 20.34526959 81.67048891 22.47686345 89.13671875 24.60546875 C104.62029903 29.02084267 120.09609397 33.46230316 135.5625 37.9375 C136.37046021 38.17115265 137.17842041 38.4048053 138.01086426 38.64553833 C146.35217182 41.05847849 154.69140199 43.47611358 163 46 C157.79238104 54.47751924 157.79238104 54.47751924 154.85546875 56.4140625 C147.66435815 57.88966659 139.57428004 54.02252186 132.75 51.875 C123.56729881 49.02799141 114.33808965 46.40209192 105.0625 43.875 C96.39936621 41.51070269 87.79404435 39.07620991 79.2421875 36.3359375 C73.52059161 34.51400856 67.75790053 32.82783171 62 31.125 C60.83654053 30.78082031 59.67308105 30.43664062 58.47436523 30.08203125 C51.94377994 28.1541299 45.40798679 26.24506291 38.86791992 24.34960938 C24.19539177 20.0956397 9.49452746 15.83150915 -5 11 C-3.55049545 7.2089881 -1.84827434 3.6125362 0 0 Z " fill="#464F36" transform="translate(120,95)"/>
<path d="M0 0 C1.18154663 -0.00430527 1.18154663 -0.00430527 2.38696289 -0.00869751 C4.05127685 -0.01073772 5.71561481 -0.00521082 7.37988281 0.00732422 C9.92827947 0.02337941 12.47509021 0.00747506 15.0234375 -0.01171875 C16.6406285 -0.00973631 18.25781852 -0.00589261 19.875 0 C20.63756104 -0.00607269 21.40012207 -0.01214539 22.18579102 -0.0184021 C27.42479567 0.05129394 27.42479567 0.05129394 29.953125 1.76318359 C30.9375 3.3984375 30.9375 3.3984375 30.75 5.9609375 C29.9375 8.3984375 29.9375 8.3984375 27.9375 10.3984375 C25.7734375 10.59375 25.7734375 10.59375 23.3125 10.5234375 C22.49523437 10.50539063 21.67796875 10.48734375 20.8359375 10.46875 C20.20945312 10.44554688 19.58296875 10.42234375 18.9375 10.3984375 C18.7415625 11.26597656 18.545625 12.13351563 18.34375 13.02734375 C15.99910582 23.25568457 13.42751542 33.42404559 10.8125 43.5859375 C10.63678467 44.27164825 10.46106934 44.95735901 10.2800293 45.66384888 C9.76982503 47.6528316 9.25651322 49.64098576 8.7421875 51.62890625 C8.29335205 53.36756958 8.29335205 53.36756958 7.83544922 55.14135742 C6.97302535 58.26957842 5.99365578 61.33081939 4.9375 64.3984375 C1.00489056 64.47265204 -2.92744722 64.52706886 -6.8605957 64.56323242 C-8.85577701 64.58572083 -10.85076213 64.62383948 -12.84570312 64.66210938 C-14.09931641 64.67177734 -15.35292969 64.68144531 -16.64453125 64.69140625 C-17.80186768 64.7071167 -18.9592041 64.72282715 -20.15161133 64.73901367 C-23.0625 64.3984375 -23.0625 64.3984375 -24.96875 63.05761719 C-26.43948424 60.82656588 -26.11363503 59.24563112 -25.61865234 56.69189453 C-24.32848873 51.37152712 -22.86329342 46.10378962 -21.375 40.8359375 C-20.64705 38.24387779 -19.92118818 35.65123499 -19.1953125 33.05859375 C-19.01387192 32.41237061 -18.83243134 31.76614746 -18.64549255 31.1003418 C-17.49190291 26.97915145 -16.3827029 22.84858405 -15.3046875 18.70703125 C-14.90769653 17.19508179 -14.90769653 17.19508179 -14.50268555 15.65258789 C-14.01181657 13.77493048 -13.5285351 11.89526819 -13.05395508 10.01342773 C-12.83376709 9.17884033 -12.6135791 8.34425293 -12.38671875 7.484375 C-12.20197998 6.7629834 -12.01724121 6.0415918 -11.8269043 5.29833984 C-9.53244609 -0.40446239 -5.57404592 -0.04438919 0 0 Z " fill="#414932" transform="translate(490.0625,108.6015625)"/>
<path d="M0 0 C2.27130656 0.30904171 4.54203305 0.62234907 6.8125 0.9375 C8.70935547 1.19853516 8.70935547 1.19853516 10.64453125 1.46484375 C14 2 14 2 17 3 C17 4.32 17 5.64 17 7 C15.35 7 13.7 7 12 7 C11.67 19.54 11.34 32.08 11 45 C2.33455889 44.33342761 -6.02247274 43.50930348 -14.5625 42.125 C-16.82155869 41.76787542 -19.08067404 41.41110912 -21.33984375 41.0546875 C-23.00829346 40.78930176 -23.00829346 40.78930176 -24.71044922 40.51855469 C-29.6779723 39.7354896 -34.65102481 38.99077798 -39.625 38.25 C-43.770625 37.63125 -43.770625 37.63125 -48 37 C-48 25.12 -48 13.24 -48 1 C-30.98828125 3.26822917 -30.98828125 3.26822917 -25.1875 4.375 C-24.54425781 4.4972998 -23.90101563 4.61959961 -23.23828125 4.74560547 C-17.22637739 5.91026788 -11.25217209 7.24715835 -5.28979492 8.64208984 C-0.53736751 9.73516446 4.1517847 10.46494921 9 11 C9 9.68 9 8.36 9 7 C7.68 6.34 6.36 5.68 5 5 C5 4.34 5 3.68 5 3 C2.525 2.01 2.525 2.01 0 1 C0 0.67 0 0.34 0 0 Z " fill="#697547" transform="translate(695,352)"/>
<path d="M0 0 C8.02761354 6.40523495 15.60823866 13.52515236 20.625 22.625 C20.34375 24.95703125 20.34375 24.95703125 19.625 26.625 C19.24730469 26.15191406 18.86960937 25.67882812 18.48046875 25.19140625 C10.13770713 15.16836945 0.79855584 8.32906724 -11.375 3.625 C-12.03910889 3.35719727 -12.70321777 3.08939453 -13.38745117 2.81347656 C-19.4382854 0.54904155 -25.00667592 0.08338179 -31.4375 0.125 C-32.94497803 0.13140503 -32.94497803 0.13140503 -34.48291016 0.13793945 C-43.49346417 0.34138502 -51.11341872 2.12067998 -59.375 5.625 C-60.19484375 5.96273438 -61.0146875 6.30046875 -61.859375 6.6484375 C-81.55490851 16.20867822 -93.27929628 35.83430831 -100.75 55.5625 C-109.9883097 82.7890603 -106.69677759 112.92916721 -94.23046875 138.41015625 C-93.94816406 139.14105469 -93.66585938 139.87195313 -93.375 140.625 C-93.705 141.285 -94.035 141.945 -94.375 142.625 C-107.64645314 124.15442089 -112.82204131 103.55815882 -112.8125 81.125 C-112.81323517 80.37277161 -112.81397034 79.62054321 -112.81472778 78.84552002 C-112.78390388 66.82866836 -111.77577715 55.89164107 -107.375 44.625 C-107.1073584 43.91762695 -106.8397168 43.21025391 -106.56396484 42.48144531 C-98.22619614 20.86283707 -84.09301387 2.69563511 -62.7890625 -7.34765625 C-42.14419896 -16.13341533 -18.20095111 -13.32772011 0 0 Z " fill="#5C5C5C" transform="translate(601.375,290.375)"/>
<path d="M0 0 C6.89764198 0.69976078 13.50829639 2.15409263 20.25 3.75 C21.50345215 4.04438965 22.7569043 4.3387793 24.04833984 4.64208984 C47.05934372 10.08116705 69.97016743 15.95177593 92.89767456 21.73031616 C95.59946824 22.41118731 98.30165191 23.0904911 101.00390625 23.76953125 C101.78218781 23.96620392 102.56046936 24.16287659 103.36233521 24.36550903 C108.65901428 25.69466412 113.97593674 26.90458321 119.3125 28.0625 C125.99128448 29.51903128 132.58385689 31.17886055 139.17578125 32.99609375 C141.98336955 33.73312153 144.77307279 34.41063086 147.60546875 35.03515625 C148.37882568 35.20724609 149.15218262 35.37933594 149.94897461 35.55664062 C151.4490413 35.88641656 152.95112628 36.20718055 154.45532227 36.51757812 C157.20603968 37.12515453 159.5876855 37.73546555 161.97265625 39.265625 C163.46528595 41.78550176 163.28983485 43.78801246 163.1875 46.6875 C163.14689453 48.17830078 163.14689453 48.17830078 163.10546875 49.69921875 C163.07066406 50.45847656 163.03585937 51.21773437 163 52 C157.24217389 51.28906082 151.69612522 50.06009718 146.0625 48.6875 C145.13518066 48.46384766 144.20786133 48.24019531 143.25244141 48.00976562 C140.5005471 47.34419119 137.75001445 46.67329529 135 46 C134.26475098 45.82033691 133.52950195 45.64067383 132.77197266 45.45556641 C119.66862224 42.24343657 106.62722791 38.7900909 93.60205078 35.27587891 C80.18979379 31.66451534 66.75982179 28.14490144 53.28125 24.7890625 C52.59051014 24.61708344 51.89977028 24.44510437 51.18809891 24.26791382 C46.29291905 23.05016202 41.3965648 21.83716881 36.5 20.625 C31.51297309 19.39017329 26.52638895 18.15360314 21.54075623 16.91315842 C19.58368875 16.42708658 17.62589893 15.94392599 15.66809082 15.46084595 C14.48404663 15.16648651 13.30000244 14.87212708 12.08007812 14.56884766 C11.04693481 14.31318024 10.0137915 14.05751282 8.94934082 13.7940979 C5.91999641 12.97845936 2.96580355 12.02099338 0 11 C0 7.37 0 3.74 0 0 Z " fill="#8A9965" transform="translate(124,71)"/>
<path d="M0 0 C20.56152782 3.39789852 20.56152782 3.39789852 24 8 C27.17235401 17.97815999 26.21542467 32.55491314 22 42 C21.57460938 42.99515625 21.14921875 43.9903125 20.7109375 45.015625 C17.86677847 51.19064406 14.88139761 57.24745183 9 61 C4.09284291 62.80079159 0.21544059 62.3612687 -4.5 60.25 C-5.23089844 59.87875 -5.96179688 59.5075 -6.71484375 59.125 C-10.33802323 57.34128087 -14.15877958 56.21677447 -18 55 C-16.78168166 49.06138853 -15.25912412 43.33957157 -13.3203125 37.59765625 C-12.93925858 36.45374672 -12.93925858 36.45374672 -12.55050659 35.28672791 C-12.01646616 33.68692872 -11.48023722 32.08785854 -10.94189453 30.48950195 C-10.1287496 28.07364009 -9.32361754 25.65521813 -8.51953125 23.23632812 C-5.90114582 15.39660258 -3.23468663 7.61264703 0 0 Z " fill="#444C35" transform="translate(566,180)"/>
<path d="M0 0 C7.8610198 0.6417159 18.45236586 1.69986861 25.0078125 6.45703125 C26.3125 8 26.3125 8 28 11 C28.35787598 11.62922363 28.71575195 12.25844727 29.08447266 12.90673828 C30.75323651 16.72219996 30.3811649 20.76808771 30.375 24.875 C30.37584595 26.27552612 30.37584595 26.27552612 30.37670898 27.7043457 C30.24227231 36.24584956 28.86460181 44.27079639 25 52 C16.97858182 50.86136649 9.47537715 48.71387889 1.796875 46.21875 C-1.78695475 45.0683849 -5.37606375 44.01395108 -9 43 C-8.01579443 33.9952535 -6.21092665 25.51261371 -3.82861328 16.79248047 C-2.30829767 11.22632869 -1.02460648 5.68190865 0 0 Z " fill="#687548" transform="translate(624,192)"/>
<path d="M0 0 C4.03202964 3.12526315 6.48949455 7.16774954 8 12 C9.26096365 24.74236947 7.53682048 35.68743809 0.1875 46.5 C-3.68493826 51.19869115 -8.14030578 54.49534808 -14.1875 55.5625 C-18.53323374 54.69335325 -20.66171854 52.90498045 -23.19921875 49.29296875 C-27.74758978 40.94630893 -27.21795722 29.64705888 -24.9375 20.625 C-21.32594602 10.52287024 -12.2678061 -2.80472147 0 0 Z " fill="#626C49" transform="translate(43,39)"/>
<path d="M0 0 C5.41259511 2.53158269 9.55416657 5.65488139 13.6875 9.9375 C14.46673828 10.68580078 14.46673828 10.68580078 15.26171875 11.44921875 C27.07460783 23.75818717 30.17893578 40.54718957 30.03710938 56.93359375 C29.63008494 72.99455806 23.08312439 88.41455019 11.6875 99.9375 C1.74712317 108.28316397 -7.61469759 109.42518231 -20.3125 108.9375 C-20.3125 108.6075 -20.3125 108.2775 -20.3125 107.9375 C-19.40371094 107.82535156 -19.40371094 107.82535156 -18.4765625 107.7109375 C-6.51046917 105.83318132 1.455901 99.3963215 8.6875 89.9375 C18.75042026 73.05695126 21.27153551 55.03764794 16.6875 35.9375 C12.6706714 23.38491063 5.17907808 10.95981533 -6.79296875 4.625 C-12.15451268 2.36400783 -17.61135819 1.0409468 -23.3125 -0.0625 C-16.31341454 -4.25185644 -7.27322309 -2.8094788 0 0 Z " fill="#434A33" transform="translate(580.3125,318.0625)"/>
<path d="M0 0 C5.54066325 3.77772494 8.67755618 8.54859255 10.75 14.875 C11.52803212 22.78499317 9.949847 30.54707636 4.9375 36.875 C1.15242319 40.83721095 -2.35364711 41.70568278 -7.75 42.1875 C-13.17328052 41.70327853 -16.10605039 40.01894961 -19.9375 36.1875 C-23.84473101 31.08289174 -25.8364122 25.43000917 -25.53125 18.9453125 C-24.54084757 11.65485014 -21.81349209 5.78556393 -16.25 0.875 C-11.10337238 -2.26957899 -5.56446989 -1.92616265 0 0 Z " fill="#030402" transform="translate(573.25,351.125)"/>
<path d="M0 0 C4.89702349 0.65906732 9.40920286 2.01986289 14.0625 3.625 C15.65353973 4.16567692 17.24469042 4.70602739 18.8359375 5.24609375 C19.67092773 5.53081543 20.50591797 5.81553711 21.36621094 6.10888672 C24.10676914 7.03612415 26.85304458 7.94430053 29.6015625 8.84765625 C30.53218506 9.15429199 31.46280762 9.46092773 32.42163086 9.77685547 C34.22389902 10.37024061 36.02676858 10.96180321 37.83032227 11.55126953 C52.50663141 16.40695259 52.50663141 16.40695259 55 21 C58.56782976 28.88678158 57.42834031 36.78282347 54.8515625 44.7734375 C54.02598119 46.93206754 53.07385615 48.95500437 52 51 C45.50149789 50.48446121 39.33773468 49.53332291 33 48 C31.74183904 44.45427365 32.10719831 42.37548514 33.4375 39 C35.6077589 33.12345421 35.4618404 27.19043766 35 21 C34.505 20.01 34.505 20.01 34 19 C30.98732233 18.92993773 28.26959433 18.94357328 25.3125 19.5625 C23 20 23 20 20 19 C18.3125 15.9375 18.3125 15.9375 17 13 C16.278125 13.144375 15.55625 13.28875 14.8125 13.4375 C13.884375 13.623125 12.95625 13.80875 12 14 C10.7625 14.3403125 10.7625 14.3403125 9.5 14.6875 C6.26784854 15.09151893 4.80588992 14.65823124 2 13 C1.07421875 9.9609375 1.07421875 9.9609375 0.6875 6.375 C0.47673828 4.59222656 0.47673828 4.59222656 0.26171875 2.7734375 C0.17535156 1.85820313 0.08898438 0.94296875 0 0 Z " fill="#899566" transform="translate(58,45)"/>
<path d="M0 0 C1.53202706 0.25195908 3.05257128 0.57596777 4.5625 0.9375 C5.38878906 1.13214844 6.21507812 1.32679688 7.06640625 1.52734375 C7.70449219 1.68332031 8.34257813 1.83929688 9 2 C10.00674459 5.26879616 11.00422489 8.5403471 12 11.8125 C12.28617188 12.74126953 12.57234375 13.67003906 12.8671875 14.62695312 C13.27324219 15.9659668 13.27324219 15.9659668 13.6875 17.33203125 C13.93886719 18.15421143 14.19023438 18.9763916 14.44921875 19.82348633 C15 22 15 22 15 25 C13.58074219 25.01401855 13.58074219 25.01401855 12.1328125 25.02832031 C8.53895128 25.06893997 4.94588339 25.13487376 1.35253906 25.20751953 C-0.18706887 25.23532067 -1.72680871 25.25673261 -3.26660156 25.27099609 C-17.11199723 25.40673527 -30.96665528 26.76154361 -43.125 34 C-43.71796875 34.33 -44.3109375 34.66 -44.921875 35 C-48.74164669 37.15388007 -52.37850492 39.53430122 -56 42 C-55.08531661 33.6702833 -50.24739633 28.005326 -44.22265625 22.4296875 C-33.33270525 13.75779485 -23.12934886 11.57709112 -9.58984375 11.17578125 C-6.04186864 11.16365146 -6.04186864 11.16365146 -3 10 C-2.23078715 7.92614148 -2.23078715 7.92614148 -1.875 5.5 C-1.07722008 1.07722008 -1.07722008 1.07722008 0 0 Z " fill="#313629" transform="translate(545,244)"/>
<path d="M0 0 C6.81977175 1.24152494 13.37507507 2.91300281 20 4.9375 C31.65870156 8.42361985 43.41033446 11.50648327 55.1875 14.5625 C66.77493475 17.57140795 78.35092377 20.58195601 89.8449707 23.93383789 C96.49971313 25.87232323 103.18181705 27.6989076 109.875 29.5 C111.4990979 29.93892578 111.4990979 29.93892578 113.15600586 30.38671875 C118.6685649 31.86847882 124.18821801 33.30509344 129.73046875 34.671875 C130.79604004 34.93806641 131.86161133 35.20425781 132.95947266 35.47851562 C134.98897379 35.98309655 137.02115737 36.47703809 139.05615234 36.95898438 C139.95672363 37.18392578 140.85729492 37.40886719 141.78515625 37.640625 C142.57801025 37.83172852 143.37086426 38.02283203 144.18774414 38.21972656 C144.78578857 38.4772168 145.38383301 38.73470703 146 39 C146.33 39.99 146.66 40.98 147 42 C146.34 42.99 145.68 43.98 145 45 C139.73069303 44.42529861 134.79396999 43.5529869 129.66015625 42.1796875 C128.98439545 42.00025101 128.30863464 41.82081451 127.61239624 41.63594055 C125.42766325 41.05418263 123.24508842 40.46474757 121.0625 39.875 C119.53857988 39.46752915 118.01457174 39.06038735 116.49047852 38.65356445 C106.42786079 35.95984465 96.39616751 33.16237694 86.375 30.31835938 C79.95645231 28.50941855 73.52099799 26.88945748 67.01953125 25.41015625 C53.76971031 22.37427495 40.75182742 18.36955451 27.71972656 14.52514648 C23.24175769 13.20973409 18.76678299 11.91572329 14.2421875 10.76953125 C13.54633545 10.59301025 12.8504834 10.41648926 12.13354492 10.23461914 C10.33505161 9.78674444 8.53289664 9.35364304 6.73046875 8.921875 C3.91372053 7.97086988 2.67639553 7.42826727 1 5 C0.63476367 3.34003274 0.29817226 1.67331473 0 0 Z " fill="#66714B" transform="translate(293,104)"/>
<path d="M0 0 C1.69769531 0.12568359 1.69769531 0.12568359 3.4296875 0.25390625 C4.91143781 0.35706608 6.39320982 0.45991453 7.875 0.5625 C8.62136719 0.61857422 9.36773437 0.67464844 10.13671875 0.73242188 C14.19061542 1.13388925 14.19061542 1.13388925 18 0 C18.13535156 0.680625 18.27070313 1.36125 18.41015625 2.0625 C23.95627913 27.03665813 38.79048832 48.70663343 60 63 C56.42092512 64.78953744 52.79371744 62.65827658 49.16162109 61.45239258 C41.83937084 58.83581841 36.08630505 54.80583075 30 50 C29.16597656 49.34902344 28.33195312 48.69804687 27.47265625 48.02734375 C14.84347888 37.51382344 3.98878547 20.07601416 0 4 C0 2.68 0 1.36 0 0 Z " fill="#313131" transform="translate(465,400)"/>
<path d="M0 0 C1.18154663 -0.00430527 1.18154663 -0.00430527 2.38696289 -0.00869751 C4.05127685 -0.01073772 5.71561481 -0.00521082 7.37988281 0.00732422 C9.92827947 0.02337941 12.47509021 0.00747506 15.0234375 -0.01171875 C16.6406285 -0.00973631 18.25781852 -0.00589261 19.875 0 C20.63756104 -0.00607269 21.40012207 -0.01214539 22.18579102 -0.0184021 C27.42227779 0.05126045 27.42227779 0.05126045 29.95703125 1.75927734 C30.9375 3.3984375 30.9375 3.3984375 30.6875 6.0234375 C29.9375 8.3984375 29.9375 8.3984375 28.9375 9.3984375 C26.5618148 9.4868342 24.21541326 9.51374055 21.83984375 9.49609375 C20.77655602 9.49397133 20.77655602 9.49397133 19.69178772 9.49180603 C17.41948288 9.48619193 15.14727525 9.47363713 12.875 9.4609375 C11.33789204 9.45592431 9.80078255 9.45136109 8.26367188 9.44726562 C4.48824358 9.43621792 0.71288829 9.41894391 -3.0625 9.3984375 C-3.18496094 10.55730469 -3.30742187 11.71617188 -3.43359375 12.91015625 C-3.96423144 17.12111238 -4.94392382 21.13911878 -6.125 25.2109375 C-6.33616455 25.95214844 -6.5473291 26.69335938 -6.76489258 27.45703125 C-7.24584364 29.13588955 -7.73036621 30.81372734 -8.21777344 32.49072266 C-8.83166587 34.60386107 -9.44110314 36.71829534 -10.04785156 38.83349609 C-11.10736967 42.52413447 -12.17723069 46.21163089 -13.25 49.8984375 C-13.59490479 51.09831299 -13.93980957 52.29818848 -14.29516602 53.53442383 C-14.62444092 54.65486084 -14.95371582 55.77529785 -15.29296875 56.9296875 C-15.58582764 57.93580078 -15.87868652 58.94191406 -16.18041992 59.97851562 C-17.0625 62.3984375 -17.0625 62.3984375 -19.0625 64.3984375 C-22.35964793 64.06872271 -23.6851839 63.7757536 -26.0625 61.3984375 C-25.69717518 54.37827673 -23.27522985 47.56184899 -21.375 40.8359375 C-20.64705 38.24387779 -19.92118818 35.65123499 -19.1953125 33.05859375 C-19.01387192 32.41237061 -18.83243134 31.76614746 -18.64549255 31.1003418 C-17.49190291 26.97915145 -16.3827029 22.84858405 -15.3046875 18.70703125 C-14.90769653 17.19508179 -14.90769653 17.19508179 -14.50268555 15.65258789 C-14.01181657 13.77493048 -13.5285351 11.89526819 -13.05395508 10.01342773 C-12.83376709 9.17884033 -12.6135791 8.34425293 -12.38671875 7.484375 C-12.20197998 6.7629834 -12.01724121 6.0415918 -11.8269043 5.29833984 C-9.53244609 -0.40446239 -5.57404592 -0.04438919 0 0 Z " fill="#030402" transform="translate(490.0625,108.6015625)"/>
<path d="M0 0 C1.65734882 2.95052683 2.59325737 5.92528984 3.49536133 9.17724609 C8.84366029 28.134583 20.53209815 49.53129469 38.125 59.625 C39.07375 60.07875 40.0225 60.5325 41 61 C41 61.33 41 61.66 41 62 C34.99203557 61.51829238 30.46819238 60.25352689 25.125 57.5 C24.42955078 57.14542725 23.73410156 56.79085449 23.01757812 56.42553711 C16.81762182 53.13342939 11.83986023 49.09229899 7 44 C6.28328125 43.25621094 5.5665625 42.51242187 4.828125 41.74609375 C-6.08574112 29.95009184 -12.21154441 16.57476187 -16 1 C-10.72 1.33 -5.44 1.66 0 2 C0 1.34 0 0.68 0 0 Z " fill="#2F2F2F" transform="translate(227,394)"/>
<path d="M0 0 C6.89764198 0.69976078 13.50829639 2.15409263 20.25 3.75 C21.50345215 4.04438965 22.7569043 4.3387793 24.04833984 4.64208984 C47.05934372 10.08116705 69.97016743 15.95177593 92.89767456 21.73031616 C95.59946824 22.41118731 98.30165191 23.0904911 101.00390625 23.76953125 C101.78218781 23.96620392 102.56046936 24.16287659 103.36233521 24.36550903 C108.65901428 25.69466412 113.97593674 26.90458321 119.3125 28.0625 C125.99128448 29.51903128 132.58385689 31.17886055 139.17578125 32.99609375 C141.98336955 33.73312153 144.77307279 34.41063086 147.60546875 35.03515625 C148.37882568 35.20724609 149.15218262 35.37933594 149.94897461 35.55664062 C151.4490413 35.88641656 152.95112628 36.20718055 154.45532227 36.51757812 C161.03615559 37.97114766 161.03615559 37.97114766 163 41 C163 41.99 163 42.98 163 44 C156.8628017 42.68488608 150.77894784 41.20430236 144.69335938 39.66845703 C139.13996035 38.27252757 133.57283906 36.94093271 128 35.625 C117.20743439 33.0719842 106.45055599 30.38301897 95.69580078 27.67578125 C92.7298151 26.93227026 89.76126007 26.19989923 86.79077148 25.47460938 C81.52317771 24.16825087 76.28041629 22.81426961 71.05903625 21.33494568 C59.70479722 18.12037436 48.26745927 15.26768706 36.8125 12.4375 C33.02692917 11.50036277 29.24176276 10.56161495 25.45703125 9.62109375 C24.5572757 9.39755219 23.65752014 9.17401062 22.73049927 8.94369507 C15.13012203 7.04789887 7.55866383 5.05571583 0 3 C0 2.01 0 1.02 0 0 Z " fill="#66704D" transform="translate(124,71)"/>
<path d="M0 0 C2.4375 0.8125 2.4375 0.8125 4.4375 2.8125 C7.48025275 13.0525333 6.60034948 27.09918456 2.4375 36.8125 C2.15132812 37.52148438 1.86515625 38.23046875 1.5703125 38.9609375 C0.89315736 40.59255892 0.17113807 42.20548328 -0.5625 43.8125 C-5.08162068 42.74016628 -9.26786657 41.60255737 -13.5625 39.8125 C-14.15895881 26.51367767 -13.0074407 11.67645029 -4.06640625 1.03125 C-2.5625 -0.1875 -2.5625 -0.1875 0 0 Z " fill="#677449" transform="translate(585.5625,185.1875)"/>
<path d="M0 0 C2.30275556 1.8670991 3.67823871 3.35647741 5 6 C5.84495211 16.43031048 4.93980411 24.24042451 -1.625 32.5 C-4.30766484 35.32385772 -5.0736257 35.87916857 -8.875 36.375 C-12 36 -12 36 -14.3125 33.6875 C-17.81702423 28.10622067 -17.57372353 22.40657938 -17 16 C-15.33764376 10.03720045 -12.22672748 5.44918682 -8 1 C-5.15916359 -0.42041821 -3.14522722 -0.31452272 0 0 Z " fill="#303626" transform="translate(39,48)"/>
<path d="M0 0 C-2.78598907 2.87305123 -5.62550213 5.54745615 -8.6875 8.125 C-19.15842874 17.29690375 -26.79464654 27.58929309 -33 40 C-38.28 40 -43.56 40 -49 40 C-48.01853597 35.09267984 -47.15501855 33.41219564 -44.25 29.5625 C-43.23679687 28.20318359 -43.23679687 28.20318359 -42.203125 26.81640625 C-37.98479943 21.42383047 -33.87924196 16.7156123 -28.5 12.5 C-27.89631592 12.0251416 -27.29263184 11.5502832 -26.6706543 11.06103516 C-19.09244759 5.29682904 -9.72394685 -0.26280937 0 0 Z " fill="#5D5D5D" transform="translate(524,280)"/>
<path d="M0 0 C6.75052102 1.77910928 13.40620337 3.70438191 20 6 C20.33 5.34 20.66 4.68 21 4 C21.50313121 12.75820998 20.09338635 20.20476861 16 28 C9.50149789 27.48446121 3.33773468 26.53332291 -3 25 C-4.25769746 21.45557987 -3.89141988 19.28270952 -2.625 15.875 C-0.69623724 10.65236843 -0.29961908 5.52745549 0 0 Z " fill="#67724A" transform="translate(94,68)"/>
<path d="M0 0 C3.61987182 2.38563635 5.99885048 5.26700161 7.25 9.4375 C7.55374481 13.13223197 7.49065411 16.74078549 7.25 20.4375 C0.87390959 19.04132279 -5.47601781 17.56594013 -11.8125 16 C-12.65876953 15.79568359 -13.50503906 15.59136719 -14.37695312 15.38085938 C-19.67198129 14.07037052 -24.67847748 12.44851991 -29.75 10.4375 C-22.96745348 1.54136299 -11.31398097 -5.6934872 0 0 Z " fill="#2F3327" transform="translate(435.75,114.5625)"/>
<path d="M0 0 C-1.051875 0.8353125 -1.051875 0.8353125 -2.125 1.6875 C-12.2221368 9.80911003 -19.7958174 17.66086475 -26.80078125 28.51171875 C-27.18661377 29.10557373 -27.57244629 29.69942871 -27.9699707 30.3112793 C-29.14172211 32.16290666 -29.14172211 32.16290666 -30.375 34.9375 C-32 37 -32 37 -35.13671875 37.48828125 C-36.89435547 37.40126953 -36.89435547 37.40126953 -38.6875 37.3125 C-39.86699219 37.26738281 -41.04648438 37.22226562 -42.26171875 37.17578125 C-43.61716797 37.08876953 -43.61716797 37.08876953 -45 37 C-45.8046875 34.92578125 -45.8046875 34.92578125 -46 32 C-44.46542612 29.48149346 -43.00008436 27.4243204 -41.125 25.1875 C-40.61904297 24.5680249 -40.11308594 23.9485498 -39.59179688 23.31030273 C-31.72791636 13.8649909 -13.7678045 -4.58926817 0 0 Z " fill="#5B5B5B" transform="translate(268,282)"/>
<path d="M0 0 C19.61338464 2.39531278 38.74187201 6.6440955 58 11 C58 13.31 58 15.62 58 18 C50.13575132 17.63925465 42.60006114 16.19120983 34.91796875 14.58520508 C28.12512446 13.17994174 21.31825805 12.05156517 14.44335938 11.12744141 C9.28206031 10.38245284 4.83172789 8.97313775 0 7 C0 4.69 0 2.38 0 0 Z " fill="#889666" transform="translate(647,353)"/>
<path d="M0 0 C3.45783046 2.76182176 5.60645867 5.81937602 7 10 C7.03954234 12.33299825 7.04401732 14.66708189 7 17 C6.773125 16.443125 6.54625 15.88625 6.3125 15.3125 C3.96977378 11.18483951 1.49625606 8.48857341 -3.0625 7 C-6.61020651 7 -7.44916294 7.61373307 -10 10 C-10.825 10.556875 -11.65 11.11375 -12.5 11.6875 C-16.516863 15.40309827 -19.78071004 21.32771841 -20.11352539 26.90112305 C-20.10828857 27.59761963 -20.10305176 28.29411621 -20.09765625 29.01171875 C-20.09443359 29.76904297 -20.09121094 30.52636719 -20.08789062 31.30664062 C-20.07951172 32.09232422 -20.07113281 32.87800781 -20.0625 33.6875 C-20.05798828 34.48478516 -20.05347656 35.28207031 -20.04882812 36.10351562 C-20.0370585 38.06904257 -20.01912348 40.03453085 -20 42 C-20.66 42 -21.32 42 -22 42 C-22 42.99 -22 43.98 -22 45 C-22.99 45 -23.98 45 -25 45 C-27.87320473 36.3803858 -26.91322807 24.14337249 -23 16 C-18.08243916 7.56812169 -11.12320263 -2.57959245 0 0 Z " fill="#676E50" transform="translate(43,39)"/>
<path d="M0 0 C2.71136516 2.69178852 3.89231536 4.36022652 4.53125 8.15625 C4.5209375 9.2596875 4.510625 10.363125 4.5 11.5 C4.5103125 12.6034375 4.520625 13.706875 4.53125 14.84375 C3.89070237 18.64935654 2.72398036 20.30520515 0 23 C-3.5 24.125 -3.5 24.125 -7 24 C-11.1706361 19.93911748 -12.17943923 16.86709397 -12.3125 11.1875 C-12.28807725 7.11378565 -12.22391249 5.38065123 -10.125 1.8125 C-6.47188083 -1.30339576 -4.62970279 -1.29631678 0 0 Z " fill="#687349" transform="translate(570,360)"/>
<path d="M0 0 C1.9375 0.8125 1.9375 0.8125 3.9375 3.8125 C5.46289784 14.25256053 2.26765188 24.5824299 -3.3671875 33.265625 C-5.0625 34.8125 -5.0625 34.8125 -7.6328125 35.171875 C-10.0625 34.8125 -10.0625 34.8125 -12.0625 32.8125 C-12.78854099 28.57726091 -11.24866772 26.2436148 -9.08203125 22.68359375 C-5.95946975 16.95291575 -5.77913005 10.50735081 -5.50390625 4.1328125 C-5.35824219 3.36710937 -5.21257812 2.60140625 -5.0625 1.8125 C-2.0625 -0.1875 -2.0625 -0.1875 0 0 Z " fill="#050604" transform="translate(74.0625,57.1875)"/>
<path d="M0 0 C2.875 -0.1875 2.875 -0.1875 6 0 C9.27851883 4.91777825 8.52658399 10.25252838 8 16 C7.04861072 19.87911814 5.70838643 23.39471554 4 27 C3.68804687 27.66515625 3.37609375 28.3303125 3.0546875 29.015625 C2.125 30.6875 2.125 30.6875 0 33 C-3.125 33.5 -3.125 33.5 -6 33 C-6.66 32.34 -7.32 31.68 -8 31 C-7.76045889 28.04565963 -7.10001678 26.16524511 -5.5625 23.625 C-2.17146474 17.92806076 -1.68940322 11.93087161 -1.24609375 5.453125 C-1 3 -1 3 0 0 Z " fill="#030502" transform="translate(86,63)"/>
<path d="M0 0 C5.94 0 11.88 0 18 0 C18 9.02601156 18 9.02601156 15.625 12.4375 C15.18414062 13.09621094 14.74328125 13.75492188 14.2890625 14.43359375 C13 16 13 16 11 17 C4.75740319 17.57801822 4.75740319 17.57801822 1.625 15.1875 C-1.31748324 11.22646487 -1.17131813 7.79690774 -1 3 C-0.67 2.01 -0.34 1.02 0 0 Z " fill="#7C865C" transform="translate(240,165)"/>
<path d="M0 0 C20.84446652 1.7015891 20.84446652 1.7015891 26.4375 7.9375 C28.04788772 11.09385992 28.14543945 12.56181139 28 16 C22.11342497 15.64361028 16.86493958 14.84697269 11.31640625 12.83203125 C8.71421005 11.89734695 6.08802521 11.09908343 3.4375 10.3125 C2.16712891 9.93544922 2.16712891 9.93544922 0.87109375 9.55078125 C0.25363281 9.36902344 -0.36382813 9.18726563 -1 9 C-0.67 6.03 -0.34 3.06 0 0 Z " fill="#889664" transform="translate(624,192)"/>
<path d="M0 0 C4.455 0.99 4.455 0.99 9 2 C9.42341699 11.87972987 8.09130604 20.01828863 2 28 C-0.31 27.67 -2.62 27.34 -5 27 C-3.26842105 18.71052632 -3.26842105 18.71052632 -1.9375 15.1875 C-0.47734957 10.22298854 -0.31654961 5.14809635 0 0 Z " fill="#636D4B" transform="translate(60,58)"/>
<path d="M0 0 C0.66 0.33 1.32 0.66 2 1 C2 1.66 2 2.32 2 3 C1.0925 3.5775 0.185 4.155 -0.75 4.75 C-5.64067538 8.13585219 -8.12492692 12.43160116 -10 18 C-10.47647549 24.00036083 -10.30841588 30.11212853 -9 36 C-11.74637817 35.62118922 -12.80049058 35.22167713 -14.6875 33.125 C-17.94360364 27.85321315 -17.5363916 21.98970615 -17 16 C-15.33764376 10.03720045 -12.22672748 5.44918682 -8 1 C-5.26094655 -0.36952673 -3.02912668 -0.12621361 0 0 Z " fill="#050703" transform="translate(39,48)"/>
<path d="M0 0 C4.89702349 0.65906732 9.40920286 2.01986289 14.0625 3.625 C15.65353973 4.16567692 17.24469042 4.70602739 18.8359375 5.24609375 C19.67092773 5.53081543 20.50591797 5.81553711 21.36621094 6.10888672 C24.10676914 7.03612415 26.85304458 7.94430053 29.6015625 8.84765625 C30.53218506 9.15429199 31.46280762 9.46092773 32.42163086 9.77685547 C34.22389902 10.37024061 36.02676858 10.96180321 37.83032227 11.55126953 C40.2288783 12.34483607 42.61693473 13.16114033 45 14 C45.69174316 14.24186035 46.38348633 14.4837207 47.09619141 14.73291016 C49.9799355 15.83654693 51.71443151 16.56543925 53.4375 19.1875 C53.623125 19.785625 53.80875 20.38375 54 21 C53.16082031 20.70867187 52.32164063 20.41734375 51.45703125 20.1171875 C42.75808167 17.15227221 34.00422014 14.51228731 25.14770508 12.05615234 C20.99083817 10.8953137 16.98147923 9.68418787 13 8 C9.35358484 6.91247267 5.70022482 5.88805396 2 5 C1.67 5.99 1.34 6.98 1 8 C0.67 5.36 0.34 2.72 0 0 Z " fill="#67704E" transform="translate(58,45)"/>
<path d="M0 0 C2.64 0 5.28 0 8 0 C7.58640317 9.35584551 6.49682196 16.69817483 2 25 C-0.64 25 -3.28 25 -6 25 C-5.566875 23.845 -5.13375 22.69 -4.6875 21.5 C-2.33494367 14.52074956 -1.25246684 7.23943598 0 0 Z " fill="#676F4C" transform="translate(78,64)"/>
<path d="M0 0 C36.63 0 73.26 0 111 0 C111 0.33 111 0.66 111 1 C74.99510042 1.85079451 39.01448238 2.13645131 3 2 C3 2.66 3 3.32 3 4 C2.34 4 1.68 4 1 4 C0.67 4.66 0.34 5.32 0 6 C0 4.02 0 2.04 0 0 Z " fill="#8C9774" transform="translate(315,74)"/>
<path d="M0 0 C4.75 0.75 4.75 0.75 7 3 C8.14222874 6.99780058 8.08107875 10.8649837 8 15 C3.02906176 14.58846263 -1.44508386 14.20399168 -6 12 C-5.59791618 6.37082652 -3.71069698 3.99613521 0 0 Z " fill="#7A8559" transform="translate(583,185)"/>
<path d="M0 0 C3.45245269 2.77681141 5.60408693 5.8122608 7 10 C7.03954234 12.33299825 7.04401732 14.66708189 7 17 C6.773125 16.443125 6.54625 15.88625 6.3125 15.3125 C4.31914835 11.80040423 1.63880251 8.81940125 -2 7 C-7.97067903 6.4029321 -12.11912807 7.68608912 -17 11 C-19.4595774 13.56809828 -19.4595774 13.56809828 -21 16 C-20.48637408 11.66867694 -19.11158979 9.50784116 -16.1875 6.3125 C-15.15689453 5.16201172 -15.15689453 5.16201172 -14.10546875 3.98828125 C-10.06898398 0.17646168 -5.53568871 -1.42376639 0 0 Z " fill="#88936B" transform="translate(43,39)"/>
<path d="M0 0 C2.27130656 0.30904171 4.54203305 0.62234907 6.8125 0.9375 C8.07707031 1.11152344 9.34164062 1.28554688 10.64453125 1.46484375 C14 2 14 2 17 3 C17 4.32 17 5.64 17 7 C15.35 7 13.7 7 12 7 C11.67 19.54 11.34 32.08 11 45 C10.67 45 10.34 45 10 45 C10 34.11 10 23.22 10 12 C8.35 12 6.7 12 5 12 C6.32 11.67 7.64 11.34 9 11 C9 9.68 9 8.36 9 7 C7.68 6.34 6.36 5.68 5 5 C5 4.34 5 3.68 5 3 C2.525 2.01 2.525 2.01 0 1 C0 0.67 0 0.34 0 0 Z " fill="#33362B" transform="translate(695,352)"/>
<path d="M0 0 C0.99 0 1.98 0 3 0 C2.33208673 5.59034255 0.51133532 10.56929947 -1.4375 15.8125 C-1.90639648 17.11864258 -1.90639648 17.11864258 -2.38476562 18.45117188 C-2.68962891 19.27810547 -2.99449219 20.10503906 -3.30859375 20.95703125 C-3.58501709 21.70960205 -3.86144043 22.46217285 -4.14624023 23.23754883 C-5 25 -5 25 -7 26 C-7.38005037 19.96771118 -6.06745187 15.28658034 -4.0625 9.625 C-3.78470703 8.80644531 -3.50691406 7.98789063 -3.22070312 7.14453125 C-1.16205752 1.16205752 -1.16205752 1.16205752 0 0 Z " fill="#8B966C" transform="translate(277,202)"/>
<path d="M0 0 C7.09267526 0.69536032 14.17883178 1.90657245 21 4 C21.33 4.66 21.66 5.32 22 6 C21.67 6.66 21.34 7.32 21 8 C17.87405648 7.35867797 14.74942478 6.71117727 11.625 6.0625 C10.73554688 5.88009766 9.84609375 5.69769531 8.9296875 5.50976562 C8.07890625 5.33251953 7.228125 5.15527344 6.3515625 4.97265625 C5.17327881 4.72914429 5.17327881 4.72914429 3.97119141 4.48071289 C2 4 2 4 0 3 C0 2.01 0 1.02 0 0 Z " fill="#6A7252" transform="translate(124,71)"/>
<path d="M0 0 C17.49 0 34.98 0 53 0 C53 0.33 53 0.66 53 1 C36.665 1.99 36.665 1.99 20 3 C20 2.34 20 1.68 20 1 C13.4 1 6.8 1 0 1 C0 0.67 0 0.34 0 0 Z " fill="#818B6E" transform="translate(406,73)"/>
<path d="M0 0 C0.33 0.66 0.66 1.32 1 2 C1.66 1.67 2.32 1.34 3 1 C7.48647664 -0.49863401 10.54335269 0.73728326 15 2 C15.33 3.65 15.66 5.3 16 7 C14.081875 6.566875 14.081875 6.566875 12.125 6.125 C7.09828073 5.00617536 2.05314632 3.9916404 -3 3 C-3 2.34 -3 1.68 -3 1 C-2.01 0.67 -1.02 0.34 0 0 Z " fill="#69744F" transform="translate(271,108)"/>
<path d="M0 0 C0.99 0.66 1.98 1.32 3 2 C2.54625 2.78375 2.0925 3.5675 1.625 4.375 C0.21378399 7.52309726 -0.38899865 9.78457737 -0.9375 13.125 C-1.66087529 17.23030932 -2.51345175 19.44319795 -6 22 C-5.35824435 17.90498775 -4.55566338 13.89911276 -3.5625 9.875 C-3.31628906 8.86179688 -3.07007813 7.84859375 -2.81640625 6.8046875 C-2.09555155 4.32825843 -1.2431303 2.24947388 0 0 Z " fill="#636A4E" transform="translate(426,234)"/>
<path d="M0 0 C1.485 0.99 1.485 0.99 3 2 C2.67 6.29 2.34 10.58 2 15 C1.34 15 0.68 15 0 15 C0 16.65 0 18.3 0 20 C-0.33 20 -0.66 20 -1 20 C-1.02703562 17.41659616 -1.04685611 14.83347692 -1.0625 12.25 C-1.07087891 11.52039063 -1.07925781 10.79078125 -1.08789062 10.0390625 C-1.10391684 6.51329442 -0.95292713 3.38965084 0 0 Z " fill="#5F6548" transform="translate(18,61)"/>
<path d="M0 0 C5.75 1.625 5.75 1.625 8 5 C8.125 7.6875 8.125 7.6875 8 10 C5.03 9.505 5.03 9.505 2 9 C2.226875 8.401875 2.45375 7.80375 2.6875 7.1875 C2.790625 6.465625 2.89375 5.74375 3 5 C1.60411246 3.35405861 1.60411246 3.35405861 0 2 C0 1.34 0 0.68 0 0 Z " fill="#909A72" transform="translate(644,198)"/>
<path d="M0 0 C2.31 0.66 4.62 1.32 7 2 C7 3.65 7 5.3 7 7 C2.25 8 2.25 8 0 8 C0 5.36 0 2.72 0 0 Z " fill="#6C774E" transform="translate(61,58)"/>
<path d="M0 0 C4.19469571 0.59924224 8.00999834 1.57499941 12 3 C11.01 4.485 11.01 4.485 10 6 C7.36 5.67 4.72 5.34 2 5 C1.67 5.99 1.34 6.98 1 8 C0.67 5.36 0.34 2.72 0 0 Z " fill="#61694B" transform="translate(58,45)"/>
<path d="M0 0 C2.64 0.33 5.28 0.66 8 1 C8 2.32 8 3.64 8 5 C5.36 5.66 2.72 6.32 0 7 C0 4.69 0 2.38 0 0 Z " fill="#8E9771" transform="translate(624,192)"/>
<path d="M0 0 C4.20969919 1.50346399 5.91860139 4.14555814 8 8 C7.67 9.32 7.34 10.64 7 12 C4.36 9.03 1.72 6.06 -1 3 C-0.67 2.01 -0.34 1.02 0 0 Z " fill="#5F5F5F" transform="translate(614,305)"/>
<path d="M0 0 C7.11120489 1.31117661 14.04699943 3.01720516 21 5 C21 5.33 21 5.66 21 6 C13.42733125 6.5939348 7.12481267 4.43286286 0 2 C0 1.34 0 0.68 0 0 Z " fill="#5F654D" transform="translate(300,106)"/>
<path d="M0 0 C4.23956592 4.55360784 7.01178998 10.13523438 9 16 C8.67 16.99 8.34 17.98 8 19 C6.65632608 16.58858519 5.32497485 14.17166012 4 11.75 C3.42765625 10.72712891 3.42765625 10.72712891 2.84375 9.68359375 C2.4828125 9.01972656 2.121875 8.35585938 1.75 7.671875 C1.24726562 6.76066895 1.24726562 6.76066895 0.734375 5.83105469 C0 4 0 4 0 0 Z " fill="#4E4E4E" transform="translate(622,314)"/>
<path d="M0 0 C0 3.10551666 -0.5393715 4.35261084 -2 7 C-4.64 7 -7.28 7 -10 7 C-9.67 6.34 -9.34 5.68 -9 5 C-8.34 5 -7.68 5 -7 5 C-6.360625 4.360625 -5.72125 3.72125 -5.0625 3.0625 C-3 1 -3 1 0 0 Z " fill="#606848" transform="translate(82,82)"/>
<path d="M0 0 C1.09570312 0.19464844 2.19140625 0.38929687 3.3203125 0.58984375 C4.16335937 0.74582031 5.00640625 0.90179688 5.875 1.0625 C2.56129 3.27164 1.5303979 3.28731553 -2.3125 3.1875 C-3.21355469 3.16945313 -4.11460937 3.15140625 -5.04296875 3.1328125 C-5.73003906 3.10960938 -6.41710937 3.08640625 -7.125 3.0625 C-7.455 2.0725 -7.785 1.0825 -8.125 0.0625 C-5.2144446 -1.3927777 -3.16650948 -0.57266661 0 0 Z " fill="#616A4C" transform="translate(234.125,96.9375)"/>
<path d="M0 0 C0.33 0 0.66 0 1 0 C1.05392397 2.77109307 1.09363455 5.54113818 1.125 8.3125 C1.15013672 9.49102539 1.15013672 9.49102539 1.17578125 10.69335938 C1.18222656 11.45068359 1.18867187 12.20800781 1.1953125 12.98828125 C1.21102295 14.03302612 1.21102295 14.03302612 1.22705078 15.09887695 C1 17 1 17 -1 20 C-2.25180279 15.78080897 -1.67252421 12.03911435 -1.0625 7.75 C-0.96259766 7.00492188 -0.86269531 6.25984375 -0.75976562 5.4921875 C-0.51319844 3.66054558 -0.25749609 1.83013749 0 0 Z " fill="#5D634C" transform="translate(50,51)"/>
<path d="M0 0 C0.66 0 1.32 0 2 0 C1.52613972 4.26474248 -0.77031321 6.35752899 -4 9 C-6.8125 9.3125 -6.8125 9.3125 -9 9 C-8.38125 8.938125 -7.7625 8.87625 -7.125 8.8125 C-4.72238859 8.171081 -4.72238859 8.171081 -3.75 5.4375 C-3.5025 4.633125 -3.255 3.82875 -3 3 C-2.34 3 -1.68 3 -1 3 C-0.67 2.01 -0.34 1.02 0 0 Z " fill="#596046" transform="translate(572,375)"/>
<path d="M0 0 C4.95 0.99 4.95 0.99 10 2 C10 2.33 10 2.66 10 3 C8.329375 3.4021875 8.329375 3.4021875 6.625 3.8125 C2.78159049 4.65809019 2.78159049 4.65809019 1 8 C0 7 0 7 -0.0625 3.4375 C-0.041875 2.303125 -0.02125 1.16875 0 0 Z " fill="#83886D" transform="translate(647,353)"/>
<path d="M0 0 C2.27130656 0.30904171 4.54203305 0.62234907 6.8125 0.9375 C8.07707031 1.11152344 9.34164062 1.28554688 10.64453125 1.46484375 C14 2 14 2 17 3 C17 3.66 17 4.32 17 5 C10.69732561 4.63223832 5.66748157 3.83374078 0 1 C0 0.67 0 0.34 0 0 Z " fill="#7D7D7E" transform="translate(695,352)"/>
<path d="M0 0 C0.99 0 1.98 0 3 0 C6.06212737 3.06212737 8.59998104 6.39997156 11 10 C10.625 12.1875 10.625 12.1875 10 14 C9.61328125 13.40832031 9.2265625 12.81664062 8.828125 12.20703125 C6.04615051 7.98586699 3.25370649 3.87941928 0 0 Z " fill="#676F52" transform="translate(291,252)"/>
<path d="M0 0 C0 0.33 0 0.66 0 1 C-5.28 1.66 -10.56 2.32 -16 3 C-16 2.34 -16 1.68 -16 1 C-10.01651494 -2.31001301 -6.45358642 -2.03412361 0 0 Z " fill="#5F674B" transform="translate(430,103)"/>
<path d="M0 0 C0.66 0.66 1.32 1.32 2 2 C1.2575 2.639375 0.515 3.27875 -0.25 3.9375 C-3.70327976 7.34158774 -5.26323259 11.54650144 -7 16 C-7.66 15.01 -8.32 14.02 -9 13 C-7.9326505 7.6632525 -3.58366713 3.86154507 0 0 Z " fill="#61684C" transform="translate(541,328)"/>
<path d="M0 0 C6.17784711 0.33697348 6.17784711 0.33697348 8.9375 2.5625 C9.288125 3.036875 9.63875 3.51125 10 4 C9.67 4.66 9.34 5.32 9 6 C5.37 4.68 1.74 3.36 -2 2 C-1.34 1.34 -0.68 0.68 0 0 Z " fill="#6C7753" transform="translate(102,60)"/>
<path d="M0 0 C0.99 0.66 1.98 1.32 3 2 C1.50902342 5.7952131 -0.75700849 7.61042731 -4 10 C-3.38461538 3.47692308 -3.38461538 3.47692308 -1.4375 1.0625 C-0.7259375 0.5365625 -0.7259375 0.5365625 0 0 Z " fill="#606849" transform="translate(562,360)"/>
<path d="M0 0 C0.66 0.66 1.32 1.32 2 2 C1.69690596 6.09176955 1.12300942 9.46165096 -1 13 C-1.33 13 -1.66 13 -2 13 C-2.19294408 8.17639811 -1.75747614 4.50353262 0 0 Z " fill="#808B68" transform="translate(272,215)"/>
<path d="M0 0 C5.28497409 -0.44041451 5.28497409 -0.44041451 8 0 C10.5 2.5 10.5 2.5 12 5 C10.68 5.33 9.36 5.66 8 6 C7.4121875 5.0409375 7.4121875 5.0409375 6.8125 4.0625 C4.61527704 1.56221181 3.24208567 1.35049575 0 1 C0 0.67 0 0.34 0 0 Z " fill="#808869" transform="translate(35,39)"/>
<path d="M0 0 C0.33 0 0.66 0 1 0 C1.24878997 2.43694274 1.47463404 4.87238389 1.6875 7.3125 C1.79674805 8.34793945 1.79674805 8.34793945 1.90820312 9.40429688 C2.07421875 11.42578125 2.07421875 11.42578125 2 15 C1.01 15.99 0.02 16.98 -1 18 C-0.505 9.09 -0.505 9.09 0 0 Z " fill="#5C6248" transform="translate(304,276)"/>
<path d="M0 0 C0.99 1.485 0.99 1.485 2 3 C2.66 2.67 3.32 2.34 4 2 C4.99 2.33 5.98 2.66 7 3 C7 4.32 7 5.64 7 7 C4.69 6.67 2.38 6.34 0 6 C0 4.02 0 2.04 0 0 Z " fill="#828D62" transform="translate(623,195)"/>
<path d="M0 0 C1.39456452 0.00667256 2.78911118 0.01863093 4.18359375 0.03515625 C4.89451172 0.03966797 5.60542969 0.04417969 6.33789062 0.04882812 C8.09899388 0.06064761 9.86005411 0.07858362 11.62109375 0.09765625 C11.62109375 0.42765625 11.62109375 0.75765625 11.62109375 1.09765625 C10.77804687 1.14664063 9.935 1.195625 9.06640625 1.24609375 C7.97070312 1.32085937 6.875 1.395625 5.74609375 1.47265625 C4.11027344 1.57707031 4.11027344 1.57707031 2.44140625 1.68359375 C-0.50937099 1.83019116 -0.50937099 1.83019116 -2.37890625 4.09765625 C-3.07639208 5.41512949 -3.74850582 6.74679818 -4.37890625 8.09765625 C-4.42132348 5.7647085 -4.41983562 3.43063058 -4.37890625 1.09765625 C-3.37890625 0.09765625 -3.37890625 0.09765625 0 0 Z " fill="#626850" transform="translate(482.37890625,107.90234375)"/>
<path d="M0 0 C0.66 0 1.32 0 2 0 C3.99785435 4.1205746 4.17835515 7.45194365 4 12 C3.7525 11.46375 3.505 10.9275 3.25 10.375 C1.70303025 7.43575748 -0.13014369 4.74245592 -2 2 C-1.34 1.34 -0.68 0.68 0 0 Z " fill="#889270" transform="translate(46,44)"/>
<path d="M0 0 C-3.13594179 2.65348921 -6.08936183 3.80980577 -10 5 C-10.99 5.495 -10.99 5.495 -12 6 C-10.91663521 2.50915788 -9.8952877 1.94478806 -6.5625 0.1875 C-3 -1 -3 -1 0 0 Z " fill="#6A7352" transform="translate(37,46)"/>
<path d="M0 0 C-1.45449401 1.0055761 -2.91372443 2.00430435 -4.375 3 C-5.59316406 3.8353125 -5.59316406 3.8353125 -6.8359375 4.6875 C-9 6 -9 6 -11 6 C-9.89210592 2.67631776 -9.51563783 2.38436907 -6.625 0.75 C-6.01914062 0.39421875 -5.41328125 0.0384375 -4.7890625 -0.328125 C-3 -1 -3 -1 0 0 Z " fill="#656D50" transform="translate(505,253)"/>
<path d="M0 0 C2.78637633 4.1795645 1.79562512 6.14668677 1 11 C0.01 11.33 -0.98 11.66 -2 12 C-1.34 8.04 -0.68 4.08 0 0 Z " fill="#707857" transform="translate(650,228)"/>
<path d="M0 0 C0.33 0 0.66 0 1 0 C1.22245393 1.60226955 1.42746669 3.20696767 1.625 4.8125 C1.74101562 5.70582031 1.85703125 6.59914062 1.9765625 7.51953125 C2 10 2 10 0 13 C-1.49084832 8.52745503 -1.49084832 4.47254497 0 0 Z " fill="#6C7259" transform="translate(240,165)"/>
<path d="M0 0 C0.33 0 0.66 0 1 0 C1.08126087 2.08268593 1.13930839 4.16628658 1.1875 6.25 C1.23970703 7.99023438 1.23970703 7.99023438 1.29296875 9.765625 C0.97982934 13.22268407 0.34290892 14.51565563 -2 17 C-1.03644647 5.47835991 -1.03644647 5.47835991 0 0 Z " fill="#707A57" transform="translate(453,126)"/>
<path d="M0 0 C0.99 0.66 1.98 1.32 3 2 C2.5504955 3.31554985 2.09010284 4.62738358 1.625 5.9375 C1.36976563 6.66839844 1.11453125 7.39929688 0.8515625 8.15234375 C0 10 0 10 -2 11 C-1.125 3.375 -1.125 3.375 0 0 Z " fill="#60674D" transform="translate(440,178)"/>
<path d="M0 0 C2.97 0 5.94 0 9 0 C9 0.66 9 1.32 9 2 C8.01 2 7.02 2 6 2 C6 2.66 6 3.32 6 4 C4.02 3.34 2.04 2.68 0 2 C0 1.34 0 0.68 0 0 Z " fill="#6F7851" transform="translate(466,173)"/>
<path d="M0 0 C0.66 0.33 1.32 0.66 2 1 C0.02 3.31 -1.96 5.62 -4 8 C-4.99 7.67 -5.98 7.34 -7 7 C-6.67 6.34 -6.34 5.68 -6 5 C-5.01 5 -4.02 5 -3 5 C-3 4.01 -3 3.02 -3 2 C-2.01 1.34 -1.02 0.68 0 0 Z " fill="#5D624B" transform="translate(42,83)"/>
<path d="M0 0 C0.33 0 0.66 0 1 0 C1.125 7.75 1.125 7.75 0 10 C-0.66 10 -1.32 10 -2 10 C-1.85950482 8.52031676 -1.71245174 7.04125484 -1.5625 5.5625 C-1.48128906 4.73878906 -1.40007812 3.91507812 -1.31640625 3.06640625 C-1 1 -1 1 0 0 Z " fill="#61664E" transform="translate(302,298)"/>
<path d="M0 0 C1.67542976 0.28604898 3.34385343 0.61781233 5 1 C4.360625 1.4125 3.72125 1.825 3.0625 2.25 C0.79009069 4.17810487 0.39803561 5.11424181 0 8 C-0.66 8 -1.32 8 -2 8 C-1.125 1.125 -1.125 1.125 0 0 Z " fill="#616B48" transform="translate(623,201)"/>
<path d="M0 0 C-2.64 1.98 -5.28 3.96 -8 6 C-7.67 4.02 -7.34 2.04 -7 0 C-3.98968256 -0.93423645 -3.13349732 -1.04449911 0 0 Z " fill="#666E52" transform="translate(560,351)"/>
<path d="M0 0 C2.97 0 5.94 0 9 0 C6 3 6 3 2.8125 3.1875 C1.4203125 3.0946875 1.4203125 3.0946875 0 3 C0 2.01 0 1.02 0 0 Z " fill="#727A55" transform="translate(509,119)"/>
<path d="M0 0 C8.19256018 -0.4726477 8.19256018 -0.4726477 11.5625 1.5 C12.036875 1.995 12.51125 2.49 13 3 C8.17639811 3.19294408 4.50353262 2.75747614 0 1 C0 0.67 0 0.34 0 0 Z " fill="#60664B" transform="translate(334,105)"/>
<path d="M0 0 C2.475 0.495 2.475 0.495 5 1 C4.505 1.61875 4.01 2.2375 3.5 2.875 C1.80777227 4.83880904 1.80777227 4.83880904 2 7 C2.66 7.33 3.32 7.66 4 8 C2.68 8 1.36 8 0 8 C0 5.36 0 2.72 0 0 Z " fill="#909973" transform="translate(124,74)"/>
<path d="M0 0 C4.29 0 8.58 0 13 0 C13 0.33 13 0.66 13 1 C9.37 1 5.74 1 2 1 C2 1.66 2 2.32 2 3 C1.34 3 0.68 3 0 3 C-0.33 3.66 -0.66 4.32 -1 5 C-0.67 3.35 -0.34 1.7 0 0 Z " fill="#94A07B" transform="translate(316,75)"/>
<path d="M0 0 C1.99097846 2.98646769 2.94124926 5.59687262 4 9 C1 8 1 8 -0.6875 4.9375 C-1.120625 3.968125 -1.55375 2.99875 -2 2 C-1.34 2 -0.68 2 0 2 C0 1.34 0 0.68 0 0 Z " fill="#646B4A" transform="translate(548,376)"/>
<path d="M0 0 C6.15234375 0.5859375 6.15234375 0.5859375 8 1 C8.33 1.66 8.66 2.32 9 3 C4.25 4.125 4.25 4.125 2 3 C2 2.34 2 1.68 2 1 C1.34 0.67 0.68 0.34 0 0 Z " fill="#77815F" transform="translate(670,357)"/>
<path d="M0 0 C0.66 0 1.32 0 2 0 C1.01 3.3 0.02 6.6 -1 10 C-1.66 10 -2.32 10 -3 10 C-2.69201674 8.51988629 -2.378482 7.04092675 -2.0625 5.5625 C-1.88847656 4.73878906 -1.71445312 3.91507812 -1.53515625 3.06640625 C-1 1 -1 1 0 0 Z " fill="#656E51" transform="translate(459,324)"/>
<path d="M0 0 C0.33 0 0.66 0 1 0 C1.1953125 6.0546875 1.1953125 6.0546875 1 8 C0.34 8.66 -0.32 9.32 -1 10 C-2.15837626 5.94568308 -1.83691257 3.78187881 0 0 Z " fill="#7D8666" transform="translate(312,85)"/>
<path d="M0 0 C8.03571429 0.80357143 8.03571429 0.80357143 12 3 C10.56344146 3.08131463 9.1255517 3.13933559 7.6875 3.1875 C6.48673828 3.23970703 6.48673828 3.23970703 5.26171875 3.29296875 C2.52148416 2.93801608 1.70828921 2.10633718 0 0 Z " fill="#7C8568" transform="translate(684,360)"/>
<path d="M0 0 C0.99 0 1.98 0 3 0 C2.34 3.63 1.68 7.26 1 11 C0.67 11 0.34 11 0 11 C0 7.37 0 3.74 0 0 Z " fill="#727A57" transform="translate(297,122)"/>
<path d="M0 0 C0.99 0 1.98 0 3 0 C2 2 1 4 0 6 C-1.65 5.67 -3.3 5.34 -5 5 C-4.360625 4.731875 -3.72125 4.46375 -3.0625 4.1875 C-0.66868314 3.11332248 -0.66868314 3.11332248 0 0 Z " fill="#666E53" transform="translate(397,116)"/>
<path d="M0 0 C0.33 0 0.66 0 1 0 C1 2.64 1 5.28 1 8 C0.01 8.33 -0.98 8.66 -2 9 C-1.125 1.125 -1.125 1.125 0 0 Z " fill="#5D674B" transform="translate(296,326)"/>
<path d="M0 0 C0.33 0.99 0.66 1.98 1 3 C-1 6 -1 6 -3.625 6.6875 C-4.800625 6.8421875 -4.800625 6.8421875 -6 7 C-4.02 4.69 -2.04 2.38 0 0 Z " fill="#676F50" transform="translate(408,291)"/>
<path d="M0 0 C-1.65 1.65 -3.3 3.3 -5 5 C-5.33 4.01 -5.66 3.02 -6 2 C-6.66 1.67 -7.32 1.34 -8 1 C-5.07175348 0.02391783 -3.04386724 -0.08226668 0 0 Z " fill="#515151" transform="translate(524,280)"/>
<path d="M0 0 C2 3 2 3 1.7578125 5.04296875 C1.171875 7.02864583 0.5859375 9.01432292 0 11 C-1.125 9.4375 -1.125 9.4375 -2 7 C-1.125 3.25 -1.125 3.25 0 0 Z " fill="#5D644C" transform="translate(466,152)"/>
<path d="M0 0 C0.99 0 1.98 0 3 0 C2.67 2.64 2.34 5.28 2 8 C0 5 0 5 0 3 C-0.66 2.67 -1.32 2.34 -2 2 C-1.34 1.34 -0.68 0.68 0 0 Z " fill="#7F8767" transform="translate(435,149)"/>
<path d="M0 0 C1.65 0.33 3.3 0.66 5 1 C5 1.99 5 2.98 5 4 C2.69 3.67 0.38 3.34 -2 3 C-1.34 2.01 -0.68 1.02 0 0 Z " fill="#909D72" transform="translate(73,54)"/>
<path d="M0 0 C0.66 1.32 1.32 2.64 2 4 C0.68 5.32 -0.64 6.64 -2 8 C-1.125 1.125 -1.125 1.125 0 0 Z " fill="#5E664B" transform="translate(299,313)"/>
<path d="M0 0 C1.31223496 3.93670488 0.24296256 6.12488144 -1 10 C-1.33 10 -1.66 10 -2 10 C-2.1953125 3.9453125 -2.1953125 3.9453125 -2 2 C-1.34 1.34 -0.68 0.68 0 0 Z " fill="#626A50" transform="translate(365,234)"/>
<path d="M0 0 C1.32 0.33 2.64 0.66 4 1 C3.34 3.31 2.68 5.62 2 8 C1.67 8 1.34 8 1 8 C0.67 5.36 0.34 2.72 0 0 Z " fill="#5B5F4C" transform="translate(58,45)"/>
<path d="" fill="#F1F1EF" transform="translate(0,0)"/>
<path d="" fill="#F1F0EE" transform="translate(0,0)"/>
</svg>
