<svg xmlns="http://www.w3.org/2000/svg" viewBox="0 0 32 32" fill="currentColor">
  <path d="M8 18l16 0 4 8H4z"/>
  <rect x="10" y="14" width="12" height="4"/>
  <rect x="12" y="12" width="8" height="2"/>
  <rect x="14" y="10" width="4" height="2"/>
  <circle cx="12" cy="21" r="1.5"/>
  <circle cx="16" cy="21" r="1.5"/>
  <circle cx="20" cy="21" r="1.5"/>
  <path d="M4 26c2-1 4-1 6 0 2 1 4 1 6 0 2-1 4-1 6 0 2 1 4 1 6 0" fill="none" stroke="currentColor" stroke-width="1.5"/>
  <line x1="24" y1="18" x2="29" y2="16" stroke="currentColor" stroke-width="3"/>
  <line x1="24" y1="18" x2="29" y2="20" stroke="currentColor" stroke-width="3"/>
</svg>
