<svg version="1.1" xmlns="http://www.w3.org/2000/svg" style="display: block;" viewBox="0 0 2048 1532" width="893" height="668" preserveAspectRatio="none">
<defs>
	<linearGradient id="Gradient1" gradientUnits="userSpaceOnUse" x1="1881.74" y1="764.815" x2="1897.74" y2="750.05">
		<stop class="stop0" offset="0" stop-opacity="1" stop-color="rgb(91,68,43)"/>
		<stop class="stop1" offset="1" stop-opacity="1" stop-color="rgb(127,83,57)"/>
	</linearGradient>
</defs>
<path transform="translate(0,0)" fill="rgb(0,0,0)" d="M 846.669 23.0098 C 878.608 23.8636 1004.62 80.9886 1036.31 98.7922 C 1046.34 104.427 1048.8 116.172 1051.21 126.856 C 1057.69 131.532 1069.96 138.45 1077.22 142.846 C 1094.8 153.521 1112.44 164.105 1130.13 174.598 C 1151.02 187.03 1182.96 207.849 1203.79 217.912 C 1217.01 215.397 1226.81 215.837 1240.18 215.519 C 1285.75 214.433 1331.28 223.303 1372.68 242.492 C 1383.53 245.095 1401.27 262.616 1410.46 264.434 C 1485.05 279.188 1552.82 300.363 1589.03 380.669 C 1600.75 372.517 1607.04 369.02 1620.32 363.454 C 1617.68 347.688 1615.64 334.306 1611.75 318.784 C 1605.74 294.865 1593 262.25 1589.97 238.69 C 1590.5 237.946 1591.32 236.795 1592.01 236.209 C 1601.2 228.484 1642.35 227.352 1654.51 227.573 C 1771.36 229.695 1878.31 278.701 1895.08 405.644 C 1901.03 450.661 1894 498.392 1909.79 541.703 C 1917.63 563.207 1927.6 569.897 1942.51 585.051 C 1944.07 590.958 1937.48 596.074 1932.39 596.812 C 1878.12 604.701 1845.48 584.707 1830.75 533.709 C 1826.94 546.109 1820.64 579.228 1821.03 591.409 C 1821.65 611.119 1839.17 645.542 1846.36 664.118 C 1839.89 678.74 1836.57 676.202 1821.19 674.433 C 1808.74 673.002 1796.38 670.505 1783.87 669.227 C 1784.05 674.581 1786.27 686.335 1787.12 692.151 C 1834.02 699.251 1880.19 705.077 1915.18 737.392 C 1951.21 770.671 1956.17 797.496 1963.94 841.827 C 1964.32 844.027 1989.58 889.451 1993.2 897.517 C 2065.18 1057.93 2042.91 1264.12 1924.6 1397.15 C 1864.36 1465 1781.57 1507.72 1690.15 1510 C 1620.89 1511.73 1553.61 1489.13 1497.95 1448.37 C 1477.61 1433.47 1466.86 1421.08 1448.95 1404.52 C 1442.45 1411.64 1436.45 1417.84 1429.23 1424.24 C 1283.82 1553.02 1089.99 1533.27 964.527 1389.16 C 958.062 1396.27 951.838 1404 945.121 1410.8 C 917.105 1438.75 884.582 1461.78 848.916 1478.93 C 776.879 1514.36 693.759 1519.89 617.662 1494.31 C 521.004 1461.25 451.83 1389.43 407.315 1298.74 C 312.25 1105.07 369.552 812.982 574.529 712.797 C 602.562 697.618 646.139 682.307 678.043 681.048 C 679.921 670.231 685.304 634.368 688.188 626.098 C 659.56 611.437 668.037 610.8 673.006 581.177 C 663.548 577.858 637.751 562.058 628.141 556.439 L 539.941 504.583 L 203.092 307.44 C 195.71 309.798 184.857 313.643 177.167 310.746 C 169.268 307.77 161.573 301.728 154.563 297.039 C 121.527 274.942 33.4106 206.252 18.3707 173.408 C 16.6618 169.676 15.1087 164.643 16.8008 160.635 C 17.7969 158.275 20.0518 156.794 22.4155 156.026 C 44.7315 148.778 190.286 211.414 217.461 226.209 C 229.222 232.612 231.454 243.239 234.879 255.139 C 258.969 270.458 291.879 288.366 317.097 303.08 L 496.5 407.594 L 619.023 479.072 C 635.343 488.595 665.535 507.65 680.904 514.785 C 681.674 493.696 685.155 450.729 691.385 429.467 C 694.231 419.751 705.766 427.735 713.264 413.763 C 688.489 400.821 651.76 377.098 627.256 362.222 L 487.029 278.838 C 472.884 270.495 458.621 261.003 444.622 252.99 C 434.516 255.867 426.725 257.91 416.648 253.741 C 386.411 241.232 276.155 145.402 264.971 116.331 C 263.575 112.704 262.679 108.532 264.541 104.891 C 265.732 102.563 267.523 100.884 270.082 100.238 C 294.166 94.1563 406.431 145.505 433.407 157.957 C 442.465 162.139 452.869 165.87 461.358 171.029 C 475.256 179.474 470.632 197.642 483.338 205.9 C 502.831 218.569 523.99 229.364 544.007 241.289 L 667.99 315.289 C 699.162 333.757 731.752 352.309 762.095 371.909 C 768.094 366.308 780.059 361.136 787.817 357.732 C 786.267 348.572 784.99 339.368 783.989 330.132 C 764.061 319.224 742.5 304.146 722.109 292.919 C 714.675 294.728 705.112 297.285 697.524 295.334 C 672.642 288.936 595.777 220.64 576.262 201.076 C 565.648 190.436 549.028 173.043 542.179 159.868 C 539.891 155.468 537.887 149.342 539.696 144.504 C 540.516 142.311 542.043 140.792 544.165 139.833 C 559.768 132.787 645.908 168.916 665.88 176.87 C 660.025 169.549 640.708 155.2 632.628 148.387 C 610.16 129.441 554.307 79.1877 544.135 53.1008 C 545.039 50.8274 545.985 48.1291 547.326 46.0707 C 548.951 43.5757 551.523 42.1926 554.376 41.5361 C 574.259 36.9607 722.585 101.732 745.753 116.7 C 758.038 124.637 754.1 139.067 763.442 147.088 C 773.247 155.506 795.614 166.403 807.532 173.651 C 825.527 184.594 843.573 195.482 861.42 206.662 C 870.822 212.552 879.993 219.063 889.58 224.623 C 902.418 232.068 919.468 234.713 933.619 239.257 C 953.6 245.673 970.101 254.923 987.776 266.161 C 1049.53 266.638 1119.86 282.246 1165.87 326.017 C 1175.04 334.744 1184.3 347.004 1192.04 357.039 C 1197.09 354.812 1202.11 352.532 1207.11 350.2 C 1202.51 321.344 1200.32 311.71 1191.91 283.976 C 1186.12 279.613 1173.99 272.683 1167.52 268.805 L 1122.85 242.014 C 1090.06 222.159 1051.43 196.773 1018.74 178.575 C 1002.34 185.157 993.593 182.82 979.548 172.94 C 929.213 137.531 879.56 96.0483 842.982 46.2465 C 836.941 38.0221 836.868 28.1253 846.669 23.0098 z M 714.76 199.752 C 724.191 205.325 736.132 210.278 744.356 215.538 C 749.711 224.676 752.015 239.142 755.955 243.061 L 758.231 243.392 L 758.281 241.905 L 757.256 241.235 C 756.393 228.457 761.384 226.801 771.666 224.119 C 769.673 220.777 730.999 196.918 726.748 196.924 C 722.053 198.382 719.67 199.26 714.76 199.752 z M 1486.68 717.814 C 1490.88 718.056 1506.61 720.31 1508.48 719.188 L 1508.67 718.832 L 1512.51 697.608 C 1502.29 696.831 1492.1 695.555 1482 693.787 C 1483.4 701.826 1484.96 709.837 1486.68 717.814 z"/>
<path transform="translate(0,0)" fill="rgb(154,115,61)" d="M 693.558 702.421 C 769.922 695.569 846.553 724.312 904.72 772.912 C 1074.7 914.932 1088.95 1204.33 948.857 1371.47 C 896.227 1434.27 821.661 1478.73 739.244 1485.87 C 738.527 1485.93 737.81 1486 737.092 1486.05 C 657.911 1492.42 580.564 1464.14 521.127 1412.26 C 437.253 1339.04 397.604 1239.03 387.489 1130.31 C 369.838 940.56 487.563 718.079 693.558 702.421 z"/>
<path transform="translate(0,0)" fill="rgb(0,0,0)" d="M 694.662 735.401 C 754.875 727.283 828.111 755.803 875.344 792.219 C 1093.93 960.746 1040.41 1414.91 738.248 1451.84 C 713.302 1454.3 682.288 1452.57 658.4 1446.3 C 379.499 1373.07 345.071 947.738 561.28 786.764 C 601.265 756.994 646.294 739.927 694.662 735.401 z"/>
<path transform="translate(0,0)" fill="rgb(154,115,61)" d="M 706.604 756.434 C 766.478 753.332 828.612 778.664 872.868 818.228 C 944.627 882.379 981.094 974.851 986.365 1069.89 C 991.711 1166.28 967.153 1267.39 902.451 1341.19 C 856.179 1393.96 796.809 1427.04 726.25 1431.09 C 662.836 1433.71 602.573 1410.95 555.352 1368.69 C 411.397 1239.85 405.575 985.552 531.854 842.833 C 578.955 789.6 636.113 760.741 706.604 756.434 z"/>
<path transform="translate(0,0)" fill="rgb(0,0,0)" d="M 661.267 1010.88 C 700.301 988.547 734.539 989.719 773.062 1012.7 C 779.342 1017.54 784.789 1021.53 790.386 1027.22 C 823.307 1072.8 826.235 1117.01 790.557 1162.65 C 783.577 1170.07 780.567 1172.07 772.71 1178.23 C 732.881 1200.96 701.456 1202.5 660.9 1179.29 C 652.901 1173.33 650.033 1171.45 642.671 1164.29 C 627.985 1148.4 618.705 1128.27 616.163 1106.79 C 612.518 1073.65 622.59 1051.35 642.613 1026.17 C 649.263 1019.56 653.628 1016.34 661.267 1010.88 z"/>
<path transform="translate(0,0)" fill="rgb(154,115,61)" d="M 705.361 1018.56 C 747.651 1012.83 786.598 1042.42 792.418 1084.7 C 798.238 1126.97 768.735 1165.99 726.47 1171.9 C 684.074 1177.83 644.918 1148.21 639.08 1105.81 C 633.242 1063.4 662.94 1024.31 705.361 1018.56 z"/>
<path transform="translate(0,0)" fill="rgb(95,62,29)" d="M 642.613 1026.17 L 642.421 887.928 C 642.382 866.343 642.129 844.742 642.217 823.168 C 642.246 816.038 645.697 808.741 653.786 809.748 C 657.046 811.841 658.966 814.331 659.575 818.484 C 662.889 841.072 655.854 1001.5 661.267 1010.88 C 653.628 1016.34 649.263 1019.56 642.613 1026.17 z"/>
<path transform="translate(0,0)" fill="rgb(95,62,29)" d="M 773.062 1012.7 C 774.523 948.129 771.698 882.766 773.469 818.139 C 773.826 805.093 787.768 809.474 788.793 813.39 C 791.883 825.202 790.018 843.955 790.033 856.698 L 790.35 948.651 L 790.58 1000.45 C 790.603 1007.16 790.956 1021.16 790.386 1027.22 C 784.789 1021.53 779.342 1017.54 773.062 1012.7 z"/>
<path transform="translate(0,0)" fill="rgb(95,62,29)" d="M 790.557 1162.65 C 792.188 1194.14 790.281 1238.65 790.484 1271.97 C 790.629 1295 790.591 1318.04 790.369 1341.07 C 790.325 1349.2 790.568 1357.77 790.587 1365.81 C 790.598 1370.18 785.708 1376.35 781.081 1376.12 C 774.757 1375.86 773.426 1369.18 773.231 1364.04 C 772.722 1350.65 773.143 1337.2 773.161 1323.79 L 773.058 1231.98 C 773.083 1217.29 773.858 1192.28 772.71 1178.23 C 780.567 1172.07 783.577 1170.07 790.557 1162.65 z"/>
<path transform="translate(0,0)" fill="rgb(95,62,29)" d="M 642.671 1164.29 C 650.033 1171.45 652.901 1173.33 660.9 1179.29 C 656.066 1188.22 662.946 1346.8 659.658 1369.14 C 658.789 1373.21 654.545 1376.82 650.412 1376.24 C 640.907 1374.91 642.649 1364.73 642.61 1357.57 C 642.541 1344.98 642.612 1332.27 642.642 1319.62 L 642.74 1229.74 C 642.742 1213.81 642.864 1197.85 642.407 1181.92 C 642.232 1175.8 641.777 1170.37 642.671 1164.29 z"/>
<path transform="translate(0,0)" fill="rgb(95,62,29)" d="M 886.855 1111.79 C 895.408 1113.08 897.382 1115.69 897.28 1124.19 C 896.642 1177.49 897.936 1230.98 896.449 1284.22 C 896.376 1286.84 892.244 1289.15 890.184 1290.42 C 886.114 1289.8 885.375 1289.78 881.993 1287.51 C 880.816 1286.09 880.163 1285.25 880.109 1283.28 C 879.512 1261.26 879.743 1237.72 879.746 1215.79 L 879.784 1153.72 C 879.799 1142.87 879.403 1128.81 880.286 1118.18 C 882.197 1114.57 883.517 1114.06 886.855 1111.79 z"/>
<path transform="translate(0,0)" fill="rgb(95,62,29)" d="M 541.911 1112.66 C 545.115 1112.53 551.089 1113.4 552.238 1116.04 C 555.384 1123.27 554.051 1142.57 554.044 1150.34 L 553.986 1209.81 L 553.915 1258.06 C 553.899 1266.06 553.962 1274.44 553.618 1282.46 C 553.501 1285.2 550.158 1287.49 547.951 1289.33 C 532.691 1288.45 536.488 1274.55 536.41 1261.67 L 536.664 1162.49 C 536.663 1148.88 536.386 1132.56 537.085 1118.85 C 537.188 1116.83 540.222 1114.37 541.911 1112.66 z"/>
<path transform="translate(0,0)" fill="rgb(95,62,29)" d="M 885.349 885.899 C 890.65 885.883 896.917 886.439 896.967 893.54 C 897.331 945.761 897.374 998.04 896.908 1050.26 C 896.853 1056.4 896.792 1056.64 892.207 1060.95 C 884.803 1061.12 879.979 1059.6 879.967 1051.08 C 879.893 998.082 879.772 945.045 880.051 892.048 C 880.064 889.593 883.507 887.441 885.349 885.899 z"/>
<path transform="translate(0,0)" fill="rgb(95,62,29)" d="M 541.66 885.852 C 547.741 885.828 553.982 887.213 553.951 894.81 C 553.734 946.887 554.218 998.994 553.745 1051.06 C 553.699 1056.16 552.932 1057.76 549.131 1061.07 C 544.458 1061.28 542.289 1061.27 538.58 1058.58 C 536.956 1056.24 536.711 1054.48 536.714 1051.65 C 536.764 998.642 536.662 945.601 536.971 892.594 C 536.989 889.585 539.566 887.742 541.66 885.852 z"/>
<path transform="translate(0,0)" fill="rgb(95,62,29)" d="M 497.122 1005.75 C 498.056 1005.94 498.99 1006.14 499.904 1006.42 C 502.243 1007.13 504.999 1008.71 506.06 1011.03 C 507.554 1014.29 508.157 1157.4 506.284 1162.42 C 504.947 1166 501.045 1167.79 497.831 1169.28 C 497.06 1168.85 496.303 1168.4 495.538 1167.96 C 493.768 1166.94 491.737 1165.96 490.457 1164.32 C 488.775 1162.15 488.536 1022.11 490.285 1011.23 C 491.953 1008.36 494.207 1007.47 497.122 1005.75 z"/>
<path transform="translate(0,0)" fill="rgb(95,62,29)" d="M 934.302 1005.87 C 937.918 1006.17 939.635 1007.26 942.45 1009.35 C 947.599 1017.29 943.001 1140.55 944.19 1160.36 C 944.421 1164.21 941.063 1166.29 938.346 1168.84 C 930.604 1168.28 926.681 1166.63 926.78 1158.37 C 927.365 1109.87 926.333 1061.29 927.362 1012.82 C 927.419 1010.13 932.216 1007.32 934.302 1005.87 z"/>
<path transform="translate(0,0)" fill="rgb(95,62,29)" d="M 712.407 773.856 C 712.761 773.844 713.116 773.826 713.47 773.821 C 716.891 773.77 720.424 774.373 722.836 777.012 C 727.107 781.686 725.168 847.896 725.135 859.234 C 725.11 867.832 726.018 871.706 719.671 878.005 C 719.059 878.057 718.445 878.095 717.831 878.118 C 713.55 878.266 711.828 877.617 708.836 874.834 C 707.061 871.475 707.017 866.215 707.053 861.748 C 707.275 834.599 706.356 806.859 707.584 779.792 C 707.636 778.652 711.335 774.945 712.407 773.856 z"/>
<path transform="translate(0,0)" fill="rgb(95,62,29)" d="M 714.277 1308.7 C 719.18 1308.66 721.675 1310.23 724.588 1314.09 C 726.225 1320.17 725.204 1392.74 724.57 1404.9 C 724.459 1407.03 719.99 1409.41 717.993 1410.53 C 713.916 1409.86 712.545 1409.54 709.354 1406.99 C 705.351 1400.91 708.078 1328.13 707.813 1315.73 C 707.748 1312.67 711.785 1310.55 714.277 1308.7 z"/>
<path transform="translate(0,0)" fill="rgb(95,62,29)" d="M 830.969 842.88 C 843.452 844.508 841.998 849.686 842.006 860.906 C 842.024 883.827 842.363 906.838 841.738 929.732 C 841.647 933.079 837.548 935.677 835.147 937.361 C 831.076 937.054 828.619 936.206 825.8 933.392 C 822.82 926.544 823.972 861.962 824.618 849.067 C 824.744 846.542 828.681 844.35 830.969 842.88 z"/>
<path transform="translate(0,0)" fill="rgb(95,62,29)" d="M 832.228 1251.93 C 835.672 1252.43 838.461 1253.19 840.805 1255.94 C 843.288 1258.84 843.379 1329.76 842.702 1337.96 C 842.433 1341.22 839.183 1343.21 836.824 1345.12 L 836.017 1345.09 C 832.64 1344.93 829.174 1344.65 826.858 1341.87 C 822.679 1336.86 824.287 1267.97 825.207 1257.1 C 826.496 1254.5 829.551 1253.37 832.228 1251.93 z"/>
<path transform="translate(0,0)" fill="rgb(95,62,29)" d="M 595.413 1253.05 C 600.385 1252.82 607.868 1252.84 608.002 1260.06 C 608.484 1286.14 608.453 1312.4 607.777 1338.47 C 607.717 1340.79 603.78 1343.25 601.932 1344.61 C 601.696 1344.63 601.461 1344.67 601.224 1344.69 C 598.358 1344.97 595.382 1344.49 593.159 1342.49 C 588.578 1338.38 590.133 1281.36 590.196 1271.43 C 590.247 1263.22 589.248 1259.15 595.413 1253.05 z"/>
<path transform="translate(0,0)" fill="rgb(95,62,29)" d="M 593.234 845.304 C 602.815 844.267 608.025 844.002 607.993 856.016 C 607.926 880.83 608.665 905.848 607.5 930.615 C 607.362 933.542 605.608 934.743 603.78 936.792 C 598.497 937.498 590.59 936.654 590.856 930.079 C 591.402 916.572 587.539 853.016 593.234 845.304 z"/>
<path transform="translate(0,0)" fill="rgb(154,115,61)" d="M 1011.99 867.475 C 1054.62 810.179 1109.25 768.411 1180.68 758.844 C 1345.8 736.726 1459.16 881.792 1481.16 1031.37 C 1505.76 1198.67 1429.1 1397.03 1246.59 1428.77 C 1184.36 1438.89 1121.81 1420.42 1071.14 1382.37 C 1048.37 1365.28 1028.39 1344.77 1011.91 1321.56 C 1021.1 1303.43 1027.99 1289.06 1035.51 1270.04 C 1036.15 1267.55 1037.98 1263.44 1038.96 1260.94 C 1045.14 1245.18 1049.68 1229.26 1053.97 1212.89 C 1067.35 1151.35 1072.19 1094.69 1063.99 1031.75 C 1061.42 1012.07 1057.44 992.983 1054.03 973.447 C 1047.63 954.489 1042.64 937.258 1035.63 917.812 C 1028.59 900.653 1020.7 883.853 1011.99 867.475 z"/>
<path transform="translate(0,0)" fill="rgb(95,62,29)" d="M 1035.63 917.812 C 1040.66 908.421 1028.19 880.85 1049.92 886.83 C 1051.56 887.283 1053.92 890.595 1053.85 892.226 C 1052.92 913.601 1057.89 953.451 1054.03 973.447 C 1047.63 954.489 1042.64 937.258 1035.63 917.812 z"/>
<path transform="translate(0,0)" fill="rgb(95,62,29)" d="M 1053.97 1212.89 L 1053.92 1213.87 C 1053.28 1226.83 1062.43 1293.03 1043.96 1289.74 C 1041.82 1289.36 1039.95 1288.08 1038.81 1286.22 C 1035.76 1281.21 1038.1 1274.11 1035.51 1270.04 C 1036.15 1267.55 1037.98 1263.44 1038.96 1260.94 C 1045.14 1245.18 1049.68 1229.26 1053.97 1212.89 z"/>
<path transform="translate(0,0)" fill="rgb(0,0,0)" d="M 1161.02 1010.68 C 1187.05 995.981 1211.73 990.154 1241.42 998.539 C 1252.29 1001.68 1262.62 1006.46 1272.06 1012.72 C 1278.77 1017.9 1284.35 1022.1 1290.49 1027.99 C 1300.77 1042.5 1307.88 1051.99 1312.44 1069.77 C 1321.44 1104.81 1311.8 1135.43 1289.75 1162.94 C 1285.78 1166.76 1273.44 1176.4 1271.83 1178.12 C 1234.13 1200.83 1198.42 1202.23 1160.24 1179.2 C 1154.26 1174.53 1148.67 1169.55 1142.96 1164.56 C 1105.76 1121.2 1106.03 1068.61 1143.06 1025.37 C 1148.81 1019.76 1154.65 1015.52 1161.02 1010.68 z"/>
<path transform="translate(0,0)" fill="rgb(154,115,61)" d="M 1203.3 1018.85 C 1245.44 1012.2 1285 1040.96 1291.67 1083.1 C 1298.34 1125.24 1269.59 1164.8 1227.45 1171.48 C 1185.29 1178.16 1145.71 1149.4 1139.04 1107.24 C 1132.37 1065.09 1161.14 1025.51 1203.3 1018.85 z"/>
<path transform="translate(0,0)" fill="rgb(95,62,29)" d="M 1143.06 1025.37 C 1140.84 960.58 1143.36 895.246 1142.71 830.309 C 1142.6 818.646 1144.72 797.429 1159.62 816.657 C 1160.19 817.389 1160.03 854.697 1160.04 859.146 L 1159.98 972.845 C 1159.98 980.705 1159.2 1004.38 1161.02 1010.68 C 1154.65 1015.52 1148.81 1019.76 1143.06 1025.37 z"/>
<path transform="translate(0,0)" fill="rgb(95,62,29)" d="M 1272.06 1012.72 C 1273.94 1007.48 1273.05 984.695 1273.02 977.567 L 1272.91 868.213 C 1272.92 851.832 1272.46 833.996 1273.46 817.669 C 1273.71 813.588 1274.99 812.382 1277.65 810.31 C 1282.43 809.207 1289.82 810.98 1289.97 816.769 C 1291.74 886.965 1288.63 957.851 1290.49 1027.99 C 1284.35 1022.1 1278.77 1017.9 1272.06 1012.72 z"/>
<path transform="translate(0,0)" fill="rgb(95,62,29)" d="M 1142.96 1164.56 C 1148.67 1169.55 1154.26 1174.53 1160.24 1179.2 C 1159.2 1188.82 1160 1217.26 1160.02 1227.85 L 1160.03 1327.92 C 1160.02 1341.09 1160.24 1354.37 1159.86 1367.5 C 1159.7 1372.84 1153.99 1375.99 1149.1 1375.98 C 1139.03 1371.48 1142.25 1343.13 1142.3 1332.78 L 1142.23 1281.54 C 1142.16 1246 1140.8 1199.29 1142.96 1164.56 z"/>
<path transform="translate(0,0)" fill="rgb(95,62,29)" d="M 1271.83 1178.12 C 1273.44 1176.4 1285.78 1166.76 1289.75 1162.94 C 1291.45 1201.19 1290.12 1250.46 1290.17 1289.26 L 1290.19 1341.8 C 1290.18 1351.19 1293.36 1374.28 1282.04 1377.11 C 1279.13 1376.77 1276.01 1375.04 1274.34 1372.53 C 1270.55 1366.84 1272.94 1234.65 1272.94 1216.5 C 1272.93 1207.52 1274.7 1184.98 1271.83 1178.12 z"/>
<path transform="translate(0,0)" fill="rgb(95,62,29)" d="M 1382.02 1112.96 C 1388.93 1112.11 1395.01 1113.19 1395.03 1121.74 C 1395.16 1175.53 1395.33 1229.35 1394.98 1283.13 C 1394.97 1285.5 1392.48 1287.99 1390.99 1289.65 C 1384.4 1290.35 1378.27 1288.98 1378 1280.97 C 1377.7 1271.65 1377.89 1262.24 1377.9 1252.91 L 1377.73 1200.15 L 1377.55 1147.84 C 1377.53 1138.71 1377.39 1129.08 1377.89 1119.95 C 1378.06 1116.8 1379.83 1115.6 1382.02 1112.96 z"/>
<path transform="translate(0,0)" fill="rgb(95,62,29)" d="M 1382.79 885.862 C 1383.56 885.829 1384.32 885.796 1385.09 885.764 C 1389.2 885.218 1394.62 887.422 1394.78 892.333 C 1395.29 908.622 1395.09 925.05 1395.07 941.383 L 1395.12 1041.86 C 1395.12 1052.55 1396.85 1054.44 1390.21 1061.08 C 1385.94 1061.09 1383.82 1061.01 1380.37 1058.65 C 1376.35 1053.77 1377.86 1030.45 1377.85 1022.8 L 1377.75 960.909 L 1377.66 913.75 C 1377.66 906.528 1377.57 898.761 1377.94 891.527 C 1378.09 888.616 1380.39 887.689 1382.79 885.862 z"/>
<path transform="translate(0,0)" fill="rgb(95,62,29)" d="M 1429.13 1006.86 C 1432.45 1006.46 1437.06 1006.79 1439.42 1009.23 C 1443.47 1013.44 1442.16 1026.35 1442.14 1032.12 C 1442.03 1075.36 1442.43 1118.6 1441.81 1161.83 C 1441.77 1164.29 1438.08 1166.99 1436.21 1168.57 C 1431.8 1168.98 1429.54 1168.49 1426.2 1165.55 C 1424.13 1161.72 1424.19 1155.53 1424.2 1151.1 C 1424.39 1105.32 1423.51 1059.39 1424.66 1013.65 C 1424.72 1011.4 1427.63 1008.41 1429.13 1006.86 z"/>
<path transform="translate(0,0)" fill="rgb(95,62,29)" d="M 1212.84 773.878 C 1217.35 774.015 1219.45 774.26 1222.6 777.358 C 1226.75 787.499 1224.29 853.012 1224.43 868.39 C 1224.48 874.126 1223.2 874.784 1219.11 878.37 C 1214.37 878.164 1211.84 877.813 1208.38 874.613 C 1205.52 867.754 1207.32 796.465 1207.16 783.915 C 1207.09 778.472 1208.98 777.26 1212.84 773.878 z"/>
<path transform="translate(0,0)" fill="rgb(95,62,29)" d="M 1213.1 1308.78 C 1216.45 1308.4 1224.1 1310.89 1224.26 1314.5 C 1225.39 1341.54 1224.42 1368.85 1224.64 1395.94 C 1224.7 1404.03 1225.22 1404.46 1219.56 1409.89 C 1213.85 1410.43 1207.14 1409.01 1207.07 1401.9 C 1206.78 1372.98 1206.78 1343.97 1207.14 1315.06 C 1207.17 1312.67 1211.28 1310.14 1213.1 1308.78 z"/>
<path transform="translate(0,0)" fill="rgb(95,62,29)" d="M 1328.5 843.969 C 1334.53 843.444 1335.99 842.647 1340.38 847.264 C 1343.74 857.09 1342.06 917.105 1341.57 931.303 C 1341.51 932.871 1338.12 935.192 1336.68 936.23 C 1332.74 936.736 1330.6 936.619 1327.18 934.789 C 1321.29 928.693 1324.97 864.918 1324.57 852.912 C 1324.44 849.174 1325.87 846.601 1328.5 843.969 z"/>
<path transform="translate(0,0)" fill="rgb(95,62,29)" d="M 1330.98 1251.83 C 1331.26 1251.84 1331.54 1251.85 1331.82 1251.88 C 1335.21 1252.26 1338.51 1253.21 1340.56 1256.14 C 1343.16 1259.87 1343.16 1330.72 1341.67 1338.84 C 1341.14 1341.72 1337.23 1343.77 1334.97 1345.33 C 1323.29 1343.37 1324.46 1337.81 1324.36 1327.41 C 1324.15 1304.54 1323.63 1281.43 1324.62 1258.6 C 1324.73 1255.99 1329 1253.27 1330.98 1251.83 z"/>
<path transform="translate(0,0)" fill="rgb(95,62,29)" d="M 1096.47 843.879 C 1099.93 843.635 1102.86 843.856 1105.4 846.554 C 1108.94 850.314 1108.19 857.799 1108.17 862.801 C 1108.11 885.343 1108.49 907.957 1107.87 930.488 C 1107.77 934.032 1105.24 935.593 1102.69 937.76 C 1100.1 937.526 1091.39 936.427 1091.27 932.66 C 1090.38 905.069 1090.57 877.157 1090.83 849.542 C 1090.85 847.258 1094.72 845.127 1096.47 843.879 z"/>
<path transform="translate(0,0)" fill="rgb(95,62,29)" d="M 1095.87 1252.91 C 1106.86 1252.63 1108.19 1256.06 1108.18 1266.21 C 1108.14 1290.51 1108.8 1314.93 1107.94 1339.2 C 1107.87 1341.21 1104.62 1343.97 1103.17 1345.49 C 1085.85 1345.76 1091.18 1330.02 1090.83 1316.29 C 1090.33 1297.19 1090.78 1277.36 1091.47 1258.32 C 1091.52 1256.93 1094.75 1254.07 1095.87 1252.91 z"/>
<path transform="translate(0,0)" fill="rgb(154,115,61)" d="M 1679.61 756.46 C 1839.9 758.108 1940.71 905.305 1952.61 1053.58 C 1960.77 1155.14 1938.44 1259.98 1871.54 1339.23 C 1828.63 1390.05 1769.75 1424.53 1702.82 1430.29 C 1621.83 1437.77 1549.29 1402.83 1498.01 1341.1 C 1518.55 1309.72 1537.98 1262.62 1548.02 1226.64 C 1577.89 1118.26 1569.9 1002.93 1525.38 899.707 C 1517.56 881.841 1507.5 864.475 1497.89 847.472 C 1500.41 844.114 1504.88 839.009 1507.87 835.892 C 1556.38 785.458 1610.26 759.382 1679.61 756.46 z"/>
<path transform="translate(0,0)" fill="rgb(0,0,0)" d="M 1630.31 1011.72 C 1666.81 989.398 1705.39 989.246 1741.95 1011.77 C 1748.09 1016.62 1754.71 1021.65 1760.51 1026.86 C 1795.67 1071.28 1796.15 1119.26 1760.44 1163.79 C 1753.25 1170.43 1747.84 1173.68 1741.77 1179.07 C 1704.76 1201.44 1666.86 1201.06 1630.26 1178.22 C 1628.11 1175.72 1615.91 1166.29 1612.68 1163.39 C 1598.02 1147.13 1588.93 1126.61 1586.75 1104.82 C 1583.67 1073.59 1593.63 1050 1612.94 1026.4 C 1618.77 1020.49 1623.8 1016.75 1630.31 1011.72 z"/>
<path transform="translate(0,0)" fill="rgb(154,115,61)" d="M 1675.52 1018.5 C 1718 1012.49 1757.26 1042.16 1763.07 1084.66 C 1768.88 1127.17 1739.02 1166.29 1696.49 1171.9 C 1654.24 1177.47 1615.44 1147.85 1609.67 1105.63 C 1603.89 1063.41 1633.33 1024.47 1675.52 1018.5 z"/>
<path transform="translate(0,0)" fill="rgb(95,62,29)" d="M 1741.95 1011.77 C 1743.85 1007.25 1743.06 985.816 1743.04 979.425 L 1742.79 863.451 C 1742.79 848.096 1742.13 832.282 1743.39 817.045 C 1743.9 810.785 1749.45 808.514 1755.02 809.588 C 1763.26 815.983 1760.42 840.632 1760.29 851.126 C 1760.14 866.698 1760.16 882.272 1760.35 897.844 L 1760.78 984.839 C 1760.81 994.266 1761.46 1018.37 1760.51 1026.86 C 1754.71 1021.65 1748.09 1016.62 1741.95 1011.77 z"/>
<path transform="translate(0,0)" fill="rgb(95,62,29)" d="M 1612.68 1163.39 C 1615.91 1166.29 1628.11 1175.72 1630.26 1178.22 C 1629.43 1185.63 1630.11 1209.3 1630.11 1217.62 L 1630.02 1320.32 C 1630 1335.36 1630.44 1350.68 1629.98 1365.69 C 1629.92 1370.42 1627.2 1377.05 1621.52 1376.73 C 1607.61 1375.94 1611.99 1350.6 1612.05 1340.74 C 1612.17 1321.88 1612.19 1303.02 1612.12 1284.16 L 1612.1 1205.07 C 1612.14 1192.98 1611.72 1175.04 1612.68 1163.39 z"/>
<path transform="translate(0,0)" fill="rgb(95,62,29)" d="M 1612.94 1026.4 C 1611.15 989.379 1612.6 941.033 1612.54 903.332 C 1612.44 883.266 1612.5 863.2 1612.71 843.135 C 1612.78 837.188 1608.58 799.864 1626.11 811.846 C 1628.39 813.407 1630.2 820.37 1630.23 823.334 C 1630.52 849.87 1629.74 876.466 1630.23 903.019 C 1630.78 939.114 1629.2 975.674 1630.31 1011.72 C 1623.8 1016.75 1618.77 1020.49 1612.94 1026.4 z"/>
<path transform="translate(0,0)" fill="rgb(95,62,29)" d="M 1741.77 1179.07 C 1747.84 1173.68 1753.25 1170.43 1760.44 1163.79 C 1760.75 1210.35 1760.77 1256.91 1760.53 1303.47 C 1760.46 1316.64 1760.48 1329.81 1760.57 1342.98 C 1760.71 1352.94 1764.51 1375.28 1751.66 1377.34 C 1747.9 1376.2 1747.53 1375.88 1744.74 1373.1 C 1742.51 1367.34 1743.21 1364.01 1742.75 1359.05 C 1740.78 1337.63 1745.96 1186.45 1741.77 1179.07 z"/>
<path transform="translate(0,0)" fill="rgb(95,62,29)" d="M 1852.84 1111.98 C 1857.82 1112.03 1864.57 1114.14 1864.69 1120 C 1865.7 1172.84 1865.02 1225.8 1865.03 1278.66 C 1865.03 1285.44 1864.01 1285.66 1859.18 1290.12 C 1854.93 1289.97 1852.32 1289.35 1849.05 1286.66 C 1845.66 1280.92 1847.33 1209.42 1847.05 1196.72 C 1846.54 1173.25 1847.16 1144.02 1847.29 1120.01 C 1847.31 1116.15 1850.13 1114.33 1852.84 1111.98 z"/>
<path transform="translate(0,0)" fill="rgb(95,62,29)" d="M 1854.1 884.728 C 1857.1 885.102 1862.51 886.45 1863.5 889.22 C 1866.27 896.979 1865.03 914.904 1865.03 922.889 L 1864.98 983.256 C 1864.95 1006.18 1865.24 1029.85 1864.41 1052.79 C 1864.26 1057.15 1861.77 1058.99 1858.42 1061.36 C 1854.11 1061.17 1852.66 1061.14 1849.39 1058.63 C 1845.62 1053.21 1847.01 1023.54 1847.03 1014.6 L 1847.13 946.945 C 1847.14 929.458 1846.57 908.957 1847.52 891.403 C 1847.66 888.743 1851.81 886.267 1854.1 884.728 z"/>
<path transform="translate(0,0)" fill="rgb(95,62,29)" d="M 1901.49 1005.77 C 1909.29 1006.67 1911.83 1009.89 1911.83 1017.59 C 1911.87 1065.43 1912.45 1113.34 1911.74 1161.16 C 1911.68 1165.06 1908.26 1167.34 1905.5 1169.54 C 1901.32 1168.44 1900.05 1168.26 1896.46 1165.7 C 1894.93 1163.61 1894.76 1161.74 1894.72 1159.14 C 1894.04 1110.04 1893.56 1060.68 1894.98 1011.62 C 1895.05 1009.46 1899.7 1006.93 1901.49 1005.77 z"/>
<path transform="translate(0,0)" fill="rgb(95,62,29)" d="M 1684.25 773.641 C 1684.5 773.656 1684.76 773.657 1685 773.687 C 1688.25 774.079 1691.38 775.139 1693.27 777.967 C 1695.34 781.058 1696.31 861.81 1694.77 870.967 C 1694.13 874.788 1691.46 876.488 1688.48 878.601 C 1685.26 878.122 1681.22 877.381 1679.08 874.693 C 1677.33 872.5 1676.36 786.951 1677.82 779.628 C 1678.33 777.025 1682.16 775.045 1684.25 773.641 z"/>
<path transform="translate(0,0)" fill="rgb(95,62,29)" d="M 1684.17 1308.66 C 1687.46 1309.07 1691.36 1310.5 1693.42 1313.18 C 1694.23 1314.24 1694.74 1315.49 1694.89 1316.81 C 1695.53 1322.43 1695.22 1330.89 1695.15 1336.74 C 1694.86 1359.11 1695.48 1381.59 1694.61 1403.92 C 1694.47 1407.46 1690.57 1409.62 1687.92 1411.42 C 1683.79 1410.74 1680.86 1409.75 1678.31 1406.45 C 1675.85 1392.33 1677.88 1331.98 1677.99 1314.14 C 1678 1312.26 1682.23 1309.89 1684.17 1308.66 z"/>
<path transform="translate(0,0)" fill="rgb(95,62,29)" d="M 1800.37 1252.03 C 1805.06 1252.09 1807.13 1252.44 1810.38 1255.99 C 1813.32 1262.69 1811.88 1326.74 1811.74 1338.53 C 1811.7 1341.77 1808.52 1343.74 1805.95 1345.72 C 1801.67 1345.21 1798.85 1344.27 1795.76 1341.37 C 1792.35 1333.84 1794.24 1272.32 1794.1 1259.99 C 1794.06 1256.6 1797.68 1254.26 1800.37 1252.03 z"/>
<path transform="translate(0,0)" fill="rgb(95,62,29)" d="M 1800.19 843.771 C 1801.48 843.79 1802.79 843.812 1804.08 843.922 C 1806.8 844.153 1808.58 844.874 1810.33 847.006 C 1812.35 849.488 1812.81 921.254 1811.87 929.63 C 1811.45 933.433 1809.1 935.089 1806.29 937.403 C 1802.59 937.295 1798.5 936.897 1795.97 933.813 C 1793.22 930.461 1792.95 858.195 1794.31 850.101 C 1794.81 847.172 1797.92 845.436 1800.19 843.771 z"/>
<path transform="translate(0,0)" fill="rgb(95,62,29)" d="M 1567.66 1252.11 C 1570.84 1252.66 1573.76 1253.02 1576.09 1255.45 C 1580.68 1260.24 1578.68 1319.2 1578.43 1328.89 C 1578.23 1336.87 1578.55 1339.97 1572.61 1345.64 C 1570.86 1345.41 1568.92 1345.12 1567.37 1344.83 C 1565.73 1344.53 1562.51 1342.68 1562.26 1341.34 C 1559.93 1328.79 1559.76 1264.9 1561.79 1257.09 C 1563.96 1254.06 1564.33 1254.01 1567.66 1252.11 z"/>
<path transform="translate(0,0)" fill="rgb(95,62,29)" d="M 1565.52 843.905 C 1566.63 843.853 1567.74 843.827 1568.85 843.829 C 1572.6 843.849 1577.71 846.075 1578.06 850.204 C 1579.98 872.951 1578.48 896.313 1578.61 919.182 C 1578.65 925.973 1578.88 932.075 1573.8 936.826 L 1572.76 936.897 C 1569.43 937.092 1566.15 937.351 1563.62 934.792 C 1558.65 929.759 1561.04 872.782 1561.17 862.333 C 1561.24 855.922 1560.6 848.695 1565.52 843.905 z"/>
<path transform="translate(0,0)" fill="rgb(154,115,61)" d="M 1194.51 702.423 C 1293.34 695.039 1385.15 741.784 1447.2 817.178 C 1585.63 985.377 1572.89 1274.31 1402.3 1416.6 C 1268.92 1527.84 1087.67 1502.98 979.432 1370.13 C 986.664 1361.34 993.265 1351.15 999.666 1341.67 C 1041.09 1391.26 1073.72 1417.83 1135.25 1440.25 C 1169.32 1451.66 1205.48 1455.44 1241.18 1451.32 C 1317.25 1442.06 1380.64 1401.45 1427.6 1341.55 C 1495.01 1255.15 1515.09 1147.77 1503.96 1040.63 C 1486.94 876.969 1360.23 715.685 1181.99 736.631 C 1107.79 745.35 1045.4 789.106 1000.15 847.468 C 993.435 837.589 986.627 827.773 979.728 818.021 C 981.781 815.182 983.953 812.432 986.24 809.778 C 1039.65 747.925 1112.67 708.317 1194.51 702.423 z"/>
<path transform="translate(0,0)" fill="rgb(154,115,61)" d="M 1663.7 702.43 C 1762.68 693.164 1859.7 746.558 1920.48 822.089 C 2056.97 991.722 2038.41 1282.82 1865.8 1421.38 C 1805.29 1470.51 1727.7 1493.49 1650.2 1485.25 C 1584.26 1477.85 1506.28 1438.59 1464.84 1386.66 C 1472.82 1377.73 1478.22 1369.95 1484.89 1360.14 C 1524.43 1400.28 1553.08 1423.26 1607.76 1441.38 C 1705.36 1471.01 1804.93 1441.22 1874.8 1367.64 C 2013.48 1221.61 2010.51 951.017 1864.41 811.052 C 1813.99 762.834 1745.17 732.762 1674.81 735.075 C 1596.72 737.642 1537.64 773.864 1485.44 829.012 C 1478.35 818.893 1471.99 810.629 1464.26 800.966 C 1520.86 744.462 1582.73 708.048 1663.7 702.43 z"/>
<path transform="translate(0,0)" fill="rgb(154,115,61)" d="M 1541.25 454.343 C 1620.81 509.171 1715.12 530.455 1810.64 529.825 C 1798.19 594.473 1794.71 592.981 1820.74 655.102 C 1802.87 652.336 1759.64 646.877 1744.8 640.392 C 1726.59 616.285 1741.21 576.122 1729.26 561.677 C 1721.99 552.898 1695.04 546.894 1683.64 546.212 C 1681.66 546.094 1679.68 546.492 1678.27 547.962 C 1673.12 553.343 1674.87 625.888 1674.8 639.25 L 1674.49 649.055 C 1662.81 658.484 1646.37 672.447 1634.14 680.509 C 1629.46 683.592 1605.18 688.398 1597.32 690.735 C 1584.17 694.647 1574.91 698.23 1561.89 703.473 C 1563.23 676.058 1564.39 648.634 1565.38 621.204 C 1592.87 621 1631.32 615.914 1644.51 584.402 C 1648.08 575.891 1645.5 545.621 1641.57 536.203 C 1639.72 531.74 1633.25 527.909 1628.54 526.839 C 1606.05 521.805 1582.7 519.878 1559.91 516.278 C 1543.15 513.628 1544.15 542.894 1542.58 553.85 C 1539.82 573.144 1538.86 592.938 1534.73 612.116 L 1524.05 608.161 C 1527.81 592.922 1529.59 576.046 1531.72 560.498 C 1536.57 525.178 1538.57 489.877 1541.25 454.343 z"/>
<path transform="translate(0,0)" fill="rgb(154,115,61)" d="M 707.473 448.477 C 748.924 475.753 788.651 495.293 836.649 508.273 C 853.66 512.874 873.075 515.576 888.96 520.66 C 896.035 522.924 917.27 536.665 924.326 541.034 C 939.567 550.51 954.937 559.779 970.43 568.839 C 964.524 601.383 976.148 622.447 988.395 651.597 C 965.972 646.933 940.139 642.805 919.205 638.358 C 888.666 630.701 906.428 578.049 896.376 557.567 C 892.747 550.171 850.079 537.957 842.585 543.429 C 839.212 550.363 840.141 615.243 840.095 625.773 L 840.045 643.768 C 823.047 657.553 803.65 673.527 786.026 686.167 C 765.716 681.088 748.822 679.73 728.169 677.997 C 729.367 657.442 730.26 636.869 730.849 616.287 C 789.36 615.122 823.948 597.316 807.992 533.38 C 805.615 523.856 791.981 520.736 783.716 520.011 C 767.322 518.573 730.114 507.643 716.341 512.663 C 708.179 521.171 702.633 591.046 700.081 607.52 C 696.05 606.626 692.212 605.427 688.256 604.256 C 698.077 550.901 701.326 502.092 707.473 448.477 z"/>
<path transform="translate(0,0)" fill="rgb(154,115,61)" d="M 1672.63 373.451 C 1708.51 373.105 1743.2 386.309 1769.76 410.427 C 1799.43 437.869 1810.56 470.353 1812.06 509.769 C 1777.68 509.981 1743.35 507.045 1709.5 500.997 C 1655.84 490.208 1603.77 470.926 1558.25 440.136 C 1589.62 397.986 1618.54 376.187 1672.63 373.451 z"/>
<path transform="translate(0,0)" fill="rgb(186,150,98)" d="M 1670.17 398.41 C 1687 397.219 1701.63 400.258 1690.92 420.143 C 1659.32 426.587 1656.15 418.528 1622.09 440.632 L 1612.97 444.759 C 1579.53 433.523 1615.69 414.093 1630.16 408.061 C 1644.01 402.286 1655.28 399.63 1670.17 398.41 z"/>
<path transform="translate(0,0)" fill="rgb(139,44,43)" d="M 1221.45 236.42 C 1272.76 230.837 1336.7 243.077 1381.12 269.508 C 1397.4 279.26 1411.94 291.64 1424.17 306.146 C 1496.95 391.453 1434.66 498.411 1497.65 567.531 C 1489.56 566.767 1485.15 566.009 1477.39 563.794 C 1420.59 543.826 1435.24 473.795 1429.31 427.353 C 1419.75 352.561 1345.05 305.749 1274.72 300.68 C 1254.1 299.194 1238.81 300.83 1218.24 303.646 C 1212.61 281.717 1206.63 259.882 1200.29 238.151 C 1206.76 237.253 1214.82 236.893 1221.45 236.42 z"/>
<path transform="translate(0,0)" fill="rgb(139,44,43)" d="M 1646.38 248.447 C 1672.59 247.514 1698.81 249.851 1724.44 255.403 C 1808.88 274.494 1867.14 326.046 1875.93 414.729 C 1882.01 476.079 1871.33 522.127 1906.23 577.296 C 1893.76 575.909 1888.53 574.853 1877.42 569.381 C 1875.93 568.467 1874.48 567.494 1873.08 566.462 C 1836.35 539.232 1848.19 475.4 1842.28 435.476 C 1831.55 362.973 1757.41 320.207 1689.85 313.633 C 1669.6 311.663 1651.37 313.622 1631.47 316.559 C 1625.11 293.623 1619.49 272.9 1612.2 250.253 C 1623.38 249.275 1635.12 248.932 1646.38 248.447 z"/>
<path transform="translate(0,0)" fill="rgb(154,115,61)" d="M 754.852 165.045 C 818.003 205.069 884.937 244.096 948.855 283.125 L 1365.03 538.246 C 1417.23 570.481 1470.35 602.466 1522.16 635.231 C 1521.42 639.36 1519.73 651.342 1517.62 654.231 L 1515.64 653.812 C 1490.83 640.228 1463.23 622.745 1438.95 607.917 L 1285.53 513.49 L 744.45 182.719 L 754.852 165.045 z"/>
<path transform="translate(0,0)" fill="rgb(154,115,61)" d="M 1171.36 394.989 C 1198.9 370.695 1232.61 358.527 1269.52 360.953 C 1306.73 363.138 1341.47 380.306 1365.81 408.54 C 1389.34 435.762 1395.16 462.277 1397.93 496.627 C 1380.55 496.908 1351.57 498.485 1335.24 494.258 C 1321.54 490.713 1237.14 435.505 1217.66 423.911 L 1191.79 407.805 C 1184.46 403.482 1178.4 399.809 1171.36 394.989 z"/>
<path transform="translate(0,0)" fill="rgb(186,150,98)" d="M 1191.79 407.805 C 1214.99 394.14 1243.39 382.452 1271.09 386.942 C 1281.37 388.608 1286.29 399.385 1276.16 407.261 C 1254.19 412.852 1238.42 411.075 1217.66 423.911 L 1191.79 407.805 z"/>
<path transform="translate(0,0)" fill="rgb(154,115,61)" d="M 1126.71 442.858 C 1133.88 446.208 1149.93 456.188 1157.29 460.467 C 1178.86 472.839 1200.28 485.485 1221.53 498.404 C 1236.12 507.26 1271.04 527.272 1283.58 537.076 C 1277.66 535.75 1266.18 532.051 1261.41 536.538 C 1257.47 545.287 1258.2 623.466 1258.17 636.833 C 1243.17 649.913 1223.09 665.838 1207.42 677.968 C 1182.6 679.164 1170.9 679.964 1146.8 685.599 C 1146.52 668.849 1148.16 645.445 1148.87 628.237 C 1149.01 622.147 1149.2 616.06 1149.45 609.974 C 1160.55 609.666 1171.91 609.69 1182.82 607.449 C 1198.38 604.255 1216.6 594.179 1225.3 580.527 C 1227.7 576.762 1229.4 572.55 1229.98 568.105 C 1230.99 560.314 1229.24 536.235 1227.37 528.368 C 1226.37 524.193 1224.47 519.981 1220.6 517.774 C 1214.47 514.282 1141.79 501.64 1137.51 503.712 C 1133.85 505.483 1131.91 511.736 1130.96 515.436 C 1128.85 523.742 1128.45 532.8 1127.47 541.32 C 1125.46 558.841 1123.71 576.496 1120.79 593.891 C 1120.28 596.929 1119.95 598.261 1117.5 600.037 C 1113.32 599.644 1112.55 599.646 1108.83 597.773 C 1106.47 592.77 1112.94 569.095 1113.97 561.828 C 1119.55 522.467 1123.09 482.35 1126.71 442.858 z"/>
<path transform="translate(0,0)" fill="rgb(154,115,61)" d="M 470.809 221.863 C 486.388 229.953 507.677 243.59 523.607 252.894 L 653.242 329.807 C 797.531 417.886 942.515 504.821 1088.18 590.604 C 1083.52 620.379 1101.67 608.249 1106.04 620.521 C 1105.26 623.783 1106.03 622.387 1103.51 624.781 L 1100.63 623.695 C 1010.58 567.601 915.934 512.579 824.91 457.923 C 703.902 384.059 582.316 311.144 460.164 239.187 C 463.633 233.406 467.271 227.613 470.809 221.863 z"/>
<path transform="translate(0,0)" fill="rgb(139,44,43)" d="M 795.553 243.395 C 805.348 241.836 818.958 252.593 827.606 257.883 C 842.1 266.817 856.66 275.642 871.286 284.358 C 927.893 318.124 984.216 352.366 1040.25 387.079 C 1048.09 431.786 1045.13 475.418 1052.86 519.81 C 1054.74 530.624 1060.58 543.515 1064.93 553.701 C 1061.04 551.619 1057.13 549.428 1053.26 547.294 C 1041.81 539.654 1029.85 533.355 1018.35 525.492 C 1011.76 495.496 1014.36 466.3 1010.47 436.023 C 1005.64 398.444 985.733 367.154 954.995 345.122 C 907.772 311.276 855.279 302.518 798.792 310.939 C 793.44 288.83 787.348 266.908 780.525 245.207 C 785.128 244.378 790.824 243.905 795.553 243.395 z"/>
<path transform="translate(0,0)" fill="rgb(154,115,61)" d="M 228.349 275.431 C 235.944 278.556 261.661 294.186 269.698 298.863 L 357.924 350.289 L 677.739 537.372 C 677.312 542.065 676.608 555.856 673.916 558.853 L 671.873 558.167 L 370.927 382.025 C 320.881 352.799 267.364 322.6 218.188 292.337 C 221.601 286.996 225.065 280.917 228.349 275.431 z"/>
<path transform="translate(0,0)" fill="rgb(154,115,61)" d="M 781.254 383.405 C 848.759 349.72 932.253 376.012 965.474 444.186 C 974.22 462.275 978.962 482.037 979.376 502.125 C 960.578 492.192 938.284 477.966 919.735 466.824 C 891.595 450.271 863.647 433.394 835.896 416.197 C 826.797 410.824 817.786 405.302 808.868 399.635 C 801.177 395.003 788.962 387.19 781.254 383.405 z"/>
<path transform="translate(0,0)" fill="rgb(186,150,98)" d="M 808.868 399.635 C 818.823 393.741 863.276 388.618 862.008 408.199 C 861.441 416.953 841.607 416.188 835.896 416.197 C 826.797 410.824 817.786 405.302 808.868 399.635 z"/>
<path transform="translate(0,0)" fill="rgb(95,62,29)" d="M 922.26 709.406 C 955.219 704.773 1010.02 715.571 1038.65 732.915 C 1012.19 751.011 998.913 762.489 976.831 785.111 L 964.703 798.925 C 940.961 768.615 902.365 739 869.458 719.696 C 885.72 714.449 905.282 711.092 922.26 709.406 z"/>
<path transform="translate(0,0)" fill="rgb(139,44,43)" d="M 1438.42 290.814 C 1449.39 292.44 1470.79 299.96 1481.16 304.301 C 1522.46 321.589 1554.43 351.324 1571.52 393.116 C 1567.03 397.335 1562.76 402.097 1558.55 406.628 C 1554.56 411.052 1550.09 416.829 1546.25 421.514 C 1526.81 414.619 1521.66 403.462 1505.71 390.769 C 1496.1 383.129 1489.07 378.895 1478.45 372.671 C 1467.39 335.229 1462.81 322.388 1438.42 290.814 z"/>
<path transform="translate(0,0)" fill="rgb(143,143,143)" d="M 573.61 165.27 C 605.988 173.123 656.989 197.368 688.24 210.784 C 698.177 215.051 721.406 225.577 730.256 230.754 C 732.205 236.008 732.62 239.098 733.563 244.603 C 730.544 251.344 725.583 258.514 721.527 264.809 C 719.064 268.562 715.71 272.579 711.685 274.683 C 708.629 276.301 705.034 276.563 701.776 275.405 C 682.004 268.564 582.321 183.75 573.61 165.27 z"/>
<path transform="translate(0,0)" fill="rgb(143,143,143)" d="M 580.377 68.624 C 605.904 72.3553 704.725 119.238 731.153 131.99 C 735.614 134.142 738.369 137.359 739.361 142.423 C 741.232 151.974 734.015 161.248 729.05 169.12 C 727.423 171.327 725.66 173.422 723.636 175.279 C 720.256 178.382 716.011 180.363 711.349 179.882 C 695.315 178.226 623.673 113.606 609.216 99.5964 C 598.984 89.8661 589.354 79.5229 580.377 68.624 z"/>
<path transform="translate(0,0)" fill="rgb(143,143,143)" d="M 298.713 126.828 C 346.464 138.478 402.033 166.293 447.068 187.421 C 465.219 195.937 452.436 214.01 444.847 225.544 C 439.925 233.132 434.641 234.353 426.557 236.363 C 420.212 233.202 409.145 225.16 403.182 220.861 C 367.635 195.229 326.767 160.503 298.713 126.828 z"/>
<path transform="translate(0,0)" fill="rgb(143,143,143)" d="M 52.3105 182.657 C 78.5826 185.784 178.546 229.995 206.496 244.07 C 210.147 245.908 211.799 248.858 212.567 252.903 C 214.416 262.652 207.324 271.775 202.13 279.457 C 200.798 281.16 199.358 282.775 197.818 284.294 C 194.313 287.746 189.991 289.919 185.004 289.675 C 168.76 288.883 101.647 231.308 86.3017 217.077 C 74.5525 206.025 63.2144 194.544 52.3105 182.657 z"/>
<path transform="translate(0,0)" fill="rgb(143,143,143)" d="M 873.003 50.8485 C 903.921 58.5418 950.702 81.1504 980.453 93.8322 C 994.443 100.547 1008.95 106.482 1022.26 114.464 C 1039.77 124.953 1028.06 139.754 1020.34 151.313 C 1018.82 153.466 1017.18 155.414 1015.22 157.192 C 1011.72 160.384 1007.42 162.208 1002.64 161.693 C 986.642 159.969 917.261 97.4052 902.728 83.1546 C 892.246 72.8758 882.506 62.0301 873.003 50.8485 z"/>
<path transform="translate(0,0)" fill="rgb(139,44,43)" d="M 1014.02 288.254 C 1025.5 287.806 1049.54 292.238 1060.93 294.776 C 1106.25 304.874 1148.24 327.5 1173.51 367.769 L 1163.57 374.559 C 1160.18 377.222 1156.04 381.066 1152.73 383.987 C 1112.55 360.811 1072.59 334.135 1032.57 310.456 C 1027.41 307.401 1017.09 293.896 1014.02 288.254 z"/>
<path transform="translate(0,0)" fill="rgb(242,193,153)" d="M 884.847 630.406 C 887.565 634.957 889.375 640.253 892.178 644.548 C 900.23 656.888 915.243 658.391 928.588 661.045 C 929.223 668.205 931.84 680.199 933.276 687.698 C 906.254 688.527 883.809 693.256 858.089 701.312 C 853.508 702.985 847.737 704.545 842.976 705.964 C 832.429 701.502 821.742 697.377 810.932 693.596 C 821.783 684.098 834.756 675.021 845.646 665.541 C 854.95 657.441 858.618 654.329 859.747 642.446 C 868.416 639.074 876.572 634.659 884.847 630.406 z"/>
<path transform="translate(0,0)" fill="rgb(95,62,29)" d="M 1344.23 702.538 C 1362.68 701.787 1381.17 703.042 1399.35 706.282 C 1432.41 712.302 1461.96 724.356 1481.67 752.947 C 1474.17 759.496 1466.87 766.266 1459.78 773.249 L 1449.11 783.641 C 1415.12 749.034 1379.44 720.872 1333.55 703.337 L 1344.23 702.538 z"/>
<path transform="translate(0,0)" fill="rgb(154,115,61)" d="M 1316.84 557.316 C 1323.34 560.62 1334.67 567.945 1341.23 571.909 L 1387.65 600.072 C 1392.24 614.775 1399.35 630.427 1405.57 644.628 C 1391.19 641.847 1337.27 634.394 1328.1 625.785 C 1314.17 612.696 1317.19 575.284 1316.84 557.316 z"/>
<path transform="translate(0,0)" fill="rgb(154,115,61)" d="M 1660.72 333.437 C 1674.05 331.938 1694.05 333.89 1707.18 336.57 C 1755.07 346.348 1807.93 378.332 1820.06 428.584 C 1822.55 438.902 1823.55 449.492 1824.37 460.063 C 1821.95 453.177 1819.52 447.153 1816.74 440.444 C 1786.1 373.814 1709.42 342.812 1639.58 357.133 C 1638.17 350.621 1637.13 343.008 1636.06 336.354 C 1645.47 334.496 1651.23 334.091 1660.72 333.437 z"/>
<path transform="translate(0,0)" fill="rgb(154,115,61)" d="M 826.051 328.402 C 826.422 328.362 826.794 328.323 827.165 328.284 C 871.268 325.149 914.912 338.916 949.235 366.788 C 982.123 394.008 989.13 417.47 992.973 457.827 L 985.169 438.047 C 953.645 370.055 879.877 337.501 807.534 351.693 L 803.945 331.274 C 812.236 329.379 817.666 329.051 826.051 328.402 z"/>
<path transform="translate(0,0)" fill="rgb(154,115,61)" d="M 1254.15 320.426 C 1313.62 317.517 1385.81 351.782 1404.66 411.437 C 1408.55 423.737 1409.29 434.626 1410.24 447.333 C 1406.75 437.9 1404.25 431.558 1399.85 422.544 C 1387.85 399.802 1370.19 380.533 1348.59 366.591 C 1312.64 342.976 1268.71 334.814 1226.69 343.944 C 1224.9 338.132 1223.8 329.734 1222.8 323.556 C 1234.2 321.977 1242.68 321.035 1254.15 320.426 z"/>
<path transform="translate(0,0)" fill="rgb(242,193,153)" d="M 1301.97 623.896 C 1304.55 625.671 1308.4 635.143 1310.69 638.579 C 1317.48 648.792 1335.34 651.502 1346.51 653.796 C 1347.16 663.461 1348.87 671.971 1350.6 681.481 C 1335.88 682.024 1322.52 683.839 1308.05 686.743 C 1301.49 688.059 1296.06 689.57 1289.5 687.757 C 1272.83 683.084 1254.86 680.883 1237.69 679.192 C 1249.21 670.36 1267.36 658.034 1275.48 646.268 C 1276.69 644.503 1277.87 638.07 1278.32 635.626 C 1286.29 631.898 1294.18 627.987 1301.97 623.896 z"/>
<path transform="translate(0,0)" fill="rgb(242,193,153)" d="M 729.329 531.757 C 746.282 533.998 773.99 537.884 789.751 542.903 C 790.538 552.724 791.134 562.725 791.816 572.57 C 786.593 580.406 783.883 582.649 776.055 587.917 C 758.016 596.717 741.828 596.356 722.178 596.333 C 725.206 576.468 727.194 552.011 729.329 531.757 z"/>
<path transform="translate(0,0)" fill="rgb(0,0,0)" d="M 743.977 546.449 C 765.122 546.441 782.547 546.94 763.535 572.575 C 747.38 583.934 734.776 561.926 739.919 548.018 C 740.351 546.85 742.781 546.714 743.977 546.449 z"/>
<path transform="translate(0,0)" fill="rgb(242,193,153)" d="M 1149.37 524.403 C 1164.69 526.921 1194.14 531.225 1207.71 535.512 C 1208.83 545.419 1209.25 557.13 1209.84 567.221 C 1204.5 573.401 1200.28 576.983 1193.71 581.711 C 1178.68 590.009 1158.41 589.463 1141.42 589.731 C 1144.72 569.375 1146.97 545.128 1149.37 524.403 z"/>
<path transform="translate(0,0)" fill="rgb(0,0,0)" d="M 1158.17 540.174 C 1167.47 539.608 1185.66 536.637 1190.54 545.234 C 1191.1 551.309 1187.93 556.251 1185.18 561.724 C 1184.87 562.09 1184.55 562.448 1184.22 562.796 C 1166.82 581.32 1157.41 556.43 1158.17 540.174 z"/>
<path transform="translate(0,0)" fill="rgb(242,193,153)" d="M 1564.58 537.297 C 1574.52 538.161 1615.38 543.325 1622.79 548.056 C 1626.08 553.738 1625.44 570.793 1625.56 578.021 C 1620.8 584.466 1616.67 587.742 1610.22 592.253 C 1591.78 602.097 1578.03 601.223 1557.56 601.389 C 1559.99 581.834 1561.34 555.407 1564.58 537.297 z"/>
<path transform="translate(0,0)" fill="rgb(0,0,0)" d="M 1574.35 552.095 C 1583.56 551.841 1599.18 549.195 1605.08 556.777 C 1606.71 563.181 1602.9 568.576 1599.91 574.76 C 1584.31 592.338 1568.93 566.954 1574.35 552.095 z"/>
<path transform="translate(0,0)" fill="rgb(154,115,61)" d="M 1046.19 147.532 L 1129.48 197.652 C 1144.61 206.781 1162.01 216.702 1176.42 226.5 C 1177.48 231.966 1183.9 249.713 1181.12 253.212 L 1177.49 251.317 C 1130.21 222.17 1082.75 193.317 1035.11 164.758 L 1046.19 147.532 z"/>
<path transform="translate(0,0)" fill="rgb(242,193,153)" d="M 1718.03 635.892 C 1720.78 636.923 1722.89 644.378 1725.52 648.04 C 1734.74 660.908 1749.44 662.762 1763.51 665.675 C 1764.27 673.521 1765.58 681.986 1766.64 689.848 C 1753.35 686.264 1739.86 683.437 1726.25 681.381 C 1704.19 678.137 1691.89 677.78 1669.8 678.307 L 1683.9 666.613 C 1691.48 660.22 1693.4 656.935 1694.19 647.567 C 1702.07 643.537 1710.02 639.645 1718.03 635.892 z"/>
<path transform="translate(0,0)" fill="rgb(154,115,61)" d="M 1066.21 459.422 C 1069.95 461.008 1097.61 478.584 1102.9 481.817 C 1101.37 497.905 1099.6 513.969 1097.58 530.003 C 1097.48 532.043 1097.71 531.054 1096.42 532.851 C 1079.39 534.648 1074.95 532.092 1071.49 513.893 C 1068.09 495.98 1067.32 477.598 1066.21 459.422 z"/>
<path transform="translate(0,0)" fill="rgb(242,193,153)" d="M 1044.79 656.964 C 1046.77 658.772 1049.36 665.619 1051.31 668.826 C 1059.47 682.244 1074.51 683.922 1088.73 687.146 C 1088.91 692.273 1090 698.579 1090.75 703.757 C 1085.31 706.801 1076.17 712.965 1070.49 711.771 C 1059.23 702.897 1029.06 684.422 1021.7 676.876 C 1021.24 673.095 1021.63 672.503 1022.69 668.72 C 1024.98 666.725 1040.23 659.423 1044.79 656.964 z"/>
<path transform="translate(0,0)" fill="rgb(154,115,61)" d="M 1432.97 628.205 C 1440.76 631.915 1512.42 676.162 1514.42 678.781 C 1492.31 674.57 1468.79 671.436 1447.08 665.834 C 1434.49 662.583 1431.52 639.368 1432.97 628.205 z"/>
<path transform="translate(0,0)" fill="rgb(154,115,61)" d="M 1484.97 460.333 C 1502.59 467.709 1513.59 514.176 1513.02 531.742 C 1508.02 531.903 1502.92 531.737 1497.9 531.643 C 1488.09 511.675 1485.86 482.454 1484.97 460.333 z"/>
<path transform="translate(0,0)" fill="rgb(242,193,153)" d="M 1415.53 664.012 C 1419.64 665.459 1425.94 679.857 1431.83 682.631 C 1440.87 686.883 1451.21 688.03 1460.97 689.847 C 1461.49 695.503 1461.94 701.165 1462.34 706.831 C 1457.56 703.965 1452.22 701.476 1447.19 699.01 C 1426.47 690.235 1411.84 687.813 1389.59 683.81 L 1390.91 673.422 C 1399.67 669.219 1406.31 666.755 1415.53 664.012 z"/>
<path transform="translate(0,0)" fill="rgb(154,115,61)" d="M 1060.41 623.333 C 1064.01 624.769 1096.74 644.56 1101.52 647.385 C 1100.55 653.431 1099.33 659.722 1098.24 665.776 C 1097.14 667.249 1097.72 666.587 1095.79 667.46 C 1062.68 660.181 1062.31 657.857 1060.41 623.333 z"/>
<path transform="translate(0,0)" fill="rgb(154,115,61)" d="M 730.996 425.053 C 741.671 430.864 820.842 478.068 825.714 483.149 L 822.602 482.515 C 786.513 471.64 755.365 453.838 723.642 434.26 C 726.111 431.374 728.621 428.056 730.996 425.053 z"/>
<path transform="translate(0,0)" fill="rgb(154,115,61)" d="M 1064.86 411.244 C 1074.61 415.769 1097.26 430.476 1107.23 436.611 C 1106.94 443.325 1106.23 450.681 1105.72 457.434 C 1102.25 457.747 1071.64 438.13 1065.95 434.571 C 1065.31 426.936 1065.14 418.926 1064.86 411.244 z"/>
<path transform="translate(0,0)" fill="rgb(154,115,61)" d="M 1483.14 411.509 C 1497.46 419.773 1511.67 428.247 1525.75 436.926 C 1523.14 443.314 1522.28 448.299 1521.46 455.067 L 1521.5 456.43 L 1520.18 457.288 C 1515.04 455.46 1490 439.49 1484.07 435.809 C 1483.91 427.856 1483.45 419.486 1483.14 411.509 z"/>
<path transform="translate(0,0)" fill="rgb(242,193,153)" d="M 1278.85 556.993 C 1285.12 558.387 1291.45 560.685 1297.56 562.74 C 1298.29 575.497 1298.19 590.375 1298.42 603.297 L 1290.5 607.913 C 1287.65 609.565 1281.32 612.151 1278.06 613.594 L 1278.85 556.993 z"/>
<path transform="translate(0,0)" fill="rgb(242,193,153)" d="M 860.928 563.991 C 867.945 565.778 872.234 566.785 878.954 569.72 C 879.509 583.184 879.972 596.651 880.343 610.121 L 874.172 613.667 C 869.631 616.329 864.357 618.637 859.546 620.874 L 860.928 563.991 z"/>
<path transform="translate(0,0)" fill="rgb(242,193,153)" d="M 1695.73 569.313 C 1700.88 570.236 1707.7 572.485 1712.87 574.032 C 1714.16 586.049 1714.42 602.264 1714.95 614.551 L 1706.38 619.583 C 1702.76 621.658 1697.7 624.006 1693.87 625.908 C 1694.61 609.605 1694.15 584.189 1695.73 569.313 z"/>
<path transform="translate(0,0)" fill="url(#Gradient1)" d="M 1841.32 722.84 C 1849.23 723.479 1863.02 729.205 1870.52 732.553 C 1900.39 745.892 1921.1 767.432 1932.47 798.286 C 1929.52 796.473 1911.06 776.205 1906.77 772.171 C 1886.71 753.518 1864.78 736.987 1841.32 722.84 z"/>
<path transform="translate(0,0)" fill="rgb(242,193,153)" d="M 1020.36 599.293 C 1026.43 601.839 1034.21 607.186 1039.94 610.846 C 1039.79 618.931 1041.32 626.672 1040.05 634.51 C 1039.51 637.913 1037.59 638.236 1034.73 639.915 C 1029.11 643.162 1026.28 644.269 1020.15 646.601 C 1020.11 630.831 1020.18 615.062 1020.36 599.293 z"/>
<path transform="translate(0,0)" fill="rgb(154,115,61)" d="M 746.993 261.424 C 756.071 266.171 760.347 268.831 768.859 274.482 C 769.959 279.447 776.007 296.018 773.523 299.262 L 769.872 297.584 C 759.364 291.007 747.89 284.727 737.058 278.584 C 740.452 272.912 743.764 267.192 746.993 261.424 z"/>
<path transform="translate(0,0)" fill="rgb(154,115,61)" d="M 949.585 664.868 C 963.752 667.74 978.699 670.798 991.953 676.528 L 982.628 684.952 L 975.844 691.194 C 970.543 689.638 960.016 688.128 954.221 687.125 C 950.972 678.626 950.566 673.691 949.585 664.868 z"/>
<path transform="translate(0,0)" fill="rgb(154,115,61)" d="M 1543.49 626.583 C 1545.03 629.898 1541.95 702.762 1541.74 713.785 C 1536.89 716.364 1533.53 717.564 1528.36 719.467 C 1527.42 712.774 1541.4 638.491 1543.49 626.583 z"/>
<path transform="translate(0,0)" fill="rgb(154,115,61)" d="M 1128.39 613.677 C 1130.25 620.291 1126.79 679.912 1126.46 690.362 L 1113.49 694.623 C 1113.14 685.928 1125.17 625.511 1128.39 613.677 z"/>
<path transform="translate(0,0)" fill="rgb(154,115,61)" d="M 709.457 621.672 C 710.893 626.505 709.489 670.261 708.665 676.85 C 706.84 678.286 702.758 677.983 700.207 678.064 C 699.13 671.19 707.149 629.648 709.457 621.672 z"/>
<path transform="translate(0,0)" fill="rgb(154,115,61)" d="M 989.287 580.249 C 992.697 581.702 996.474 584.244 999.684 586.23 C 998.882 596.28 999.549 612.713 999.128 624.125 C 998.349 624.043 998.182 624.148 997.847 623.376 C 991.835 609.533 988.22 594.639 989.287 580.249 z"/>
<path transform="translate(0,0)" fill="rgb(154,115,61)" d="M 1369.92 517.254 C 1378.51 517.652 1388.15 515.484 1393.99 518.905 C 1395.96 522.594 1395.03 523.58 1394.59 528.399 L 1393.6 529.596 C 1388.86 529.912 1374.76 520.238 1369.92 517.254 z"/>
<path transform="translate(0,0)" fill="rgb(154,115,61)" d="M 1483.6 586.955 C 1491.02 587.639 1499.1 586.826 1505.14 590.058 C 1507.23 593.332 1506.24 594.037 1505.58 598.725 L 1504.9 598.924 C 1501.52 598.29 1487.18 589.121 1483.6 586.955 z"/>
<path transform="translate(0,0)" fill="rgb(186,150,98)" d="M 1004.86 691.699 C 1008.46 692.909 1015.53 696.956 1017.12 700.454 C 1012.32 699.578 1005.85 699.454 1003.38 695.081 L 1004.86 691.699 z"/>
<path transform="translate(0,0)" fill="rgb(186,150,98)" d="M 1419.41 548.988 C 1429.36 548.08 1429.62 549.006 1434.49 557.223 C 1431.8 556.419 1422.37 550.697 1419.41 548.988 z"/>
<path transform="translate(0,0)" fill="rgb(242,193,153)" d="M 1368.41 657.339 C 1373.53 660.702 1371.42 669.033 1370.65 674.199 C 1367.37 670.168 1368.1 662.299 1368.41 657.339 z"/>
</svg>