<svg class="img-fluid" id="outputsvg" xmlns="http://www.w3.org/2000/svg" style="transform: matrix(1, 0, 0, 1, 0, 0); transform-origin: 50% 50% 0px; cursor: move; max-height: none; transition: none;" width="455" height="285" viewBox="0 0 4550 2850"><g id="l2muJioGiYRECkKsPIqAVZp" fill="rgb(70,84,94)" style="transform: none;"><g style="transform: none;"><path id="pYdxeKMyd" d="M2010 2283 c-337 -6 -957 -24 -1052 -30 -107 -6 -108 -6 -108 -31 l0 -25 150 5 c116 5 150 3 150 -7 0 -20 71 -24 298 -18 190 6 212 8 212 23 0 22 93 30 368 30 171 0 204 -2 208 -15 5 -12 27 -15 115 -15 102 0 109 1 109 20 0 17 7 20 50 20 47 0 50 2 50 25 l0 25 -212 -2 c-117 -1 -269 -3 -338 -5z"></path><path id="phoeuwIlQ" d="M4025 2200 c-5 -33 -12 -50 -21 -50 -11 0 -14 -17 -14 -75 0 -57 3 -75 14 -75 17 0 26 -22 26 -66 0 -30 3 -34 25 -34 l25 0 0 175 0 175 -24 0 c-21 0 -25 -6 -31 -50z"></path><path id="pjZ6aSglM" d="M4281 2233 c-49 -25 -75 -82 -79 -170 -4 -73 -4 -73 22 -73 19 0 26 5 26 19 0 11 5 23 10 26 6 3 10 13 10 22 0 23 31 84 46 90 8 3 28 -7 45 -21 31 -27 89 -36 89 -14 0 23 -41 93 -64 110 -37 27 -68 30 -105 11z"></path><path id="p0AhgYQpv" d="M705 2233 c-11 -2 -58 -14 -105 -25 -121 -29 -270 -104 -270 -135 0 -13 9 -14 48 -10 26 4 77 8 114 10 l67 3 27 -50 c39 -74 107 -136 150 -136 32 0 34 2 34 33 0 38 -39 140 -76 199 -14 22 -24 42 -21 44 2 2 27 10 55 16 44 11 52 16 52 35 0 19 -5 23 -27 22 -16 -1 -37 -3 -48 -6z"></path><path id="phx6Go1q9" d="M2960 2216 c0 -20 7 -25 57 -35 31 -6 67 -11 80 -11 13 0 23 -4 23 -10 0 -5 16 -10 35 -10 28 0 35 4 35 19 0 22 -1 22 -115 51 -105 26 -115 26 -115 -4z"></path><path id="p14mJYtQKb" d="M3630 2046 c0 -9 -7 -16 -15 -16 -10 0 -15 -10 -15 -33 0 -30 5 -36 39 -52 33 -14 54 -16 125 -10 l86 7 0 33 c0 30 -4 34 -52 55 -29 12 -78 25 -110 28 -49 4 -58 2 -58 -12z"></path><path id="p1DpRuwvjQ" d="M176 1949 c-91 -101 -143 -258 -132 -399 3 -42 8 -84 12 -93 8 -21 44 -23 44 -2 0 8 9 15 20 15 18 0 19 7 19 88 -1 48 4 100 10 115 14 36 14 94 1 99 -16 5 12 65 54 118 24 31 36 55 36 78 0 17 -4 32 -9 32 -5 0 -30 -23 -55 -51z"></path><path id="p11biG8gLN" d="M4146 1674 c-3 -9 -6 -27 -6 -42 0 -43 -39 -109 -91 -156 -47 -42 -50 -48 -47 -88 3 -40 5 -43 36 -46 27 -3 62 14 62 30 0 2 24 29 54 61 54 56 91 72 102 43 3 -7 -2 -41 -10 -74 -21 -78 -20 -82 8 -82 41 0 55 11 62 46 8 42 18 43 34 4 10 -25 18 -30 46 -30 40 0 41 6 14 85 -11 32 -18 60 -16 63 3 2 19 11 38 20 20 11 34 26 36 40 3 16 10 22 28 22 22 0 24 4 24 45 0 45 0 45 -35 45 -31 0 -36 -4 -41 -29 -6 -26 -11 -30 -68 -40 -33 -7 -73 -14 -88 -17 -27 -5 -28 -5 -28 43 0 27 -5 54 -12 61 -18 18 -95 15 -102 -4z"></path><path id="p1A2G9sJRQ" d="M3840 1374 c-76 -27 -273 -101 -302 -115 -23 -10 -28 -19 -28 -47 l0 -35 45 5 c25 3 45 2 45 -3 0 -27 110 -2 273 64 l77 31 0 58 0 58 -32 0 c-18 -1 -53 -8 -78 -16z"></path><path id="p5qb6YwD2" d="M136 1271 c21 -37 168 -181 184 -181 21 0 10 65 -15 92 -14 15 -25 38 -25 51 0 37 -29 55 -99 63 l-64 7 19 -32z"></path><path id="pAsWr3tvk" d="M3220 1149 c-102 -31 -282 -80 -312 -86 -24 -5 -28 -10 -28 -39 0 -27 4 -34 20 -34 11 0 20 -4 20 -9 0 -10 184 29 300 65 143 43 170 55 170 75 0 11 -4 19 -10 19 -5 0 -10 7 -10 15 0 21 -68 18 -150 -6z"></path><path id="p7E5jGtol" d="M2713 1043 c-30 -4 -33 -7 -33 -39 0 -33 1 -34 43 -34 23 0 66 3 95 6 51 7 52 7 52 40 l0 34 -62 -2 c-35 0 -78 -3 -95 -5z"></path><path id="p5WRv1i14" d="M1865 1019 c-181 -3 -336 -7 -342 -8 -8 0 -13 -15 -13 -35 l0 -34 120 -7 c66 -4 120 -11 120 -15 0 -13 87 -20 185 -13 83 5 95 8 95 25 0 16 9 18 73 18 60 0 78 -4 97 -20 20 -17 37 -20 126 -20 56 0 109 3 118 6 17 7 20 32 10 83 l-6 31 -127 -2 c-69 -1 -274 -5 -456 -9z"></path><path id="p18hQu97sb" d="M4044 1003 c-4 -16 -11 -33 -15 -39 -5 -6 -15 -35 -22 -65 l-14 -54 -134 0 c-133 0 -134 0 -137 -23 -2 -15 5 -33 19 -48 22 -23 28 -24 161 -24 134 0 172 7 190 34 4 6 8 64 8 129 l0 117 -25 0 c-19 0 -26 -7 -31 -27z"></path><path id="p14hyi9bB1" d="M730 973 l0 -40 53 -7 c28 -3 116 -9 195 -13 131 -6 145 -8 157 -27 7 -12 44 -95 80 -186 94 -232 124 -266 240 -277 l65 -6 0 36 c0 30 -4 36 -32 46 -49 17 -92 55 -119 105 -18 34 -30 46 -47 46 -14 0 -27 9 -34 25 -6 14 -17 25 -25 25 -8 0 -13 12 -13 35 0 19 5 35 11 35 12 0 8 69 -6 103 -6 13 -2 17 18 17 45 0 57 10 57 46 0 19 -4 34 -10 34 -5 0 -10 7 -10 15 0 12 -17 15 -93 15 -52 0 -182 3 -290 7 l-197 6 0 -40z"></path><path id="pKh33d5fh" d="M2562 863 c-26 -5 -52 -54 -52 -98 0 -14 -4 -25 -9 -25 -5 0 -21 -21 -36 -47 -24 -44 -26 -54 -20 -115 8 -77 19 -84 52 -35 20 29 153 310 153 322 0 6 -55 4 -88 -2z"></path><path id="pILFZci3d" d="M1446 707 c-13 -10 -17 -24 -14 -57 l3 -45 120 -3 c66 -2 139 0 163 3 l42 6 0 44 c0 34 -5 47 -19 55 -29 15 -273 13 -295 -3z"></path><path id="pdK57ibUl" d="M1728 493 l-88 -4 0 -33 c0 -32 2 -34 46 -40 26 -3 132 -6 235 -6 144 0 189 -3 190 -12 1 -7 0 -72 -1 -144 -2 -148 10 -194 54 -194 47 0 56 25 56 167 0 129 0 130 -25 141 -15 7 -25 20 -25 32 0 16 -7 20 -35 20 -28 0 -35 4 -35 20 0 11 -4 20 -10 20 -5 0 -10 9 -10 20 0 19 -6 20 -132 18 -73 -1 -172 -4 -220 -5z"></path></g></g><g id="l4YguFaF99747dqb4gJXm4D" fill="rgb(81,95,105)" style="transform: none;"><g style="transform: none;"><path id="pcZi88CHH" d="M3793 2493 c-30 -3 -51 -12 -70 -32 -45 -45 -224 -301 -218 -311 3 -5 0 -12 -6 -16 -8 -5 -10 -2 -5 7 4 8 -1 3 -12 -10 l-19 -24 -154 46 c-358 108 -558 140 -859 135 l-125 -2 105 -6 c62 -4 84 -7 55 -9 -27 -1 -68 -6 -90 -10 -38 -7 -37 -10 5 -24 8 -3 -17 -6 -56 -6 -55 -1 -73 2 -78 14 -4 12 -36 15 -188 17 -150 1 -167 3 -93 8 134 9 -253 9 -495 0 -194 -8 -193 -8 75 -5 151 1 246 -1 215 -6 -30 -4 -116 -8 -190 -9 -135 -2 -293 -14 -255 -20 11 -1 25 -3 30 -5 6 -1 46 -3 90 -5 72 -3 65 -4 -58 -11 -76 -4 -157 -4 -180 1 -40 7 -40 8 -9 9 22 1 31 5 26 12 -5 8 -59 10 -183 6 -108 -3 -159 -2 -131 3 31 6 9 7 -70 4 -63 -3 -142 -11 -175 -19 -54 -13 -56 -14 -15 -10 l45 4 -35 -13 c-46 -17 -49 -44 -11 -106 33 -53 84 -171 77 -177 -9 -10 -103 97 -129 146 -31 58 -24 56 -113 36 -28 -7 -28 -6 6 15 43 27 45 29 38 35 -3 3 -40 -9 -84 -27 -43 -17 -85 -31 -94 -31 -25 0 -92 -51 -162 -125 -147 -156 -193 -368 -125 -567 30 -85 65 -147 80 -138 6 4 7 1 2 -6 -10 -17 90 -119 168 -173 76 -52 183 -102 203 -94 8 3 13 2 9 -3 -6 -10 196 -61 236 -60 22 0 23 1 4 10 -16 7 -14 8 12 6 43 -2 43 16 1 24 -26 5 -21 7 25 8 50 1 57 3 57 21 0 16 -7 20 -37 20 -21 0 -54 3 -74 6 l-37 6 34 72 c73 154 99 387 70 629 -19 155 -33 207 -81 313 -19 40 -30 76 -26 78 24 15 178 27 476 36 746 22 1267 32 1395 27 204 -9 444 -55 685 -130 175 -55 678 -237 705 -254 42 -28 121 -106 136 -135 19 -37 18 -67 -6 -108 -11 -19 -23 -43 -26 -52 -4 -10 -11 -18 -16 -18 -5 0 -24 -11 -41 -24 -38 -29 -56 -36 -307 -131 -107 -41 -236 -90 -286 -109 -109 -42 -363 -117 -489 -145 -49 -11 -148 -25 -220 -31 -71 -6 -177 -15 -235 -20 -58 -5 -125 -13 -150 -18 l-45 -9 65 -2 c46 -1 61 -4 50 -11 -8 -5 -28 -10 -45 -10 -16 0 -37 -5 -45 -11 -13 -9 -12 -10 3 -5 26 8 111 -5 96 -15 -18 -11 -163 -9 -180 2 -10 6 -7 9 11 9 18 0 21 3 12 9 -18 11 -291 13 -317 2 -17 -7 -14 -10 20 -17 38 -8 37 -9 -35 -14 -83 -7 -158 -1 -140 10 7 4 -48 11 -122 16 -73 4 -124 9 -113 10 11 2 46 6 77 9 49 5 56 9 44 20 -19 19 -746 9 -746 -10 0 -20 35 -25 200 -26 85 -1 140 -4 122 -6 -43 -6 -31 -23 16 -23 28 0 33 -3 22 -10 -8 -5 -30 -10 -47 -10 -39 0 -41 -14 -18 -81 11 -30 12 -40 3 -31 -22 22 -30 13 -24 -25 l6 -38 -25 50 c-27 54 -27 45 0 -22 9 -24 21 -40 26 -37 5 3 6 -1 4 -9 -3 -7 3 -33 14 -58 11 -24 20 -39 20 -32 1 7 13 0 28 -15 18 -18 28 -22 31 -13 2 7 17 -10 33 -37 30 -52 61 -80 119 -105 19 -9 30 -16 23 -16 -6 -1 -32 8 -58 19 -58 25 -58 25 -49 -2 6 -21 6 -22 -17 -7 -13 9 -39 37 -56 63 -18 27 -33 44 -33 39 0 -17 57 -89 87 -111 62 -44 113 -52 273 -45 160 7 188 19 90 39 l-55 12 80 1 c95 2 125 8 125 28 0 13 -22 14 -169 8 -167 -7 -170 -7 -224 18 -31 14 -65 39 -81 60 -23 30 -136 285 -136 307 0 4 255 10 567 14 313 4 603 9 645 12 l77 6 -43 -99 c-124 -285 -141 -298 -387 -309 -108 -5 -149 -10 -149 -19 0 -15 42 -27 64 -19 9 3 16 1 16 -5 0 -6 -4 -11 -10 -11 -21 0 -9 -20 13 -22 12 0 2 -4 -23 -8 -45 -7 -45 -7 17 -8 65 -2 82 -16 67 -57 -5 -13 -4 -16 4 -11 7 4 12 17 13 29 1 20 2 20 8 -3 4 -17 17 -28 39 -35 32 -9 32 -10 34 -80 2 -57 3 -51 7 39 l6 110 74 18 c87 21 158 64 195 117 25 36 169 342 179 381 5 20 5 20 152 40 130 18 148 22 135 30 -8 5 -1 10 17 14 l28 8 -25 13 -24 13 39 11 c102 26 196 52 260 71 82 24 97 25 71 5 -19 -14 -18 -15 10 -16 29 -1 29 -1 -11 -20 -60 -28 -30 -23 60 11 44 16 85 30 92 30 6 0 62 -73 124 -162 164 -239 136 -218 300 -218 83 0 148 5 163 12 25 11 44 44 32 55 -3 4 -6 -1 -6 -10 0 -37 -38 -47 -181 -47 -138 0 -156 5 -155 39 1 8 7 16 15 19 9 3 11 -1 6 -17 -5 -17 -2 -21 14 -21 12 0 21 7 21 15 0 11 21 15 106 17 l107 3 14 54 c7 30 17 59 22 65 4 6 12 25 17 41 8 29 8 28 14 -20 4 -27 6 56 6 185 l-1 235 57 58 c53 54 89 70 103 47 4 -6 -3 -52 -15 -103 -30 -125 -32 -240 -4 -287 55 -95 151 -100 206 -12 36 59 15 232 -49 398 -3 7 13 20 39 32 125 56 124 170 -2 231 -43 20 -44 35 -6 175 41 156 33 241 -30 300 -44 40 -46 31 -3 -13 38 -37 55 -81 25 -64 -29 17 -72 59 -79 77 -8 20 -32 17 -32 -5 -1 -8 -13 -27 -27 -42 -15 -16 -30 -43 -34 -60 -3 -18 -10 -36 -14 -42 -4 -5 -10 -19 -13 -30 -3 -11 -5 -4 -6 18 -3 92 35 160 104 186 l30 11 -30 -6 c-45 -8 -70 -28 -90 -71 -32 -66 -31 -145 4 -269 17 -61 31 -115 31 -121 0 -6 -11 -14 -26 -17 -21 -6 -36 3 -89 51 l-64 58 -1 288 0 288 -25 24 c-23 23 -30 25 -122 23 -54 -1 -117 -3 -140 -5z m192 -130 c3 -21 1 -69 -4 -108 -6 -38 -11 -114 -11 -167 0 -76 -3 -98 -14 -98 -7 0 -60 17 -117 38 -57 21 -132 47 -166 58 -35 10 -63 23 -63 28 0 5 17 32 38 60 21 28 54 78 74 111 61 101 74 108 210 113 46 2 46 2 53 -35z m381 -289 c6 -32 -5 -97 -28 -174 -11 -34 -11 -34 -20 -10 -18 49 -38 164 -32 184 3 12 13 32 21 44 14 23 15 23 34 6 10 -9 21 -32 25 -50z m-3779 -70 c45 -80 99 -225 114 -302 16 -85 6 -255 -21 -361 -30 -118 -89 -261 -107 -261 -26 0 -138 58 -201 104 -160 118 -254 310 -223 452 30 131 136 288 241 357 60 39 140 77 154 73 5 -1 25 -29 43 -62z m3631 -356 c7 -7 12 -34 12 -60 l0 -48 38 0 c20 1 67 7 104 14 51 10 65 10 58 1 -5 -7 -7 -15 -3 -19 4 -4 -5 -17 -20 -29 l-28 -22 17 -48 c25 -73 3 -83 -27 -13 -31 76 -51 75 -75 -4 -20 -69 -52 -95 -38 -33 4 21 8 54 8 73 1 31 -2 35 -27 38 -23 3 -38 -7 -83 -52 -56 -58 -74 -67 -74 -40 0 24 -24 11 -31 -17 -5 -21 -7 -22 -14 -6 -5 13 5 28 43 62 53 48 92 114 92 157 0 53 21 73 48 46z m153 -396 c17 -66 17 -77 4 -108 -23 -55 -70 -36 -81 32 -5 34 11 127 32 184 8 19 19 -9 45 -108z m-468 91 c-13 -8 -23 -19 -23 -24 0 -5 10 -9 23 -10 29 0 -58 -40 -176 -79 -103 -35 -101 -35 -93 -14 5 13 0 15 -34 9 -22 -4 -40 -5 -40 -2 0 8 341 137 360 136 3 0 -5 -7 -17 -16z m87 -382 c-8 -81 -30 -100 -111 -101 -66 0 -59 -6 -174 157 -64 91 -80 120 -69 126 25 14 128 46 150 47 11 0 25 5 31 11 6 6 47 25 90 43 l78 31 6 -125 c3 -69 3 -154 -1 -189z m-1376 -157 c-41 -97 -125 -267 -130 -261 -3 3 0 15 6 28 10 19 10 24 -4 35 -15 11 -15 15 6 50 12 22 37 53 55 70 36 34 48 71 13 39 -24 -22 -25 -16 -3 33 12 27 17 32 20 20 6 -24 20 -23 28 2 3 11 10 20 15 20 5 0 2 -16 -6 -36z"></path><path id="pkLktamco" d="M1770 1010 c0 -20 5 -21 234 -20 247 1 276 4 276 26 0 12 -45 14 -255 14 -250 0 -255 0 -255 -20z"></path><path id="p3T03ufUS" d="M1402 854 c-25 -17 -31 -81 -10 -102 13 -13 223 -15 333 -3 l60 6 3 51 c4 65 7 64 -203 64 -129 0 -165 -3 -183 -16z"></path><path id="pvI9FyiNc" d="M1465 721 c-29 -6 -30 -9 -33 -64 l-3 -57 36 0 c24 0 35 4 35 15 0 8 -7 15 -15 15 -24 0 -31 31 -10 46 23 17 206 19 236 4 30 -17 23 -37 -16 -44 -21 -4 -35 -13 -35 -21 0 -21 103 -21 119 -1 7 8 11 34 9 58 -3 41 -4 43 -43 50 -49 8 -239 8 -280 -1z"></path></g></g><g id="l5BOPvyap7PCXAvTlzOSyGt" fill="rgb(100,120,129)" style="transform: none;"><g style="transform: none;"><path id="pSdNB1XUZ" d="M3970 2436 c-3 -2 -47 -6 -98 -8 -107 -5 -120 -13 -180 -113 -20 -33 -62 -95 -95 -139 -32 -43 -55 -82 -50 -86 4 -4 51 -21 103 -38 52 -16 152 -50 223 -75 l127 -46 2 37 c1 20 0 59 -1 87 -2 27 3 104 10 171 13 132 6 206 -22 212 -8 1 -17 1 -19 -2z"></path><path id="pMnzSPzel" d="M2148 2214 c-10 -3 -18 -11 -18 -19 0 -10 65 -14 318 -18 329 -6 338 -7 587 -62 147 -32 434 -127 838 -275 49 -18 109 -48 133 -66 24 -19 53 -34 64 -34 13 0 20 -7 20 -19 0 -11 10 -36 21 -56 19 -32 20 -40 9 -80 -7 -25 -17 -45 -21 -45 -5 0 -9 -6 -9 -14 0 -8 -7 -16 -15 -20 -8 -3 -15 -12 -15 -21 0 -8 -9 -15 -20 -15 -11 0 -20 -4 -20 -9 0 -5 -11 -12 -25 -15 -14 -4 -25 -11 -25 -16 0 -6 -8 -10 -17 -10 -24 0 -83 -23 -83 -32 0 -4 -9 -8 -19 -8 -20 0 -209 -68 -387 -139 -186 -74 -511 -164 -636 -177 -58 -6 -68 -10 -68 -26 0 -17 5 -18 63 -12 136 14 457 99 641 170 50 19 179 68 286 108 238 90 276 107 319 139 72 55 113 156 90 225 -13 40 -81 117 -137 155 -36 25 -495 194 -717 264 -134 42 -272 76 -425 104 -96 17 -164 21 -415 24 -165 2 -308 2 -317 -1z"></path><path id="pRht669Ed" d="M1375 2198 c-361 -10 -385 -12 -385 -35 0 -15 25 -15 263 -10 144 4 382 10 530 14 250 6 267 7 267 25 0 17 -11 18 -177 16 -98 -1 -322 -5 -498 -10z"></path><path id="pUX9DP8m2" d="M725 2163 c-38 -8 -71 -16 -72 -17 -1 -1 18 -42 43 -92 57 -113 79 -185 93 -304 18 -148 21 -160 36 -160 11 0 15 12 15 43 0 58 -27 275 -37 290 -4 6 -6 38 -5 69 2 42 -1 58 -10 58 -13 0 -38 44 -38 66 0 12 74 24 153 24 40 0 47 3 47 20 0 18 -6 20 -77 19 -43 0 -109 -7 -148 -16z"></path><path id="pfdGjq4xo" d="M4281 2154 c-11 -14 -24 -42 -27 -62 -8 -39 9 -155 31 -225 7 -23 16 -54 19 -69 14 -62 42 -16 78 126 26 107 22 195 -12 231 -30 32 -63 32 -89 -1z m79 -103 c-1 -34 -24 -148 -33 -157 -6 -6 -37 130 -37 163 0 16 7 39 17 52 l16 24 19 -23 c10 -13 18 -38 18 -59z"></path><path id="ptAyentTn" d="M469 2081 c-80 -34 -150 -81 -198 -133 -73 -80 -142 -215 -157 -308 -6 -36 -4 -40 15 -40 12 0 21 6 21 15 0 8 8 30 17 50 12 26 23 35 41 35 32 0 52 22 52 59 0 25 -4 31 -21 31 -20 0 -20 1 -2 31 27 47 109 135 150 160 29 18 48 22 112 20 87 -3 76 7 137 -126 54 -118 64 -170 64 -318 -1 -102 -6 -139 -29 -227 -41 -149 -55 -194 -64 -205 -4 -5 -13 -18 -20 -28 -12 -17 -16 -17 -77 10 -36 15 -71 33 -78 40 -7 7 -20 13 -28 13 -8 0 -14 5 -14 10 0 6 -9 10 -20 10 -11 0 -20 5 -20 12 0 15 -82 98 -97 98 -7 0 -13 9 -13 20 0 11 -7 23 -15 26 -8 4 -15 12 -15 19 0 8 -6 20 -13 27 -14 14 -20 32 -40 126 -8 39 -16 52 -29 52 -21 0 -22 -11 -7 -82 38 -176 188 -336 394 -420 59 -24 78 -28 89 -19 20 17 81 172 107 272 27 105 37 328 20 421 -28 149 -137 378 -179 378 -9 0 -47 -13 -83 -29z"></path><path id="pRhivvCUB" d="M4239 1704 c-1 -5 -2 -42 -3 -83 l-1 -74 73 7 c160 13 209 77 97 127 -47 21 -164 37 -166 23z"></path><path id="pqjukuq98" d="M805 1443 c-22 -151 -48 -245 -90 -332 -25 -52 -42 -98 -38 -102 4 -4 34 -10 66 -14 54 -7 57 -6 57 14 0 17 -6 21 -35 21 -19 0 -35 2 -35 5 0 3 9 23 20 45 11 22 20 48 20 60 0 11 4 20 9 20 13 0 51 167 58 252 5 58 4 68 -10 68 -11 0 -18 -12 -22 -37z"></path><path id="ptpyAH07J" d="M4317 1463 c-3 -5 -18 -56 -32 -113 -19 -76 -26 -122 -23 -167 3 -50 1 -60 -9 -51 -10 8 -13 7 -13 -3 0 -23 17 -42 30 -34 6 4 22 -3 36 -16 23 -22 25 -22 58 -6 67 31 71 113 13 291 -30 92 -47 120 -60 99z m58 -262 c5 -38 3 -52 -13 -70 l-18 -24 -23 29 c-20 25 -22 36 -17 89 3 33 11 78 17 100 l12 40 18 -58 c9 -32 20 -79 24 -106z"></path><path id="pRZS8Ggrc" d="M3915 1290 c-49 -22 -95 -40 -101 -40 -6 0 -17 -7 -24 -15 -7 -8 -22 -15 -34 -15 -40 -1 -191 -58 -188 -72 4 -15 176 -263 205 -295 18 -21 30 -23 106 -23 116 1 132 13 142 106 8 74 0 394 -10 394 -3 -1 -46 -19 -96 -40z"></path><path id="plmzoBeDs" d="M2170 1020 c0 -19 7 -20 183 -20 193 0 227 4 227 26 0 11 -37 14 -205 14 -198 0 -205 -1 -205 -20z"></path><path id="p19dbJLskn" d="M1240 1000 c0 -19 7 -20 113 -20 124 0 157 6 157 26 0 11 -27 14 -135 14 -128 0 -135 -1 -135 -20z"></path><path id="pNztQEhbN" d="M2428 933 c-10 -2 -18 -11 -18 -19 0 -11 15 -14 60 -14 33 0 60 -2 60 -4 0 -13 -66 -167 -100 -234 -22 -42 -40 -83 -40 -89 0 -7 -6 -13 -13 -13 -7 0 -30 -9 -52 -20 -22 -11 -45 -20 -52 -20 -7 0 -13 -9 -13 -20 0 -26 25 -26 82 -1 76 33 87 50 222 345 20 43 36 82 36 87 0 9 -140 11 -172 2z"></path><path id="p7AHtK0Eb" d="M1788 923 c-10 -2 -18 -11 -18 -19 0 -11 27 -14 155 -14 148 0 155 1 155 20 0 19 -6 20 -137 19 -76 -1 -146 -3 -155 -6z"></path><path id="p17r5JyRIH" d="M1221 911 c-12 -8 -3 -38 50 -167 76 -187 102 -227 172 -260 45 -21 67 -24 162 -24 122 0 155 6 155 26 0 11 -24 14 -114 14 -153 0 -203 7 -209 31 -3 11 -12 19 -21 19 -9 0 -16 6 -16 14 0 8 -4 16 -8 18 -5 2 -26 45 -47 96 -22 50 -43 92 -47 92 -4 0 -8 11 -8 25 0 14 -4 25 -9 25 -5 0 -11 14 -13 30 -4 24 -1 30 14 30 11 0 18 7 18 20 0 16 -7 20 -32 20 -18 0 -39 -4 -47 -9z"></path><path id="p1B6MhbD4A" d="M1392 854 c-43 -29 -24 -107 28 -119 26 -6 28 -8 15 -21 -19 -20 -20 -91 -1 -110 11 -11 49 -14 170 -14 143 0 158 2 176 20 24 24 27 82 4 104 -21 22 -124 23 -124 1 0 -9 14 -16 38 -20 54 -9 62 -13 62 -28 0 -27 -26 -36 -115 -37 -191 -3 -187 -3 -183 27 3 24 9 29 46 36 43 8 61 37 22 37 -13 0 -20 7 -20 20 0 17 -7 20 -39 20 -23 0 -44 6 -52 16 -11 14 -10 19 10 35 13 11 29 19 37 19 8 0 14 7 14 15 0 20 -59 20 -88 -1z"></path><path id="pZsi08YDH" d="M1700 856 c0 -8 14 -17 30 -21 21 -5 30 -13 30 -26 0 -11 -6 -22 -12 -24 -11 -3 -103 -11 -165 -14 -7 -1 -13 -8 -13 -16 0 -12 18 -15 103 -15 67 0 107 4 115 12 17 17 15 86 -2 104 -19 19 -86 19 -86 0z"></path><path id="pU9xqKxln" d="M1890 490 c0 -19 7 -20 143 -20 154 0 187 5 187 26 0 11 -31 14 -165 14 -158 0 -165 -1 -165 -20z"></path></g></g><g id="l4LSgphuXiUPl8vOcEVarvr" fill="rgb(114,132,148)" style="transform: none;"><g style="transform: none;"><path id="pGUQZrx9J" d="M1725 2199 c-77 -4 -275 -10 -440 -13 -438 -10 -615 -27 -615 -57 0 -5 11 -14 25 -19 15 -6 25 -17 25 -29 0 -11 5 -23 10 -26 6 -4 8 -15 5 -25 -5 -15 -2 -17 15 -13 22 6 25 0 10 -26 -6 -13 -4 -38 9 -82 10 -35 21 -95 25 -134 10 -104 16 -125 33 -125 13 0 15 11 9 74 l-7 74 288 6 c158 4 457 11 663 17 979 26 1204 23 1425 -16 74 -13 404 -61 590 -85 100 -13 151 -23 245 -47 64 -17 75 -23 78 -43 4 -28 -17 -100 -30 -100 -4 0 -8 -11 -8 -25 0 -20 -5 -25 -24 -25 -13 0 -26 -4 -28 -8 -3 -8 -138 -68 -210 -93 -21 -7 -38 -17 -38 -21 0 -4 -11 -8 -25 -8 -20 0 -25 -5 -25 -24 l0 -25 83 30 c223 82 287 121 326 202 63 131 -28 261 -236 337 -404 148 -692 243 -838 275 -278 62 -246 59 -740 60 -253 0 -523 -3 -600 -6z"></path><path id="p16sVptic9" d="M394 2034 c-112 -67 -166 -133 -233 -284 -50 -113 -57 -156 -42 -245 22 -127 88 -233 205 -333 56 -47 196 -120 248 -128 38 -7 37 -7 85 111 26 65 73 246 73 283 0 15 -6 22 -20 22 -14 0 -20 -7 -20 -21 0 -49 -44 -200 -87 -300 -22 -51 -27 -56 -51 -51 -15 3 -29 8 -32 12 -9 13 -69 40 -90 40 -11 0 -20 7 -20 15 0 8 -6 15 -14 15 -8 0 -16 7 -20 15 -3 9 -18 15 -36 15 -25 0 -30 4 -30 25 0 21 -5 25 -30 25 -28 0 -30 3 -30 35 0 24 -5 35 -15 35 -8 0 -15 7 -15 15 0 16 -28 76 -39 85 -10 8 -31 121 -31 168 0 30 6 47 23 63 38 36 172 98 279 128 57 16 110 32 119 36 10 3 20 2 24 -4 3 -6 21 -11 40 -11 31 0 35 -4 44 -37 6 -21 11 -48 11 -60 0 -16 6 -23 20 -23 24 0 25 14 6 90 -14 60 -75 201 -115 265 -23 37 -25 38 -34 18 -7 -17 -17 -21 -58 -20 -46 1 -48 2 -32 19 15 17 15 18 -4 18 -10 0 -46 -16 -79 -36z"></path><path id="p17o6wD1IL" d="M4260 2018 c0 -34 53 -238 62 -238 11 0 26 39 49 130 24 96 24 110 -1 110 -12 0 -20 -7 -20 -17 0 -10 -5 -36 -12 -58 l-11 -40 -13 40 c-7 22 -13 52 -13 68 -1 34 -41 40 -41 5z"></path><path id="p4I2KFjiO" d="M4290 1683 c0 -16 12 -23 55 -33 30 -7 55 -17 55 -22 0 -13 -47 -28 -86 -28 -34 0 -34 0 -34 45 0 37 -3 45 -18 45 -16 0 -18 -9 -18 -65 l1 -65 42 0 c64 0 139 19 158 40 32 36 -18 77 -118 95 -32 6 -37 5 -37 -12z"></path><path id="p2xzWzDxC" d="M4311 1434 c-18 -68 -41 -169 -41 -181 0 -7 9 -13 20 -13 14 0 20 7 20 23 1 12 7 35 14 52 l12 29 17 -60 c25 -89 21 -174 -9 -174 -8 0 -14 -9 -14 -20 0 -29 34 -25 60 8 20 24 22 35 17 103 -6 73 -54 240 -75 261 -7 7 -14 -2 -21 -28z"></path><path id="ppYcowoXn" d="M805 1403 c-19 -111 -49 -214 -87 -294 -24 -53 -38 -93 -32 -98 5 -5 39 -12 77 -16 63 -6 67 -5 67 14 0 18 -6 21 -39 21 -22 0 -43 4 -46 10 -3 5 3 27 14 49 31 59 70 204 77 282 6 59 5 69 -9 69 -11 0 -18 -12 -22 -37z"></path><path id="pXMURt4I6" d="M3175 1148 c-158 -47 -279 -74 -374 -84 -60 -6 -71 -9 -71 -25 0 -23 6 -23 135 -4 171 25 505 119 505 141 0 23 -55 15 -195 -28z"></path><path id="p1GOlXHxDt" d="M890 1006 c0 -22 33 -26 205 -26 172 0 205 4 205 26 0 11 -37 14 -205 14 -168 0 -205 -3 -205 -14z"></path><path id="paUqUi0q5" d="M2548 933 c-10 -2 -18 -10 -18 -17 0 -14 -40 -116 -76 -192 -24 -52 -32 -114 -14 -114 5 0 23 28 39 63 41 86 111 250 111 260 0 7 -14 8 -42 0z"></path><path id="pdHAw7MPs" d="M2038 923 c-10 -2 -18 -11 -18 -19 0 -12 38 -14 235 -14 228 0 235 1 235 20 0 19 -6 20 -217 19 -120 -1 -226 -3 -235 -6z"></path><path id="p9S2K6M1U" d="M1243 913 c-18 -2 -33 -6 -33 -8 0 -9 96 -239 125 -300 33 -69 68 -105 120 -125 23 -9 25 -7 25 15 0 20 -6 27 -30 32 -16 3 -30 12 -30 20 0 7 -7 16 -15 19 -8 4 -15 12 -15 20 0 8 -7 14 -15 14 -10 0 -15 10 -15 30 0 20 -5 30 -15 30 -10 0 -15 11 -15 35 0 19 -4 35 -10 35 -5 0 -10 9 -10 19 0 11 -9 40 -20 66 -11 26 -20 51 -20 56 0 5 23 9 50 9 36 0 50 4 50 14 0 23 -43 29 -127 19z"></path><path id="pxpmFYjYR" d="M1508 912 c-10 -2 -18 -10 -18 -18 0 -9 -11 -14 -30 -14 -17 0 -44 -7 -61 -16 -28 -14 -30 -18 -27 -67 3 -50 5 -53 38 -64 19 -7 29 -12 23 -12 -9 -1 -13 -20 -13 -61 0 -56 2 -61 26 -70 14 -6 75 -10 135 -10 102 0 109 1 109 20 0 19 -7 20 -108 20 -107 0 -132 7 -132 36 0 33 31 44 121 44 72 0 89 3 89 15 0 9 9 15 25 15 16 0 25 -6 25 -15 0 -8 6 -15 14 -15 8 0 22 -7 30 -16 21 -20 5 -51 -29 -60 -40 -10 -31 -34 13 -34 49 0 62 14 62 68 0 48 -16 71 -52 73 -15 1 -11 4 12 8 34 6 35 7 38 61 3 43 -1 57 -14 67 -15 11 -9 13 44 13 56 0 62 2 62 20 0 20 -5 20 -182 18 -101 -1 -191 -3 -200 -6z m256 -94 c8 -13 7 -21 -4 -32 -12 -12 -50 -15 -174 -17 -147 -2 -160 -1 -173 17 -12 17 -11 21 8 37 19 15 41 17 177 15 134 -3 156 -5 166 -20z"></path><path id="p98p367Zl" d="M1800 490 c0 -19 6 -20 108 -19 129 1 162 6 162 25 0 11 -25 14 -135 14 -128 0 -135 -1 -135 -20z"></path></g></g><g id="lwd8IrnKvR6J3wIvfTyo4s" fill="rgb(130,148,158)" style="transform: none;"><g style="transform: none;"><path id="p118K4jwjY" d="M4289 2144 c-20 -22 -24 -35 -24 -92 0 -54 23 -169 52 -262 7 -24 19 4 48 115 36 139 31 231 -15 255 -27 15 -34 13 -61 -16z"></path><path id="p17wP7Afnl" d="M2355 1869 c-168 -8 -509 -18 -855 -24 -468 -9 -703 -15 -707 -19 -3 -3 10 -136 23 -223 3 -20 11 -33 19 -33 17 0 19 74 6 166 l-7 51 235 7 c443 13 1306 31 1516 31 306 1 503 -11 724 -46 444 -69 689 -110 736 -121 74 -17 79 -24 59 -86 -9 -29 -21 -52 -26 -52 -4 0 -8 -7 -8 -15 0 -8 -6 -15 -14 -15 -8 0 -16 -3 -18 -7 -1 -5 -27 -19 -55 -32 -29 -14 -53 -28 -53 -33 0 -4 -11 -8 -25 -8 -20 0 -25 -5 -25 -25 l0 -25 53 21 c139 54 207 120 221 213 9 56 -16 121 -41 108 -15 -9 -71 3 -152 31 -24 9 -50 13 -58 10 -8 -3 -47 0 -86 6 -40 6 -169 25 -287 42 -118 16 -251 36 -295 44 -169 30 -614 47 -880 34z"></path><path id="pg1hyAnvE" d="M565 1853 c-22 -8 -86 -28 -143 -44 -107 -30 -241 -92 -280 -128 -24 -24 -30 -71 -8 -71 8 0 28 13 46 30 71 66 258 134 404 146 l84 7 11 -52 c6 -29 11 -70 11 -91 0 -34 3 -40 21 -40 21 0 22 3 16 73 -4 41 -12 91 -19 113 -12 35 -17 39 -48 40 -25 0 -36 5 -38 17 -4 20 -4 20 -57 0z"></path><path id="pjyNv5g7w" d="M4244 1629 l1 -70 70 6 c120 12 165 45 118 87 -22 20 -116 48 -158 48 l-32 0 1 -71z"></path><path id="pASsS8cy1" d="M690 1498 c0 -58 -38 -225 -69 -309 -12 -30 -21 -65 -21 -78 0 -20 -4 -23 -27 -18 -39 7 -95 30 -111 44 -7 7 -24 16 -38 19 -13 3 -24 10 -24 15 0 5 -8 9 -19 9 -10 0 -21 9 -24 20 -4 15 -14 20 -36 20 -28 0 -31 3 -31 29 0 20 -9 36 -25 49 -14 11 -25 24 -25 29 0 5 -8 18 -17 29 -22 23 -42 72 -56 137 -8 35 -16 47 -29 47 -22 0 -22 -17 -4 -85 23 -89 65 -157 146 -236 61 -61 96 -86 171 -123 136 -66 143 -67 168 -17 52 102 100 275 108 394 6 74 5 77 -16 77 -19 0 -21 -6 -21 -52z"></path><path id="pYM15F6OP" d="M816 1478 c-2 -18 -9 -67 -15 -109 -9 -65 -40 -181 -66 -241 -6 -14 -2 -18 18 -18 21 0 27 8 46 65 44 136 66 335 36 335 -8 0 -16 -13 -19 -32z"></path><path id="pZhB3u1gA" d="M4314 1433 c-3 -15 -15 -64 -26 -107 -28 -108 -22 -196 14 -233 58 -58 115 7 102 116 -7 63 -60 237 -74 246 -5 3 -12 -7 -16 -22z"></path><path id="pfAy3tOuG" d="M3660 1323 c-80 -30 -146 -59 -148 -64 -2 -5 -11 -9 -20 -9 -9 0 -42 -10 -72 -21 -174 -67 -509 -153 -641 -165 -68 -6 -79 -9 -79 -25 0 -23 4 -23 135 -5 195 27 458 100 690 190 77 30 185 72 239 93 55 21 101 44 104 51 8 25 -65 10 -208 -45z"></path><path id="poDBBKpUF" d="M1820 1019 c0 -20 3 -21 158 -16 86 3 158 6 160 6 1 1 2 8 2 16 0 13 -24 15 -160 15 -156 0 -160 -1 -160 -21z"></path><path id="p15dtNDXEl" d="M2125 919 c-187 -3 -445 -7 -572 -8 -226 -1 -233 -2 -233 -21 0 -11 7 -20 15 -20 11 0 15 -11 15 -40 0 -23 13 -75 29 -118 16 -42 32 -86 35 -97 3 -11 18 -33 33 -49 l27 -29 260 8 c144 5 299 8 346 7 278 -4 259 -2 220 -17 -19 -7 -54 -14 -77 -14 -36 -1 -43 -4 -43 -21 0 -17 7 -20 43 -20 106 0 201 62 236 155 11 27 26 64 34 80 8 17 29 65 47 107 18 43 36 80 41 84 24 15 3 24 -53 22 -35 -1 -216 -5 -403 -9z m-371 -82 c11 -8 17 -23 14 -37 -2 -20 -11 -26 -43 -32 -62 -11 -284 -9 -306 2 -28 15 -24 47 9 64 37 20 299 23 326 3z m4 -149 c16 -13 16 -43 -1 -56 -18 -15 -246 -26 -280 -13 -39 15 -39 65 1 80 33 13 261 4 280 -11z"></path><path id="pWYSabPfm" d="M1220 896 c0 -16 113 -295 132 -325 18 -29 28 -26 28 8 0 31 -57 174 -71 179 -5 2 -9 15 -9 28 0 13 -4 24 -10 24 -5 0 -10 8 -10 19 0 38 -22 81 -41 81 -10 0 -19 -6 -19 -14z"></path></g></g><g id="l25BnxxDALXfv1Zj0DkYZr9" fill="rgb(146,165,174)" style="transform: none;"><g style="transform: none;"><path id="p01XKeC60" d="M4367 2043 c-5 -7 -17 -13 -28 -13 -10 0 -19 -6 -19 -12 0 -7 -5 -5 -11 5 -5 9 -17 17 -25 17 -18 0 -14 -29 19 -159 l21 -84 13 39 c34 98 56 246 30 207z"></path><path id="pk13sGvF0" d="M2348 1855 c-3 -3 -250 -10 -549 -15 -585 -10 -992 -20 -998 -26 -2 -1 3 -50 9 -108 16 -134 8 -314 -20 -425 -11 -47 -41 -124 -65 -172 -25 -49 -41 -90 -36 -93 4 -3 34 -8 65 -12 53 -6 56 -5 56 15 0 17 -6 21 -35 21 -32 0 -34 2 -24 23 l10 22 532 2 c298 1 585 7 652 13 66 6 280 12 475 14 350 2 514 15 594 46 15 5 57 14 94 20 37 6 121 28 187 49 66 21 137 42 157 45 20 4 65 16 98 27 102 33 77 16 -49 -34 -283 -114 -656 -207 -828 -207 -36 0 -43 -3 -43 -20 0 -25 22 -26 180 -6 197 25 477 101 705 191 66 26 191 74 278 106 216 80 291 120 323 175 30 52 43 144 23 160 -22 16 -94 31 -359 73 -554 89 -643 101 -801 110 -190 11 -622 15 -631 6z"></path><path id="pDvCOTsoT" d="M495 1810 c-118 -17 -287 -86 -344 -139 -27 -26 -31 -35 -31 -85 0 -120 38 -222 119 -321 75 -91 185 -165 309 -209 51 -18 60 -9 97 89 54 144 78 268 78 420 1 78 -5 165 -12 198 l-12 57 -77 -1 c-42 -1 -100 -5 -127 -9z"></path><path id="p1ANJpB1gb" d="M4322 1413 c3 -16 9 -36 13 -46 6 -14 2 -20 -13 -24 -28 -7 -42 -54 -43 -142 -1 -62 2 -76 22 -97 29 -31 64 -31 85 1 23 36 15 137 -22 248 -27 83 -52 118 -42 60z"></path><path id="pOSRcqv99" d="M2140 1030 c0 -19 7 -20 193 -20 203 0 237 4 237 26 0 12 -39 14 -215 14 -208 0 -215 -1 -215 -20z"></path><path id="pdoOrEQqa" d="M1570 1020 c0 -19 7 -20 133 -20 144 0 177 5 177 26 0 11 -30 14 -155 14 -148 0 -155 -1 -155 -20z"></path><path id="p1Ab23XpF8" d="M1130 1010 c0 -19 7 -20 168 -20 179 0 212 4 212 26 0 11 -35 14 -190 14 -183 0 -190 -1 -190 -20z"></path><path id="p1FHcXJrq9" d="M1226 901 c-10 -15 122 -330 152 -365 9 -10 40 -29 67 -42 43 -21 65 -24 160 -24 122 0 155 6 155 26 0 11 -26 14 -127 14 -71 0 -135 5 -143 10 -10 7 26 10 110 10 69 0 251 2 405 5 154 3 274 3 268 -1 -17 -8 -16 -44 1 -44 25 0 81 23 114 47 30 23 68 80 59 89 -2 2 -26 -6 -53 -18 -45 -21 -63 -23 -239 -23 -104 0 -294 -5 -421 -9 l-230 -9 -27 29 c-15 16 -30 38 -33 49 -3 11 -19 55 -35 97 -29 79 -35 103 -21 95 4 -3 17 -1 29 4 19 7 20 11 10 32 -9 20 -21 26 -62 31 -73 9 -133 7 -139 -3z"></path></g></g><g id="l1m7a1d0NobjeZYfoLIsUjv" fill="rgb(187,199,207)" style="transform: none;"><g style="transform: none;"><path id="pfy2lG7Yn" d="M4030 1483 c-25 -8 -92 -27 -150 -43 -58 -15 -157 -45 -220 -65 -63 -20 -149 -46 -190 -57 -41 -11 -131 -37 -200 -58 -69 -22 -155 -44 -192 -50 -37 -6 -79 -15 -94 -20 -80 -31 -244 -43 -594 -46 -195 -1 -407 -7 -470 -13 -131 -13 -1098 -19 -1147 -7 -31 7 -33 6 -58 -45 -15 -29 -23 -55 -18 -60 14 -14 353 -31 478 -25 61 3 389 10 730 16 844 13 905 17 1113 66 140 33 385 108 475 146 40 16 145 57 235 89 240 88 372 152 372 180 0 12 -15 10 -70 -8z"></path><path id="p1FgIv0lBc" d="M150 1439 c0 -8 13 -42 30 -77 46 -97 152 -198 271 -255 52 -26 106 -49 122 -53 25 -6 29 -2 51 47 12 30 26 67 30 84 7 29 7 29 -13 11 -15 -14 -30 -17 -59 -14 -54 8 -206 71 -269 113 -29 19 -56 35 -59 35 -12 0 -74 71 -74 84 0 8 -7 19 -15 26 -12 10 -15 10 -15 -1z"></path><path id="pnRQPpAmp" d="M1257 903 c-37 -6 -35 -12 44 -199 61 -144 84 -177 149 -209 32 -16 65 -17 432 -11 389 6 399 7 451 30 49 21 97 65 97 88 0 5 -12 2 -27 -6 -43 -21 -99 -25 -519 -32 l-391 -6 -24 29 c-13 16 -43 83 -67 148 -66 183 -63 181 -145 168z"></path></g></g></svg>
