<svg class="img-fluid" id="outputsvg" xmlns="http://www.w3.org/2000/svg" style="transform: none; transform-origin: 50% 50% 0px; cursor: move; max-height: none;" width="909" height="461" viewBox="0 0 9090 4610"><g id="l1Eg1D4JSIdE7LtOT0zRRMZ" fill="rgb(255,255,255)" style="transform: none;"><g style="transform: none;"><path id="pLS6ggh4m" d="M20 4530 c0 -47 -4 -80 -10 -80 -6 0 -10 -113 -10 -320 0 -207 4 -320 10 -320 6 0 10 -95 10 -265 0 -170 -4 -265 -10 -265 -7 0 -10 -257 -10 -750 0 -493 3 -750 10 -750 6 0 10 -97 10 -270 0 -173 -4 -270 -10 -270 -6 0 -10 -113 -10 -320 0 -207 4 -320 10 -320 6 0 10 -93 10 -260 0 -167 -4 -260 -10 -260 -5 0 -10 -18 -10 -40 l0 -40 40 0 c22 0 40 5 40 10 0 6 103 10 290 10 187 0 290 -4 290 -10 0 -6 123 -10 350 -10 227 0 350 4 350 10 0 6 103 10 290 10 187 0 290 -4 290 -10 0 -6 123 -10 350 -10 223 0 350 4 350 10 0 9 714 7 1559 -5 236 -4 358 -2 365 5 14 14 576 14 576 0 0 -6 123 -10 350 -10 227 0 350 4 350 10 0 6 103 10 290 10 187 0 290 -4 290 -10 0 -6 123 -10 350 -10 227 0 350 4 350 10 0 6 103 10 290 10 187 0 290 -4 290 -10 0 -6 123 -10 350 -10 227 0 350 4 350 10 0 6 103 10 290 10 187 0 290 -4 290 -10 0 -5 25 -10 55 -10 l55 0 0 40 c0 36 -2 40 -25 40 l-25 0 0 260 0 260 25 0 25 0 0 325 0 325 -25 0 -25 0 0 265 0 265 25 0 25 0 0 460 0 460 -25 0 -25 0 0 265 0 265 25 0 25 0 0 320 0 320 -25 0 -25 0 0 265 0 265 25 0 25 0 0 105 0 105 -55 0 -55 0 0 -80 0 -80 -290 0 -290 0 0 80 0 80 -350 0 -350 0 0 -80 0 -80 -290 0 -290 0 0 80 0 80 -350 0 -351 0 3 -87 3 -88 100 -5 c55 -3 113 -11 128 -18 19 -8 92 -12 218 -12 l189 0 0 -107 0 -108 33 -19 c216 -125 608 -336 625 -336 12 0 22 -6 22 -13 0 -7 14 -26 31 -43 60 -56 116 -141 139 -213 23 -74 24 -94 4 -273 -6 -58 -6 -58 20 -58 19 0 26 -5 26 -20 0 -16 7 -20 35 -20 23 0 35 5 35 14 0 20 46 26 186 26 l124 0 0 -77 0 -78 60 -18 c34 -10 63 -24 67 -32 3 -9 -24 -77 -61 -153 -36 -75 -66 -147 -66 -159 0 -13 -4 -23 -10 -23 -5 0 -46 -38 -92 -84 -52 -52 -112 -100 -160 -128 -74 -43 -255 -110 -329 -123 -27 -4 -38 -12 -43 -28 -3 -12 -6 -129 -6 -259 l0 -238 -289 0 -289 0 -8 78 c-4 42 -4 146 -1 230 l6 152 -36 0 c-28 0 -62 -17 -152 -76 -154 -101 -492 -334 -510 -352 -29 -28 -68 -32 -314 -32 -139 0 -269 -3 -289 -6 l-36 -6 0 -87 0 -86 234 -74 c129 -41 238 -79 244 -86 6 -7 -1 -26 -20 -56 -19 -28 -30 -57 -30 -80 l0 -37 124 -7 c69 -4 130 -4 136 0 8 5 11 70 8 229 -1 121 1 227 5 234 6 9 76 12 292 12 l285 0 2 -237 3 -238 348 -3 349 -2 -2 42 c-2 24 -2 132 -1 241 l1 197 290 0 290 0 0 -179 0 -178 46 -7 c26 -3 80 -6 120 -6 66 0 74 -2 93 -26 12 -15 21 -33 21 -40 0 -11 29 -14 144 -14 144 0 145 0 165 -26 14 -18 21 -41 21 -70 0 -32 4 -44 15 -44 13 0 15 -36 15 -265 l0 -265 -290 0 -290 0 0 94 c0 110 4 106 -109 106 -93 0 -111 13 -111 78 l0 42 -217 0 c-120 0 -228 -3 -240 -6 -23 -6 -23 -9 -23 -160 l0 -154 -290 0 -290 0 0 154 0 155 -42 6 c-24 3 -180 5 -348 3 l-305 -3 -3 -157 -3 -158 -279 0 c-180 0 -280 4 -280 10 0 6 -15 10 -34 10 -26 0 -35 -5 -40 -23 -3 -12 -6 -147 -6 -299 l0 -278 -290 0 -290 0 0 201 0 201 -62 -5 c-35 -2 -103 -11 -153 -21 -111 -21 -296 -53 -352 -61 -24 -4 -43 -11 -43 -17 0 -23 -61 -136 -90 -166 -33 -35 -43 -92 -15 -92 8 0 15 -8 15 -18 0 -17 -12 -20 -97 -25 -54 -4 -183 -7 -286 -7 -180 0 -189 1 -194 20 -3 11 -10 21 -17 21 -6 1 -114 3 -241 4 -220 1 -232 2 -275 25 -96 49 -146 106 -181 204 -17 49 -19 51 -61 57 -24 4 -71 16 -105 28 -34 12 -77 21 -96 21 -18 0 -37 4 -43 9 -5 5 -38 15 -74 21 -36 6 -85 18 -110 26 -25 8 -67 14 -94 14 l-49 0 6 -220 5 -220 -294 0 -294 0 0 260 0 260 128 2 c70 1 153 1 185 -1 l57 -3 0 290 c0 159 -3 304 -6 321 l-6 31 -179 0 -179 0 2 172 c3 171 3 173 25 176 19 3 23 10 23 38 l0 34 -57 0 c-31 0 -70 4 -87 9 -28 9 -150 26 -381 53 -49 6 -119 11 -155 12 l-65 1 -1 -85 c-1 -47 -2 -158 -3 -247 l-1 -163 -291 0 -291 0 4 299 3 299 -80 6 c-52 5 -81 3 -83 -4 -2 -6 -86 -10 -243 -10 l-239 0 0 403 0 403 40 -4 c37 -4 40 -2 40 22 0 14 5 26 10 26 6 0 10 16 10 35 0 33 -2 35 -35 35 -24 0 -35 -5 -35 -15 0 -8 -7 -15 -15 -15 -13 0 -15 35 -15 255 l0 256 278 -5 c152 -3 307 -8 345 -11 l67 -7 0 40 c0 34 -3 41 -22 44 -33 4 -37 48 -31 307 l6 224 143 -6 143 -6 148 86 c81 48 162 94 179 102 l30 16 -4 193 -5 192 287 0 c246 0 287 -2 292 -15 7 -17 56 -20 85 -5 27 15 27 76 -1 83 -18 5 -20 14 -20 76 l0 71 -350 0 -350 0 0 -80 0 -80 -290 0 -290 0 0 80 0 80 -350 0 -350 0 0 -80z m640 -400 l0 -270 -267 0 c-148 0 -278 3 -290 6 l-23 6 0 264 0 264 290 0 290 0 0 -270z m7680 0 l0 -270 -244 0 c-134 0 -264 3 -290 6 l-46 7 0 263 0 264 290 0 290 0 0 -270z m640 -585 l0 -265 -290 0 -290 0 0 265 0 265 290 0 290 0 0 -265z m0 -1310 l0 -405 -290 0 -290 0 0 405 0 405 290 0 290 0 0 -405z m-8320 -1310 l0 -265 -290 0 -290 0 0 265 0 265 290 0 290 0 0 -265z m1280 0 l0 -265 -290 0 -290 0 0 265 0 265 290 0 290 0 0 -265z m5033 -325 l87 0 0 -260 0 -260 -290 0 -290 0 0 267 0 266 203 -6 c111 -4 241 -7 290 -7z m-5673 -260 l0 -260 -290 0 -290 0 0 260 0 260 290 0 290 0 0 -260z m7040 0 l0 -260 -290 0 -290 0 0 260 0 260 290 0 290 0 0 -260z"></path><path id="pvIX2A6U3" d="M2582 4523 l3 -88 341 -3 341 -2 7 46 c3 26 6 66 6 90 l0 44 -350 0 -351 0 3 -87z"></path><path id="plZYiwl7s" d="M3860 4558 c0 -29 3 -70 6 -90 l7 -38 343 0 344 0 0 90 0 90 -350 0 -350 0 0 -52z"></path><path id="poh2NjvPd" d="M5140 4520 l0 -90 344 0 343 0 7 38 c3 20 6 61 6 90 l0 52 -350 0 -350 0 0 -90z"></path><path id="pbCCW9HWW" d="M2400 4337 c0 -26 6 -36 29 -50 16 -9 54 -42 84 -72 42 -42 61 -55 84 -55 30 0 30 1 37 61 3 34 6 79 6 99 0 34 -3 38 -31 44 -17 3 -71 6 -120 6 l-89 0 0 -33z"></path><path id="p10fpSdY3o" d="M3460 4337 c0 -27 8 -39 53 -74 65 -50 120 -127 148 -208 23 -66 27 -122 15 -207 l-9 -58 37 0 c25 0 36 4 36 15 0 12 16 15 80 15 l80 0 0 81 c0 79 15 165 31 184 12 13 11 83 -1 87 -5 2 -13 31 -16 66 -6 53 -5 62 10 62 12 0 16 9 16 35 l0 35 -240 0 -240 0 0 -33z"></path><path id="pG7awoOVk" d="M4510 4336 c0 -28 6 -38 35 -56 50 -31 120 -113 149 -174 34 -72 45 -126 46 -220 l0 -79 53 7 c28 3 76 6 105 6 l52 0 0 79 c0 88 22 174 63 244 26 44 139 157 158 157 5 0 9 16 9 35 l0 35 -335 0 -335 0 0 -34z"></path><path id="p1DLuRwNC7" d="M5740 4334 c0 -27 4 -34 20 -34 18 0 20 -7 20 -75 0 -43 -4 -75 -10 -75 -15 0 -12 -48 6 -105 8 -27 15 -81 15 -120 1 -111 -6 -105 121 -105 l110 0 -6 63 c-8 75 5 149 39 222 30 62 100 144 150 175 29 18 35 28 35 56 l0 34 -250 0 -250 -1 0 -35z"></path><path id="p8INU33Mr" d="M7066 4018 c-3 -29 -6 -74 -6 -100 l0 -48 -100 0 c-100 0 -100 0 -112 -27 -41 -100 -60 -135 -92 -170 -27 -31 -36 -49 -36 -77 l0 -36 48 0 c28 0 90 -14 152 -35 119 -40 170 -45 170 -17 0 11 9 45 20 78 17 49 19 72 14 146 l-7 88 94 0 c70 0 110 6 161 23 65 21 68 23 68 54 0 25 -6 35 -32 47 -17 9 -36 16 -41 16 -5 0 -15 6 -21 14 -6 7 -46 32 -89 55 -63 33 -88 41 -131 41 l-53 0 -7 -52z"></path><path id="pbcDlPSu0" d="M2780 3885 c0 -11 -17 -15 -76 -17 l-76 -3 -24 -65 c-19 -52 -24 -81 -22 -145 l3 -80 198 -3 197 -2 0 34 c0 24 -5 36 -17 40 -22 8 -113 192 -113 229 0 24 -4 27 -35 27 -24 0 -35 -5 -35 -15z"></path><path id="pzDmWYOPn" d="M1450 3838 c0 -26 8 -39 36 -62 55 -44 120 -139 144 -211 21 -64 22 -65 57 -65 19 0 82 14 139 32 101 30 104 32 104 60 0 19 -13 46 -39 76 -41 50 -71 103 -90 165 l-13 37 -169 0 -169 0 0 -32z"></path><path id="puQNLIH1z" d="M5760 3774 c-7 -20 -32 -60 -56 -90 -34 -41 -44 -62 -44 -90 l0 -35 83 7 c45 3 83 8 85 9 2 2 6 55 9 119 l6 116 -36 0 c-32 0 -37 -4 -47 -36z"></path><path id="p1FFzlyGP3" d="M3871 3697 c-6 -35 -11 -78 -11 -95 l0 -32 85 0 85 0 0 31 c0 19 -11 45 -29 68 -17 21 -35 49 -42 64 -10 21 -19 27 -45 27 -32 0 -32 -1 -43 -63z"></path><path id="pJ3L75E3k" d="M2576 1728 c8 -147 8 -148 48 -148 19 0 78 9 131 20 53 11 99 20 101 20 2 0 4 47 4 105 l0 105 -145 0 -145 0 6 -102z"></path></g></g><g id="l46xWsi8tQXkQXvMoYR2NQS" fill="rgb(228,229,228)" style="transform: none;"><g style="transform: none;"><path id="p1Hmp0Ep8D" d="M0 4515 c0 -95 0 -95 25 -95 l25 0 -2 -287 -3 -288 -22 -3 -23 -3 0 -295 0 -294 25 0 25 0 2 -282 3 -283 38 3 c27 3 37 0 37 -11 0 -11 -8 -13 -42 -6 -58 11 -88 11 -88 0 0 -5 10 -11 23 -13 l22 -3 0 -420 0 -420 -22 -3 -23 -3 0 -300 0 -299 25 0 25 0 -2 -287 -3 -288 -22 -3 -23 -3 0 -289 0 -289 23 -3 c14 -2 23 -11 25 -25 l3 -23 319 0 319 0 3 23 3 22 315 0 315 0 3 -22 3 -23 319 0 319 0 3 22 3 23 315 0 315 0 3 -23 3 -22 640 0 c620 0 639 1 639 19 0 10 -7 22 -16 25 -8 3 -292 6 -631 6 -339 0 -618 1 -619 3 -2 2 -6 101 -10 220 l-7 217 21 0 c14 0 22 6 22 18 0 14 -22 23 -122 46 -68 15 -131 35 -140 44 -11 9 -18 30 -18 54 0 27 -4 38 -15 38 -13 0 -18 -12 -18 -45 0 -15 -350 -16 -359 -1 -4 6 -8 136 -8 289 l0 277 179 0 179 0 6 -35 c4 -21 13 -35 21 -35 13 0 15 29 15 179 0 153 2 181 16 192 9 8 71 26 138 40 92 19 122 29 124 42 2 10 -3 17 -12 17 -9 0 -18 10 -21 23 -8 39 -10 165 -2 160 15 -9 67 9 67 23 0 12 -40 14 -248 14 l-248 0 -64 -66 c-113 -115 -90 -109 -297 -79 -447 64 -830 115 -1303 176 -245 31 -280 39 -280 62 0 7 20 77 45 157 25 80 45 159 45 177 0 30 -2 33 -32 33 -51 0 -135 44 -158 82 -23 39 -25 71 -5 153 8 33 15 77 15 98 0 20 5 37 10 37 6 0 10 6 10 14 0 38 103 96 172 96 31 0 26 -13 68 180 19 83 39 152 49 161 14 15 59 30 299 99 l74 21 -5 47 c-2 26 -10 75 -17 110 -12 55 -11 71 4 136 21 91 70 176 136 238 28 26 50 55 50 66 0 17 -11 18 -147 21 -81 1 -151 5 -155 7 -4 3 -8 131 -8 285 l0 279 320 0 320 0 2 -187 3 -188 -37 -19 c-21 -10 -38 -22 -38 -27 0 -14 67 -11 82 4 7 7 25 18 40 24 22 10 422 232 576 320 23 13 42 28 42 33 0 6 8 10 18 10 10 0 35 9 57 20 36 19 59 20 307 20 225 0 268 2 268 14 0 8 -8 16 -17 18 -19 4 -19 3 -21 91 l-2 57 -320 0 -320 0 0 -85 c0 -79 2 -86 22 -94 l22 -8 -21 -11 c-17 -9 -22 -9 -27 3 -4 12 -54 15 -318 17 l-313 3 -3 88 -3 87 -319 0 -320 0 0 -90 0 -90 -318 2 -317 3 -3 88 c-3 85 -3 87 -27 87 -25 0 -25 -1 -25 -95z m392 -685 l301 0 -6 -242 c-7 -276 -3 -321 31 -326 12 -2 22 -8 22 -14 0 -6 -14 -8 -37 -3 -21 4 -175 10 -343 14 l-305 6 -3 275 c-1 151 0 281 3 288 3 8 12 11 21 8 9 -3 151 -6 316 -6z m248 -2031 c0 -12 34 -11 46 1 6 6 8 -100 6 -286 l-3 -294 -317 2 -317 3 0 285 0 285 265 2 c146 1 266 6 268 11 3 11 52 3 52 -9z m750 -99 c0 -7 13 -8 35 -4 24 4 35 2 35 -5 0 -8 11 -10 35 -5 23 4 35 2 35 -5 0 -6 9 -11 20 -11 11 0 20 4 20 9 0 5 9 7 20 4 11 -3 20 -9 20 -14 0 -5 18 -6 40 -3 28 5 40 3 40 -5 0 -8 11 -10 35 -5 24 4 35 3 35 -6 0 -8 10 -9 30 -5 19 4 30 3 30 -4 0 -15 37 -14 42 0 3 8 10 6 20 -5 13 -12 27 -15 55 -10 l38 6 -3 -194 c-1 -106 -5 -199 -7 -206 -4 -10 -72 -12 -317 -10 l-313 3 -1 235 c0 129 1 238 3 243 6 11 53 8 53 -3z m-62 -777 l-3 -288 -315 0 -315 0 -3 288 -2 287 320 0 320 0 -2 -287z m-643 -583 l0 -285 -315 0 -315 0 -3 288 -2 287 317 -2 318 -3 0 -285z m1283 -3 l2 -287 -317 2 -318 3 -3 288 -2 287 317 -2 318 -3 3 -288z"></path><path id="p128BwfnzK" d="M3250 4581 c0 -62 -13 -121 -26 -121 -8 0 -14 -7 -14 -15 0 -13 47 -15 360 -15 313 0 360 2 360 15 0 8 -6 15 -14 15 -14 0 -26 49 -26 113 l0 37 -320 0 -320 0 0 -29z"></path><path id="pCX6RhqTi" d="M4530 4535 c0 -60 -3 -75 -15 -75 -8 0 -15 -7 -15 -15 0 -13 46 -15 350 -15 304 0 350 2 350 15 0 8 -7 15 -15 15 -12 0 -15 15 -15 75 l0 75 -320 0 -320 0 0 -75z"></path><path id="pF0RIkiws" d="M5810 4573 c0 -64 -12 -113 -26 -113 -8 0 -14 -7 -14 -15 0 -13 47 -15 360 -15 300 0 360 2 360 14 0 7 -9 16 -20 19 -18 5 -20 14 -20 76 l0 71 -320 0 -320 0 0 -37z"></path><path id="pZZ3namjZ" d="M7090 4520 l0 -90 -189 0 c-104 0 -201 4 -215 10 -23 8 -26 7 -26 -13 0 -18 32 -40 193 -129 106 -60 196 -108 201 -108 4 0 14 -7 22 -15 16 -16 84 -21 84 -7 0 5 -16 17 -35 28 l-35 19 0 102 0 103 318 -2 317 -3 3 -278 c2 -273 2 -278 -17 -267 -28 14 -31 13 -31 -12 0 -29 58 -68 102 -68 l31 0 -21 23 -21 22 287 -3 c158 -1 293 -4 300 -7 10 -4 12 -65 12 -284 l-2 -279 -186 -4 c-103 -2 -199 -1 -214 1 -26 3 -28 5 -22 42 6 34 4 39 -13 39 -22 0 -33 -32 -33 -95 0 -29 4 -34 38 -43 20 -6 116 -35 213 -66 97 -31 186 -56 198 -56 12 0 21 -4 21 -10 0 -5 16 -10 35 -10 24 0 35 5 35 15 0 8 -14 17 -35 21 l-35 6 0 74 0 74 320 0 320 0 -2 -287 -3 -288 -317 -3 c-346 -3 -330 -5 -308 52 8 23 7 26 -13 26 -21 0 -67 -55 -67 -80 0 -5 -4 -10 -10 -10 -5 0 -10 -17 -10 -37 l1 -38 34 40 c18 22 37 36 42 31 4 -4 8 -195 8 -424 l0 -417 -315 0 -315 0 -3 220 c-3 249 0 281 28 288 11 3 20 0 20 -6 0 -9 2 -9 8 -1 4 6 22 15 40 19 36 8 44 35 10 35 -13 0 -54 -7 -93 -15 -101 -20 -296 -43 -480 -55 -237 -15 -245 -16 -245 -46 0 -28 8 -30 36 -9 10 8 21 15 24 15 3 0 5 -100 4 -223 l-1 -222 -309 -3 c-196 -1 -312 -6 -319 -13 -6 -6 -10 -94 -10 -237 0 -174 -3 -227 -12 -228 -7 -1 -20 -2 -28 -3 -8 0 -15 -8 -15 -16 0 -13 48 -15 370 -15 308 0 370 2 370 14 0 7 -9 16 -20 19 -20 5 -20 12 -18 234 l3 228 315 0 315 0 0 -232 c0 -219 -1 -233 -18 -233 -11 0 -17 -6 -15 -12 4 -10 64 -14 246 -16 l242 -2 0 34 c0 23 7 42 22 56 19 18 35 20 140 20 94 0 118 3 118 14 0 14 -29 26 -68 26 l-22 0 2 172 3 173 315 0 315 0 0 -284 c0 -219 -3 -285 -12 -289 -8 -2 -13 5 -13 17 0 14 -5 19 -15 15 -12 -5 -15 -29 -15 -130 0 -131 -9 -169 -44 -181 -12 -4 -78 -7 -148 -6 l-127 2 -18 -37 -18 -37 -147 -3 c-123 -2 -148 -5 -148 -17 0 -8 7 -16 15 -16 8 -1 20 -3 25 -4 6 -1 14 -3 19 -4 5 0 9 -44 10 -96 l2 -95 -318 2 -318 3 -2 152 -2 152 30 6 c16 4 29 13 29 21 0 12 -59 14 -385 14 -330 0 -385 -2 -385 -15 0 -8 14 -17 35 -21 l36 -6 -3 -152 -3 -151 -310 4 c-170 1 -312 5 -315 8 -3 2 -5 71 -5 151 0 123 2 147 15 148 8 1 23 2 33 3 9 0 17 8 17 16 0 13 -35 15 -277 13 l-277 -3 -78 -135 c-43 -74 -80 -144 -84 -154 -4 -11 -10 -24 -15 -30 -56 -71 -34 -63 -314 -111 -143 -25 -386 -67 -540 -95 -154 -28 -283 -50 -287 -50 -5 0 -8 -9 -8 -21 0 -15 5 -19 15 -15 8 3 15 0 15 -7 0 -8 3 -8 9 2 5 8 19 12 35 9 14 -3 26 -2 26 2 0 4 11 10 25 12 14 3 25 1 25 -6 0 -8 2 -8 8 0 10 17 102 35 102 20 0 -6 4 -5 9 3 5 8 19 12 35 9 14 -3 26 -1 26 5 0 5 11 7 25 5 14 -3 25 -1 25 5 0 5 14 7 30 5 17 -3 30 -1 30 3 0 12 39 17 44 5 3 -7 5 -7 5 2 1 6 10 12 21 12 20 0 21 -5 18 -198 l-3 -197 -315 -5 -315 -5 -3 -23 -3 -22 320 0 320 0 3 22 3 23 315 0 315 0 3 -22 3 -23 319 0 319 0 3 23 3 22 275 3 c317 3 360 0 360 -29 0 -18 10 -19 319 -19 l320 0 3 23 3 22 315 0 315 0 3 -22 3 -23 319 0 319 0 3 22 c2 19 10 24 41 26 l37 3 0 290 0 289 -34 0 c-22 0 -36 6 -40 16 -3 9 -6 139 -6 289 l0 273 40 7 40 7 0 293 0 294 -37 3 -38 3 0 425 0 425 38 3 37 3 0 294 0 294 -37 3 -38 3 0 285 0 285 38 -2 37 -2 0 299 0 299 -37 3 -38 3 -3 88 -3 87 -319 0 -320 0 0 -90 0 -90 -317 2 -318 3 -3 88 -3 87 -319 0 -320 0 0 -90z m1918 -387 l-3 -288 -315 0 -315 0 -3 288 -2 287 320 0 320 0 -2 -287z m-2868 -3505 l305 -3 0 -285 0 -285 -309 -3 c-226 -2 -312 1 -317 9 -9 15 -12 530 -3 565 4 14 10 21 13 15 5 -7 107 -12 311 -13z m1588 -291 l2 -287 -317 2 -318 3 -3 275 c-1 151 0 280 3 288 3 10 71 12 317 10 l313 -3 3 -288z m1277 3 l0 -285 -315 0 -315 0 -3 288 -2 287 317 -2 318 -3 0 -285z"></path><path id="p2vymmRkM" d="M2540 4355 c0 -8 14 -17 36 -21 l36 -7 -6 -45 c-3 -25 -6 -57 -6 -71 0 -26 0 -26 -35 12 l-35 38 0 -35 c0 -25 4 -36 15 -36 8 0 15 -6 15 -14 0 -8 11 -36 24 -63 40 -79 49 -129 42 -225 -6 -72 -4 -88 7 -88 8 0 17 9 20 20 5 18 14 20 80 20 64 0 76 3 80 18 3 10 5 6 6 -11 1 -33 17 -67 31 -67 6 0 10 16 10 35 0 19 -4 35 -10 35 -15 0 -12 98 5 163 30 114 99 217 180 267 29 18 35 28 35 56 l0 34 -265 0 c-225 0 -265 -2 -265 -15z"></path><path id="pw8CEQKNI" d="M3810 4355 c0 -8 14 -17 34 -20 l33 -7 5 -90 c4 -61 10 -93 19 -99 11 -6 11 -11 1 -21 -19 -19 -15 -48 8 -48 11 0 20 7 20 15 0 35 161 215 192 215 5 0 8 16 8 35 l0 35 -160 0 c-133 0 -160 -2 -160 -15z"></path><path id="piSlBgRKW" d="M5570 4337 c0 -28 7 -39 45 -66 72 -51 165 -183 165 -233 0 -11 8 -18 20 -18 17 0 19 5 15 28 -10 45 -10 46 -19 61 -6 10 -5 12 2 7 9 -5 12 22 12 102 l0 110 35 6 c21 4 35 13 35 21 0 13 -26 15 -155 15 l-155 0 0 -33z"></path><path id="p12KqbnhWV" d="M6740 4247 c0 -21 12 -49 35 -81 61 -86 79 -147 78 -263 -1 -102 6 -122 27 -83 10 19 19 20 108 18 l97 -3 5 -85 c3 -47 2 -95 -2 -107 -6 -20 -4 -23 17 -23 15 0 26 7 30 21 10 30 118 142 159 164 25 13 36 27 36 42 0 20 -3 21 -28 12 -16 -5 -69 -9 -118 -7 -103 3 -100 0 -89 112 6 69 7 71 33 70 24 -1 51 -8 75 -21 4 -2 7 7 7 21 0 19 -5 26 -20 26 -11 0 -20 4 -20 8 0 5 -83 54 -184 110 -206 115 -246 126 -246 69z"></path><path id="p4zrbLRyO" d="M1735 4176 c-22 -12 -131 -74 -242 -136 -199 -110 -203 -113 -203 -145 0 -29 4 -33 32 -39 40 -8 148 -58 148 -68 0 -5 17 -8 38 -8 l37 1 -35 29 -34 30 142 0 142 0 6 -25 c3 -14 13 -25 21 -25 13 0 14 10 8 63 -11 88 -7 137 17 204 11 32 22 77 25 101 l5 42 -33 0 c-19 0 -52 -11 -74 -24z"></path><path id="p3508kbnK" d="M4924 4015 c-3 -20 -12 -35 -20 -35 -8 0 -14 -4 -14 -10 0 -5 7 -10 16 -10 13 0 15 -6 9 -27 -3 -16 -11 -29 -16 -31 -15 -6 -10 -22 6 -22 8 0 15 -6 15 -14 0 -11 -18 -15 -75 -18 -66 -3 -75 -1 -75 15 0 10 -8 17 -20 17 -14 0 -20 -7 -20 -22 0 -31 -53 -142 -90 -188 -19 -24 -30 -50 -30 -69 l0 -31 240 0 240 0 0 31 c0 22 -11 43 -35 70 -73 81 -111 199 -100 310 6 59 5 69 -9 69 -9 0 -17 -13 -22 -35z"></path><path id="pPbfr4gnJ" d="M7305 3957 c11 -9 15 -19 10 -27 -6 -10 -2 -11 18 -6 14 3 28 2 31 -3 3 -5 15 -11 26 -14 16 -4 20 0 20 19 0 17 -6 24 -20 24 -11 0 -20 5 -20 10 0 6 -19 10 -42 10 -38 0 -40 -1 -23 -13z"></path><path id="p13w3PZpHy" d="M5980 3945 c0 -8 -7 -15 -15 -15 -8 0 -15 -4 -15 -10 0 -5 6 -10 14 -10 7 0 16 -12 18 -27 l4 -28 -78 -3 c-82 -4 -82 -4 -78 46 1 15 -4 22 -17 22 -16 0 -21 -13 -32 -75 -8 -41 -17 -75 -21 -75 -12 0 -30 -49 -30 -82 0 -27 2 -29 17 -17 9 8 27 37 39 64 l23 50 0 -40 c1 -22 -2 -64 -5 -92 -6 -47 -9 -53 -30 -53 -16 0 -24 -6 -24 -17 0 -17 16 -18 200 -18 l200 0 0 33 c0 24 -10 45 -33 73 -48 56 -85 137 -99 218 -8 45 -17 71 -25 71 -7 0 -13 -7 -13 -15z"></path><path id="p2mkc8I89" d="M3676 3863 c-8 -53 -50 -139 -92 -189 -24 -30 -34 -52 -34 -76 l0 -33 210 0 c194 0 210 1 210 17 0 14 -8 18 -40 18 l-40 0 7 42 c8 56 24 73 40 44 11 -20 12 -19 13 14 0 48 -45 174 -65 178 -8 2 -15 -3 -15 -12 0 -13 -13 -16 -75 -16 -75 0 -80 3 -76 38 1 6 -7 12 -17 12 -15 0 -21 -9 -26 -37z"></path><path id="panLsouRg" d="M7358 3879 c-29 -16 -21 -29 17 -29 28 0 35 4 35 20 0 22 -24 26 -52 9z"></path><path id="pP6QZFfwE" d="M2537 3681 c-25 -32 -37 -59 -37 -80 l0 -31 75 0 c57 0 75 3 75 14 0 7 -9 16 -21 19 -19 5 -21 12 -17 66 3 56 1 61 -17 61 -13 0 -35 -18 -58 -49z"></path><path id="paGCO5V98" d="M2905 3650 c4 -13 2 -20 -7 -21 -7 0 3 -6 22 -12 l35 -11 -50 -6 c-49 -5 -49 -5 -16 -13 68 -15 81 -10 81 26 0 39 -15 57 -48 57 -19 0 -22 -4 -17 -20z"></path><path id="pYlHlOK31" d="M6420 1860 c0 -5 -7 -10 -15 -10 -8 0 -15 -4 -15 -10 0 -5 -16 -10 -35 -10 -24 0 -35 -5 -35 -15 0 -14 18 -20 49 -15 8 1 18 -4 22 -12 7 -10 9 -9 9 5 0 9 6 17 13 17 6 0 28 14 47 30 l35 30 -37 0 c-21 0 -38 -4 -38 -10z"></path><path id="p19aCIt3xR" d="M5680 1795 c0 -24 12 -53 36 -90 36 -54 38 -55 86 -55 30 0 47 4 43 10 -3 6 -12 10 -18 10 -8 0 -12 20 -12 59 l0 59 38 6 c23 4 37 12 37 21 0 12 -19 15 -105 15 l-105 0 0 -35z"></path><path id="p3yPc0bWb" d="M8738 1363 c-10 -2 -18 -11 -18 -19 0 -11 15 -14 60 -14 44 0 60 4 60 14 0 21 -55 32 -102 19z"></path><path id="pM1kRW7uT" d="M2660 495 c0 -8 6 -15 14 -15 8 0 21 -7 29 -15 21 -20 77 -9 77 15 0 12 -11 20 -31 24 -55 11 -89 7 -89 -9z"></path><path id="pv8UkUxGk" d="M2850 455 c0 -3 8 -13 18 -23 24 -24 112 -25 112 -1 0 11 -11 19 -31 23 -38 7 -99 8 -99 1z"></path><path id="p17bBcFBvg" d="M3000 415 c0 -8 6 -15 14 -15 8 0 22 -7 31 -16 8 -9 22 -14 30 -11 7 3 15 2 17 -4 6 -17 68 2 68 20 0 13 -15 20 -58 29 -77 16 -102 15 -102 -3z"></path><path id="pnoN62yKI" d="M4490 200 c-7 -10 -42 -33 -77 -50 l-63 -31 -495 3 c-272 2 -495 1 -495 -1 0 -2 12 -15 26 -28 18 -17 32 -22 47 -17 16 5 353 8 443 4 7 0 14 -9 17 -20 5 -19 14 -20 224 -20 120 0 261 3 314 6 l96 7 6 69 c3 38 11 76 18 84 9 11 6 14 -18 14 -17 0 -34 -8 -43 -20z"></path></g></g><g id="lh6SW10pKtxVulNwf2XgVt" fill="rgb(113,164,90)" style="transform: none;"><g style="transform: none;"><path id="paSQyIVh8" d="M1655 3434 c-137 -41 -376 -113 -530 -159 -154 -46 -359 -107 -455 -136 -96 -28 -176 -52 -178 -54 -3 -3 -39 -159 -62 -272 -16 -80 -33 -94 -120 -102 -38 -4 -75 -12 -81 -18 -17 -17 -49 -179 -49 -249 0 -47 4 -65 18 -78 18 -15 263 -16 3603 -13 3870 3 3658 1 3939 52 269 50 439 149 544 319 67 106 118 222 114 258 -3 28 -8 33 -58 49 -168 53 -996 314 -1240 390 l-284 89 -2456 -1 -2455 0 -250 -75z"></path><path id="p14NrOGqii" d="M352 2148 c-24 -79 -43 -157 -42 -175 0 -38 -22 -32 270 -68 291 -36 1005 -132 1199 -161 243 -36 225 -39 330 61 l90 85 2098 0 2098 1 242 167 c232 160 242 168 243 200 l0 32 -3243 0 -3243 0 -42 -142z"></path><path id="p6ECRqYOI" d="M2920 1722 c0 -73 -4 -114 -13 -126 -10 -13 -71 -30 -243 -64 l-229 -47 -3 -430 -2 -431 272 -63 c150 -35 316 -74 368 -87 l94 -24 747 0 746 0 484 85 c266 47 507 90 536 96 l51 10 148 252 c81 139 182 311 225 383 57 95 79 141 79 165 l0 34 -221 70 c-197 62 -224 73 -243 100 -12 16 -48 65 -79 108 l-57 77 -1330 0 -1330 0 0 -108z"></path><path id="po6k1Oag1" d="M8240 1196 c0 -84 -3 -181 -6 -215 l-7 -61 167 0 166 0 0 215 0 215 -160 0 -160 0 0 -154z"></path><path id="pqT5I4Wo5" d="M8620 1130 l0 -141 133 3 132 3 3 138 3 137 -136 0 -135 0 0 -140z"></path><path id="p16uhTAqbY" d="M6122 1237 c-36 -47 -82 -143 -82 -173 l0 -34 658 0 c361 0 843 3 1070 7 l412 6 0 94 c0 66 -4 95 -12 97 -7 3 -468 7 -1025 10 -777 4 -1014 2 -1021 -7z"></path><path id="p1BpCgBgcS" d="M3263 344 c6 -56 48 -120 97 -145 32 -18 67 -19 533 -19 478 0 499 1 537 20 50 26 90 91 90 148 l0 42 -631 0 -632 0 6 -46z"></path></g></g><g id="l60BW2g4IqMnPchNjGtAXhy" fill="rgb(104,104,104)" style="transform: none;"><g style="transform: none;"><path id="pqGPqwZg9" d="M2079 4287 c-58 -16 -137 -74 -173 -126 -38 -54 -66 -151 -66 -225 0 -234 155 -378 389 -363 123 8 174 29 247 101 79 79 99 133 99 266 0 86 -3 101 -31 160 -38 80 -92 135 -164 169 -46 21 -72 26 -155 28 -60 2 -118 -2 -146 -10z m192 -230 c75 -51 98 -126 57 -187 -53 -77 -131 -98 -196 -52 -42 31 -76 95 -67 131 10 43 51 96 86 114 46 23 80 21 120 -6z"></path><path id="p12T5Y0bD2" d="M2137 4002 c-20 -22 -23 -122 -5 -140 7 -7 39 -12 75 -12 56 0 64 3 79 25 19 29 15 104 -6 130 -19 23 -122 20 -143 -3z"></path><path id="pMRO7g0cv" d="M3133 4286 c-145 -47 -233 -177 -233 -342 0 -99 15 -162 53 -219 71 -108 188 -162 334 -153 137 9 221 54 284 151 46 72 63 146 56 249 -9 134 -85 251 -195 301 -59 27 -234 34 -299 13z m170 -217 c39 -20 86 -72 98 -106 16 -51 -21 -120 -81 -150 -56 -29 -78 -29 -121 0 -53 36 -82 85 -76 131 12 91 112 160 180 125z"></path><path id="pSkmdipvx" d="M3190 4005 c-7 -9 -15 -38 -18 -65 -4 -43 -1 -52 23 -76 24 -24 32 -26 77 -21 62 8 77 26 78 93 0 67 -18 84 -92 84 -38 0 -60 -5 -68 -15z"></path><path id="pJ9jDBS2i" d="M4205 4291 c-98 -26 -198 -120 -228 -213 -23 -73 -23 -217 0 -288 22 -69 96 -150 171 -187 52 -26 66 -28 167 -27 90 0 121 4 167 23 68 26 135 89 169 158 22 43 24 61 24 178 0 121 -2 133 -27 180 -31 60 -111 137 -164 161 -43 18 -228 29 -279 15z m176 -234 c48 -32 79 -83 79 -128 0 -32 -8 -47 -42 -83 -55 -56 -98 -67 -156 -37 -52 26 -97 97 -88 139 15 64 87 132 141 132 18 0 47 -10 66 -23z"></path><path id="pxbYwmRIP" d="M4247 4002 c-12 -13 -17 -37 -17 -75 0 -67 12 -77 94 -77 48 0 58 3 72 25 19 29 15 104 -6 130 -19 23 -122 20 -143 -3z"></path><path id="payuHHNy2" d="M5253 4291 c-90 -23 -187 -113 -222 -205 -26 -69 -29 -206 -6 -283 41 -139 179 -233 341 -233 141 1 251 53 315 153 46 72 63 146 56 249 -6 97 -39 171 -101 232 -74 71 -122 89 -245 92 -58 2 -120 -1 -138 -5z m159 -220 c35 -14 86 -68 98 -107 23 -68 -46 -157 -132 -170 -61 -10 -148 73 -148 141 0 39 34 92 79 122 36 25 66 28 103 14z"></path><path id="p14oiQ4AtA" d="M5300 4005 c-21 -26 -25 -101 -6 -130 15 -22 23 -25 76 -25 75 0 90 14 90 85 0 35 -5 59 -16 69 -21 22 -126 22 -144 1z"></path><path id="p13BBCxwCE" d="M6283 4280 c-71 -28 -146 -98 -180 -168 -26 -53 -28 -66 -28 -177 0 -111 2 -124 28 -177 33 -67 90 -121 166 -157 49 -23 68 -26 161 -26 136 0 195 20 265 90 28 28 62 73 75 100 22 45 25 63 25 170 0 113 -2 124 -29 178 -35 68 -99 130 -164 160 -70 32 -246 35 -319 7z m218 -223 c37 -24 79 -90 79 -122 0 -59 -89 -144 -150 -145 -50 0 -134 75 -141 125 -7 54 33 119 96 153 32 18 80 14 116 -11z"></path><path id="pq6dzrSEy" d="M6360 4005 c-7 -9 -15 -38 -18 -65 -4 -43 -1 -52 23 -76 24 -24 32 -26 77 -21 28 4 56 12 64 18 18 14 19 130 2 147 -18 18 -133 16 -148 -3z"></path><path id="p3YnRNkVL" d="M1127 3810 c-98 -18 -201 -103 -239 -200 -18 -44 -22 -76 -23 -160 0 -63 5 -120 13 -142 12 -34 17 -38 49 -38 19 0 68 10 109 22 71 22 74 24 74 54 0 17 -7 46 -16 64 -14 26 -15 39 -5 70 12 42 76 106 115 116 64 16 146 -49 168 -132 12 -42 13 -44 51 -44 21 0 71 10 109 21 l70 22 -5 49 c-14 113 -88 218 -191 268 -50 25 -78 31 -146 35 -47 2 -106 0 -133 -5z"></path><path id="p1A7TjHGhb" d="M7411 3809 c-139 -23 -255 -152 -268 -298 l-5 -57 80 -27 c43 -15 94 -27 111 -27 29 0 31 2 31 36 0 81 90 171 160 160 93 -15 164 -138 115 -202 -8 -10 -15 -35 -15 -55 l0 -37 81 -26 c44 -14 91 -26 104 -26 34 0 52 32 66 117 14 86 0 202 -31 264 -75 146 -231 211 -429 178z"></path><path id="pPFvlX7RG" d="M1157 3522 c-12 -13 -17 -37 -17 -75 0 -49 3 -59 25 -73 32 -21 107 -14 135 11 27 25 28 115 2 138 -27 24 -123 23 -145 -1z"></path><path id="pbzpzICii" d="M7436 3524 c-11 -10 -16 -34 -16 -74 0 -53 3 -61 25 -76 36 -24 113 -14 138 17 25 31 19 115 -9 136 -25 19 -119 17 -138 -3z"></path></g></g><g id="l3R7nPXiALgMygOLJ88Ge2L" fill="rgb(1,1,1)" style="transform: none;"><g style="transform: none;"><path id="p1GpWBa9YE" d="M2070 4453 c-36 -15 -985 -547 -1077 -605 -175 -110 -260 -323 -208 -521 8 -32 15 -60 15 -62 0 -2 -33 -14 -72 -25 -239 -69 -285 -84 -299 -99 -10 -9 -30 -78 -49 -161 -17 -80 -34 -153 -36 -162 -4 -12 -16 -18 -37 -18 -41 -1 -103 -23 -129 -47 -33 -30 -46 -65 -73 -198 -27 -135 -25 -173 11 -224 21 -30 109 -71 152 -71 27 0 32 -3 28 -17 -3 -10 -26 -85 -52 -166 -47 -153 -50 -188 -16 -206 10 -5 128 -23 262 -40 288 -37 976 -129 1275 -171 116 -17 225 -30 243 -30 27 0 47 13 121 85 l88 85 307 0 306 0 0 -74 0 -74 -47 -10 c-27 -6 -129 -27 -228 -47 -111 -23 -187 -44 -198 -54 -16 -16 -17 -50 -17 -486 0 -434 1 -471 18 -486 9 -9 67 -28 127 -43 323 -75 671 -159 678 -163 4 -2 7 -11 7 -19 0 -31 54 -128 92 -166 22 -22 63 -51 91 -64 l52 -24 488 0 488 0 54 26 c68 32 135 105 165 181 13 32 24 59 24 60 2 3 574 105 880 158 156 26 265 50 273 58 8 8 60 95 117 193 l102 179 1077 3 1077 2 0 -43 c0 -77 4 -78 256 -75 l219 3 17 35 18 34 132 1 c73 1 140 5 149 9 32 14 39 54 39 225 0 230 8 221 -186 221 -115 0 -144 3 -144 14 0 7 -9 25 -21 40 l-20 26 -208 0 c-195 0 -209 -1 -229 -20 -15 -14 -22 -33 -22 -56 l0 -35 -949 3 c-522 2 -952 6 -956 10 -4 4 10 34 31 68 36 59 37 63 23 88 -13 24 -45 37 -267 107 l-252 81 -35 51 c-19 29 -35 55 -35 58 0 3 155 5 344 5 l343 0 94 65 c52 35 204 138 339 229 l245 164 190 11 c529 31 783 102 970 273 75 68 122 140 206 311 69 143 81 185 55 206 -8 6 -137 50 -287 97 -151 48 -276 88 -277 89 -2 2 4 30 13 62 41 138 11 304 -74 417 -76 100 -57 88 -836 520 l-391 216 -2279 -1 c-1254 0 -2287 -3 -2295 -6z m950 -130 c-49 -33 -136 -129 -158 -176 -31 -66 -52 -152 -52 -212 0 -99 47 -227 111 -300 l31 -35 -212 0 c-169 0 -210 3 -203 13 94 118 124 196 125 317 1 155 -59 277 -185 373 l-49 37 308 -1 c290 0 307 -1 284 -16z m1054 -5 c-97 -72 -153 -145 -184 -239 -18 -53 -21 -81 -18 -164 3 -87 8 -109 36 -168 17 -38 46 -87 63 -108 l31 -39 -34 -1 c-125 -3 -388 -3 -388 -1 0 2 16 23 34 46 168 204 126 501 -94 669 l-35 27 309 0 309 0 -29 -22z m1040 -6 c-54 -40 -118 -112 -143 -161 -84 -164 -60 -383 56 -511 l35 -40 -212 0 -212 0 31 39 c111 140 132 335 54 499 -25 54 -110 150 -163 185 -23 15 -6 16 284 16 l309 1 -39 -28z m1076 11 c-54 -36 -138 -131 -165 -188 -75 -159 -49 -364 62 -494 18 -22 33 -41 33 -43 0 -1 -97 -3 -215 -3 -118 0 -215 2 -215 4 0 2 14 19 31 39 45 51 86 143 99 223 29 172 -47 351 -195 457 l-30 21 310 0 c291 0 308 -1 285 -16z m-3839 -85 c113 -53 193 -175 193 -298 1 -100 -26 -164 -98 -236 -75 -74 -135 -98 -246 -99 -65 0 -84 4 -142 33 -105 51 -160 127 -181 247 -20 118 35 248 135 322 28 20 72 43 97 50 70 19 177 11 242 -19z m1051 4 c63 -27 134 -100 166 -170 22 -46 26 -72 27 -137 0 -68 -4 -89 -29 -139 -52 -105 -127 -163 -244 -187 -141 -29 -290 44 -355 173 -93 183 1 410 196 474 60 20 180 13 239 -14z m1052 3 c53 -23 133 -100 164 -160 24 -44 27 -61 27 -150 0 -85 -4 -107 -24 -148 -58 -117 -164 -180 -306 -181 -68 -1 -88 3 -137 27 -75 37 -149 118 -171 187 -22 67 -22 158 0 228 30 93 130 187 228 213 45 12 175 3 219 -16z m1061 -5 c99 -48 177 -156 191 -266 28 -227 -192 -419 -414 -361 -196 52 -301 254 -231 443 35 92 132 182 222 205 56 14 182 3 232 -21z m1057 3 c65 -30 129 -92 163 -160 26 -51 29 -69 30 -148 0 -109 -22 -164 -100 -240 -64 -64 -132 -90 -235 -90 -60 0 -86 5 -131 26 -76 36 -133 89 -166 157 -24 50 -28 69 -28 147 0 78 4 97 28 147 34 70 109 140 180 168 68 27 190 23 259 -7z m566 -195 l274 -151 -59 -22 c-81 -29 -121 -55 -182 -120 -55 -58 -97 -136 -107 -198 -4 -22 -11 -36 -18 -34 -86 33 -247 78 -268 75 -16 -3 -28 -2 -28 0 0 3 16 22 35 43 42 47 68 96 90 174 33 113 5 276 -63 371 -47 66 -47 69 4 40 27 -15 172 -95 322 -178z m-5338 92 c-41 -76 -56 -202 -37 -296 18 -85 45 -142 97 -205 l39 -46 -104 -32 c-57 -17 -105 -31 -108 -31 -3 0 -15 30 -27 66 -43 129 -159 245 -283 283 l-58 18 203 113 c112 62 221 124 243 136 45 26 52 25 35 -6z m-435 -384 c93 -42 160 -119 190 -220 l14 -44 -69 -21 c-37 -12 -72 -21 -77 -21 -5 0 -14 20 -21 44 -23 86 -88 136 -177 136 -53 0 -88 -16 -127 -57 -49 -51 -63 -138 -33 -197 9 -16 14 -30 13 -30 -2 -1 -36 -12 -77 -25 -85 -26 -84 -27 -102 59 -30 143 37 290 166 365 83 49 206 54 300 11z m6200 23 c149 -27 250 -130 274 -277 11 -69 0 -161 -24 -198 l-13 -21 -73 24 c-40 13 -74 25 -77 27 -2 2 3 15 11 28 53 82 11 216 -80 254 -18 8 -54 14 -81 14 -89 0 -172 -80 -172 -165 0 -31 -3 -36 -17 -30 -10 3 -46 16 -81 27 -62 21 -63 22 -57 52 27 131 141 244 266 265 29 5 57 9 60 10 3 0 32 -4 64 -10z m-6293 -286 c34 -31 17 -78 -36 -97 -28 -10 -66 19 -66 51 0 55 62 83 102 46z m6263 11 c24 -10 37 -51 24 -75 -28 -53 -109 -38 -109 21 0 47 38 72 85 54z m-465 -113 c157 -49 463 -145 680 -214 217 -69 442 -139 500 -157 58 -18 108 -35 112 -38 9 -9 -58 -150 -111 -234 -104 -165 -275 -263 -541 -313 -281 -51 -72 -49 -3909 -52 -3312 -3 -3555 -2 -3573 13 -10 10 -18 30 -18 48 0 47 36 206 49 219 6 6 43 14 81 18 87 8 104 22 120 102 23 113 59 269 62 272 2 2 82 26 178 54 96 29 301 90 455 136 154 46 393 118 530 159 l250 75 2425 0 2426 1 284 -89z m-250 -1155 c-19 -13 -129 -89 -245 -170 l-210 -145 -2098 -1 -2098 0 -90 -85 c-49 -47 -93 -85 -98 -85 -4 0 -82 11 -172 25 -200 29 -747 103 -1157 155 -167 21 -305 40 -308 43 -3 3 14 68 38 146 l43 141 3215 0 3215 0 -35 -24z m-1213 -513 c31 -43 67 -92 79 -108 19 -27 46 -38 240 -100 121 -38 221 -70 223 -71 1 -2 -33 -63 -76 -136 -44 -73 -146 -246 -227 -385 l-148 -252 -51 -10 c-29 -6 -270 -49 -536 -96 l-484 -85 -716 0 -717 0 -94 24 c-52 13 -218 52 -368 87 l-272 63 2 401 3 400 229 47 c172 34 233 51 243 64 9 12 13 53 13 126 l0 108 1300 0 1300 0 57 -77z m2923 -588 l0 -185 -136 0 c-120 0 -135 2 -130 16 3 9 6 92 6 185 l0 169 130 0 130 0 0 -185z m328 -2 l-3 -108 -102 -3 -103 -3 0 111 0 110 105 0 106 0 -3 -107z m-720 72 c8 -3 12 -26 12 -68 l0 -64 -412 -6 c-465 -8 -1668 -9 -1668 -3 0 6 70 127 82 143 7 8 252 10 991 6 540 -2 988 -6 995 -8z m-3648 -857 c0 -29 -53 -99 -90 -118 -38 -19 -59 -20 -506 -20 -411 0 -470 2 -501 16 -37 18 -75 62 -92 107 l-11 27 600 0 c449 0 600 -3 600 -12z"></path><path id="pPvVR1iW8" d="M2121 4093 c-77 -38 -114 -159 -72 -240 28 -56 72 -86 136 -91 69 -6 117 11 154 53 75 86 58 207 -38 272 -42 28 -129 31 -180 6z m137 -136 c19 -40 -5 -77 -51 -77 -39 0 -57 15 -57 49 0 62 82 83 108 28z"></path><path id="p1251J5ynB" d="M3174 4091 c-96 -59 -119 -187 -48 -271 36 -42 75 -60 131 -60 122 1 201 96 179 215 -8 40 -55 99 -97 121 -40 20 -127 18 -165 -5z m128 -118 c33 -30 17 -83 -31 -96 -32 -8 -75 34 -65 66 3 12 11 28 16 35 15 17 58 15 80 -5z"></path><path id="pvC9Gydin" d="M4218 4084 c-77 -55 -100 -161 -53 -241 61 -104 214 -113 292 -18 53 64 52 159 -3 225 -38 44 -75 60 -141 60 -47 0 -65 -5 -95 -26z m150 -127 c12 -24 11 -31 -2 -53 -29 -43 -106 -26 -106 23 0 64 81 86 108 30z"></path><path id="pdO9yTh4L" d="M5280 4088 c-95 -64 -114 -184 -44 -268 36 -43 75 -60 132 -60 174 0 246 212 110 320 -47 37 -149 41 -198 8z m134 -114 c36 -36 9 -94 -44 -94 -51 0 -71 54 -37 98 13 17 62 15 81 -4z"></path><path id="p14la0ZK3M" d="M6415 4115 c-5 -2 -22 -6 -38 -9 -15 -4 -45 -22 -66 -41 -120 -109 -44 -305 119 -305 162 1 239 180 131 304 -28 32 -113 62 -146 51z m63 -137 c16 -16 15 -73 0 -85 -30 -23 -60 -22 -85 3 -24 25 -25 51 -1 82 13 15 70 16 86 0z"></path></g></g></svg>
     
