<?xml version="1.0" encoding="UTF-8"?>
<svg version="1.1" xmlns="http://www.w3.org/2000/svg" width="909" height="461">
<path d="M0 0 C1.984375 2.8046875 1.984375 2.8046875 3.75 5.875 C4.63945313 7.38707031 4.63945313 7.38707031 5.546875 8.9296875 C7.00990963 12.02093808 7.61634569 14.61778436 8 18 C8.59049133 18.03715622 9.18098267 18.07431244 9.78936768 18.1125946 C18.8161458 18.79871363 27.65055534 20.41394479 36.546875 22.01953125 C38.24717872 22.32282205 39.94755879 22.62568503 41.64801025 22.92814636 C46.11143059 23.72316418 50.57385707 24.52362511 55.03607178 25.32537842 C60.37979634 26.28452079 65.72460123 27.23762321 71.0694046 28.19073296 C75.36639821 28.95723205 79.66291348 29.72620309 83.95837402 30.50125122 C91.11978856 31.79113861 98.27906826 33.06391446 105.46679688 34.20068359 C106.54270081 34.37395676 107.61860474 34.54722992 108.72711182 34.72575378 C110.62684214 35.02798892 112.5285717 35.3180778 114.43255615 35.59223938 C119.32991336 36.37730566 122.44408916 37.29214471 126 41 C127.66577148 43.40673828 127.66577148 43.40673828 129.12109375 46.0703125 C129.66443359 47.05 130.20777344 48.0296875 130.76757812 49.0390625 C131.31865234 50.05742188 131.86972656 51.07578125 132.4375 52.125 C133.53906587 54.12831884 134.64192168 56.13092894 135.74609375 58.1328125 C136.54829346 59.59702637 136.54829346 59.59702637 137.36669922 61.09082031 C139.45031994 64.80209452 141.66575189 68.42387489 143.91821289 72.03466797 C145 74 145 74 145 76 C215.95 76 286.9 76 360 76 C360.33 73.36 360.66 70.72 361 68 C362.87613927 65.35634921 363.85723843 65.04758719 367 64 C369.81812956 63.87889273 372.61074696 63.81184955 375.4296875 63.796875 C376.257034 63.79117493 377.08438049 63.78547485 377.9367981 63.77960205 C379.68685632 63.77015977 381.43693227 63.76362113 383.18701172 63.75976562 C385.85806431 63.75006153 388.52834675 63.71903215 391.19921875 63.6875 C392.90103711 63.68096942 394.60286096 63.67571916 396.3046875 63.671875 C397.10067352 63.6595282 397.89665955 63.6471814 398.71676636 63.63446045 C403.2279091 63.65249413 406.46970274 63.8667011 410 67 C410.8125 69.6875 410.8125 69.6875 411 72 C411.82201904 71.97381592 412.64403809 71.94763184 413.4909668 71.9206543 C417.22294938 71.8165856 420.9546266 71.75163872 424.6875 71.6875 C425.98107422 71.64560547 427.27464844 71.60371094 428.60742188 71.56054688 C430.47817383 71.53637695 430.47817383 71.53637695 432.38671875 71.51171875 C433.53358154 71.48553467 434.68044434 71.45935059 435.86206055 71.43237305 C440.1240419 72.20332976 441.5044254 73.48189323 444 77 C444.48706378 80.01037448 444.68051408 82.44037094 444.62890625 85.44140625 C444.63131821 86.24609848 444.63373016 87.05079071 444.63621521 87.87986755 C444.63523872 89.57515407 444.62189208 91.27047325 444.59692383 92.96557617 C444.56255659 95.55823059 444.57628638 98.14748507 444.59570312 100.74023438 C444.58880571 102.39063948 444.57913426 104.04103581 444.56640625 105.69140625 C444.57136612 106.46440567 444.57632599 107.23740509 444.58143616 108.03382874 C444.50761527 111.41027168 444.23679203 113.63408775 442.38549805 116.49487305 C439.18783397 118.51243512 437.03260433 118.45671236 433.265625 118.390625 C431.32236328 118.37128906 431.32236328 118.37128906 429.33984375 118.3515625 C427.97655176 118.31814366 426.61327051 118.28428391 425.25 118.25 C423.87111936 118.22992707 422.49221088 118.21167767 421.11328125 118.1953125 C417.74148256 118.14815448 414.37109313 118.08234538 411 118 C410.896875 118.763125 410.79375 119.52625 410.6875 120.3125 C409.92919476 123.27678411 409.35676622 124.13515357 407 126 C405.07167053 126.38768005 405.07167053 126.38768005 402.86743164 126.40405273 C401.62583031 126.42307899 401.62583031 126.42307899 400.35914612 126.44248962 C399.46847946 126.43955399 398.57781281 126.43661835 397.66015625 126.43359375 C396.7416539 126.4388356 395.82315155 126.44407745 394.8768158 126.44947815 C392.9342449 126.45590159 390.99163513 126.45455719 389.04907227 126.44604492 C386.07693141 126.43754129 383.1067162 126.46628106 380.13476562 126.49804688 C378.24739641 126.49965913 376.36002379 126.49908089 374.47265625 126.49609375 C373.58401382 126.50732773 372.6953714 126.51856171 371.77980042 126.53013611 C367.99789446 126.48743728 365.67353807 126.41407017 362.40795898 124.40649414 C360.5277104 121.19275905 360.90372332 118.66474075 361 115 C360.0520264 115.0077306 360.0520264 115.0077306 359.08490181 115.01561737 C343.38394389 115.14349131 327.68296675 115.2686588 311.98196602 115.39115143 C304.38770654 115.45045776 296.79345509 115.51054968 289.19921875 115.57275391 C249.46504012 115.89769088 209.73571631 116.07727829 170 116 C170.51691406 116.72445312 171.03382813 117.44890625 171.56640625 118.1953125 C172.22511719 119.16210938 172.88382813 120.12890625 173.5625 121.125 C174.22378906 122.07632813 174.88507812 123.02765625 175.56640625 124.0078125 C177.30014204 127.6264545 177.2902058 129.22862919 176 133 C173.46958627 135.52679306 170.88817974 136.55306905 167.49438477 137.54638672 C166.60989151 137.81031219 165.72539825 138.07423767 164.81410217 138.34616089 C163.86611252 138.62122467 162.91812286 138.89628845 161.94140625 139.1796875 C159.92630481 139.78473184 157.91133484 140.39021416 155.89648438 140.99609375 C152.72726182 141.93892579 149.55671655 142.87669404 146.38354492 143.80615234 C143.31516097 144.70843596 140.25319217 145.63030192 137.19140625 146.5546875 C136.24544083 146.82570282 135.2994754 147.09671814 134.32484436 147.37594604 C128.97774559 149.00378684 125.64031237 150.53848132 122 155 C121.236875 155.928125 120.47375 156.85625 119.6875 157.8125 C119.130625 158.534375 118.57375 159.25625 118 160 C126.07112374 160.93235144 133.94486719 161.01630989 142.05859375 160.82421875 C145.87619562 160.78548584 149.69376359 160.75918789 153.51147461 160.73364258 C156.11309311 160.70306575 158.71455009 160.6493083 161.31518555 160.5715332 C179.6255377 160.05442292 190.61933521 162.10041339 204.6335144 174.05941772 C208.61598959 177.32515522 212.92504089 180.0742672 217.23828125 182.87890625 C218.9195072 183.99410604 220.59985146 185.11063621 222.27929688 186.22851562 C223.95691779 187.34001502 225.63465298 188.45134196 227.3125 189.5625 C229.88859113 191.2706052 232.46417977 192.97945702 235.03886414 194.68968201 C236.61627982 195.73728648 238.19451462 196.78365916 239.77375793 197.82850647 C240.48948471 198.30348068 241.20521149 198.7784549 241.94262695 199.26782227 C242.63009506 199.72167297 243.31756317 200.17552368 244.02586365 200.64312744 C245.32233651 201.53422518 246.59272296 202.46476412 247.83070374 203.43548584 C251.97092268 206.67151241 254.804465 207.65009124 260.20703125 207.8203125 C261.21828568 207.86378059 261.21828568 207.86378059 262.24996948 207.90812683 C263.69030919 207.96833584 265.13109664 208.01854799 266.57211304 208.05947876 C270.39671342 208.17133112 274.21736678 208.36691312 278.0390625 208.55078125 C278.80492172 208.58570175 279.57078094 208.62062225 280.35984802 208.65660095 C313.18783718 210.20142945 348.70387323 214.83152364 373 239 C373.60199219 239.5671875 374.20398438 240.134375 374.82421875 240.71875 C383.56593413 249.68461193 389.03556722 262.45316281 394.125 273.75 C394.56779297 274.71389648 394.56779297 274.71389648 395.01953125 275.69726562 C396.70239149 279.58426233 397.66369929 282.77645908 397 287 C394.3264162 289.40985663 391.74656435 290.61570954 388.3425293 291.70166016 C387.42444992 291.99851715 386.50637054 292.29537415 385.56047058 292.60122681 C384.08227592 293.06545547 384.08227592 293.06545547 382.57421875 293.5390625 C381.55326614 293.86538666 380.53231354 294.19171082 379.48042297 294.52792358 C377.32221185 295.21574375 375.16276763 295.89970505 373.00219727 296.58007812 C369.70714424 297.61880737 366.41687219 298.67170034 363.12695312 299.7265625 C361.02631216 300.39408098 358.92540893 301.06077483 356.82421875 301.7265625 C355.84482834 302.04009674 354.86543793 302.35363098 353.85636902 302.67666626 C348.89292062 304.23147752 344.17669071 305.45838342 339 306 C339.20496094 306.56847656 339.40992188 307.13695312 339.62109375 307.72265625 C344.38793162 321.38455044 343.91299739 334.25471385 338.25 347.55859375 C332.31411123 359.15212649 321.96394887 366.94414982 310.75 373 C309.76547852 373.54414551 308.78095703 374.08829102 307.76660156 374.64892578 C305.63623626 375.82469936 303.50299483 376.99527395 301.3671875 378.16113281 C297.90513543 380.05180684 294.45136486 381.95711027 291 383.8671875 C286.12670491 386.56277768 281.25014901 389.252351 276.37109375 391.9375 C266.94826112 397.12486682 257.54817713 402.35295826 248.1484375 407.58203125 C244.32332279 409.70992139 240.49573735 411.83316507 236.6640625 413.94921875 C229.64748425 417.82720916 222.65596391 421.70272441 215.84765625 425.94140625 C211.82633903 428.24537447 208.03954238 428.15357651 203.55072689 428.1621542 C202.39730613 428.17017649 202.39730613 428.17017649 201.22058395 428.17836085 C198.62264122 428.1951524 196.02472092 428.20480599 193.42674255 428.21446228 C191.55352263 428.22491607 189.6803049 428.23576763 187.80708939 428.24698454 C182.64215907 428.27650038 177.47721708 428.29951273 172.31224906 428.32129228 C167.88568763 428.3407085 163.45914775 428.36375008 159.03260338 428.38668614 C117.68761669 428.59970647 76.34209536 428.71341184 34.99667615 428.80305595 C28.83884762 428.8164542 22.68102028 428.83037119 16.52319336 428.84448242 C15.8428038 428.84603016 15.16241424 428.8475779 14.46140682 428.84917254 C-7.55092327 428.89958345 -29.56270409 428.99803329 -51.57472906 429.12269417 C-74.86935055 429.25437701 -98.16358341 429.33375975 -121.45861667 429.35790926 C-134.14720557 429.37252102 -146.83475138 429.41096098 -159.52298164 429.51078606 C-170.34002089 429.59588164 -181.15589877 429.63281935 -191.97326816 429.60853248 C-197.48419274 429.59765021 -202.99259604 429.60864849 -208.50309372 429.6823349 C-232.07731896 429.98147805 -250.55756479 429.79493127 -270.35473716 415.81042302 C-274.89574627 412.70254758 -279.74200275 410.14310234 -284.5625 407.5 C-286.45235151 406.4290052 -288.34059722 405.35516728 -290.2265625 404.27734375 C-295.23074035 401.42966716 -300.25571799 398.62073203 -305.28564453 395.81884766 C-315.83306526 389.94137711 -326.31523716 383.96504591 -336.72070312 377.83935547 C-340.88405826 375.3893811 -345.04244022 372.94920501 -349.296875 370.66015625 C-361.94120701 363.8490281 -371.00823027 355.11468443 -375.62231445 341.11132812 C-376.96081048 336.26396269 -377.34924278 331.63981598 -377.3125 326.625 C-377.31121094 325.88838135 -377.30992187 325.1517627 -377.30859375 324.39282227 C-377.20646485 318.57594329 -376.23102667 313.40492771 -374 308 C-375.00675781 307.78085937 -376.01351562 307.56171875 -377.05078125 307.3359375 C-385.25420181 305.50451745 -393.34261161 303.41889967 -401.375 300.9375 C-402.18880127 300.69241699 -403.00260254 300.44733398 -403.84106445 300.19482422 C-404.98321411 299.83348389 -404.98321411 299.83348389 -406.1484375 299.46484375 C-407.15656494 299.14954712 -407.15656494 299.14954712 -408.18505859 298.82788086 C-410.43621756 297.80102048 -411.5073401 296.99499737 -413 295 C-413.96728516 291.93725586 -413.96728516 291.93725586 -414.7890625 288.21484375 C-414.9378183 287.55795059 -415.0865741 286.90105743 -415.23983765 286.22425842 C-415.71193961 284.13083562 -416.1689982 282.03448294 -416.625 279.9375 C-417.09103537 277.83769837 -417.56014395 275.73862406 -418.03158569 273.64002991 C-418.45715256 271.73904684 -418.87452554 269.836235 -419.29150391 267.93334961 C-419.86257144 265.08759091 -419.86257144 265.08759091 -421 263 C-423.18337007 262.42025562 -423.18337007 262.42025562 -425.75 262.0625 C-429.7683145 261.32409178 -432.69983098 260.52365866 -436 258 C-436.70125 257.484375 -437.4025 256.96875 -438.125 256.4375 C-442.55165023 250.6828547 -443.32298977 242.80228242 -444.6875 235.8125 C-444.81906494 235.14766602 -444.95062988 234.48283203 -445.08618164 233.79785156 C-447.26743815 221.98650158 -447.26743815 221.98650158 -443.875 216.8125 C-440.12296074 211.40914541 -436.21709977 209.10263484 -429.79296875 207.8984375 C-428.89473389 207.72747559 -427.99649902 207.55651367 -427.07104492 207.38037109 C-426.3876001 207.25484863 -425.70415527 207.12932617 -425 207 C-425.27263672 206.15816162 -425.54527344 205.31632324 -425.82617188 204.44897461 C-426.84066062 201.29994086 -427.84591602 198.14825645 -428.84521484 194.99438477 C-429.27811733 193.63450281 -429.71458288 192.27574943 -430.15478516 190.91821289 C-430.78987115 188.9575109 -431.41168594 186.99299787 -432.03125 185.02734375 C-432.40830078 183.84906006 -432.78535156 182.67077637 -433.17382812 181.45678711 C-434.05282087 177.77899212 -434.35996091 174.76515714 -434 171 C-432.28403023 168.49642605 -431.13514573 168.03232098 -428.15855408 167.32044983 C-426.3957888 167.10200661 -426.3957888 167.10200661 -424.59741211 166.87915039 C-423.93555719 166.79320303 -423.27370228 166.70725567 -422.59179115 166.61870384 C-420.34246242 166.32919459 -418.09129579 166.05762162 -415.83984375 165.78515625 C-414.20415987 165.5772687 -412.56866154 165.36791691 -410.93333435 165.15724182 C-407.29346258 164.68920549 -403.65289534 164.22710743 -400.01190186 163.7678833 C-390.16958056 162.51896463 -380.33946224 161.17726557 -370.50728226 159.85136032 C-364.47214181 159.03852325 -358.4362389 158.23138928 -352.40039062 157.42382812 C-349.93530046 157.09384836 -347.47021258 156.76385155 -345.00512695 156.43383789 C-343.77884583 156.26968384 -342.5525647 156.10552979 -341.28912354 155.93640137 C-337.55349456 155.4362944 -333.81788179 154.93606659 -330.08227539 154.43579102 C-328.85159647 154.27099936 -327.62091755 154.1062077 -326.35294533 153.93642235 C-323.88940876 153.60645451 -321.42589613 153.27630792 -318.96240807 152.94597816 C-313.01139919 152.14828306 -307.06000717 151.35374713 -301.10757446 150.56674194 C-291.41412368 149.28249622 -281.7278392 147.98359038 -272.06201172 146.50439453 C-270.6348421 146.29161228 -269.20759475 146.07935052 -267.78025818 145.86769104 C-265.30487081 145.49584187 -262.83211531 145.10570274 -260.36341858 144.6917572 C-252.85485636 143.58062987 -252.85485636 143.58062987 -248.4387207 145.74707031 C-247.63394287 146.49053711 -246.82916504 147.23400391 -246 148 C-245.4524707 148.47783936 -244.90494141 148.95567871 -244.34082031 149.44799805 C-243.92413086 149.88152588 -243.50744141 150.31505371 -243.078125 150.76171875 C-242.37623047 151.48004883 -242.37623047 151.48004883 -241.66015625 152.21289062 C-240.96212891 152.94282227 -240.96212891 152.94282227 -240.25 153.6875 C-235.34541738 158.89433053 -235.34541738 158.89433053 -228.57299805 160.20532227 C-227.65411301 160.22526749 -226.73522797 160.24521271 -225.78849792 160.26576233 C-224.29024223 160.29083107 -224.29024223 160.29083107 -222.76171875 160.31640625 C-221.21409599 160.3475779 -221.21409599 160.3475779 -219.63520813 160.37937927 C-217.44198821 160.42270573 -215.24872201 160.46373981 -213.05541992 160.50268555 C-209.73931323 160.56157979 -206.42338242 160.62678774 -203.10742188 160.69335938 C-192.73670592 160.89586535 -182.37291436 161.0572186 -172 161 C-171.67 156.38 -171.34 151.76 -171 147 C-172.95425903 146.80422363 -172.95425903 146.80422363 -174.94799805 146.60449219 C-182.14633927 145.80154318 -189.18609831 144.27449245 -196.26733398 142.78125 C-197.971279 142.42558723 -199.67706659 142.07864594 -201.38452148 141.74023438 C-203.8714273 141.24708969 -206.35168528 140.72815015 -208.83203125 140.203125 C-209.97270805 139.98405487 -209.97270805 139.98405487 -211.13642883 139.76055908 C-214.45096366 139.03113292 -216.68614018 138.28896755 -219.20137024 135.97322083 C-221.64918744 131.92686219 -221.54895769 128.78480438 -221.48583984 124.14233398 C-221.48963654 123.2604541 -221.49343323 122.37857422 -221.49734497 121.4699707 C-221.50474058 118.56164728 -221.48338349 115.65432803 -221.4609375 112.74609375 C-221.45855257 110.72258115 -221.45764786 108.69906631 -221.4581604 106.67555237 C-221.45503418 102.43793851 -221.43848124 98.20066342 -221.41162109 93.96313477 C-221.37761996 88.53007879 -221.36999326 83.09739457 -221.37151146 77.66424465 C-221.37096778 73.4872533 -221.36000121 69.31034329 -221.34550858 65.13337898 C-221.33914283 63.12989988 -221.3352022 61.12641156 -221.33372116 59.1229229 C-221.32938706 56.32454583 -221.3118842 53.52656373 -221.29052734 50.72827148 C-221.29143372 49.89959061 -221.29234009 49.07090973 -221.29327393 48.21711731 C-221.20844025 40.61924527 -221.20844025 40.61924527 -219 38 C-210.70355276 34.17262823 -201.06845732 32.80834906 -192.15444756 30.95016289 C-188.39100349 30.15841883 -184.63663788 29.32525296 -180.88085938 28.49804688 C-176.13924146 27.45418992 -171.39614876 26.42367523 -166.64038086 25.44604492 C-162.75753062 24.64669905 -158.88747247 23.80082609 -155.02168465 22.92280769 C-153.55780449 22.59921024 -152.09005699 22.29259373 -150.61889458 22.00390434 C-146.16932628 21.12548658 -142.02921944 20.16814889 -138 18 C-136.1717305 15.23049425 -135.36668778 12.95249673 -134.66566467 9.72035217 C-132.80100174 2.10008919 -126.36757872 -2.90851689 -120.015625 -6.90625 C-115.70009285 -9.24801163 -111.65736241 -9.17644438 -106.87939453 -9.22119141 C-106.05127762 -9.2326973 -105.22316071 -9.24420319 -104.36994934 -9.25605774 C-101.62427491 -9.2928148 -98.8785778 -9.32244085 -96.1328125 -9.3515625 C-94.21767878 -9.37469345 -92.30254818 -9.39808391 -90.38742065 -9.42172241 C-86.36410424 -9.47022396 -82.34076707 -9.51512822 -78.31738281 -9.55761719 C-73.19229779 -9.61208454 -68.06738321 -9.6760052 -62.94244576 -9.74279213 C-58.98048193 -9.79323581 -55.01846956 -9.83820516 -51.05642319 -9.88163376 C-49.16920804 -9.90302406 -47.28201157 -9.92614112 -45.39484024 -9.9510994 C-11.58792394 -10.38853691 -11.58792394 -10.38853691 0 0 Z M-286 335 C-286.29132813 335.83402344 -286.58265625 336.66804688 -286.8828125 337.52734375 C-291.33163177 349.74061174 -297.00813515 360.19946511 -308.8828125 366.5390625 C-311.56549221 367.76236445 -314.26892301 368.89036557 -317 370 C-318.34002127 370.65311961 -319.67605362 371.31488089 -321 372 C-310.00105236 379.11064779 -298.48670761 385.23468338 -286.94824219 391.41503906 C-282.28667133 393.92107732 -277.64270488 396.4592219 -273 399 C-273.31481323 398.08782715 -273.31481323 398.08782715 -273.63598633 397.15722656 C-278.59362204 382.68558164 -280.31501442 369.40895337 -273.640625 355.08203125 C-270.89521815 349.83887023 -267.85031472 345.47028065 -264 341 C-267.1019264 339.9929564 -270.20688098 338.99559195 -273.3125 338 C-274.19357422 337.71382813 -275.07464844 337.42765625 -275.98242188 337.1328125 C-276.82998047 336.86210937 -277.67753906 336.59140625 -278.55078125 336.3125 C-279.33106689 336.06113281 -280.11135254 335.80976563 -280.9152832 335.55078125 C-283.12403849 334.87228247 -283.12403849 334.87228247 -286 335 Z M245.5546875 335.49609375 C244.64203125 335.80740234 243.729375 336.11871094 242.7890625 336.43945312 C240.86852491 337.09722438 238.94921716 337.75859913 237.03125 338.42382812 C231.99821877 340.13322599 227.29506756 341.47929391 222 342 C222.45890625 342.68964844 222.9178125 343.37929688 223.390625 344.08984375 C232.49888524 358.03925911 236.61255602 370.89462389 233.28125 387.60546875 C231.40895249 393.56209268 228.83043921 398.1055499 225 403 C225 403.66 225 404.32 225 405 C229.34785872 403.6761925 233.1233251 401.98027374 237.0859375 399.76171875 C237.94206635 399.28569214 237.94206635 399.28569214 238.81549072 398.80004883 C240.67126909 397.76713272 242.52313129 396.72740651 244.375 395.6875 C246.97275507 394.23742033 249.57229749 392.79055939 252.171875 391.34375 C253.15258469 390.7969886 253.15258469 390.7969886 254.15310669 390.23918152 C258.46279829 387.84059583 262.79271219 385.48488005 267.140625 383.15625 C268.23713379 382.56884033 269.33364258 381.98143066 270.46337891 381.3762207 C272.53119993 380.27173282 274.6011101 379.17114511 276.67333984 378.07495117 C277.59840332 377.57970947 278.5234668 377.08446777 279.4765625 376.57421875 C280.28174316 376.14713623 281.08692383 375.72005371 281.91650391 375.2800293 C283.93687485 374.03878195 285.41084344 372.7481997 287 371 C286.10539063 370.731875 285.21078125 370.46375 284.2890625 370.1875 C272.20600878 366.271457 263.08415156 360.59432656 257 349 C255.51862312 345.71350162 254.23326438 342.38587129 253 339 C252.3381577 337.33141168 251.67276716 335.6642135 251 334 C249.11500228 334 247.3163123 334.8871687 245.5546875 335.49609375 Z M-201 342 C-199.02 344.64 -197.04 347.28 -195 350 C-187.79701362 362.69264105 -186.12618762 375.99492438 -189.953125 390.0390625 C-191.64117912 394.81348424 -194.09906746 398.87061133 -197 403 C-197.4021875 403.57492187 -197.804375 404.14984375 -198.21875 404.7421875 C-201.09331898 408.49078083 -204.60203727 411.10790425 -208.42578125 413.80078125 C-208.94527344 414.19652344 -209.46476563 414.59226562 -210 415 C-210 415.33 -210 415.66 -210 416 C-191.19 416 -172.38 416 -153 416 C-152.646895 412.99078005 -152.646895 412.99078005 -154.5390625 411.45703125 C-155.22742188 410.91433594 -155.91578125 410.37164062 -156.625 409.8125 C-165.04030461 402.70558197 -170.27600288 393.97828356 -172 383 C-173.00542013 369.02301203 -170.71554331 357.31858558 -162 346 C-161.01 344.68 -160.02 343.36 -159 342 C-172.86 342 -186.72 342 -201 342 Z M-96 342 C-94.02 344.64 -92.04 347.28 -90 350 C-83.16164513 362.34887385 -80.71461602 374.87080995 -84.625 388.6875 C-88.28215121 399.26393033 -93.43133618 405.9328925 -102 413 C-102.99 413.99 -103.98 414.98 -105 416 C-85.2 416 -65.4 416 -45 416 C-49.47359742 411.27916849 -49.47359742 411.27916849 -52.875 408.875 C-60.63438466 402.49907152 -65.08646141 392.45618452 -66.46484375 382.71484375 C-68.05680396 366.27651307 -63.51755694 355.32457971 -54 342 C-67.86 342 -81.72 342 -96 342 Z M10 342 C11.98 344.97 13.96 347.94 16 351 C22.32824271 362.6017783 23.84548377 374.54189569 21.3125 387.5234375 C18.21104403 397.57732394 12.57228584 404.8944989 5 412 C3.68 413.32 2.36 414.64 1 416 C20.47 416 39.94 416 60 416 C55.51358459 411.27225263 55.51358459 411.27225263 52.0625 408.8125 C47.8563296 405.34159846 45.4620815 400.79275977 43 396 C42.58234375 395.19949219 42.1646875 394.39898437 41.734375 393.57421875 C37.33744655 383.61920116 37.13831496 370.31702505 40.5625 360 C43.04913597 354.28431517 46.53404159 349.15800111 50 344 C50.33 343.34 50.66 342.68 51 342 C37.47 342 23.94 342 10 342 Z M115 342 C116.98 344.64 118.96 347.28 121 350 C128.17374415 362.79782027 129.97582957 375.82831965 126.0390625 390.01171875 C122.15331378 401.18689833 115.86633534 408.74329954 106 415 C106 415.33 106 415.66 106 416 C126.13 416 146.26 416 167 416 C165.35 414.68 163.7 413.36 162 412 C153.32604164 404.51776809 146.23487796 394.73134064 145 383 C144.01798753 368.76081918 146.20380928 357.63442826 155 346 C155.99 344.68 156.98 343.36 158 342 C143.81 342 129.62 342 115 342 Z " fill="#070706" transform="translate(454,18)"/>
<path d="M0 0 C1.00131833 -0.00776678 2.00263666 -0.01553356 3.03429797 -0.0235357 C4.69229479 -0.01342922 4.69229479 -0.01342922 6.3837865 -0.00311857 C7.55881413 -0.00777849 8.73384175 -0.01243841 9.94447628 -0.01723954 C13.2263381 -0.02717876 16.50787285 -0.02356867 19.78972703 -0.01440586 C23.35302576 -0.00772582 26.91627852 -0.01834739 30.47956765 -0.02680171 C36.73241699 -0.03920888 42.98519134 -0.04036364 49.23804885 -0.03425127 C58.53801138 -0.02518464 67.8379042 -0.03317338 77.13786137 -0.04454251 C93.75521359 -0.06425334 110.37253468 -0.06654743 126.9898958 -0.06134731 C141.55502689 -0.05679185 156.12014564 -0.05738697 170.68527633 -0.06318766 C172.63838021 -0.06394454 174.59148409 -0.06470052 176.54458797 -0.0654556 C179.4879443 -0.06660083 182.43130062 -0.0677507 185.37465694 -0.06891485 C212.76632463 -0.07962984 240.15798821 -0.08433624 267.54965717 -0.07644469 C268.58333542 -0.07614751 269.61701367 -0.07585034 270.68201551 -0.07554416 C279.07606042 -0.07309525 287.47010528 -0.07048364 295.86415015 -0.06786003 C328.51822094 -0.05778463 361.17224019 -0.0660573 393.82630378 -0.08935457 C430.53253243 -0.11550061 467.23873004 -0.12825323 503.94496834 -0.12116683 C507.87022481 -0.12045083 511.79548128 -0.11977644 515.72073776 -0.11912638 C517.17041585 -0.11887167 517.17041585 -0.11887167 518.64938038 -0.11861181 C533.17251551 -0.11631886 547.69562166 -0.12423887 562.2187503 -0.13741785 C578.77989203 -0.15241966 595.34096643 -0.1530542 611.90210684 -0.13534694 C620.33830973 -0.12669549 628.77439501 -0.12413932 637.21059066 -0.1399985 C757.38703669 -0.35373714 757.38703669 -0.35373714 785.1785987 23.37719816 C785.86824714 23.95727628 786.55789558 24.53735441 787.26844245 25.13501066 C797.14198504 34.19365434 803.11523189 47.1460027 808.1785987 59.37719816 C808.1785987 60.03719816 808.1785987 60.69719816 808.1785987 61.37719816 C807.28785651 61.6337216 806.39711433 61.89024503 805.47937995 62.15454191 C786.32718868 67.71017755 767.26940929 73.60257454 748.37806159 79.98950285 C741.70745342 82.23298388 734.98635083 84.24631493 728.2254737 86.19751066 C722.17324772 87.9479379 716.17046733 89.85665543 710.16248542 91.75219816 C706.83644867 92.80002662 703.50733438 93.83798312 700.1785987 94.87719816 C699.51924323 95.08344816 698.85988776 95.28969816 698.18055183 95.50219816 C694.83621561 96.54832484 691.49086732 97.59099409 688.14344245 98.62719816 C673.55511545 103.09033242 673.55511545 103.09033242 659.16559798 108.13843147 C653.78566622 110.10283057 649.14702003 110.80743361 643.44379646 110.75472158 C642.19130945 110.76126207 642.19130945 110.76126207 640.91351968 110.76793468 C638.12703711 110.77884727 635.34105388 110.76848764 632.55457526 110.75814909 C630.53206725 110.76160722 628.50956113 110.76637284 626.48705894 110.77233082 C620.93794603 110.78484896 615.38898801 110.77866664 609.83987457 110.76937217 C603.85206395 110.7625854 597.86428 110.77306107 591.87647468 110.78131193 C580.82735668 110.79388436 569.77828127 110.79279011 558.72916299 110.78457752 C548.52142566 110.77702767 538.31370641 110.77506224 528.10596687 110.77864546 C527.42858172 110.77887461 526.75119658 110.77910377 526.05328462 110.77933987 C523.30348342 110.7802739 520.55368224 110.7812291 517.80388106 110.78221916 C492.01427822 110.79139395 466.22470678 110.78307927 440.43510878 110.76692847 C417.52797401 110.75269189 394.62088928 110.75396579 371.71375495 110.76831144 C345.97099888 110.78437907 320.22827056 110.79074325 294.48551017 110.78147465 C291.7407503 110.78051251 288.99599042 110.77957399 286.25123054 110.77864546 C285.57541211 110.77840822 284.89959369 110.77817099 284.20329592 110.77792657 C274.00255101 110.77451569 263.80182618 110.77850211 253.60108405 110.78608412 C242.00113662 110.79466319 230.4012368 110.79222595 218.80129462 110.77624188 C212.88225417 110.76835473 206.96331529 110.76527525 201.04427558 110.77518934 C195.62605431 110.78412736 190.20802878 110.77921789 184.78982526 110.76325668 C182.82965299 110.75990513 180.86946418 110.76161134 178.90930253 110.76888405 C176.24376734 110.77801534 173.57890137 110.76864082 170.91340095 110.75472158 C170.15348743 110.76174508 169.39357392 110.76876858 168.61063272 110.77600491 C163.01193154 110.71762687 158.39385813 109.33558015 153.1785987 107.37719816 C150.97258305 106.67456703 148.76437493 105.97876634 146.5535987 105.29126066 C144.76466193 104.73486906 144.76466193 104.73486906 142.93958503 104.16723722 C141.0778968 103.59054289 141.0778968 103.59054289 139.1785987 103.00219816 C138.21450584 102.7033975 138.21450584 102.7033975 137.23093635 102.39856046 C125.05546074 98.62710912 112.86891758 94.92944296 100.57508308 91.56225675 C92.86897198 89.45019922 85.23642901 87.17793262 77.62513191 84.74633878 C71.42698884 82.76654175 65.21526202 80.83614354 58.9910987 78.93969816 C58.04581306 78.65159269 57.10052741 78.36348722 56.12659675 78.06665128 C47.65142115 75.49681907 39.14812473 73.02515159 30.63099128 70.59814543 C29.18889289 70.18326872 29.18889289 70.18326872 27.7176612 69.76001066 C26.43689704 69.39480314 26.43689704 69.39480314 25.13025886 69.02221769 C23.1785987 68.37719816 23.1785987 68.37719816 22.1785987 67.37719816 C21.70127248 65.23987118 21.2736728 63.09141615 20.8660987 60.93969816 C20.59894701 59.58141288 20.33066595 58.22334936 20.0614112 56.86547941 C19.60700564 54.56216633 19.155776 52.25841962 18.71277839 49.95288175 C18.238109 47.50751269 17.74152201 45.06741179 17.2410987 42.62719816 C17.09567634 41.85319669 16.95025398 41.07919523 16.80042487 40.28173918 C16.14722831 37.16705201 15.56424152 34.82331679 13.4598487 32.38891691 C9.50241619 30.6338227 5.44213902 30.95376241 1.17469245 30.88110441 C-1.8214013 30.37719816 -1.8214013 30.37719816 -3.6182763 28.76001066 C-7.38841878 21.29317004 -8.63540994 11.6529527 -7.8214013 3.37719816 C-5.57981303 0.23206607 -3.75025605 0.00185067 0 0 Z " fill="#70A45A" transform="translate(28.821401298046112,237.62280184030533)"/>
<path d="M0 0 C4.07713146 0.02308681 8.1542279 0.01437995 12.23140621 0.01050615 C19.06598759 0.00875511 25.9001666 0.03059186 32.73464108 0.06772661 C40.57836699 0.11010747 48.42150655 0.11705825 56.26532388 0.10460269 C63.89212328 0.09312312 71.51872127 0.10460985 79.1454916 0.12694979 C82.35549645 0.13611385 85.56537552 0.1380464 88.77538967 0.1337781 C104.81699326 0.12097721 120.22527446 0.33567284 135.88037777 4.29602671 C138.85640247 4.93897717 141.84276773 5.22905216 144.87266827 5.4984479 C147.63336174 5.821789 150.24039242 6.51634116 152.92092037 7.23160601 C156.52184525 8.14034541 160.18095375 8.71506597 163.84206295 9.32602739 C165.09408756 9.53829973 165.09408756 9.53829973 166.3714056 9.7548604 C168.14570669 10.05535609 169.92022289 10.35458403 171.69493771 10.65262651 C174.46042271 11.11924226 177.22422484 11.59490847 179.9878149 12.07260942 C187.89859891 13.4332648 195.7951186 14.76788627 203.7600317 15.77133989 C204.85960201 15.91909868 205.95917233 16.06685747 207.09206295 16.2190938 C209.04237666 16.47387866 210.99714787 16.69750157 212.9553442 16.88217974 C216.52553369 17.36553054 219.00111105 17.79848574 221.58888912 20.4053731 C223.2194536 22.77495278 224.57480626 25.20587885 225.93581295 27.74008989 C227.19088398 29.84537033 228.45030765 31.94805962 229.7131567 34.04868364 C231.10697311 36.42085845 232.48953619 38.79954855 233.87331295 41.17758989 C234.61914482 42.45438806 235.36516029 43.73107899 236.11135006 45.00766802 C241.74020859 54.64699496 247.31223997 64.31880071 252.8694067 73.99961138 C256.68371901 80.62739452 260.59129058 87.17412712 264.7131567 93.61508989 C265.93581295 95.74008989 265.93581295 95.74008989 265.93581295 97.74008989 C264.92792721 98.05236528 263.92004147 98.36464067 262.88161373 98.68637896 C259.0969654 99.86017588 255.31401237 101.03935887 251.53151608 102.22007036 C249.90273295 102.72769704 248.27351008 103.23391521 246.64382076 103.73862505 C242.04984561 105.16191183 237.46436472 106.60731616 232.89278316 108.10111284 C231.18461858 108.65885152 229.4728557 109.20554561 227.76051998 109.7503438 C221.83960356 111.82691031 218.84621706 114.29747705 215.56081295 119.61508989 C214.96333248 120.51421099 214.96333248 120.51421099 214.3537817 121.43149614 C213.60759472 122.55933942 212.87108362 123.69371173 212.14919186 124.83725786 C211.74877682 125.46519243 211.34836178 126.093127 210.93581295 126.74008989 C210.46507225 127.75445431 209.99433155 128.76881872 209.50932598 129.81392145 C206.6830944 133.02743914 206.36548288 133.18065801 202.36748791 133.47837687 C200.42722367 133.50365022 198.48636038 133.49539356 196.54622555 133.46161699 C194.94238825 133.46930682 194.94238825 133.46930682 193.3061502 133.47715199 C189.71106873 133.48706204 186.11765456 133.45398956 182.52272701 133.42124224 C179.95074154 133.41955041 177.37875316 133.42049857 174.80676937 133.42389727 C169.26325518 133.42704429 163.72016451 133.40821076 158.17675686 133.37447023 C150.16198416 133.32571922 142.14741637 133.3100828 134.13251147 133.30254228 C121.12916642 133.28940865 108.12604713 133.24947416 95.12282467 133.19272661 C82.49100023 133.13765719 69.85923709 133.09518439 57.22731686 133.06967974 C56.4487619 133.0681034 55.67020695 133.06652706 54.86805943 133.06490295 C50.96229975 133.05707275 47.05653965 133.0494905 43.15077925 133.04203153 C10.74561967 132.9798254 -21.65923621 132.87249102 -54.06418705 132.74008989 C-54.39418705 125.15008989 -54.72418705 117.56008989 -55.06418705 109.74008989 C-60.56940923 107.90501583 -65.36536207 106.32948418 -70.9352808 105.20493364 C-72.16955814 104.95292192 -73.40383549 104.70091021 -74.67551517 104.44126177 C-75.93815189 104.18925005 -77.20078861 103.93723833 -78.50168705 103.67758989 C-79.76045658 103.42171099 -81.01922611 103.16583208 -82.31614017 102.90219927 C-85.89764309 102.17543629 -89.48053028 101.45615091 -93.06418705 100.74008989 C-96.36418705 100.08008989 -99.66418705 99.42008989 -103.06418705 98.74008989 C-103.06418705 72.01008989 -103.06418705 45.28008989 -103.06418705 17.74008989 C-86.22150901 13.24870908 -86.22150901 13.24870908 -80.4430933 12.02915239 C-79.15596439 11.75329302 -77.86883549 11.47743364 -76.54270267 11.19321489 C-75.23746724 10.91668609 -73.93212913 10.6406415 -72.62668705 10.36508989 C-70.043706 9.81963208 -67.46181736 9.27024208 -64.8805933 8.71665239 C-63.91664253 8.51540758 -63.91664253 8.51540758 -62.933218 8.31009722 C-58.94915253 7.45384291 -55.0588515 6.46210946 -51.16445255 5.26010942 C-34.12562684 0.17845261 -17.59142735 -0.1234489 0 0 Z " fill="#71A45A" transform="translate(349.0641870498657,47.259910106658936)"/>
<path d="M0 0 C1.15784657 1.46409941 1.15784657 1.46409941 2.35992527 3.32194901 C6.62855394 9.63156385 11.16152304 14.11421146 18.77122378 15.87026882 C29.76390202 17.36798897 41.03835153 16.86343258 52.09903824 16.66427779 C57.22171141 16.58878094 62.34428279 16.60104283 67.46740723 16.60276794 C76.33381681 16.59436397 85.19853252 16.53248164 94.06439018 16.43492889 C106.89994918 16.29475236 119.73456023 16.24861821 132.57080484 16.22701719 C153.42203119 16.19042096 174.27251815 16.09501996 195.12329102 15.95458984 C196.36966034 15.94621252 197.61602967 15.9378352 198.90016777 15.92920402 C203.94997204 15.89515655 208.99977507 15.86093146 214.04957664 15.82648574 C227.9484506 15.73203395 241.84737309 15.64680999 255.74633789 15.56689453 C256.99087573 15.55972124 258.23541356 15.55254795 259.51766466 15.54515728 C280.29228107 15.42693492 301.06686905 15.3525718 321.84176499 15.30604863 C334.64080086 15.27500727 347.43836248 15.20266546 360.23681951 15.07631668 C369.00925239 14.99194984 377.78133554 14.94618963 386.55415802 14.9303526 C391.61007028 14.91974289 396.66417583 14.89102817 401.71953773 14.81323814 C406.35704092 14.74212317 410.99190467 14.72282518 415.62988306 14.74285355 C417.29807791 14.74110988 418.96638903 14.72097263 420.63406949 14.67951187 C433.15556537 14.38321496 440.42605946 17.73544247 450.14213646 25.54578212 C453.31363967 28.02823391 456.66306416 30.24812562 460 32.5 C461.31332713 33.40244329 462.62592699 34.30594673 463.9375 35.2109375 C466.80618912 37.18386438 469.68241988 39.14530469 472.5625 41.1015625 C473.305 41.60751953 474.0475 42.11347656 474.8125 42.63476562 C476.24812447 43.6127848 477.68556975 44.58813765 479.125 45.56054688 C480.7676534 46.68159158 482.3866463 47.8371839 484 49 C484 49.33 484 49.66 484 50 C271.81 50 59.62 50 -159 50 C-165 30 -165 30 -167 21 C-153.08456066 18.69268422 -139.13376539 16.79062788 -125.14193726 15.01010132 C-119.16549867 14.24947877 -113.19016595 13.48027375 -107.21484375 12.7109375 C-106.05449112 12.5616832 -104.89413849 12.41242889 -103.69862366 12.25865173 C-93.81094172 10.98336334 -83.93300141 9.64835709 -74.06298828 8.24243164 C-68.33908571 7.43303383 -62.61024694 6.71360415 -56.8671875 6.0546875 C-47.86537897 5.01773863 -38.90346424 3.74457355 -29.9375 2.4375 C-27.63759696 2.10388183 -25.33760128 1.77092122 -23.03749084 1.43873596 C-21.62706555 1.23487675 -20.21676531 1.03014933 -18.80662537 0.82432556 C-16.87191468 0.54375831 -14.93595737 0.27183173 -13 0 C-11.9651799 -0.16192337 -11.9651799 -0.16192337 -10.90945435 -0.32711792 C-3.64419083 -1.3904801 -3.64419083 -1.3904801 0 0 Z " fill="#71A45B" transform="translate(201,176)"/>
<path d="M0 0 C7.48561552 5.09930925 11.96791191 12.48964225 14.2109375 21.1796875 C16.16054345 31.63666485 13.38613392 39.50146218 7.99609375 48.46484375 C2.99289422 55.57994661 -4.78977586 60.1539931 -13.31640625 61.71484375 C-25.71773563 62.88151934 -33.76151188 60.45892955 -43.30859375 52.625 C-50.15672054 46.10995331 -53.35449763 37.06039599 -53.69140625 27.71484375 C-53.35254518 18.70678688 -50.55915901 11.25616294 -44.31640625 4.71484375 C-31.28649352 -7.30163132 -15.70796349 -8.7148735 0 0 Z " fill="#676666" transform="translate(240.31640625,365.28515625)"/>
<path d="M0 0 C8.16523555 5.74374019 14.06741685 13.03393393 16 23 C16.96680273 33.66652843 14.90081678 43.56566838 8 52 C1.7628341 58.72606489 -5.06197714 62.29843092 -14.20703125 63.37890625 C-24.47756353 63.75658893 -32.44795238 61.49063058 -40.375 54.875 C-46.55172068 48.93395705 -50.60295248 41.70374027 -51.203125 33.08203125 C-51.3603018 22.11894976 -49.62909485 14.14322951 -42 6 C-30.14960547 -4.95064235 -14.71444061 -8.19678298 0 0 Z " fill="#656565" transform="translate(661,364)"/>
<path d="M0 0 C7.17968049 5.07860342 12.77836701 12.80199131 14.5234375 21.52734375 C15.68008199 31.96883305 13.34737831 42.04263826 6.8359375 50.46484375 C-0.20489955 57.77858146 -9.55132798 61.77128682 -19.6015625 62.02734375 C-29.44009735 61.87286234 -36.66994175 58.39469182 -43.9140625 51.83984375 C-51.19294379 43.78596674 -53.24187201 35.79340912 -52.828125 25.046875 C-51.83309544 15.08552354 -47.45878477 8.13758161 -40.2890625 1.27734375 C-28.30694215 -8.33988442 -12.72739489 -7.56818276 0 0 Z " fill="#656565" transform="translate(556.4765625,365.47265625)"/>
<path d="M0 0 C6.71723971 5.53184447 11.32817837 13.63182524 12.41015625 22.27734375 C12.69997951 33.07641056 9.96556839 41.68380942 3 50 C-4.47454286 57.26339758 -11.60265475 60.07958328 -21.9375 60.4375 C-32.57954845 60.14029994 -39.20699177 56.68309877 -46.8671875 49.37109375 C-49.74602648 46.17062624 -51.56358336 43.03601848 -53 39 C-53.35320312 38.05898438 -53.70640625 37.11796875 -54.0703125 36.1484375 C-56.76450636 27.02440282 -55.49803991 17.31379286 -51 9 C-38.43577009 -8.84565398 -17.95045281 -11.96696854 0 0 Z " fill="#666666" transform="translate(348,367)"/>
<path d="M0 0 C7.33316588 4.64041691 11.70797061 11.73051951 14 20 C14.98235539 30.17765875 14.42427361 39.79343608 8.3515625 48.3125 C6.65535568 50.32720854 4.8978545 52.17580652 3 54 C2.236875 54.7425 1.47375 55.485 0.6875 56.25 C-8.04358802 61.93535964 -16.64513227 63.40076254 -27 62 C-37.16704004 58.74939443 -44.95112933 52.3804923 -50 43 C-53.58005738 34.3159419 -53.62644985 22.68755172 -50.03125 13.94921875 C-46.11724511 6.55115647 -41.24211262 2.12184069 -34 -2 C-32.948125 -2.61875 -31.89625 -3.2375 -30.8125 -3.875 C-19.99573051 -7.06683362 -9.86025999 -5.12625313 0 0 Z " fill="#666666" transform="translate(451,365)"/>
<path d="M0 0 C68.64 0 137.28 0 208 0 C208 4.95 208 9.9 208 15 C182.06178848 15.30372686 156.12384352 15.53294729 130.18421173 15.67355824 C118.13978116 15.7405833 106.09645562 15.83195239 94.05273438 15.98071289 C83.55491511 16.11031702 73.05789605 16.19416285 62.55929899 16.22315043 C57.00019994 16.24009559 51.44338996 16.27988696 45.88502502 16.37449074 C40.65088275 16.46285301 35.41996744 16.48993122 30.18515015 16.47039986 C28.26616356 16.4739715 26.34706728 16.49977339 24.4287262 16.54967117 C10.29265209 16.89927423 10.29265209 16.89927423 6.41329002 13.68554091 C3.21509805 9.94500408 0 5.0306284 0 0 Z " fill="#6F9E59" transform="translate(607,106)"/>
<path d="M0 0 C0.92582886 -0.00686325 1.85165771 -0.0137265 2.80554199 -0.02079773 C5.86156619 -0.03907663 8.91707747 -0.03522619 11.97314453 -0.02954102 C14.10157437 -0.0341027 16.23000273 -0.03940823 18.35842896 -0.04542542 C22.81876611 -0.05435899 27.27892425 -0.051931 31.73925781 -0.04199219 C37.44792576 -0.03050982 43.15597448 -0.05070188 48.86456108 -0.07990932 C53.26042592 -0.09828007 57.65614268 -0.09797696 62.05203629 -0.0922718 C64.15632113 -0.09211866 66.26061606 -0.09815751 68.36486435 -0.11056328 C71.3113429 -0.12548542 74.25668146 -0.11478636 77.203125 -0.09765625 C78.50009811 -0.1121582 78.50009811 -0.1121582 79.82327271 -0.12695312 C85.60563781 -0.05676344 88.96456211 1.09140464 93.73095703 4.40405273 C95.50830078 6.43920898 95.50830078 6.43920898 96.66845703 8.46655273 C97.06935547 9.1381543 97.47025391 9.80975586 97.88330078 10.50170898 C98.73095703 12.40405273 98.73095703 12.40405273 98.73095703 15.40405273 C59.13095703 15.40405273 19.53095703 15.40405273 -21.26904297 15.40405273 C-16.37684454 3.98892307 -12.20515581 -0.06324795 0 0 Z " fill="#6FA159" transform="translate(350.26904296875,20.595947265625)"/>
<path d="M0 0 C4.55177003 9.09140201 4.74185588 19.87711268 1.96875 29.625 C-1.23459623 36.60117624 -5.74294785 41.61056713 -12 46 C-12.63035156 46.45375 -13.26070312 46.9075 -13.91015625 47.375 C-21.40511908 51.66635049 -31.67161997 51.08810182 -40 50 C-43.80692956 48.85202243 -46.81243357 47.35656662 -50 45 C-51.25103516 44.09121094 -51.25103516 44.09121094 -52.52734375 43.1640625 C-55.17706298 40.84503493 -56.82890459 38.6071059 -58.6875 35.625 C-59.26886719 34.70976562 -59.85023438 33.79453125 -60.44921875 32.8515625 C-62.83621631 28.46237303 -64 25.01337513 -64 20 C-61.70967689 19.16280617 -59.41789043 18.3301071 -57.125 17.5 C-56.47402344 17.26152344 -55.82304688 17.02304687 -55.15234375 16.77734375 C-50.2265625 15 -50.2265625 15 -48 15 C-47.89042969 15.66386719 -47.78085937 16.32773437 -47.66796875 17.01171875 C-46.46465297 23.7131115 -45.57647728 28.05449675 -39.9375 32.3125 C-35.40276352 34.65640388 -30.98519023 34.77893597 -26 34 C-21.35458487 32.46199094 -17.35613737 30.45048171 -15 26 C-13.11757725 21.54163034 -12.5691825 17.82515597 -13 13 C-14.41623241 9.74941676 -14.41623241 9.74941676 -16 7 C-16 6.34 -16 5.68 -16 5 C-14.22934889 4.35366725 -12.45847247 3.7079517 -10.6875 3.0625 C-9.70136719 2.70285156 -8.71523438 2.34320313 -7.69921875 1.97265625 C-2.2248996 0 -2.2248996 0 0 0 Z " fill="#676666" transform="translate(781,328)"/>
<path d="M0 0 C5.39795989 1.15058556 10.70987333 2.42421759 16 4 C15.67 4.78375 15.34 5.5675 15 6.375 C13.39725364 12.18495554 13.17556493 17.57249674 15.125 23.3125 C17.76013231 27.08952297 20.8324947 29.91624735 25 32 C31.58970261 32.77656428 36.87870858 32.5190823 42.34375 28.5546875 C46.72626823 24.44090859 48.14965425 19.86986239 49 14 C51.31367222 14.64185745 53.6258957 15.28827392 55.9375 15.9375 C56.59685547 16.11990234 57.25621094 16.30230469 57.93554688 16.49023438 C62.88671875 17.88671875 62.88671875 17.88671875 64 19 C63.85310765 27.07907935 60.53097258 33.10554495 55.140625 39.05078125 C47.31752128 46.35756012 38.34855588 49.41928869 27.75 49.27734375 C19.54595516 48.44994718 11.85222816 44.78805899 6 39 C3.67590614 36.15298502 1.77597959 33.21446772 0 30 C-0.34160156 29.38511719 -0.68320313 28.77023437 -1.03515625 28.13671875 C-4.19909726 21.26434456 -4.15534574 12.5549838 -2.3203125 5.3203125 C-1.5 3.125 -1.5 3.125 0 0 Z " fill="#676667" transform="translate(92,330)"/>
<path d="M0 0 C4.85935184 2.4404267 7.89919213 6.41928986 9.828125 11.38671875 C10.91343949 17.38450933 10.04775726 22.41409297 7.0390625 27.6953125 C4.5339464 31.19439402 1.8629306 33.04178355 -2.171875 34.38671875 C-7.73732991 34.87660728 -12.57868452 35.15486416 -17.671875 32.69921875 C-22.94697524 27.81975103 -25.78370365 23.76935482 -26.609375 16.57421875 C-26.47819338 11.61742738 -24.24625639 8.15450681 -21.171875 4.38671875 C-14.9768716 -1.23200526 -8.16667671 -2.30605799 0 0 Z " fill="#040304" transform="translate(651.171875,376.61328125)"/>
<path d="M0 0 C4.31633181 3.18586395 7.91120739 6.79612218 9.625 11.9375 C10.46568326 18.02644874 9.59802706 22.17752243 6.05859375 27.2109375 C2.61711748 31.35571274 -0.64067543 33.65767146 -6.046875 34.2109375 C-11.95037216 34.40572294 -16.39482635 34.49084925 -20.97265625 30.47265625 C-25.79461105 25.19402607 -27.15830874 20.81924611 -26.89453125 13.7265625 C-25.8304053 8.01388634 -22.66655011 3.63125443 -18.0390625 0.2109375 C-12.45371733 -2.45889025 -5.78957566 -1.82264419 0 0 Z " fill="#050505" transform="translate(440.375,377.0625)"/>
<path d="M0 0 C4.70740744 3.44444447 8.8788764 8.04670782 9.93359375 13.953125 C10.12382115 20.1746801 8.53142038 24.09499235 4.5625 28.875 C-0.60557973 33.67393118 -4.79690262 34.23375545 -11.64453125 34.15234375 C-15.95721013 33.72409172 -18.00119156 32.53989226 -21.4375 29.875 C-25.61618179 24.4866998 -26.85943377 20.20620425 -26.78125 13.51171875 C-26.04374472 7.85471806 -22.84392659 4.2471235 -18.875 0.375 C-12.75257897 -2.29660191 -6.30450021 -2.06329098 0 0 Z " fill="#030404" transform="translate(229.4375,377.125)"/>
<path d="M0 0 C4.30852397 2.53546884 6.88345176 5.82911946 8.625 10.5 C9.69209449 16.44928789 8.88437133 21.55555585 5.90234375 26.80859375 C3.19867665 30.38867893 -0.20989528 32.11163176 -4.375 33.5 C-9.6424928 34.00442239 -14.00679168 34.1716659 -18.8125 31.8125 C-22.78925153 28.22372423 -26.09021444 24.96598404 -26.71875 19.5234375 C-27.19252951 8.46068589 -27.19252951 8.46068589 -23.125 3.75 C-16.7398444 -2.52600764 -8.25162858 -3.54537654 0 0 Z " fill="#040404" transform="translate(546.375,377.5)"/>
<path d="M0 0 C5.11494438 1.83381446 8.98907541 5.07079458 11.37109375 9.984375 C12.88291398 14.82971189 13.02130444 19.55975209 11.046875 24.27734375 C8.08277519 29.31443742 4.66219537 33.11260154 -1 35 C-6.2674928 35.50442239 -10.63179168 35.6716659 -15.4375 33.3125 C-19.73850679 29.43110362 -22.7157278 26.22951857 -23.23828125 20.29296875 C-23.38837002 14.01293881 -23.47416284 9.8369328 -19 5 C-12.85518241 -0.41329169 -8.08473743 -0.88141874 0 0 Z " fill="#040404" transform="translate(332,376)"/>
<path d="M0 0 C8.58 0 17.16 0 26 0 C26 12.21 26 24.42 26 37 C17.42 37 8.84 37 0 37 C0 24.79 0 12.58 0 0 Z " fill="#75A760" transform="translate(827,95)"/>
<path d="M0 0 C6.93 0 13.86 0 21 0 C21 7.26 21 14.52 21 22 C14.07 22 7.14 22 0 22 C0 14.74 0 7.48 0 0 Z " fill="#74A560" transform="translate(865,102)"/>
<path d="M0 0 C2.875 0.875 2.875 0.875 4.875 2.875 C5.21990322 6.92761287 5.17663882 8.42254176 2.875 11.875 C-3.06732331 12.52325345 -3.06732331 12.52325345 -6.0625 10.6875 C-7.53859492 8.16945572 -7.61589348 6.75023324 -7.125 3.875 C-4.88889892 0.60685227 -4.01504863 -0.16060195 0 0 Z " fill="#656565" transform="translate(644.125,387.125)"/>
<path d="M0 0 C4.31868132 1.25961538 4.31868132 1.25961538 6 3.875 C6.42822025 6.72980169 6.40659584 8.21992892 4.875 10.6875 C2.12844028 12.42698782 0.18153026 12.27269128 -3 11.875 C-4.875 10.75 -4.875 10.75 -6 8.875 C-6.39704314 5.69865485 -6.49933741 3.73496999 -4.875 0.9375 C-3 -0.125 -3 -0.125 0 0 Z " fill="#636262" transform="translate(123,339.125)"/>
<path d="M0 0 C1.875 1.1875 1.875 1.1875 3 3 C2.77669287 6.64734979 2.61627165 8.38372835 0 11 C-3.10347254 11.33015665 -5.15781176 11.50531294 -7.875 9.875 C-9.54663625 7.08893958 -9.46376624 5.18011138 -9 2 C-6.13326387 -1.29143778 -4.01983549 -1.44301787 0 0 Z " fill="#666666" transform="translate(224,388)"/>
<path d="M0 0 C2.15502531 3.23253796 2.46856135 4.25150923 2 8 C0.875 9.8125 0.875 9.8125 -1 11 C-4.18153026 11.39769128 -6.12844028 11.55198782 -8.875 9.8125 C-10.40659584 7.34492892 -10.42822025 5.85480169 -10 3 C-7.66359177 -0.98563758 -4.22275562 -0.46066425 0 0 Z " fill="#686869" transform="translate(330,388)"/>
<path d="M0 0 C2.9375 0.8125 2.9375 0.8125 4.9375 2.8125 C5.25 6.3125 5.25 6.3125 4.9375 9.8125 C1.9375 11.8125 1.9375 11.8125 -1.6875 11.5625 C-2.80125 11.315 -3.915 11.0675 -5.0625 10.8125 C-6.46185013 8.01379973 -6.31515405 5.90751208 -6.0625 2.8125 C-4.31169972 -0.20276715 -3.50175349 -0.21439307 0 0 Z " fill="#636263" transform="translate(751.0625,339.1875)"/>
<path d="M0 0 C1.7325 0.1546875 1.7325 0.1546875 3.5 0.3125 C5.5 3.3125 5.5 3.3125 5.1875 6.9375 C4.5 10.3125 4.5 10.3125 3.5 11.3125 C0.0625 11.5 0.0625 11.5 -3.5 11.3125 C-5.5 9.3125 -5.5 9.3125 -5.75 5.8125 C-5.40893869 1.0376416 -4.76133169 0.4251189 0 0 Z " fill="#666665" transform="translate(537.5,387.6875)"/>
<path d="M0 0 C3.5 0.25 3.5 0.25 5.5 2.25 C5.75 5.75 5.75 5.75 5.5 9.25 C3.5 11.25 3.5 11.25 0.5625 11.5625 C-2.5 11.25 -2.5 11.25 -4.375 10.125 C-6.00531294 7.40781176 -5.83015665 5.35347254 -5.5 2.25 C-3.5 0.25 -3.5 0.25 0 0 Z " fill="#686767" transform="translate(431.5,387.75)"/>
</svg>
