<svg xmlns="http://www.w3.org/2000/svg" viewBox="0 0 32 32" fill="currentColor">
  <path d="M16 6l-8 12h16z" fill="none" stroke="currentColor" stroke-width="2"/>
  <path d="M6 20l10-2 10 2-3 5H9z"/>
  <line x1="16" y1="6" x2="16" y2="18" stroke="currentColor" stroke-width="2"/>
  <rect x="8" y="18" width="16" height="4"/>
  <path d="M4 25c2-1 4-1 6 0 2 1 4 1 6 0 2-1 4-1 6 0 2 1 4 1 6 0" fill="none" stroke="currentColor" stroke-width="1.5"/>
  <path d="M10 18v-4M14 18v-4M18 18v-4M22 18v-4" stroke="currentColor" stroke-width="1.5"/>
</svg>
