<svg version="1.1" xmlns="http://www.w3.org/2000/svg" style="display: block;" viewBox="0 0 2022 2048" width="616" height="624" preserveAspectRatio="none">
<path transform="translate(0,0)" fill="rgb(0,0,0)" d="M 745.874 0 L 840.964 0 C 855.326 8.60629 893.095 -1.24846 899.058 16.261 C 901.886 24.5663 889.816 54.5191 887.292 63.9601 C 875.471 108.173 857.318 156.26 852.692 201.963 C 903.947 224.156 939.885 258.05 969.528 303.921 C 970.046 304.723 978.031 302.18 978.965 301.883 C 982.692 303.202 988.593 305.085 991.948 306.803 C 995.844 313.586 997.809 318.459 998.699 326.249 C 1001.22 348.279 1002.97 370.704 1005.08 392.797 C 1009.1 435.271 1013.48 477.711 1018.22 520.112 C 1019.77 533.901 1028.68 568.084 1025.85 579.193 C 1024.1 586.06 1020.06 590.811 1013.91 594.212 C 1008.9 596.978 1003.12 598.493 997.683 600.179 C 998.53 618.86 1003.96 638.138 1004.96 658.579 L 1006.52 658.206 C 1020.31 654.859 1033.65 649.246 1047.3 645.309 C 1254.24 585.61 1463.19 682.586 1577.83 858.791 C 1589.1 876.112 1597.49 891.96 1607.77 909.601 C 1633.46 908.891 1677.17 908.294 1702.14 910.256 C 1716.46 877.01 1755.67 885.694 1784.45 889.093 C 1864.74 898.58 1946.4 913.625 2022 942.963 L 2022 971.056 C 2012.5 976.95 1999.84 980.579 1989.09 983.9 C 1922.01 1004.62 1851.44 1015.75 1781.59 1021.85 C 1746.77 1024.89 1720.12 1032.74 1699.53 997.627 C 1684.79 997.837 1662.13 997.338 1648.22 998.507 C 1657.69 1028.27 1666.33 1056.17 1672.68 1086.76 C 1706.59 1247.1 1684.28 1414.23 1609.49 1560.06 C 1604.66 1569.4 1599.06 1578.28 1593.59 1587.25 C 1525.78 1698.35 1430.06 1783.93 1304.68 1823.55 C 1225.51 1848.22 1141.07 1850.61 1060.63 1830.45 C 1061.8 1845.92 1062.71 1860.62 1063.16 1875.71 C 1063.48 1886.49 1062.83 1926.21 1064.65 1933.73 C 1070.61 1937.72 1088.53 1941.67 1098.02 1944.22 C 1132.1 1953.4 1192.32 1992.14 1168.65 2034.47 C 1160.67 2048.76 1134.37 2044.68 1118.86 2044.79 C 1093.59 2045.19 1068.31 2045.3 1043.03 2045.1 L 965.828 2045.06 C 955.836 2045.06 933.879 2045.6 924.642 2044.3 C 913.691 2036.35 909.395 2032.54 906.877 2018.27 C 903.144 1997.12 911.874 1970.94 908.626 1951.06 C 905.614 1935.64 899.023 1920.71 894.616 1905.63 C 887.523 1881.36 879.895 1857.3 873.138 1832.97 C 866.096 1807.61 857.369 1796.63 870.126 1771.49 C 865.627 1756.72 864.854 1734.41 860.728 1722.76 C 829.071 1696.46 785.566 1646.82 764.46 1611.96 C 746.488 1611.34 719.306 1612.85 703.116 1611.35 C 701.421 1624.34 697.041 1637.64 695.474 1650.29 C 688.45 1707.01 663.044 1758.42 645.632 1812.39 C 637.914 1836.32 628.582 1860.74 620.5 1884.63 C 614.601 1901.12 609.772 1920.2 603.398 1936.16 C 640.752 1943.67 678.41 1957.98 700.978 1990.31 C 714.608 2009.84 713.271 2044.6 684.074 2045.29 C 665.315 2045.74 645.289 2044.89 626.384 2044.85 L 531.647 2044.84 C 520.376 2044.87 510.408 2045.12 497.803 2045.01 C 478.965 2044.63 457.642 2049.16 447.083 2028.83 C 445.58 2025.94 443.697 2017.48 444.04 2014.08 C 452.674 1928.49 444.863 1841.84 451.355 1756.3 C 451.547 1753.78 461.713 1746.94 464.415 1745.1 C 475.079 1704.88 484.696 1653.01 487.279 1611.91 C 478.202 1611.83 468.825 1611.74 460.045 1611.95 C 448.651 1612.22 407.651 1615.77 410.871 1595.94 C 418.64 1548.11 424.827 1498.18 434.219 1450.7 C 415.405 1470.04 396.481 1489.28 377.447 1508.41 C 365.939 1520.09 352.153 1536.46 338.762 1545.66 C 312.637 1563.62 277.718 1572.92 247.705 1582.62 C 241.414 1584.65 234.724 1585.19 228.94 1587.13 C 211.346 1582.9 207.168 1576.51 210.504 1557.48 C 216.834 1521.36 223.277 1481.9 242.144 1450.03 C 251.319 1434.99 269.494 1418.92 281.661 1406.28 L 357.173 1327.74 L 427.761 1253.95 C 440.446 1240.52 448.95 1229.17 462.936 1216.27 C 462.71 1204.51 460.48 1187.72 461.304 1176.75 C 464.84 1129.64 459.257 1086.22 453.403 1039.42 C 440.239 1045.94 418.573 1066.37 407.705 1077.13 C 360.484 1124.46 302.081 1154.1 236.462 1124.19 C 213.293 1113.63 178.426 1084.99 169.977 1061.5 C 158.818 1030.47 139.326 1022.74 125.919 998.05 C 85.9497 996.848 40.2914 997.866 0 998.091 L 0 993.065 L 0 910.832 L 0 909.245 C 41.1808 909.332 87.25 910.312 128.035 909.002 C 134.202 898.174 136.499 890.997 147.405 882.677 C 179.349 858.308 232.09 862.594 269.316 867.441 C 275.006 868.182 286.433 875.064 295.161 876.329 C 301.694 872.659 321.796 850.296 327.325 843.733 C 327.093 839.493 319.958 823.519 317.928 818.59 C 324.377 801.97 335.139 797.682 347.154 786.102 C 400.759 734.439 465.486 704.56 539.445 696.83 C 559.317 694.753 579.797 690.846 600.183 689.926 C 603.307 678.654 605.249 668.336 607.492 656.878 C 580.539 657.28 546.581 669.658 520.918 661.69 C 519.061 657.363 517.055 653.306 514.997 649.079 C 521.466 629.714 532.315 607.901 540.098 588.508 C 546.135 573.467 549.207 561.402 554.457 546.918 C 552.341 538.331 551.461 525.537 550.104 516.27 L 539.98 448.559 C 526.968 495.361 506.515 532.277 455.683 544.917 C 430.083 551.282 396.262 556.935 372.188 543.055 C 370.463 537.828 368.771 532.403 371.373 527.165 C 375.068 519.729 386.638 515.783 392.697 510.121 C 403.573 499.96 412.429 485.122 418.177 471.499 C 432.318 437.982 435.013 403.969 437.511 368.265 C 438.207 358.314 439.503 348.352 439.79 338.382 C 440.241 322.728 439.559 306.974 440.394 291.341 C 442.117 259.089 447.532 225.279 458.004 194.644 C 492.794 92.8761 578.871 34.9765 680.364 11.8344 C 689.373 9.78028 743.147 1.56125 744.311 0.920773 C 744.841 0.629292 745.353 0.306924 745.874 0 z"/>
<path transform="translate(0,0)" fill="rgb(156,117,61)" d="M 19.7391 939.522 C 53.485 939.275 87.2323 939.284 120.978 939.547 L 120.932 969.106 C 90.2106 969.099 47.4457 967.735 17.7231 969.361 L 17.0599 968.061 C 20.2134 959.447 19.7301 948.687 19.7391 939.522 z"/>
<path transform="translate(0,0)" fill="rgb(6,9,20)" d="M 0 910.832 C 8.37041 918.164 14.6013 928.263 18.6822 938.341 C 19.0345 938.735 19.3868 939.129 19.7391 939.522 C 19.7301 948.687 20.2134 959.447 17.0599 968.061 L 17.7231 969.361 C 14.7819 972.136 7.51498 985.346 0 993.065 L 0 910.832 z"/>
<path transform="translate(0,0)" fill="rgb(156,117,61)" d="M 1144.45 662.415 C 1144.99 662.354 1145.53 662.293 1146.07 662.232 C 1258.91 656.221 1363.36 693.045 1448.97 765.138 C 1573.03 869.597 1639.08 1024.91 1651.52 1184.26 C 1655.32 1236.83 1653 1289.66 1644.6 1341.7 C 1639.06 1376.63 1631.85 1408.91 1621.09 1442.58 C 1559.61 1634.91 1405.29 1792.82 1196.75 1809.24 C 1195.85 1809.32 1194.94 1809.39 1194.03 1809.46 C 1085.29 1817.28 972.774 1776.02 890.668 1705.12 C 640.191 1488.85 623.289 1067.44 837.017 819.909 C 914.44 728.576 1025.09 671.891 1144.45 662.415 z"/>
<path transform="translate(0,0)" fill="rgb(0,0,0)" d="M 1152.68 710.42 C 1247.84 704.78 1347.43 741.468 1419.35 803.796 C 1644.6 999.012 1662.8 1384.11 1474.9 1610.39 C 1400.2 1700.35 1307.15 1750.48 1191.24 1760.74 C 1086.75 1765.06 994.975 1732.45 917.091 1663.53 C 713.161 1483.07 687.15 1142.73 826.23 917.038 C 899.707 797.803 1014.24 719.284 1152.68 710.42 z"/>
<path transform="translate(0,0)" fill="rgb(156,117,61)" d="M 1168.66 741.467 C 1256.02 741.26 1340.27 773.917 1404.68 832.952 C 1510.47 928.007 1561.85 1061.4 1569.88 1201.4 C 1581.45 1403.31 1490.25 1627.38 1292.41 1706.67 C 1254.15 1722 1216.64 1727.91 1175.7 1729.95 C 1085.53 1731.26 998.399 1697.37 932.815 1635.48 C 825.36 1535.45 777.474 1400.67 771.461 1256.03 C 761.544 1017.48 905.175 750.171 1168.66 741.467 z"/>
<path transform="translate(0,0)" fill="rgb(0,0,0)" d="M 1091.8 1112.64 C 1141.79 1082.65 1207.48 1078.24 1256.13 1113.67 C 1266.02 1120.93 1273.85 1127.04 1282.62 1135.58 C 1301.7 1160.82 1313.26 1180.38 1317.62 1212.49 C 1324.34 1261.94 1311.29 1296.1 1281.91 1334.64 C 1272.95 1343.21 1266.79 1348.77 1256.72 1356.09 C 1217.93 1379.21 1181.15 1388.59 1136.06 1377.4 C 1119.75 1373.27 1104.25 1366.46 1090.17 1357.26 C 1081.21 1350.78 1074.41 1344.83 1066.09 1337.55 C 1051.76 1320.41 1042.41 1307.87 1034.66 1286.52 C 1014.56 1231.09 1027.97 1177.78 1065.33 1133.93 C 1073.35 1125.89 1082.23 1118.75 1091.8 1112.64 z"/>
<path transform="translate(0,0)" fill="rgb(156,117,61)" d="M 1158.38 1122.75 C 1220.49 1114.83 1277.24 1158.85 1285.02 1220.98 C 1292.8 1283.12 1248.67 1339.77 1186.52 1347.42 C 1124.56 1355.04 1068.11 1311.07 1060.35 1249.12 C 1052.59 1187.18 1096.45 1130.64 1158.38 1122.75 z"/>
<path transform="translate(0,0)" fill="rgb(93,61,25)" d="M 1065.33 1133.93 C 1063.6 1128.35 1064.11 1111.08 1064.11 1104.68 L 1064.17 1049.9 L 1064.29 904.232 C 1064.34 881.915 1064.12 859.707 1064.2 837.297 C 1064.23 827.866 1067.11 819.682 1078.61 820.835 C 1084.44 821.419 1087.34 825.056 1090.56 829.587 C 1088.96 885.6 1090.33 948.74 1090.39 1005.28 L 1090.24 1072.77 C 1090.17 1084.57 1089.58 1100.06 1090.35 1111.41 L 1091.8 1112.64 C 1082.23 1118.75 1073.35 1125.89 1065.33 1133.93 z"/>
<path transform="translate(0,0)" fill="rgb(93,61,25)" d="M 1066.09 1337.55 C 1074.41 1344.83 1081.21 1350.78 1090.17 1357.26 C 1088.71 1360.02 1089.91 1381.65 1089.89 1386.43 C 1089.48 1471.12 1092.43 1556.61 1088.65 1641.04 C 1088.5 1644.42 1083.71 1648.79 1081.04 1649.8 C 1056.94 1658.91 1064.14 1589.22 1064.17 1576.83 L 1064.1 1486.74 C 1064.1 1466.16 1062.6 1346.96 1066.09 1337.55 z"/>
<path transform="translate(0,0)" fill="rgb(93,61,25)" d="M 1256.13 1113.67 C 1256.61 1113.11 1257.1 1112.55 1257.59 1111.99 C 1258.42 1030.67 1257.23 949.283 1257.65 867.933 C 1257.71 856.265 1255.6 839.46 1257.73 828.097 C 1259.27 819.825 1273.03 815.403 1278.86 822.348 C 1283.66 826.84 1283.04 831.37 1283.1 837.102 L 1283.32 1036.76 L 1283.37 1098.87 C 1283.39 1108.79 1283.89 1126.63 1282.62 1135.58 C 1273.85 1127.04 1266.02 1120.93 1256.13 1113.67 z"/>
<path transform="translate(0,0)" fill="rgb(93,61,25)" d="M 1256.72 1356.09 C 1266.79 1348.77 1272.95 1343.21 1281.91 1334.64 C 1283.04 1342.4 1282.51 1360.02 1282.51 1368.72 L 1282.67 1433.29 L 1282.83 1569.64 C 1282.77 1591.24 1282.84 1612.87 1282.62 1634.46 C 1282.58 1638.12 1282.34 1641.29 1279.96 1644.03 C 1271.82 1653.37 1263.18 1647.23 1257.2 1640.67 C 1254.93 1609.69 1259.47 1361.56 1256.72 1356.09 z"/>
<path transform="translate(0,0)" fill="rgb(93,61,25)" d="M 920.187 1262.86 C 927.528 1263.51 928.681 1264.73 934.26 1269.83 C 935.043 1302.25 934.526 1336.21 934.563 1368.79 C 934.866 1417.73 934.655 1466.67 933.928 1515.61 C 929.74 1519.88 928.915 1520.86 923.708 1523.68 C 923.321 1523.63 922.933 1523.59 922.547 1523.53 C 918.025 1522.8 913.207 1520.46 910.831 1516.34 C 907.766 1511.02 908.27 1273.75 909.688 1270.35 C 911.259 1266.59 916.771 1264.51 920.187 1262.86 z"/>
<path transform="translate(0,0)" fill="rgb(93,61,25)" d="M 1421.38 1262.8 C 1428.58 1262.41 1437.37 1265.94 1437.72 1274.19 C 1438.26 1286.8 1437.95 1299.6 1437.9 1312.25 L 1437.78 1384.16 L 1437.79 1468.03 C 1437.75 1482.81 1437.79 1498.14 1436.97 1512.92 C 1436.69 1517.85 1432.91 1520.02 1429.06 1522.88 C 1418.15 1523.5 1412.58 1519.5 1412.43 1508.31 C 1411.76 1459.43 1412.28 1410.52 1412.32 1361.63 L 1412.38 1304 C 1412.4 1295.03 1412.02 1278.58 1413.26 1270.16 C 1415.25 1266.55 1417.95 1265.19 1421.38 1262.8 z"/>
<path transform="translate(0,0)" fill="rgb(93,61,25)" d="M 1423.29 931.943 C 1424.77 932.046 1426.73 932.202 1428.14 932.564 C 1431.83 933.525 1434.98 935.944 1436.85 939.267 C 1437.83 940.993 1438.03 944.909 1438.04 946.949 C 1438.15 1018.94 1437.81 1090.94 1437.95 1162.93 C 1437.97 1168.76 1438.26 1175.33 1437.28 1180.77 C 1436.63 1184.43 1429.09 1187.79 1426.5 1189.05 C 1416.51 1188.14 1412.46 1183.71 1412.51 1173.86 C 1412.85 1095.58 1411.12 1016.9 1413.59 938.772 C 1413.68 936.088 1421.34 932.811 1423.29 931.943 z"/>
<path transform="translate(0,0)" fill="rgb(93,61,25)" d="M 917.005 933.03 C 918.08 932.927 919.159 932.882 920.238 932.894 C 927.241 932.899 929.066 935.505 933.93 940.336 C 934.792 952.486 934.183 975.035 934.216 987.877 L 934.424 1077.79 L 934.2 1145.02 C 934.147 1156.08 934.265 1167.74 933.732 1178.78 C 933.514 1183.29 928.424 1186.59 925.026 1189.13 C 923.647 1189.15 922.267 1189.09 920.894 1188.97 C 913.028 1188.28 908.744 1182.75 908.746 1175.08 C 908.765 1097.38 908.495 1019.57 908.983 941.911 C 909.007 937.998 914.243 934.866 917.005 933.03 z"/>
<path transform="translate(0,0)" fill="rgb(93,61,25)" d="M 1490.81 1107.92 C 1512.08 1108.93 1506.99 1127.92 1506.83 1144.11 L 1506.69 1185.58 L 1506.72 1336 C 1503.65 1340.51 1501.83 1342.4 1497.23 1345.15 C 1488.16 1344.68 1487.51 1343.23 1481.14 1336.63 C 1479.65 1280.18 1481.83 1223.07 1480.68 1166.55 C 1480.34 1149.76 1480.27 1131.87 1481.14 1115.17 C 1484.62 1112.05 1486.97 1110.52 1490.81 1107.92 z"/>
<path transform="translate(0,0)" fill="rgb(93,61,25)" d="M 851.424 1108.03 C 858.371 1108.78 859.924 1111.02 864.949 1115.87 C 866.08 1132.93 865.869 1333.84 864.288 1336.87 C 862.315 1340.65 858.481 1342.37 854.804 1344.09 C 853.088 1344.05 851.253 1344.02 849.581 1343.61 C 845.971 1342.72 842.721 1340.2 841.015 1336.91 C 838.074 1331.25 839.563 1140.86 839.947 1123.51 C 840.004 1120.94 839.782 1116.7 841.12 1114.52 C 843.451 1110.72 847.446 1109.45 851.424 1108.03 z"/>
<path transform="translate(0,0)" fill="rgb(93,61,25)" d="M 1169.8 768.91 C 1171.07 768.828 1172.34 768.809 1173.61 768.854 C 1179.97 769.065 1181.67 771.695 1186.02 776.251 C 1187.27 794.715 1186.2 825.025 1186.53 844.51 C 1186.83 861.809 1187.75 896.909 1186.27 912.774 C 1181.9 917.035 1181.1 917.951 1175.68 920.785 C 1174.62 920.607 1173.56 920.41 1172.5 920.195 C 1163.73 918.345 1160.41 913.849 1160.47 904.993 C 1160.77 862.493 1159.48 819.632 1161.15 777.232 C 1161.28 773.981 1167.45 770.393 1169.8 768.91 z"/>
<path transform="translate(0,0)" fill="rgb(93,61,25)" d="M 1169.24 1549.82 C 1178.84 1550.38 1185.63 1553.77 1185.51 1564.28 C 1185.04 1606.51 1186.7 1648.94 1185.24 1691.12 C 1185.12 1694.62 1180.68 1697.1 1178.04 1698.96 C 1166.57 1699.88 1160.3 1696.42 1160.32 1683.91 C 1160.39 1642.1 1159.16 1600.04 1160.35 1558.29 C 1160.44 1555.07 1166.93 1551.33 1169.24 1549.82 z"/>
<path transform="translate(0,0)" fill="rgb(93,61,25)" d="M 997.396 870.91 C 1006 870.08 1008.7 872.86 1014.35 879.022 C 1014.24 914.521 1014.56 964.953 1013.34 1001.27 C 1013.22 1004.59 1008.04 1007.27 1005.07 1008.88 C 993.507 1009.45 988.593 1004.81 988.498 993.251 C 988.184 955.414 987.624 917.313 988.86 879.508 C 988.987 875.633 994.493 872.707 997.396 870.91 z"/>
<path transform="translate(0,0)" fill="rgb(93,61,25)" d="M 1343.09 869.91 C 1362.37 871.111 1359.08 884.435 1358.89 899.709 C 1358.49 932.517 1359.43 965.496 1358.23 998.216 C 1358.09 1001.98 1351.79 1005.52 1349.03 1006.97 C 1339.24 1006.65 1333.32 1004.02 1333.29 993.049 C 1333.2 954.939 1331.77 916.367 1333.81 878.362 C 1333.99 874.842 1340.55 871.418 1343.09 869.91 z"/>
<path transform="translate(0,0)" fill="rgb(93,61,25)" d="M 997.302 1469.01 C 1003.71 1468.45 1013.23 1470.76 1013.49 1478.39 C 1014.79 1516.86 1014.3 1555.83 1013.58 1594.32 C 1013.5 1598.67 1007.95 1601.9 1004.8 1603.86 C 1002.92 1603.95 1001.17 1603.92 999.32 1603.55 C 995.933 1602.86 992.224 1601.19 990.566 1597.97 C 987.18 1591.39 986.959 1485.31 989.136 1476.89 C 990.194 1472.8 993.961 1471.07 997.302 1469.01 z"/>
<path transform="translate(0,0)" fill="rgb(93,61,25)" d="M 1342.25 1467.94 C 1348.57 1468 1357.95 1470.59 1357.92 1478.34 C 1357.79 1516.96 1359.37 1555.92 1357.56 1594.44 C 1357.41 1597.59 1350.22 1601.39 1347.76 1602.77 C 1346.91 1602.73 1346.05 1602.66 1345.2 1602.56 C 1328.4 1600.5 1332.33 1577.67 1332.25 1564.47 C 1332.08 1535.4 1332.08 1505.96 1333.36 1476.96 C 1333.54 1473.09 1339.35 1469.86 1342.25 1467.94 z"/>
<path transform="translate(0,0)" fill="rgb(156,117,61)" d="M 969.557 339.985 C 970.729 341.579 979.944 449.611 981.439 461.653 C 985.821 496.954 989.628 534.68 996.175 570.372 C 991.509 572.157 984.309 574.149 979.381 575.646 C 973.713 551.394 969.944 451.078 959.937 438.796 C 957.299 435.558 953.176 432.533 948.913 432.238 C 934.849 431.262 833.276 444.603 824.679 452.945 C 814.24 463.076 813.174 501.382 812.909 515.915 C 812.61 532.317 818.323 544.181 829.623 555.66 C 858.747 585.245 893.648 588.589 932.921 589.059 C 935.96 620.485 933.853 660.213 936.148 693.381 C 920.388 702.81 904.842 711.764 890.656 723.523 C 852.064 695.945 807.037 659.406 770.281 628.981 C 769.403 618.4 769.616 599.002 769.63 587.799 L 769.685 522.4 C 769.665 510.191 770.613 496.964 768.879 484.862 C 768.423 481.679 767.776 478.704 764.774 476.956 C 759.462 473.865 751.393 475.101 745.659 476.106 C 732.68 478.383 699.05 485.194 689.543 493.417 C 674.677 506.277 689.609 580.208 666.637 612.576 L 665.846 613.672 C 648.164 621.817 574.928 630.973 553.092 633.526 C 561.144 617.652 581.326 567.558 582.264 551.353 C 583.93 522.587 573.59 477.59 569.483 447.624 C 714.693 450.732 847.453 421.074 969.557 339.985 z"/>
<path transform="translate(0,0)" fill="rgb(124,83,56)" d="M 654.615 1286.75 C 655.939 1288.06 658.76 1323.86 659.347 1328.79 C 661.24 1343.88 663.602 1358.91 666.43 1373.86 C 676.571 1425.69 692.629 1476.19 714.29 1524.35 C 723.276 1544 733.874 1562.04 742.396 1580.81 C 720.445 1580.02 692.294 1580.81 669.96 1580.77 L 519.25 1580.72 C 494.377 1580.89 469.503 1580.9 444.63 1580.75 C 453.971 1526.51 461.655 1468.59 469.969 1414.02 C 496.989 1384.1 528.361 1356.43 555.833 1326.75 C 565.343 1316.47 576.249 1305.62 586.478 1296.11 C 589.07 1298.64 591.744 1301.07 594.497 1303.42 C 620.521 1325.71 638.059 1307.28 654.615 1286.75 z"/>
<path transform="translate(0,0)" fill="rgb(156,117,61)" d="M 753.362 216.381 C 832.736 208.091 903.395 254.362 943.806 320.246 C 925.771 330.228 909.72 340.555 890.783 350.099 C 842.595 374.385 795.272 389.912 743.037 402.15 C 684.883 414.261 625.461 419.17 566.108 416.764 C 568.664 307.268 643.87 225.898 753.362 216.381 z"/>
<path transform="translate(0,0)" fill="rgb(181,145,91)" d="M 761.875 253.424 C 792.647 252.912 823.046 260.217 850.226 274.655 C 856.927 278.143 862.816 281.697 868.819 286.268 C 886.542 299.762 886.188 318.983 862.782 325.092 C 854.807 323.077 842.532 313.773 834.782 309.134 C 825.941 303.868 816.575 299.538 806.836 296.213 C 798.352 293.364 775.26 289.186 766.333 289.379 C 735.708 290.043 730.884 255.442 761.875 253.424 z"/>
<path transform="translate(0,0)" fill="rgb(146,45,44)" d="M 783.515 29.464 C 808.068 29.1114 841.001 30.6515 865.205 34.0044 C 853.549 66.9632 844.942 99.3461 835.867 133.018 C 806.685 125.113 765.765 124.356 735.989 128.192 C 626.858 142.254 518.863 214.858 518.127 334.949 C 517.824 384.498 520.068 450.718 488.46 491.152 C 468.51 512.337 452.988 516.798 424.518 519.936 C 435.081 503.464 444.926 486.772 450.798 468.15 C 488.025 350.1 439.097 223.401 535.338 122.693 C 599.791 55.25 692.81 31.9217 783.515 29.464 z"/>
<path transform="translate(0,0)" fill="rgb(124,83,56)" d="M 604.514 720.39 C 609.756 720.147 626.286 739.323 631.805 744.38 C 659.974 770.192 700.046 803.793 737.483 812.241 C 770.609 813.185 804.355 783.519 829.825 765.05 C 837.995 759.126 855.567 737.809 862.967 739.356 L 863.677 740.696 C 863.299 742.794 862.212 745.601 860.539 747.025 C 822.099 779.759 792.207 816.812 763.818 858.383 C 752.875 874.794 742.393 891.419 733.832 909.211 C 704.147 908.3 671.291 908.954 641.437 908.989 L 477.857 909.176 C 477.157 854.08 484.75 789.768 497.079 735.762 C 523.756 727.865 576.963 722.824 604.514 720.39 z"/>
<path transform="translate(0,0)" fill="rgb(124,83,56)" d="M 463.878 1260.72 C 472.584 1266.67 512.607 1305.87 522.487 1315.28 C 501.367 1334.75 476.746 1361.19 456.588 1382.17 L 374.997 1465.86 C 358.405 1482.77 340.49 1502.96 322.568 1518.05 C 314.763 1524.63 296.736 1531.85 286.923 1535.99 C 272.964 1541.51 257.9 1546.68 243.732 1551.68 C 249.345 1523.06 255.392 1480.61 274.825 1459.33 C 298.375 1433.54 323.689 1407.42 347.949 1382.28 L 463.878 1260.72 z"/>
<path transform="translate(0,0)" fill="rgb(156,117,61)" d="M 648.857 1701.11 L 649.403 1701.49 C 649.635 1701.97 649.866 1702.45 650.098 1702.93 C 629.104 1766.73 593.005 1867.46 572.473 1927.15 L 480.191 1926.77 L 479.276 1926.09 C 478.116 1921.93 478.673 1887.02 478.693 1880.74 L 479.064 1773.54 C 486.411 1769.78 494.957 1765.96 502.589 1762.85 C 551.557 1742.9 599.979 1721.17 648.857 1701.11 z"/>
<path transform="translate(0,0)" fill="rgb(243,198,156)" d="M 702.869 607.216 C 714.087 613.738 728.662 620.103 740.553 625.633 C 740.219 634.986 739.696 640.367 746.598 647.657 C 756.228 657.578 767.754 666.18 778.623 674.764 C 796.964 689.249 815.556 704.518 834.69 717.918 C 813.803 740.131 785.127 762.379 757.829 776.004 C 753.233 778.296 746.864 780.418 741.941 782.238 C 701.124 767.562 660.104 729.877 630.024 699.344 C 632.979 683.623 635.366 667.038 637.879 651.183 C 674.095 645.071 689.476 645.616 702.869 607.216 z"/>
<path transform="translate(0,0)" fill="rgb(124,83,56)" d="M 480.088 999.336 L 694.084 998.957 L 681.458 1037.37 C 656.13 1019.75 628.982 1020.5 610.913 1049.6 C 607.612 1054.92 606.242 1061.41 605.566 1067.61 C 605.986 1076.83 608.103 1084.32 612.861 1092.23 C 593.517 1112.89 574.052 1132.51 554.714 1153.49 C 534.366 1132.89 520.353 1114.26 491.466 1131.46 C 490.865 1089.4 484.652 1041.45 480.088 999.336 z"/>
<path transform="translate(0,0)" fill="rgb(156,117,61)" d="M 919.536 1769.77 C 922.931 1770.61 948.935 1787.51 955.216 1790.65 C 979.386 1802.74 1003.95 1814.28 1029.93 1821.93 C 1029.75 1856.15 1032.81 1892.54 1033.1 1927.27 L 1011.25 1927 C 985.435 1926.75 959.185 1927.09 933.323 1927.1 C 919.979 1888.1 906.537 1835.38 894.277 1794.5 C 902.469 1786.37 910.681 1776.93 919.536 1769.77 z"/>
<path transform="translate(0,0)" fill="rgb(243,198,156)" d="M 201.897 895.401 C 228.719 893.166 294.752 888.476 295.081 929.392 C 295.436 973.546 306.541 1009.85 248.533 1012.93 C 218.549 1013.13 155.179 1021.08 152.431 976.313 C 149.65 931.025 147.381 901.127 201.897 895.401 z"/>
<path transform="translate(0,0)" fill="rgb(243,198,156)" d="M 321.23 999.175 L 390.646 999.428 L 405.688 1033.89 C 363.218 1071.82 340.542 1109.72 277.753 1104.94 C 275.105 1104.58 272.473 1104.11 269.865 1103.52 C 233.248 1095.41 212.553 1073.28 193.235 1043.12 C 239.628 1043.21 301.851 1053.56 321.23 999.175 z"/>
<path transform="translate(0,0)" fill="rgb(153,152,152)" d="M 1736.1 916.182 C 1743.94 915.04 1766.09 917.432 1774.61 918.456 C 1835.68 925.79 1912.53 936.795 1970.23 957.133 C 1956.39 961.926 1940.71 965.628 1926.42 968.804 C 1897.33 977.256 1761.32 998.383 1736.3 992.54 C 1731.07 991.319 1727.12 987.811 1724.38 983.27 C 1717.13 971.274 1717.7 948.069 1720.98 934.854 C 1723.21 925.869 1728.29 920.737 1736.1 916.182 z"/>
<path transform="translate(0,0)" fill="rgb(243,198,156)" d="M 519.281 1612.18 C 568.548 1612.2 620.939 1611.45 669.906 1612.81 C 666.365 1629.16 663.028 1645.55 659.897 1661.99 C 641.006 1669.42 623.83 1676.15 605.253 1684.43 L 500.944 1729.72 C 510.071 1685.58 514.286 1656.39 519.281 1612.18 z"/>
<path transform="translate(0,0)" fill="rgb(156,117,61)" d="M 364.413 939.518 C 423.977 938.883 483.544 938.754 543.109 939.13 C 599.782 938.994 661.54 937.805 717.996 939.513 C 713.541 949.275 709.343 959.153 705.407 969.135 L 675.75 969.052 C 559.984 969.063 441.359 970.496 325.845 969.093 L 326.11 939.977 C 338.584 939.529 351.865 939.622 364.413 939.518 z"/>
<path transform="translate(0,0)" fill="rgb(124,83,56)" d="M 460.934 746.172 C 462.045 747.986 453.634 801.325 452.869 807.921 C 449.064 841.687 446.887 875.616 446.346 909.591 L 387.092 909.937 C 384.187 902.257 380.534 893.909 377.38 886.251 C 368.853 865.157 360.469 844.006 352.227 822.8 C 383.226 790.537 420.129 764.524 460.934 746.172 z"/>
<path transform="translate(0,0)" fill="rgb(156,117,61)" d="M 754.91 156.416 C 776.952 153.769 807.834 156.895 829.21 161.592 L 824.004 192.349 C 797.219 184.388 756.43 184.431 729.162 189.208 C 663.482 200.717 612.791 231.942 574.352 285.868 C 558.464 309.286 557.631 318.682 547.375 342.086 C 552.253 300.467 556.544 268.527 585.696 235.744 C 629.128 186.902 691.225 161.721 754.91 156.416 z"/>
<path transform="translate(0,0)" fill="rgb(243,198,156)" d="M 935.72 463.436 C 937.462 465.895 945.762 550.213 946.377 559.169 C 917.407 559.734 891.938 560.147 866.427 545.612 C 855.946 538.993 850.214 533.33 842.764 523.668 C 842.991 512.038 844.408 487.749 846.265 476.801 C 861.485 472.082 917.905 465.169 935.72 463.436 z"/>
<path transform="translate(0,0)" fill="rgb(0,0,0)" d="M 889.321 484.372 C 896.563 484.129 916.299 482.23 920.892 487.159 C 922.855 491.637 922.624 494.763 921.399 499.466 C 918.357 511.139 916.764 519.337 906.114 525.962 C 905.444 526.131 904.771 526.289 904.095 526.435 C 891.751 529.052 882.388 520.671 877.57 510.232 C 869.308 492.328 870.011 486.294 889.321 484.372 z"/>
<path transform="translate(0,0)" fill="rgb(243,198,156)" d="M 478.538 1957.78 C 505.295 1957.47 532.437 1958.01 559.353 1957.79 C 548.269 1968.26 541.2 1980.56 535.958 1994.71 C 533.696 2001.31 532.434 2007.23 530.878 2014.02 C 511.999 2014.14 493.118 2014.14 474.239 2014.02 C 474.596 1998.27 477.246 1974.22 478.538 1957.78 z"/>
<path transform="translate(0,0)" fill="rgb(243,198,156)" d="M 944.454 1958.46 L 1019.85 1957.91 C 1007.61 1970.57 1001.31 1981.32 996.652 1998.25 C 995.538 2003.23 994.602 2009.13 993.677 2014.22 C 975.105 2014.3 956.533 2014.22 937.963 2013.99 C 937.984 2006.62 939.298 1962.5 941.748 1958.95 L 944.454 1958.46 z"/>
<path transform="translate(0,0)" fill="rgb(156,117,61)" d="M 510.149 1155.62 C 510.582 1155.61 511.019 1155.53 511.446 1155.6 C 514.135 1156.01 621.388 1257.65 630.081 1268.31 C 625.758 1274.82 623.565 1277.33 617.554 1282.01 C 617.332 1282 617.107 1282.02 616.889 1281.98 C 612.111 1281.13 506.094 1179.34 498.355 1167.2 C 502.569 1161.47 504.417 1159.75 510.149 1155.62 z"/>
<path transform="translate(0,0)" fill="rgb(181,145,91)" d="M 636.441 1114.62 C 643.362 1115.96 653.655 1127.99 657.991 1133.39 C 653.76 1139.48 607.658 1191.86 601.834 1196.31 C 596.137 1190.25 583.962 1180.09 577.092 1173.37 C 597.249 1154.45 616.767 1132.23 636.441 1114.62 z"/>
<path transform="translate(0,0)" fill="rgb(154,114,70)" d="M 502.711 1218.61 C 509.964 1222.43 553.508 1266.04 562.621 1274.72 C 556.636 1280.95 550.616 1287.15 544.561 1293.31 C 535.656 1288.51 494.089 1247.74 483.779 1238.24 C 489.957 1232.26 496.689 1224.89 502.711 1218.61 z"/>
<path transform="translate(0,0)" fill="rgb(243,198,156)" d="M 736.846 509.19 L 739.225 509.552 C 741.033 515.266 740.311 583.388 740.103 592.575 L 723.642 584.425 C 719.116 582.077 714.168 579.144 709.682 576.606 C 710.673 556.989 711.065 535.238 712.953 515.97 C 721.52 513.214 728.114 511.251 736.846 509.19 z"/>
<path transform="translate(0,0)" fill="rgb(156,117,61)" d="M 1628.61 939.49 C 1649.07 939.228 1669.53 939.362 1689.98 939.891 C 1689.74 945.871 1690.84 964.27 1688.65 968.536 L 1686.25 969.016 C 1669.8 968.827 1653.35 968.783 1636.9 968.886 C 1634.5 963.235 1623.96 944.312 1625.24 940.035 L 1628.61 939.49 z"/>
<path transform="translate(0,0)" fill="rgb(243,198,156)" d="M 1056.66 1967.99 C 1068.5 1967.48 1075.01 1969.35 1086.43 1971.87 C 1077.92 1980.2 1074.28 1984.36 1067.79 1994.31 C 1064.15 1999.91 1060.84 2012.16 1057.98 2013.99 C 1047.24 2014 1036.5 2013.89 1025.76 2013.65 C 1031.42 1992.44 1038.45 1980.28 1056.66 1967.99 z"/>
<path transform="translate(0,0)" fill="rgb(243,198,156)" d="M 596.167 1966.96 C 607.813 1967.35 611.312 1968.24 622.34 1972.16 C 612.138 1980.87 606.734 1989.33 600.873 2001.32 C 599.398 2004.34 596.465 2011.96 594.45 2013.96 L 591.25 2013.94 L 564.066 2013.88 C 564.25 2013.03 564.444 2012.19 564.648 2011.34 C 569.324 1992.14 579.217 1977.24 596.167 1966.96 z"/>
<path transform="translate(0,0)" fill="rgb(156,117,61)" d="M 647.84 1057.1 C 660.572 1056.77 665.192 1064.18 672.782 1073.13 C 672.152 1075.6 666.294 1098.61 666.045 1099.25 L 665.074 1098.91 C 656.142 1090.3 619.313 1067.34 647.84 1057.1 z"/>
<path transform="translate(0,0)" fill="rgb(243,198,156)" d="M 1118.23 1986.86 C 1128.55 1989.26 1139.02 2004.78 1143.63 2013.85 L 1118.75 2013.87 L 1092.85 2013.82 C 1100.06 2000.7 1105.81 1994.98 1118.23 1986.86 z"/>
<path transform="translate(0,0)" fill="rgb(243,198,156)" d="M 654.886 1986.84 C 664.919 1990.44 675.061 2004.29 679.984 2013.51 L 654.787 2013.6 L 629.052 2013.66 C 637.61 1999.52 641.019 1996.43 654.886 1986.84 z"/>
<path transform="translate(0,0)" fill="rgb(243,198,156)" d="M 339.293 875.731 C 342.603 877.556 352.053 904.303 354.215 909.88 L 335.056 909.208 L 321.846 909.267 L 317.171 899.64 C 324.382 891.366 331.213 883.174 339.293 875.731 z"/>
<path transform="translate(0,0)" fill="rgb(156,117,61)" d="M 963.668 609.071 L 967.023 606.702 C 970.228 624.515 976.49 655.012 977.439 672.172 C 973.494 673.755 968.933 675.453 965.106 677.169 L 963.668 609.071 z"/>
<path transform="translate(0,0)" fill="rgb(124,83,56)" d="M 428.79 999.57 C 435.265 999.127 444.284 997.255 448.925 1002.27 L 448.632 1004.71 C 446.078 1008.61 443.735 1009.59 439.795 1012.03 L 432.245 1016.28 C 429.798 1011.82 425.163 1004.79 425.726 1000.13 L 428.79 999.57 z"/>
<path transform="translate(0,0)" fill="rgb(124,83,56)" d="M 637.165 1231.18 L 655.044 1231.04 C 655.002 1236.77 654.335 1242.73 653.829 1248.46 L 652.555 1248.42 C 647.311 1242.78 642.179 1237.03 637.165 1231.18 z"/>
<path transform="translate(0,0)" fill="rgb(154,114,70)" d="M 963.731 590.33 C 965.138 595.723 966.027 601.214 967.023 606.702 L 963.668 609.071 C 963.434 602.255 963.436 597.14 963.731 590.33 z"/>
</svg>